<?xml version="1.0" standalone="no"?>
<!DOCTYPE svg PUBLIC "-//W3C//DTD SVG 20010904//EN"
 "http://www.w3.org/TR/2001/REC-SVG-20010904/DTD/svg10.dtd">
<svg version="1.0" xmlns="http://www.w3.org/2000/svg"
 width="260.000000pt" height="260.000000pt" viewBox="0 0 260.000000 260.000000"
 preserveAspectRatio="xMidYMid meet">
<metadata>
Created by potrace 1.11, written by Peter Selinger 2001-2013
</metadata>
<g transform="translate(0.000000,260.000000) scale(0.100000,-0.100000)"
fill="#000000" stroke="none">
<path d="M1232 2168 c-7 -7 -12 -18 -12 -25 0 -19 -69 -17 -76 2 -8 19 -24 19
-97 -2 -51 -14 -58 -19 -55 -37 4 -19 0 -21 -35 -17 -29 2 -44 -2 -63 -20 -13
-12 -24 -28 -24 -34 0 -6 -26 -30 -59 -52 -32 -23 -92 -79 -132 -124 -41 -45
-94 -102 -119 -126 -38 -37 -45 -49 -44 -81 1 -35 -1 -38 -22 -34 -20 4 -25
-3 -43 -63 -26 -82 -26 -82 -1 -90 16 -5 18 -12 14 -38 -4 -18 -17 -41 -30
-52 -19 -17 -24 -30 -24 -71 0 -41 5 -54 25 -72 31 -27 34 -76 6 -92 -21 -11
-20 -20 6 -102 12 -40 19 -48 39 -48 19 0 24 -5 24 -25 0 -27 19 -75 30 -75 4
0 21 -23 38 -50 29 -47 30 -50 11 -50 -26 0 -23 -8 26 -70 37 -47 40 -48 50
-29 l11 20 19 -21 c16 -17 16 -20 2 -20 -33 0 -25 -20 24 -61 48 -40 52 -42
64 -25 12 16 17 15 64 -18 28 -20 69 -43 91 -52 26 -10 40 -23 40 -34 0 -24
16 -35 77 -53 49 -15 52 -14 69 4 9 10 24 19 33 19 12 0 9 -6 -9 -19 l-25 -19
25 -6 c14 -2 42 -7 64 -10 l39 -5 -23 24 c-13 14 -19 25 -13 25 5 0 18 -9 28
-20 24 -27 86 -27 110 0 10 11 24 20 32 20 8 0 2 -10 -14 -25 l-28 -24 40 5
c22 3 51 8 65 10 l25 6 -24 12 c-16 9 -20 16 -12 20 7 4 20 -2 30 -15 l18 -23
49 25 c27 14 56 37 64 52 13 24 13 28 -7 49 -11 13 -30 41 -41 63 -12 22 -76
105 -143 185 -383 455 -379 450 -379 504 0 54 12 70 266 375 177 212 201 237
215 225 14 -12 18 -12 32 4 21 23 22 38 3 49 -11 6 -8 17 15 53 23 35 29 40
29 23 0 -30 16 -38 24 -10 10 38 7 57 -10 57 -10 0 -13 6 -10 18 7 21 -12 41
-61 66 -42 21 -64 20 -70 -2 -7 -28 -71 -17 -85 14 -10 22 -18 24 -73 24 -34
0 -66 -5 -73 -12z"/>
<path d="M742 1982 c-37 -31 -41 -42 -11 -35 19 5 56 49 48 58 -2 2 -19 -9
-37 -23z"/>
<path d="M626 1870 c-18 -22 -24 -36 -16 -38 18 -6 53 32 48 54 -2 15 -8 12
-32 -16z"/>
<path d="M1851 1814 c-12 -15 -21 -30 -21 -35 0 -4 -125 -96 -277 -203 -153
-108 -301 -218 -329 -244 l-52 -48 55 -48 c29 -26 177 -135 328 -241 150 -106
286 -202 301 -214 15 -11 35 -21 45 -21 9 0 25 -8 35 -17 16 -16 19 -16 52 4
49 28 54 47 12 41 -29 -4 -31 -3 -16 8 32 23 96 118 107 156 5 21 14 36 19 33
21 -13 39 11 56 72 17 64 17 66 -2 80 -20 15 -21 67 -2 91 18 21 28 13 17 -12
-10 -21 -5 -86 5 -75 2 2 7 48 11 101 6 95 6 98 -19 123 -32 32 -45 92 -22
101 20 8 20 26 1 92 -14 44 -19 52 -40 52 -22 0 -25 4 -25 36 0 26 -7 43 -28
62 -16 15 -54 51 -84 80 -63 60 -95 67 -127 26z"/>
<path d="M422 1420 c0 -14 2 -19 5 -12 2 6 2 18 0 25 -3 6 -5 1 -5 -13z"/>
<path d="M2182 1410 c0 -14 2 -19 5 -12 2 6 2 18 0 25 -3 6 -5 1 -5 -13z"/>
<path d="M410 1210 c0 -8 5 -22 10 -30 9 -13 10 -13 10 0 0 8 -5 22 -10 30 -9
13 -10 13 -10 0z"/>
<path d="M500 897 c0 -4 9 -21 20 -39 16 -27 20 -29 20 -12 0 11 -9 29 -20 39
-11 10 -20 15 -20 12z"/>
<path d="M2080 882 c-14 -11 -21 -26 -18 -40 3 -19 6 -17 26 18 25 45 24 48
-8 22z"/>
<path d="M1512 698 c2 -6 10 -14 16 -16 7 -2 10 2 6 12 -7 18 -28 22 -22 4z"/>
<path d="M1590 589 c0 -8 7 -24 16 -35 14 -18 15 -18 8 6 -8 31 -24 50 -24 29z"/>
<path d="M825 534 c11 -9 33 -22 48 -30 27 -15 28 -14 17 5 -12 24 -41 41 -67
41 -17 -1 -16 -2 2 -16z"/>
</g>
</svg>
