<svg id="Layer_1" data-name="Layer 1" xmlns="http://www.w3.org/2000/svg" xmlns:xlink="http://www.w3.org/1999/xlink" viewBox="0 0 1160 836.56"><defs><style>.cls-1{fill:none;}.cls-2{clip-path:url(#clip-path);}.cls-3{fill:#06f;}.cls-4{fill:#fff;}.cls-5{clip-path:url(#clip-path-2);}</style><clipPath id="clip-path"><rect class="cls-1" y="-10.9" width="788.67" height="864.73"/></clipPath><clipPath id="clip-path-2"><rect class="cls-1" x="580" y="-10.9" width="580" height="893.9"/></clipPath></defs><title>BlueDripping</title><g class="cls-2"><path class="cls-3" d="M225.76,709.69c0,4.54-1.14,11.91-9.64,11.34-3.4,0-6.24-2.27-7.37-6.24-0.57-1.71-.57-4.54-0.57-7.38a4.88,4.88,0,0,0-2.84-4.54c-1.7-2.27-1.7-2.27-5.67-4.54h-1.14a0.56,0.56,0,0,0-.57-0.57c-0.56,0-1.7-.56-2.27-0.56a3,3,0,0,0-1.7-1.14c-4-1.13-9.64-1.13-14.74-1.13a63.52,63.52,0,0,0-11.34,1.13,18.83,18.83,0,0,0-6.81,2.84c-0.57,0-1.14.56-1.7,0.56-0.57.57-1.7,1.14-2.27,1.71a6,6,0,0,1-2.84,1.13,0.56,0.56,0,0,0-.57.57c-1.13.57-1.7,0.57-2.27,1.13a2.07,2.07,0,0,1-1.7.57l-3.4,1.7c-1.14.57-2.84,1.14-4,1.71a0.55,0.55,0,0,0-.56.56c-1.14.57-1.71,0.57-2.84,1.14a53.56,53.56,0,0,0-10.21,6.24c-1.71,1.14-2.84,3.41-4,5.11-1.13.57-1.13,6.24-1.7,7.37-1.13,4-4.54,9.65-11.34,9.65a16,16,0,0,1-11.34-3.4,7.76,7.76,0,0,0-5.67-2.84,14.62,14.62,0,0,0-5.67,2.27,26.67,26.67,0,0,0-5.68,5.67c-1.13,2.27-.57,5.11-0.57,8.51A98.34,98.34,0,0,0,84,770.94c0.57,4.54,2.27,9.64,2.27,14.75,0,2.27,0,5.1-1.14,6.81l-2.27,2.27c-3.4,2.27-6.81,1.7-9.64,0-5.68-4-4-10.21-2.84-17,0.57-4.54,1.7-9.07,2.27-13.61,1.13-8.51.57-18.15-2.84-23.82s-11.34-9.07-22.12-7.37c-4,.57-6.81,2.27-10.21,4s-7.38,2.83-9.64,4.54c-1.13,1.13-2.84,1.7-4,2.83a31.4,31.4,0,0,0-4.54,3.41c-0.57,1.13-1.14,1.13-1.7,1.7a1.14,1.14,0,0,1-.57,1.14c-0.57,0-1.14,1.7-1.7,1.7l-0.57.57a28,28,0,0,0-5.68,8.5c-2.26,5.67-2.83,1.7-3.4,8.51-0.57,3.4-.57,0-0.57,3.4-0.56,6.8.57-2.27,0.57,5.11s-1.13,3.4.57,9.64c1.7,6.8,5.11,13,4,19.28-0.57,3.4-5.11,9.65-11.91,9.08-6.24-.57-9.64-8.51-8.51-15.31A10.65,10.65,0,0,1-9,796.47a62.11,62.11,0,0,0,1.7-14.75v-8.51c0-14.18,1.13,5.11-.57-7.37a47,47,0,0,0-2.27-8.51,16.65,16.65,0,0,0-5.67-6.8c-2.84-2.84-5.68-6.81-9.64-6.81-5.11,0-3.4-6.24-10.21-7.94-9.64-2.84.56-16.44-11.91-16.44-10.78,0-8.51,9.07-18.15,7.37-2.27,0-4.54-6.24-9.08-6.81-4.54-1.13-10.2,1.14-11.34,2.27l-4,4c-1.13,1.13-2.27,1.7-2.84,2.26a12.53,12.53,0,0,0-2.83,2.27,10,10,0,0,0-2.84,2.27c-0.57.57-1.13,0.57-1.7,1.14-1.7,1.7-2.84,3.4-4.54,5.1-0.57,1.13-2.27,2.83-2.84,4,0,0.57-.57,1.13-0.57,1.7-2.83,5.11-6.24,10.77-7.37,16.45a38.83,38.83,0,0,0-1.14,13,34.67,34.67,0,0,0,.57,7.94c0.57,2.27,1.7,4.54,2.27,6.81a60.09,60.09,0,0,1,2.84,10.77,12.62,12.62,0,0,1,.56,4.54c-0.56,4-5.1,8.51-10.21,9.07a15.5,15.5,0,0,1-9.64-1.7c-4.54-2.27-5.67-7.37-4.54-13,1.14-6.8,4.54-12.48,5.68-18.72,4-18.15.57-20.42-6.24-35.16a26.89,26.89,0,0,0-6.81-10.21c-2.84-2.84-6.81-6.24-12.48-6.81-18.71-1.14-24.95,10.77-26.09,13.61-1.7,2.83,4,14.17-8.51,23.25-13,9.08-9.07,33.46-9.07,35.73,0,3.41,7.94,23.82-5.67,24.39-9.64.57-7.38-8.5-7.38-11.91,0-2.83,3.4-7.37,2.84-13.6-0.57-7.37-5.67-30.63-19.29-19.29s-28.35,15.88-39.7,13-25,6.81-28.93,9.65c-4.54,2.84-3.4,9.07-24.39,4.54-20.42-4.54-31.76,0-44.8,2.84-12.48,2.83-15.88,16.44-15.88,16.44a0.56,0.56,0,0,1-.57.57c-2.27,2.27-.57,5.67,0,7.94s1.7,4.54.57,6.8c-0.57.57-3.4,2.84-4.54,2.84-4,1.7-6.81-1.13-7.94-2.84,0-.56-0.57-1.13-0.57-1.7-0.56-3.4,2.84-5.67,2.27-8.51a3,3,0,0,0-1.13-1.7c-0.57-.57-0.57-1.14-1.14-1.7a6.12,6.12,0,0,0-7.37-1.14h-1.14c-1.13.57-3.4,1.14-4,1.7-1.7,1.71-4,2.84-5.11,4.54-1.7,2.84-1.7,7.37-2.27,11.34a40,40,0,0,0,2.27,20.42c0.57,2.84,2.84,6.81.57,9.64-2.84,3.4-10.77,4-13.61.56-1.14-1.7-1.7-2.27-1.7-4-0.57-1.7.56-2.27,0.56-3.4,0.57-2.27,1.14-4.54,1.71-6.24,1.7-4.54,1.13-10.21.57-14.75s-1.14-9.07-2.84-13a31.52,31.52,0,0,0-4-5.1c-1.7-2.27-.56-4-3.4-4.54-4.54-1.13-3.4,0-6.24-.56a8,8,0,0,1-3.4-1.14c-2.84-1.13-4-2.84-5.67-4.54-4.54-5.11-2.84-14.18-4.54-21.55-0.57-2.27-1.13-3.41-3.4-4-2.84-.57-4,0.56-5.67,1.13-2.27,1.14-2.27,1.7-5.67,1.7-2.27,0-4-1.13-5.68-1.7-4.54-1.7-3.4-4.54-5.67-6.81-4.54-4-14.18-.57-15.88-9.07-0.57-2.27-1.13-5.1-3.41-7.37V-10.9h1196V717.59l10.91,23.69c-1.13.57-8.9-5.78-25-2.89s-22.11-4.93-29.48-4.93c-5.68.56-11.35-6.95-13.62-8.08s-10.07-2.41-11.77-1.85c-3.4,1.13-5.24,6-6.37,7.1-1.13,1.7-.56,3.41-0.56,5.67a45.6,45.6,0,0,0,1.13,15.32c0.57,2.83,2.27,6.24,2.27,9.64,0,1.71,0,4-1.14,5.11,0,0.57-1.7,1.7-2.26,1.7-3.41,1.7-7.38,1.14-10.21,0-6.81-2.27-4.54-6.81-3.4-11.34a86.75,86.75,0,0,0,2.83-9.64c1-22.62-15.17-44.14-36.07-44.14s-38.22,21.66-38.79,26.19a32.24,32.24,0,0,0-.57,7.37c0,4.54.57,9.64,0.57,14.74,0,4.54-1.13,2.27.57,6.24,2.27,4,5.67,8.51,4.54,13-0.57,2.27-5.67,6.24-13,6.24-6.81,0-10.78-5.67-9.64-10.21a9.64,9.64,0,0,1,1.14-2.84,20,20,0,0,0,2.26-9.64v-5.68c0-9.63,1.14-19.28-.56-27.78a8.53,8.53,0,0,0-2.27-6.24,17.82,17.82,0,0,0-6.24-4.54c-2.83-1.7-6.24-4.54-10.78-4.54-5.67,0-4-4.54-11.34-5.68-10.21-1.7.56-10.77-13.05-10.77-11.91,0-9.64,6.24-19.85,5.11-2.83,0-5.67-6-10.21-6.57-5.11-.57-11.34.57-12.48,1.7-1.13.57-2.83,1.7-4,2.27s-1.7,1.14-2.83,1.7-1.71,1.14-2.84,1.71-1.7,1.13-2.84,1.7a3,3,0,0,1-1.7,1.13c-2.27,1.71-3.41,2.84-5.11,4-1.13,1.13-2.84,1.7-3.4,2.83a1.14,1.14,0,0,1-.57,1.14c-3.4,3.4-6.81,7.37-7.94,11.34a19.44,19.44,0,0,0-1.14,9.07c0.57,1.7.57,3.4,1.14,5.1s1.7,2.84,2.27,4.54A28.37,28.37,0,0,1,407.8,743a5.09,5.09,0,0,1,.57,2.84c-0.57,2.83-5.67,6.24-11.34,6.24a28.28,28.28,0,0,1-10.77-1.14c-5.11-1.7-6.24-5.1-5.11-9.08,1.7-4,5.11-8.51,6.24-12.48,4-12.47.57-14.18-6.81-23.82a32.76,32.76,0,0,0-7.94-6.81c-3.4-1.7-7.94-4-13.61-4.54-1.7,0-7.35-5.46-9.05-5.46-2.83.57-13.17,9.17-19.68,9.17-2.27,1.7-7-9.9-17.78-6.37s-12.47,1.14-19.28.57l-13.61-1.7c-6.81-1.13-14.18-1.7-21-2.26-2.84,0-5.67-.57-7.94,0a26.61,26.61,0,0,0-4,1.7c-1.13.56-1.7,0.56-2.26,1.13a2.09,2.09,0,0,1-1.71.57,54.88,54.88,0,0,1-9.07,4,17,17,0,0,0-6.24,3.41C224.62,701.19,224.62,702.89,225.76,709.69Z"/><path class="cls-4" d="M118.56,723.87c0.57-1.7,1.14-5.67.57-5.1H118a7.86,7.86,0,0,0-1.7,2.27,7.56,7.56,0,0,0-1.7,2.83c0,1.14-.57,3.41,1.13,4,0.57,0.56,1.14-.57,1.14-0.57,0.57-1.14.57-2.27,1.7-3.41"/><path class="cls-4" d="M7.05,806.42c-4,0-1.7-6.24-1.13-7.94H7.05C8.19,800.18,11.59,807,7.05,806.42Z"/><path class="cls-4" d="M609.66,764.37c-3.41,0-1.13-6.24-.57-8.51a0.55,0.55,0,0,1,.57-0.56C610.79,758.13,613.06,764.37,609.66,764.37Z"/><path class="cls-4" d="M76.59,788c0-.57-1.7-1.71-2.27-1.14l-0.57.57c0,0.57.57,0.57,0.57,1.13,0.57,0.57.57,1.14,1.14,1.14s1.13,0.57,2.27,0c0.56-.57,0-0.57,0-0.57s-1.14-.57-1.14-1.13"/><path class="cls-4" d="M521.23,774.5c-4-.57-1.7-6.81-1.13-8.51h1.13C522.36,767.7,525.77,774.5,521.23,774.5Z"/><path class="cls-4" d="M384,749.78c-4,0-2.27-6.81-1.7-8.5h1.13C384,747.52,389.09,749.78,384,749.78Z"/><path class="cls-4" d="M212.14,709.7c0.57,1.7,2.27,2.27,2.27,3.4s-1.13,1.71-2.84,1.14c-1.13-.57-2.27-3.41-2.27-5.67s0.57-2.83.57-2.83C211,705.73,211,706.86,212.14,709.7Z"/></g><rect class="cls-1" x="-10.38" y="803.22" width="20.77" height="8.79"/><g class="cls-5"><path class="cls-3" d="M1385.75,709.69c0,4.54-1.14,11.91-9.64,11.34-3.4,0-6.24-2.27-7.37-6.24-0.57-1.71-.57-4.54-0.57-7.38a4.88,4.88,0,0,0-2.84-4.54c-1.7-2.27-1.7-2.27-5.67-4.54h-1.14a0.56,0.56,0,0,0-.57-0.57c-0.56,0-1.7-.56-2.27-0.56a3,3,0,0,0-1.7-1.14c-4-1.13-9.64-1.13-14.74-1.13a63.52,63.52,0,0,0-11.34,1.13,18.83,18.83,0,0,0-6.81,2.84c-0.57,0-1.14.56-1.7,0.56-0.57.57-1.7,1.14-2.27,1.71a6,6,0,0,1-2.84,1.13,0.56,0.56,0,0,0-.57.57c-1.13.57-1.7,0.57-2.27,1.13a2.07,2.07,0,0,1-1.7.57l-3.4,1.7c-1.14.57-2.84,1.14-4,1.71a0.55,0.55,0,0,0-.56.56c-1.14.57-1.71,0.57-2.84,1.14a53.56,53.56,0,0,0-10.21,6.24c-1.71,1.14-2.84,3.41-4,5.11-1.13.57-1.13,6.24-1.7,7.37-1.13,4-4.54,9.65-11.34,9.65a16,16,0,0,1-11.34-3.4,7.76,7.76,0,0,0-5.67-2.84,14.62,14.62,0,0,0-5.67,2.27,26.67,26.67,0,0,0-5.68,5.67c-1.13,2.27-.57,5.11-0.57,8.51a98.34,98.34,0,0,0,1.14,22.68c0.57,4.54,2.27,9.64,2.27,14.75,0,2.27,0,5.1-1.14,6.81l-2.27,2.27c-3.4,2.27-6.81,1.7-9.64,0-5.68-4-4-10.21-2.84-17,0.57-4.54,1.7-9.07,2.27-13.61,1.13-8.51.57-18.15-2.84-23.82s-11.34-9.07-22.12-7.37c-4,.57-6.81,2.27-10.21,4s-7.38,2.83-9.64,4.54c-1.13,1.13-2.84,1.7-4,2.83a31.4,31.4,0,0,0-4.54,3.41c-0.57,1.13-1.14,1.13-1.7,1.7a1.14,1.14,0,0,1-.57,1.14c-0.57,0-1.14,1.7-1.7,1.7l-0.57.57a28,28,0,0,0-5.68,8.5c-2.26,5.67-2.83,1.7-3.4,8.51-0.57,3.4-.57,0-0.57,3.4-0.56,6.8.57-2.27,0.57,5.11s-1.13,3.4.57,9.64c1.7,6.8,5.11,13,4,19.28-0.57,3.4-5.11,9.65-11.91,9.08-6.24-.57-9.64-8.51-8.51-15.31a10.65,10.65,0,0,1,1.14-4.54,62.11,62.11,0,0,0,1.7-14.75v-8.51c0-14.18,1.13,5.11-.57-7.37a47,47,0,0,0-2.27-8.51,16.65,16.65,0,0,0-5.67-6.8c-2.84-2.84-5.68-6.81-9.64-6.81-5.11,0-3.4-6.24-10.21-7.94-9.64-2.84.56-16.44-11.91-16.44-10.78,0-8.51,9.07-18.15,7.37-2.27,0-4.54-6.24-9.08-6.81-4.54-1.13-10.2,1.14-11.34,2.27l-4,4c-1.13,1.13-2.27,1.7-2.84,2.26a12.53,12.53,0,0,0-2.83,2.27,10,10,0,0,0-2.84,2.27c-0.57.57-1.13,0.57-1.7,1.14-1.7,1.7-2.84,3.4-4.54,5.1-0.57,1.13-2.27,2.83-2.84,4,0,0.57-.57,1.13-0.57,1.7-2.83,5.11-6.24,10.77-7.37,16.45a38.83,38.83,0,0,0-1.14,13,34.67,34.67,0,0,0,.57,7.94c0.57,2.27,1.7,4.54,2.27,6.81a60.09,60.09,0,0,1,2.84,10.77,12.62,12.62,0,0,1,.56,4.54c-0.56,4-5.1,8.51-10.21,9.07a15.5,15.5,0,0,1-9.64-1.7c-4.54-2.27-5.67-7.37-4.54-13,1.14-6.8,4.54-12.48,5.68-18.72,4-18.15.57-20.42-6.24-35.16a26.89,26.89,0,0,0-6.81-10.21c-2.84-2.84-6.81-6.24-12.48-6.81-18.71-1.14-22.12-1.22-34.59,7.86-13,9.08-9.07,33.46-9.07,35.73,0,3.41,7.94,23.82-5.67,24.39-9.64.57-7.38-8.5-7.38-11.91,0-2.83,3.4-7.37,2.84-13.6-0.57-7.37-5.67-30.63-19.29-19.29s-28.35,5.88-39.7,3-25,1.81-28.93,4.65c-4.54,2.84-3.4,9.07-24.39,4.54-20.42-4.54-26.73-9.12-37.09-7.94s-14.29,2.13-19.39,5.28c-6.75,4.18-6.49,7.32-6.23,10.91a42.62,42.62,0,0,0,1.46,9.54c0.57,2.27,1.7,4.54.57,6.8-0.57.57-3.4,2.84-4.54,2.84-4,1.7-6.81-1.13-7.94-2.84,0-.56-0.57-1.13-0.57-1.7-0.56-3.4,3.9-6,3.51-17-0.07-2.11-.45-6.66-2.72-8.93s-11.41-6.8-13.28-6.44-4,2.84-5.11,4.54c-1.7,2.84-1.7,7.37-2.27,11.34a40,40,0,0,0,2.27,20.42c0.57,2.84,2.84,6.81.57,9.64-2.84,3.4-10.77,4-13.61.56-1.14-1.7-1.7-2.27-1.7-4-0.57-1.7.56-2.27,0.56-3.4,0.57-2.27,1.14-4.54,1.71-6.24,1.7-4.54,1.13-10.21.57-14.75s-1.14-9.07-2.84-13a31.52,31.52,0,0,0-4-5.1c-1.7-2.27-.56-4-3.4-4.54-4.54-1.13-3.4,0-6.24-.56a8,8,0,0,1-3.4-1.14c-2.84-1.13-7-4.58-8.68-6.28-4.54-5.11-6.32-1.74-11.87-3.33-0.57-2.27-32.76-11.94-35-14.2V-10.9H1827.55V667.16h0c-1.13.57-1.13,4-1.7,5.11-1.13,2.83-4.85,0-12.22,0a24.13,24.13,0,0,1-12.75-2.42c-2.27-1.14-4,4.69-6.8,4.69-1.13,0-4.53,1.13-6.24,1.7a17.77,17.77,0,0,0-6.81,4c-1.13,1.7-.56,3.41-0.56,5.67a45.6,45.6,0,0,0,1.13,15.32c0.57,2.83,2.27,6.24,2.27,9.64,0,1.71,0,4-1.14,5.11,0,0.57-1.7,1.7-2.26,1.7-3.41,1.7-7.38,1.14-10.21,0-6.81-2.27-4.54-6.81-3.4-11.34a86.75,86.75,0,0,0,2.83-9.64c1.14-5.67,0-11.91-3.4-15.88s-12.48-6.24-24.39-5.11a82.51,82.51,0,0,0-11.34,2.84c-3.4,1.13-7.38,2.27-10.21,3.4-1.71.57-2.84,1.14-4.54,1.71a45.2,45.2,0,0,0-5.11,2.26c-1.14.57-1.7,1.14-2.27,1.14a0.56,0.56,0,0,1-.57.57c-0.56,0-1.7,1.13-2.27,1.13l-0.57.57c-2.83,2.27-5.1,4-6.24,6.24-2.83,4-3.4,9.08-4,13.61a32.24,32.24,0,0,0-.57,7.37c0,4.54.57,9.64,0.57,14.74,0,4.54-1.13,2.27.57,6.24,2.27,4,5.67,8.51,4.54,13-0.57,2.27-5.67,6.24-13,6.24-6.81,0-10.78-5.67-9.64-10.21a9.64,9.64,0,0,1,1.14-2.84,20,20,0,0,0,2.26-9.64v-5.68c0-9.63,1.14-19.28-.56-27.78a8.53,8.53,0,0,0-2.27-6.24,17.82,17.82,0,0,0-6.24-4.54c-2.83-1.7-6.24-4.54-10.78-4.54-5.67,0-4-4.54-11.34-5.68-10.21-1.7.56-10.77-13.05-10.77-11.91,0-9.64,6.24-19.85,5.11-2.83,0-5.67-4-10.21-4.54-5.11-.57-11.34.57-12.48,1.7-1.13.57-2.83,1.7-4,2.27s-1.7,1.14-2.83,1.7-1.71,1.14-2.84,1.71-1.7,1.13-2.84,1.7a3,3,0,0,1-1.7,1.13c-2.27,1.71-3.41,2.84-5.11,4-1.13,1.13-2.84,1.7-3.4,2.83a1.14,1.14,0,0,1-.57,1.14c-3.4,3.4-6.81,7.37-7.94,11.34a19.44,19.44,0,0,0-1.14,9.07c0.57,1.7.57,3.4,1.14,5.1s1.7,2.84,2.27,4.54a28.37,28.37,0,0,1,2.83,7.38,5.09,5.09,0,0,1,.57,2.84c-0.57,2.83-5.67,6.24-11.34,6.24a28.28,28.28,0,0,1-10.77-1.14c-5.11-1.7-6.24-5.1-5.11-9.08,1.7-4,5.11-8.51,6.24-12.48,4-12.47.57-14.18-6.81-23.82a32.76,32.76,0,0,0-7.94-6.81c-3.4-1.7-7.94-4-13.61-4.54h-5.11c-2.83.57-6.24,1.13-9.07,1.7h-3.41c-0.57,0-1.13.57-1.7,0.57-1.7.57-2.84,1.7-4,2.27a42.22,42.22,0,0,1-6.81,4,39.07,39.07,0,0,1-5.67,2.27,28.06,28.06,0,0,0-4,1.7c-1.14.57-1.7,0.57-2.84,1.14s-2.84,1.13-4,1.7c-5.11,1.7-12.47,1.14-19.28.57l-13.61-1.7c-6.81-1.13-14.18-1.7-21-2.26-2.84,0-5.67-.57-7.94,0a26.61,26.61,0,0,0-4,1.7c-1.13.56-1.7,0.56-2.26,1.13a2.09,2.09,0,0,1-1.71.57,54.88,54.88,0,0,1-9.07,4,17,17,0,0,0-6.24,3.41C1384.62,701.19,1384.62,702.89,1385.75,709.69Z"/><path class="cls-4" d="M1146.42,741.46H1147l1.71,1.7c1.13,0.57,2.27.57,2.83,1.7h0.57c1.14,1.14,1.7,2.27,1.14,3.4-1.14,0-2.27-1.13-2.84-1.7,0,0-1.14-.57-1.14-1.13a2.08,2.08,0,0,0-.56-1.7l-1.14-.57A1.13,1.13,0,0,0,1147,742c-0.56-.56-2.27-1.13-1.7-1.7C1145.85,740.32,1146.42,741.46,1146.42,741.46Z"/><path class="cls-4" d="M836.75,758.71c1.7,0.57,4,1.14,5.68,1.7a0.56,0.56,0,0,1,.56.57c1.14,0.57,2.84.57,2.84,1.13-1.7,0-3.41-.56-5.11-0.56a13.31,13.31,0,0,0-4.54-1.14c-2.83-.56-7.37-1.13-6.81-2.84C831.65,756.44,835.06,758.14,836.75,758.71Z"/><path class="cls-4" d="M860,758.14c-0.56,0-2.26,2.27-2.26,1.7C858.31,759.28,859.44,757,860,758.14Z"/><path class="cls-4" d="M787.41,754.38a29.67,29.67,0,0,1,9.07-3.4v0.57c-1.7,1.13-2.84,1.7-4.54,2.83-2.27,1.14-4.54,3.41-6.81,2.27C785.71,753.81,786.85,754.38,787.41,754.38Z"/><path class="cls-4" d="M768.78,783.71c-0.56,0-1.13,0-1.13-.57A1.12,1.12,0,0,1,768.78,783.71Z"/><path class="cls-4" d="M1014.27,723.31a5.74,5.74,0,0,1,1.7.56,12.39,12.39,0,0,1,2.84,1.71c2.27,1.7,4.54,3.4,5.67,5.1a1.76,1.76,0,0,0,.57,1.14h0.57a0.56,0.56,0,0,1,.57.57c1.13,1.13,1.7,2.27,2.83,3.4a7.92,7.92,0,0,1,1.71,2.27c0,1.14,1.13,2.27-.57,2.84a23.62,23.62,0,0,0-4-6.24,0.56,0.56,0,0,1-.57-0.57c-0.57-.57-1.14-0.57-1.7-1.14s-1.14-1.7-1.7-2.27a0.55,0.55,0,0,1-.57-0.56c-1.14-1.14-2.84-1.71-4.54-2.84-0.57,0-.57-0.57-1.14-0.57-1.7-.57-3.4-1.7-3.4-2.84A2.1,2.1,0,0,1,1014.27,723.31Z"/><path class="cls-4" d="M900.28,751.8a8.26,8.26,0,0,1,4-1.13,7.16,7.16,0,0,1,3.4-.57c2.27-.57,5.67-0.57,5.11-2.84l-0.57-.56c-2.27-1.14-4,.56-5.11.56-0.56,0-.56.57-1.13,0.57-0.57.57,0,.57-0.57,0.57a3.4,3.4,0,0,1-2.27.57c-0.57,0,0,.56-0.57.56h-1.13c-1.7,1.14-4,1.14-6.24,1.71C897.44,751.8,899.71,752.36,900.28,751.8Z"/><path class="cls-4" d="M769.57,787.34c-1.7,0-2.27-.57-2.27-1.71C769,785.63,769.57,785.63,769.57,787.34Z"/><path class="cls-4" d="M1030.15,805.55c-5.68-.57-2.84-10.21-1.7-12.48,0.56,0,.56-0.56,1.7-0.56C1031.85,795.33,1037,805.54,1030.15,805.55Z"/><path class="cls-4" d="M952.45,792.43c-3.41-.57-1.7-8.51-1.14-10.78a1.14,1.14,0,0,1,1.14-.56C953.58,783.35,955.85,792.43,952.45,792.43Z"/><path class="cls-4" d="M738.07,794.06c-2.27,0-2.83-1.13-1.7-2.27C738.07,792.36,738.64,793.49,738.07,794.06Z"/><path class="cls-4" d="M1126,728.41c0.57,0,5.67,3.41,3.4,2.27-1.7-.56-4-1.13-4.54-1.7-0.56,0-1.13-1.13-1.13-1.13-0.57,0-1.14-.57-0.57-0.57C1125.43,727.85,1124.86,728.41,1126,728.41Z"/><path class="cls-4" d="M1098.2,720.47c1.71-1.14-1.13-2.84-1.7-1.14C1095.38,721.61,1097.07,721.61,1098.2,720.47Z"/></g><path class="cls-3" d="M248.1,689.18s21.79-.06,40.41,4.07c17.3,3.83,17.16,18.2,17.73,25.57,0.56,6.24-2.8,10.77-2.8,13.6,0,3.41-2.25,12.48,7.39,11.91,13.6-.57,5.68-21,5.68-24.39,0-2.27-.54-13,12.5-22.12,7.44-4.37,13.29-3,15-5.81,0.4-1-8.47-34.16-6.5-36.43V652Z"/><path class="cls-4" d="M306.32,731.22c-0.56,2.27-2.27,10.21,1.14,10.78,3.4,0,1.13-9.07,0-11.34A1.14,1.14,0,0,0,306.32,731.22Z"/></svg>