<?xml version="1.0" encoding="utf-8"?>
<!-- Generator: Adobe Illustrator 18.1.1, SVG Export Plug-In . SVG Version: 6.00 Build 0)  -->
<svg version="1.1" xmlns="http://www.w3.org/2000/svg" xmlns:xlink="http://www.w3.org/1999/xlink" x="0px" y="0px"
	 viewBox="-547 71.4 63.6 63.6" enable-background="new -547 71.4 63.6 63.6" xml:space="preserve">
<g id="Layer_2">
	<path opacity="0.25" fill="none" d="M-536.8,98.9C-536.8,98.9-536.8,98.9-536.8,98.9C-536.8,98.9-536.8,98.9-536.8,98.9
		C-536.8,98.9-536.8,98.9-536.8,98.9z"/>
	<path opacity="0.25" fill="none" d="M-536.8,107.3c0-0.1,0-0.1,0-0.2c-0.1,0.1-0.1,0.2-0.2,0.3l0,0l0,0
		C-537,107.4-536.9,107.4-536.8,107.3z"/>
	<path opacity="0.25" fill="none" d="M-493.6,107.3c0,0,0,0.1,0,0.1c0.1,0,0.1,0.1,0.2,0.1C-493.5,107.4-493.5,107.3-493.6,107.3z"
		/>
	<path opacity="0.25" fill="#CFCFCF" d="M-514.4,126.5c0,1.2,0.9,2.1,2.1,2.1c1.2,0,2.1-0.9,2.1-2.1c0-0.7-0.3-1.3-0.8-1.7
		c-1,0.2-1.9,0.3-2.9,0.4C-514.2,125.5-514.4,126-514.4,126.5z"/>
	<path opacity="0.25" fill="#CFCFCF" d="M-520.2,126.4c0,1.2,0.9,2.1,2.1,2.1c1.2,0,2.1-0.9,2.1-2.1c0-0.5-0.2-0.9-0.4-1.3
		c-1-0.1-2-0.2-3-0.4C-519.9,125.2-520.2,125.8-520.2,126.4z"/>
	<path opacity="0.25" fill="#CFCFCF" d="M-536.8,98.8C-536.8,98.9-536.8,98.9-536.8,98.8c0.3-1.2,0.6-2.4,1.1-3.6
		c-0.4,0-0.7,0.2-1.1,0.4c-0.8,0.6-1,1.7-0.6,2.6c0.1,0.1,0.1,0.2,0.1,0.3c-0.1-0.1-0.2-0.1-0.2-0.2c-0.9-0.5-1.9-0.3-2.6,0.4
		c-0.7,0.7-0.7,1.8-0.2,2.6c0.6,0.8,1.6,1.1,2.5,0.7c0.2-0.1,0.4-0.2,0.5-0.3C-537.1,100.8-537,99.8-536.8,98.8
		C-536.8,98.9-536.8,98.9-536.8,98.8z"/>
	<path opacity="0.25" fill="#CFCFCF" d="M-493.4,107.5c-0.1,0-0.1-0.1-0.2-0.1c-0.2,1.2-0.6,2.4-1,3.6c0.2,0,0.4-0.1,0.6-0.1
		c0.9-0.4,1.4-1.3,1.2-2.3C-492.9,108.2-493.2,107.9-493.4,107.5c0.1,0.1,0.2,0.2,0.2,0.2c0.7,0.6,1.8,0.6,2.5,0
		c0.8-0.5,1.1-1.5,0.8-2.4c-0.3-0.9-1.1-1.5-2.1-1.4c-0.5,0-0.9,0.2-1.3,0.5c-0.1,1-0.2,1.9-0.3,2.8
		C-493.5,107.3-493.5,107.4-493.4,107.5z"/>
	<path opacity="0.25" fill="#CFCFCF" d="M-536.9,107.2c-0.2-0.9-0.3-1.8-0.3-2.7c-0.3-0.3-0.8-0.5-1.3-0.5c-1,0-1.8,0.6-2.1,1.5
		c-0.3,0.9,0.1,1.9,0.9,2.4c0.8,0.5,1.8,0.4,2.6-0.3l0,0C-537,107.4-536.9,107.3-536.9,107.2z"/>
	<path opacity="0.25" fill="#CFCFCF" d="M-537.1,113.3c0.6-0.7,0.8-1.4,0.4-2.2c-0.3-0.8-1-1.2-1.8-1.3c-0.9,0-1.8,0.6-2,1.4
		c-0.3,0.9,0.1,1.9,0.9,2.4C-538.9,114.1-537.9,114-537.1,113.3L-537.1,113.3z"/>
	<path opacity="0.25" fill="#CFCFCF" d="M-535.6,112.7c-0.9,0-1.8,0.6-2,1.4c-0.3,0.9,0.1,1.8,0.9,2.3c0.8,0.5,1.8,0.4,2.6-0.3l0,0
		c0.3-0.3,0.5-0.6,0.6-1c-0.5-0.8-1-1.6-1.4-2.4C-535.2,112.7-535.4,112.7-535.6,112.7z"/>
	<path opacity="0.25" fill="#CFCFCF" d="M-534.7,117.1c-0.3,0.9,0.1,1.9,0.9,2.3c0.8,0.5,1.8,0.4,2.6-0.3l0,0
		c0.2-0.2,0.3-0.4,0.4-0.5c-0.9-0.9-1.7-1.9-2.4-2.9C-534,115.9-534.5,116.4-534.7,117.1z"/>
	<path opacity="0.25" fill="#CFCFCF" d="M-531.8,120c-0.3,0.9,0.1,1.8,0.9,2.3c0.8,0.5,1.8,0.4,2.6-0.3l0,0c0.3-0.3,0.4-0.6,0.5-0.9
		c-1-0.7-2-1.5-2.9-2.4C-531.2,119-531.6,119.5-531.8,120z"/>
	<path opacity="0.25" fill="#CFCFCF" d="M-528.9,123c-0.3,0.9,0.1,1.8,0.9,2.3c0.8,0.5,1.8,0.4,2.6-0.3l0,0c0.6-0.6,0.7-1.3,0.5-2.1
		c-0.8-0.4-1.6-0.9-2.4-1.4C-528.1,121.7-528.6,122.2-528.9,123z"/>
	<path opacity="0.25" fill="#CFCFCF" d="M-522.5,127.9L-522.5,127.9c0.6-0.7,0.8-1.4,0.4-2.2c-0.3-0.8-1-1.2-1.8-1.3
		c-0.9-0.1-1.8,0.6-2,1.4c-0.3,0.9,0.1,1.8,0.9,2.3C-524.3,128.7-523.3,128.6-522.5,127.9z"/>
	<path opacity="0.25" fill="#CFCFCF" d="M-504.6,125.7c-0.3-0.8-1-1.2-1.8-1.3c-0.9-0.1-1.8,0.6-2,1.4c-0.3,0.9,0.1,1.8,0.9,2.3
		c0.8,0.5,1.8,0.4,2.6-0.3l0,0C-504.4,127.3-504.2,126.5-504.6,125.7z"/>
	<path opacity="0.25" fill="#CFCFCF" d="M-504.7,125.3c0.8,0.5,1.8,0.4,2.6-0.3l0,0c0.6-0.7,0.8-1.4,0.4-2.2
		c-0.3-0.7-0.8-1.1-1.4-1.2c-0.8,0.5-1.6,1-2.4,1.4C-505.8,123.9-505.4,124.8-504.7,125.3z"/>
	<path opacity="0.25" fill="#CFCFCF" d="M-501.7,122.4c0.8,0.5,1.8,0.4,2.6-0.3l0,0c0.6-0.7,0.8-1.4,0.4-2.2c-0.2-0.5-0.5-0.8-1-1
		c-0.9,0.9-1.9,1.7-2.9,2.4C-502.5,121.7-502.2,122.1-501.7,122.4z"/>
	<path opacity="0.25" fill="#CFCFCF" d="M-498.8,119.5c0.8,0.5,1.8,0.4,2.6-0.3l0,0c0.6-0.7,0.8-1.4,0.4-2.2c-0.3-0.6-0.7-1-1.3-1.2
		c-0.7,1-1.5,2-2.4,2.9C-499.4,119-499.1,119.3-498.8,119.5z"/>
	<path opacity="0.25" fill="#CFCFCF" d="M-495.8,116.5c0.8,0.5,1.8,0.4,2.6-0.3l0,0c0.6-0.7,0.8-1.4,0.4-2.2c-0.3-0.8-1-1.2-1.8-1.3
		c-0.3,0-0.5,0-0.8,0.1c-0.4,0.8-0.8,1.6-1.3,2.3C-496.6,115.7-496.3,116.2-495.8,116.5z"/>
	<path opacity="0.25" fill="#CFCFCF" d="M-489.8,111c-0.3-0.8-1-1.2-1.8-1.3c-0.9,0-1.8,0.6-2,1.4c-0.3,0.9,0.1,1.9,0.9,2.4
		c0.8,0.5,1.8,0.4,2.6-0.3l0,0C-489.6,112.6-489.5,111.9-489.8,111z"/>
	<path opacity="0.25" fill="#CFCFCF" d="M-537.1,107.5L-537.1,107.5c-0.1,0.1-0.1,0.2-0.2,0.4c-0.5,0.8-0.4,1.8,0.3,2.5
		c0.3,0.3,0.8,0.5,1.2,0.6c-0.4-1.1-0.8-2.3-1-3.6C-536.9,107.4-537,107.4-537.1,107.5z"/>
	<path opacity="0.25" fill="#CFCFCF" d="M-536.6,93.9c-0.1-0.3-0.3-0.6-0.5-1c0,0,0,0-0.1-0.1c-0.1,0-0.2-0.1-0.2-0.1
		c-0.8-0.6-1.9-0.5-2.5,0.2c-0.7,0.7-0.8,1.7-0.3,2.5c0.5,0.8,1.5,1.1,2.4,0.7C-536.9,95.8-536.4,94.8-536.6,93.9z"/>
	<path opacity="0.25" fill="#CFCFCF" d="M-491.8,92.4c-1.1,0-2,0.9-2,2c0,1.1,0.9,2,2,2c1.1,0,2-0.9,2-2
		C-489.8,93.3-490.7,92.4-491.8,92.4z"/>
	<path opacity="0.25" fill="#CFCFCF" d="M-494.7,93.4c1.1,0,2-0.9,2-2c0-1.1-0.9-2-2-2c-1,0-1.9,0.8-2,1.8c0.4,0.6,0.8,1.3,1.1,2
		C-495.3,93.4-495,93.4-494.7,93.4z"/>
	<path opacity="0.25" fill="#CFCFCF" d="M-495.7,88.5c0-1.1-0.9-2-2-2c-0.8,0-1.5,0.5-1.8,1.2c0.8,0.8,1.6,1.7,2.2,2.7
		C-496.3,90.3-495.7,89.5-495.7,88.5z"/>
	<path opacity="0.25" fill="#CFCFCF" d="M-498.6,85.6c0-1.1-0.9-2-2-2c-0.9,0-1.7,0.7-1.9,1.6c1,0.7,1.9,1.4,2.7,2.2
		C-499.1,87.1-498.6,86.4-498.6,85.6z"/>
	<path opacity="0.25" fill="#CFCFCF" d="M-501.5,82.7c0-1.1-0.9-2-2-2c-1.1,0-2,0.9-2,2c0,0.3,0.1,0.6,0.2,0.9
		c0.7,0.3,1.3,0.7,1.9,1.1C-502.3,84.6-501.5,83.7-501.5,82.7z"/>
	<path opacity="0.25" fill="#CFCFCF" d="M-509.3,80.7c-0.7,0-1.3,0.4-1.6,0.9c1.2,0.2,2.5,0.6,3.6,1
		C-507.3,81.6-508.2,80.7-509.3,80.7z"/>
	<path opacity="0.25" fill="#CFCFCF" d="M-510.3,79.8c0-1.1-0.9-2-2-2c-1.1,0-2,0.9-2,2c0,0.6,0.3,1.1,0.7,1.5
		c0.8,0.1,1.5,0.1,2.2,0.3C-510.7,81.2-510.3,80.5-510.3,79.8z"/>
	<path opacity="0.25" fill="#CFCFCF" d="M-516.1,79.7c0-1.1-0.9-2-2-2c-1.1,0-2,0.9-2,2c0,0.8,0.5,1.5,1.1,1.8
		c0.7-0.1,1.4-0.2,2.1-0.3C-516.4,80.9-516.1,80.3-516.1,79.7z"/>
	<path opacity="0.25" fill="#CFCFCF" d="M-521,80.7c-1,0-1.9,0.8-2,1.9c1.2-0.4,2.4-0.8,3.6-1C-519.7,81-520.3,80.7-521,80.7z"/>
	<path opacity="0.25" fill="#CFCFCF" d="M-527,84.6c0.6-0.4,1.3-0.8,1.9-1.1c0.1-0.3,0.2-0.6,0.2-0.9c0-1.1-0.9-2-2-2
		c-1.1,0-2,0.9-2,2C-528.8,83.7-528,84.5-527,84.6z"/>
	<path opacity="0.25" fill="#CFCFCF" d="M-529.8,83.6c-1.1,0-2,0.9-2,2c0,0.8,0.5,1.5,1.2,1.8c0.8-0.8,1.7-1.6,2.7-2.2
		C-528,84.2-528.8,83.6-529.8,83.6z"/>
	<path opacity="0.25" fill="#CFCFCF" d="M-532.7,86.5c-1.1,0-2,0.9-2,2c0,0.9,0.7,1.7,1.5,1.9c0.7-1,1.4-1.9,2.3-2.7
		C-531.2,87-531.9,86.5-532.7,86.5z"/>
	<path opacity="0.25" fill="#CFCFCF" d="M-535.6,89.4c-1.1,0-2,0.9-2,2c0,1.1,0.9,2,2,2c0.3,0,0.5-0.1,0.8-0.2
		c0.4-0.7,0.8-1.4,1.2-2.1C-533.8,90.2-534.6,89.4-535.6,89.4z"/>
	<path opacity="0.25" fill="#CFCFCF" d="M-508.4,79.8c0,1.1,0.9,2,2,2c1.1,0,1.9-0.9,1.9-1.9c0-1.1-0.9-1.9-1.9-2
		C-507.5,77.8-508.3,78.7-508.4,79.8z"/>
	<path opacity="0.25" fill="#CFCFCF" d="M-523.9,81.7c1.1,0,2-0.8,2-1.9c0-1.1-0.8-2-1.9-2c-1.1,0-1.9,0.8-1.9,1.9
		C-525.9,80.8-525,81.6-523.9,81.7z"/>
	<path opacity="0.25" fill="#CFCFCF" d="M-509.4,125.5c1,0,1.8-0.7,1.9-1.7c-1.1,0.4-2.2,0.7-3.4,1
		C-510.5,125.2-510,125.5-509.4,125.5z"/>
	<path opacity="0.25" fill="#CFCFCF" d="M-513.9,81.2c-0.3-0.3-0.8-0.5-1.2-0.5c-0.5,0-0.9,0.2-1.2,0.4c0.4,0,0.8,0,1.2,0
		C-514.8,81.2-514.4,81.2-513.9,81.2z"/>
	<path opacity="0.25" fill="#CFCFCF" d="M-521.1,125.4c0.6,0,1.1-0.3,1.5-0.7c-1.2-0.2-2.3-0.6-3.4-1
		C-522.8,124.7-522,125.4-521.1,125.4z"/>
	<path opacity="0.25" fill="#CFCFCF" d="M-493.2,104.2c0.2-0.3,0.4-0.7,0.4-1.1c0-0.4-0.1-0.8-0.4-1.1c0,0.4,0,0.8,0,1.2
		C-493.2,103.5-493.2,103.9-493.2,104.2z"/>
	<path opacity="0.25" fill="#CFCFCF" d="M-537.2,102.1c-0.2,0.3-0.3,0.6-0.3,1c0,0.4,0.1,0.7,0.3,1c0-0.3,0-0.5,0-0.8
		C-537.2,102.8-537.2,102.5-537.2,102.1z"/>
	<path opacity="0.25" fill="#CFCFCF" d="M-515.2,127.5c-1,0-1.9,0.8-1.9,1.9c0,1,0.8,1.9,1.8,1.9c1,0,1.9-0.8,1.9-1.9
		C-513.4,128.4-514.2,127.6-515.2,127.5z"/>
	<path opacity="0.25" fill="#CFCFCF" d="M-516,125.2c0.2,0.1,0.5,0.2,0.8,0.2c0.3,0,0.5-0.1,0.8-0.2c-0.2,0-0.5,0-0.7,0
		C-515.5,125.2-515.7,125.2-516,125.2z"/>
	<path opacity="0.25" fill="#CFCFCF" d="M-541.5,104.9c1,0,1.8-0.8,1.8-1.8c0-1-0.8-1.8-1.8-1.8c-1,0-1.8,0.8-1.8,1.8
		C-543.3,104-542.5,104.8-541.5,104.9z"/>
	<path opacity="0.25" fill="#CFCFCF" d="M-488.9,101.4c-1,0-1.8,0.8-1.8,1.8c0,1,0.8,1.8,1.8,1.8c1,0,1.8-0.8,1.8-1.8
		C-487.1,102.1-487.9,101.3-488.9,101.4z"/>
	<path opacity="0.25" fill="#CFCFCF" d="M-492.9,97.3c0-1-0.8-1.8-1.7-1.9c0.4,1.1,0.7,2.2,1,3.4C-493.2,98.5-492.9,97.9-492.9,97.3
		z"/>
	<path opacity="0.25" fill="#CFCFCF" d="M-491.8,102.2c1.1,0,2-0.9,2-2c0-1.1-0.9-2-2-2c-0.8,0-1.4,0.4-1.7,1
		c0.1,0.8,0.2,1.5,0.3,2.3C-492.9,102-492.4,102.2-491.8,102.2z"/>
	<path opacity="0.25" fill="#CFCFCF" d="M-521.1,127.6c-1,0-1.7,0.8-1.8,1.7c0,1,0.8,1.8,1.7,1.8c1,0,1.8-0.8,1.8-1.7
		C-519.3,128.4-520.1,127.6-521.1,127.6z"/>
	<path opacity="0.25" fill="#CFCFCF" d="M-509.4,127.7c-1,0-1.7,0.8-1.7,1.7c0,1,0.8,1.7,1.7,1.7c0.9,0,1.7-0.8,1.7-1.7
		C-507.6,128.5-508.4,127.7-509.4,127.7z"/>
	<path opacity="0.25" fill="#CFCFCF" d="M-532.7,121.8c-1,0-1.7,0.8-1.7,1.7c0,1,0.8,1.7,1.7,1.7c1,0,1.7-0.8,1.7-1.7
		C-531,122.6-531.8,121.8-532.7,121.8z"/>
	<path opacity="0.25" fill="#CFCFCF" d="M-497.7,121.9c-0.9,0-1.7,0.8-1.7,1.7c0,1,0.8,1.7,1.7,1.7c1,0,1.7-0.8,1.7-1.7
		C-496,122.6-496.8,121.8-497.7,121.9z"/>
	<path opacity="0.25" fill="#CFCFCF" d="M-534,120.6c0-1-0.8-1.7-1.7-1.7c-0.9,0-1.7,0.8-1.7,1.7c0,1,0.8,1.7,1.7,1.7
		C-534.7,122.3-534,121.5-534,120.6z"/>
	<path opacity="0.25" fill="#CFCFCF" d="M-494.8,118.9c-1,0-1.7,0.8-1.7,1.7c0,1,0.7,1.7,1.7,1.7c1,0,1.7-0.8,1.7-1.7
		C-493.1,119.7-493.8,118.9-494.8,118.9z"/>
	<path opacity="0.25" fill="#CFCFCF" d="M-515.2,78.6c1,0,1.7-0.7,1.7-1.7c0-1-0.7-1.7-1.7-1.7c-1,0-1.7,0.7-1.7,1.7
		C-516.9,77.8-516.2,78.5-515.2,78.6z"/>
	<path opacity="0.25" fill="#CFCFCF" d="M-488.9,107.3c-0.9,0-1.7,0.7-1.7,1.7c0,0.9,0.7,1.7,1.7,1.7c0.9,0,1.7-0.7,1.7-1.6
		C-487.2,108.1-488,107.3-488.9,107.3z"/>
	<path opacity="0.25" fill="#CFCFCF" d="M-541.5,110.6c0.9,0,1.7-0.8,1.7-1.7c0-0.9-0.8-1.7-1.7-1.7c-0.9,0-1.7,0.8-1.7,1.7
		C-543.2,109.8-542.4,110.6-541.5,110.6z"/>
	<path opacity="0.25" fill="#CFCFCF" d="M-541.5,98.9c0.9,0,1.7-0.7,1.7-1.6c0-0.9-0.7-1.6-1.6-1.6c-0.9,0-1.7,0.7-1.7,1.6
		C-543.1,98.1-542.4,98.9-541.5,98.9z"/>
	<path opacity="0.25" fill="#CFCFCF" d="M-488.9,95.7c-0.9,0-1.6,0.7-1.6,1.6c0,0.9,0.7,1.6,1.6,1.6c0.9,0,1.6-0.7,1.6-1.6
		C-487.3,96.4-488,95.7-488.9,95.7z"/>
	<path opacity="0.25" fill="#CFCFCF" d="M-500.6,124.9c-0.9,0-1.6,0.7-1.6,1.6c0,0.9,0.7,1.6,1.6,1.6c0.9,0,1.6-0.7,1.6-1.6
		C-499,125.6-499.7,124.9-500.6,124.9z"/>
	<path opacity="0.25" fill="#CFCFCF" d="M-529.8,124.8c-0.9,0-1.6,0.7-1.6,1.5c0,0.9,0.7,1.6,1.6,1.7c0.9,0,1.6-0.7,1.6-1.5
		C-528.2,125.6-528.9,124.9-529.8,124.8z"/>
	<path opacity="0.25" fill="#CFCFCF" d="M-497.6,84.3c0.9,0,1.6-0.7,1.6-1.6c0-0.9-0.7-1.6-1.6-1.6c-0.9,0-1.6,0.7-1.6,1.6
		C-499.2,83.6-498.5,84.3-497.6,84.3z"/>
	<path opacity="0.25" fill="#CFCFCF" d="M-535.6,87.2c0.9,0,1.6-0.7,1.6-1.6c0-0.9-0.7-1.6-1.6-1.6c-0.9,0-1.6,0.7-1.6,1.6
		C-537.2,86.4-536.5,87.2-535.6,87.2z"/>
	<path opacity="0.25" fill="#CFCFCF" d="M-494.7,87.2c0.9,0,1.6-0.7,1.6-1.6c0-0.9-0.7-1.6-1.6-1.6c-0.9,0-1.6,0.7-1.6,1.6
		C-496.3,86.5-495.6,87.2-494.7,87.2z"/>
	<path opacity="0.25" fill="#CFCFCF" d="M-532.7,84.2c0.9,0,1.6-0.7,1.6-1.6c0-0.9-0.7-1.6-1.6-1.6c-0.9,0-1.6,0.7-1.6,1.6
		C-534.3,83.5-533.6,84.2-532.7,84.2z"/>
	<path opacity="0.25" fill="#CFCFCF" d="M-509.3,78.4c0.9,0,1.6-0.7,1.6-1.6c0-0.9-0.7-1.6-1.6-1.6c-0.9,0-1.6,0.7-1.6,1.6
		C-510.9,77.7-510.2,78.4-509.3,78.4z"/>
	<path opacity="0.25" fill="#CFCFCF" d="M-521,78.4c0.9,0,1.6-0.7,1.6-1.6c0-0.9-0.7-1.6-1.6-1.6c-0.9,0-1.6,0.7-1.6,1.6
		S-521.9,78.4-521,78.4z"/>
	<path opacity="0.25" fill="#CFCFCF" d="M-538.6,116.1c-0.9,0-1.6,0.7-1.6,1.6s0.7,1.6,1.6,1.6c0.9,0,1.6-0.7,1.6-1.6
		C-537,116.8-537.7,116.1-538.6,116.1z"/>
	<path opacity="0.25" fill="#CFCFCF" d="M-491.8,116.2c-0.9,0-1.6,0.7-1.6,1.5c0,0.9,0.7,1.6,1.5,1.6c0.9,0,1.6-0.7,1.6-1.5
		C-490.3,116.9-491,116.2-491.8,116.2z"/>
	<path opacity="0.25" fill="#CFCFCF" d="M-538.5,89.9c0.8,0,1.5-0.6,1.5-1.5c0-0.8-0.6-1.5-1.5-1.5c-0.8,0-1.5,0.6-1.5,1.5
		C-540,89.3-539.3,89.9-538.5,89.9z"/>
	<path opacity="0.25" fill="#CFCFCF" d="M-491.8,90c0.8,0,1.5-0.6,1.5-1.5c0-0.8-0.6-1.5-1.5-1.5c-0.8,0-1.5,0.6-1.5,1.5
		C-493.3,89.3-492.6,90-491.8,90z"/>
	<path opacity="0.25" fill="#CFCFCF" d="M-500.6,81.2c0.8,0,1.5-0.7,1.5-1.5c0-0.8-0.7-1.4-1.5-1.4c-0.8,0-1.4,0.7-1.5,1.4
		C-502,80.6-501.4,81.2-500.6,81.2z"/>
	<path opacity="0.25" fill="#CFCFCF" d="M-529.8,81.2c0.8,0,1.5-0.7,1.5-1.4c0-0.8-0.7-1.5-1.5-1.4c-0.8,0-1.4,0.7-1.4,1.4
		C-531.2,80.5-530.6,81.2-529.8,81.2z"/>
	<path opacity="0.25" fill="#CFCFCF" d="M-526.9,128c-0.7,0-1.3,0.6-1.3,1.4c0,0.7,0.6,1.3,1.3,1.3c0.7,0,1.3-0.6,1.3-1.3
		C-525.6,128.6-526.2,128-526.9,128z"/>
	<path opacity="0.25" fill="#CFCFCF" d="M-503.6,128.1c-0.7,0-1.3,0.6-1.3,1.3c0,0.7,0.6,1.3,1.3,1.3c0.7,0,1.3-0.6,1.3-1.3
		C-502.2,128.7-502.8,128.1-503.6,128.1z"/>
	<path opacity="0.25" fill="#CFCFCF" d="M-488.9,113.5c-0.7,0-1.3,0.6-1.3,1.3c0,0.7,0.6,1.3,1.3,1.3c0.7,0,1.3-0.6,1.3-1.3
		C-487.7,114.1-488.3,113.5-488.9,113.5z"/>
	<path opacity="0.25" fill="#CFCFCF" d="M-541.5,113.5c-0.7,0-1.3,0.6-1.3,1.3c0,0.7,0.6,1.3,1.3,1.3c0.7,0,1.3-0.6,1.3-1.3
		C-540.2,114.1-540.8,113.5-541.5,113.5z"/>
	<path opacity="0.25" fill="#CFCFCF" d="M-541.4,92.6c0.7,0,1.2-0.5,1.2-1.2c0-0.7-0.5-1.2-1.2-1.2c-0.7,0-1.2,0.5-1.2,1.2
		C-542.6,92.1-542.1,92.6-541.4,92.6z"/>
	<path opacity="0.25" fill="#CFCFCF" d="M-488.9,92.6c0.7,0,1.2-0.5,1.2-1.2c0-0.7-0.5-1.2-1.2-1.2c-0.7,0-1.2,0.5-1.2,1.2
		C-490.1,92.1-489.6,92.6-488.9,92.6z"/>
	<path opacity="0.25" fill="#CFCFCF" d="M-518.1,131.1c-0.7,0-1.2,0.5-1.2,1.2c0,0.7,0.5,1.2,1.2,1.2c0.7,0,1.2-0.5,1.2-1.2
		C-517,131.6-517.5,131.1-518.1,131.1z"/>
	<path opacity="0.25" fill="#CFCFCF" d="M-512.3,131.2c-0.6,0-1.2,0.5-1.2,1.2c0,0.7,0.5,1.2,1.2,1.2c0.6,0,1.2-0.5,1.2-1.2
		C-511.1,131.7-511.6,131.2-512.3,131.2z"/>
	<path opacity="0.25" fill="#CFCFCF" d="M-503.5,78c0.6,0,1.1-0.5,1.1-1.1c0-0.6-0.5-1.1-1.1-1.1c-0.6,0-1.1,0.5-1.1,1.1
		C-504.6,77.5-504.1,78-503.5,78z"/>
	<path opacity="0.25" fill="#CFCFCF" d="M-526.9,77.9c0.6,0,1.2-0.5,1.2-1.1c0-0.6-0.5-1.1-1.1-1.1c-0.6,0-1.1,0.5-1.1,1.1
		C-528,77.4-527.5,77.9-526.9,77.9z"/>
	<path opacity="0.25" fill="#CFCFCF" d="M-486,105c-0.6,0-1.1,0.5-1.1,1.1c0,0.6,0.5,1.1,1.1,1.1c0.6,0,1.1-0.5,1.1-1.1
		C-484.9,105.5-485.4,105-486,105z"/>
	<path opacity="0.25" fill="#CFCFCF" d="M-544.4,104.9c-0.6,0-1.1,0.5-1.1,1.1c0,0.6,0.5,1.1,1.1,1.1c0.6,0,1.1-0.5,1.1-1.1
		C-543.3,105.4-543.8,104.9-544.4,104.9z"/>
	<path opacity="0.25" fill="#CFCFCF" d="M-544.4,99.1c-0.6,0-1.1,0.5-1.1,1.1c0,0.6,0.5,1.1,1,1.1c0.6,0,1.1-0.5,1.1-1.1
		C-543.3,99.6-543.8,99.1-544.4,99.1z"/>
	<path opacity="0.25" fill="#CFCFCF" d="M-486,101.3c0.6,0,1.1-0.4,1.1-1c0-0.6-0.4-1.1-1-1.1c-0.6,0-1.1,0.4-1.1,1
		C-487,100.8-486.6,101.3-486,101.3z"/>
	<path opacity="0.25" fill="#CFCFCF" d="M-512.3,74.9c0.5,0,1-0.4,1-1c0-0.5-0.4-1-1-1c-0.5,0-1,0.4-1,1
		C-513.3,74.5-512.8,74.9-512.3,74.9z"/>
	<path opacity="0.25" fill="#CFCFCF" d="M-518.1,74.9c0.5,0,1-0.5,1-1c0-0.5-0.5-1-1-1c-0.5,0-1,0.5-1,1
		C-519.1,74.4-518.6,74.9-518.1,74.9z"/>
	<path opacity="0.25" fill="#CFCFCF" d="M-524,131.4c-0.5,0-0.9,0.4-0.9,0.9c0,0.5,0.4,0.9,1,0.9c0.4,0,0.7-0.4,0.8-0.9
		C-523.1,131.8-523.5,131.4-524,131.4z"/>
	<path opacity="0.25" fill="#CFCFCF" d="M-506.5,131.4c-0.5,0-0.9,0.4-0.9,0.9c0,0.4,0.3,0.8,0.7,0.8c0.7,0,1.1-0.3,1.1-0.9
		C-505.6,131.8-506,131.4-506.5,131.4z"/>
	<path opacity="0.25" fill="#CFCFCF" d="M-486,95.1c0.4,0,0.7-0.3,0.7-0.7c0-0.4-0.3-0.7-0.7-0.7c-0.4,0-0.7,0.3-0.7,0.7
		C-486.7,94.8-486.4,95.1-486,95.1z"/>
	<path opacity="0.25" fill="#CFCFCF" d="M-506.4,74.6c0.4,0,0.7-0.3,0.7-0.7c0-0.4-0.3-0.7-0.7-0.7c-0.4,0-0.7,0.3-0.7,0.7
		C-507.1,74.3-506.8,74.6-506.4,74.6z"/>
	<path opacity="0.25" fill="#CFCFCF" d="M-523.9,74.6c0.4,0,0.7-0.3,0.7-0.7c0-0.4-0.3-0.7-0.7-0.7c-0.4,0-0.7,0.3-0.7,0.7
		C-524.6,74.3-524.3,74.6-523.9,74.6z"/>
	<path opacity="0.25" fill="#CFCFCF" d="M-544.4,95c0.4,0,0.7-0.3,0.7-0.7c0-0.4-0.3-0.7-0.7-0.7c-0.4,0-0.7,0.3-0.7,0.7
		C-545.1,94.7-544.8,95-544.4,95z"/>
	<path opacity="0.25" fill="#CFCFCF" d="M-544.4,111.1c-0.4,0-0.7,0.3-0.7,0.7c0,0.4,0.3,0.7,0.7,0.7c0.4,0,0.7-0.3,0.7-0.7
		C-543.7,111.5-544,111.1-544.4,111.1z"/>
	<path opacity="0.25" fill="#CFCFCF" d="M-486,111c-0.5,0-0.9,0.4-0.9,0.9c0,0.5,0.4,0.9,0.9,0.9c0.5,0,0.9-0.4,0.9-0.9
		C-485.1,111.4-485.5,111-486,111z"/>
	<path opacity="0.25" fill="#CFCFCF" d="M-494.7,125.8c-0.4,0-0.7,0.3-0.7,0.7c0,0.4,0.3,0.7,0.7,0.7c0.4,0,0.7-0.3,0.7-0.7
		C-494,126.1-494.3,125.8-494.7,125.8z"/>
	<path opacity="0.25" fill="#CFCFCF" d="M-491.9,122.9c-0.4,0-0.7,0.3-0.7,0.7c0,0.4,0.3,0.7,0.7,0.7c0.4,0,0.7-0.3,0.7-0.7
		C-491.2,123.2-491.5,122.9-491.9,122.9z"/>
	<path opacity="0.25" fill="#CFCFCF" d="M-497.9,128.9c-0.2,0-0.4,0.2-0.4,0.4c0,0.2,0.2,0.4,0.4,0.4c0.2,0,0.4-0.2,0.4-0.4
		C-497.5,129.1-497.7,128.9-497.9,128.9z"/>
	<path opacity="0.25" fill="#CFCFCF" d="M-489.1,120.1c-0.2,0-0.4,0.2-0.4,0.4c0,0.2,0.2,0.4,0.4,0.4c0.2,0,0.4-0.2,0.4-0.4
		C-488.6,120.3-488.8,120.1-489.1,120.1z"/>
	<path opacity="0.25" fill="#CFCFCF" d="M-538.3,83.6c0.4,0,0.7-0.3,0.7-0.7c0-0.4-0.3-0.7-0.7-0.7c-0.4,0-0.7,0.3-0.7,0.7
		C-539,83.3-538.7,83.6-538.3,83.6z"/>
	<path opacity="0.25" fill="#CFCFCF" d="M-535.5,80.7c0.4,0,0.7-0.3,0.7-0.7c0-0.4-0.3-0.7-0.7-0.7c-0.4,0-0.7,0.3-0.7,0.7
		C-536.2,80.4-535.8,80.7-535.5,80.7z"/>
	<path opacity="0.25" fill="#CFCFCF" d="M-541.5,86.2c0.2,0,0.4-0.2,0.4-0.4c0-0.2-0.2-0.4-0.4-0.4c-0.2,0-0.4,0.2-0.4,0.4
		C-542,86-541.8,86.2-541.5,86.2z"/>
	<path opacity="0.25" fill="#CFCFCF" d="M-532.7,77.3c0.2,0,0.4-0.2,0.4-0.4c0-0.2-0.2-0.4-0.4-0.4c-0.2,0-0.4,0.2-0.4,0.4
		C-533.1,77.1-532.9,77.3-532.7,77.3z"/>
	<path opacity="0.25" fill="#CFCFCF" d="M-491.9,83.2c0.4,0,0.7-0.3,0.7-0.7c0-0.4-0.3-0.7-0.7-0.7c-0.4,0-0.7,0.3-0.7,0.7
		C-492.6,82.9-492.3,83.3-491.9,83.2z"/>
	<path opacity="0.25" fill="#CFCFCF" d="M-494.8,80.4c0.4,0,0.7-0.3,0.7-0.7c0-0.4-0.3-0.7-0.7-0.7c-0.4,0-0.7,0.3-0.7,0.7
		C-495.6,80.1-495.2,80.4-494.8,80.4z"/>
	<path opacity="0.25" fill="#CFCFCF" d="M-489.1,86.2c0.2,0,0.4-0.2,0.4-0.4c0-0.2-0.2-0.4-0.4-0.4c-0.2,0-0.4,0.2-0.4,0.4
		C-489.5,86-489.3,86.2-489.1,86.2z"/>
	<path opacity="0.25" fill="#CFCFCF" d="M-497.9,77.3c0.3,0,0.4-0.2,0.4-0.4c0-0.2-0.2-0.4-0.4-0.4c-0.2,0-0.4,0.2-0.4,0.4
		C-498.3,77.1-498.2,77.3-497.9,77.3z"/>
	<path opacity="0.25" fill="#CFCFCF" d="M-535.6,125.5c-0.4,0-0.7,0.3-0.7,0.7c0,0.4,0.3,0.7,0.7,0.7c0.4,0,0.7-0.3,0.7-0.7
		C-534.9,125.8-535.2,125.5-535.6,125.5z"/>
	<path opacity="0.25" fill="#CFCFCF" d="M-538.5,122.6c-0.4,0-0.7,0.3-0.7,0.7c0,0.4,0.3,0.7,0.7,0.7c0.4,0,0.7-0.3,0.7-0.7
		C-537.8,122.9-538.1,122.6-538.5,122.6z"/>
	<path opacity="0.25" fill="#CFCFCF" d="M-532.7,128.9c-0.2,0-0.4,0.2-0.4,0.4c0,0.2,0.2,0.4,0.4,0.4c0.2,0,0.4-0.2,0.4-0.4
		C-532.3,129.1-532.4,128.9-532.7,128.9z"/>
	<path opacity="0.25" fill="#CFCFCF" d="M-541.5,120.1c-0.2,0-0.4,0.2-0.4,0.4c0,0.2,0.2,0.4,0.4,0.4c0.3,0,0.4-0.2,0.4-0.4
		C-541.1,120.3-541.3,120.1-541.5,120.1z"/>
</g>
<g id="Layer_1">
	<g opacity="0.25">
		<path fill="#FFFFFF" d="M-515.2,122.2c-10.5,0-19-8.5-19-19c0-10.5,8.5-19,19-19c10.5,0,19,8.5,19,19
			C-496.2,113.7-504.7,122.2-515.2,122.2z"/>
		<g>
			
				<image overflow="visible" opacity="0.3" enable-background="new    " width="67" height="67" xlink:href="D9800FECB26F0648.png"  transform="matrix(0.9851 0 0 0.9851 -544.6318 73.1127)">
			</image>
			<g>
				<g>
					<path fill="#0177FF" d="M-515.2,81.2c-12.2,0-22,9.9-22,22c0,12.2,9.9,22,22,22c12.2,0,22-9.9,22-22
						C-493.2,91-503,81.2-515.2,81.2z M-515.2,121.6c-10.2,0-18.4-8.3-18.4-18.4c0-10.2,8.3-18.4,18.4-18.4
						c10.2,0,18.4,8.3,18.4,18.4C-496.8,113.4-505,121.6-515.2,121.6z"/>
				</g>
			</g>
		</g>
	</g>
</g>
</svg>
