<?xml version="1.0" encoding="utf-8"?>
<!-- Generator: Adobe Illustrator 19.1.0, SVG Export Plug-In . SVG Version: 6.00 Build 0)  -->
<svg version="1.1" xmlns="http://www.w3.org/2000/svg" xmlns:xlink="http://www.w3.org/1999/xlink" x="0px" y="0px"
	 viewBox="0 0 37.612 37.844" enable-background="new 0 0 37.612 37.844" xml:space="preserve">
<g id="Hover">
	<g>
		<linearGradient id="SVGID_1_" gradientUnits="userSpaceOnUse" x1="18.8059" y1="37.3515" x2="18.8059" y2="0.4932">
			<stop  offset="0" style="stop-color:#808184"/>
			<stop  offset="0.2444" style="stop-color:#838487"/>
			<stop  offset="0.4556" style="stop-color:#8E8F92"/>
			<stop  offset="0.6545" style="stop-color:#A0A1A3"/>
			<stop  offset="0.8446" style="stop-color:#B9BABC"/>
			<stop  offset="1" style="stop-color:#D3D4D6"/>
		</linearGradient>
		<path fill="url(#SVGID_1_)" d="M0.492,3.133c0-1.458,1.212-2.64,2.707-2.64h31.213c1.494,0,2.707,1.182,2.707,2.64v31.578
			c0,1.458-1.213,2.641-2.707,2.641H3.199c-1.495,0-2.707-1.183-2.707-2.641V3.133L0.492,3.133z"/>
		<path fill="#808184" d="M34.413,37.844H3.199C1.434,37.844,0,36.438,0,34.711V3.133C0,1.405,1.434,0,3.199,0h31.213
			c1.764,0,3.199,1.405,3.199,3.133v31.578C37.612,36.438,36.176,37.844,34.413,37.844L34.413,37.844z M3.199,0.985
			c-1.221,0-2.215,0.963-2.215,2.148v31.578c0,1.185,0.994,2.147,2.215,2.147h31.213c1.221,0,2.213-0.963,2.213-2.147V3.133
			c0-1.185-0.992-2.148-2.213-2.148H3.199L3.199,0.985z"/>
	</g>
	<g>
		<linearGradient id="SVGID_2_" gradientUnits="userSpaceOnUse" x1="68.1421" y1="37.3515" x2="68.1421" y2="0.4932">
			<stop  offset="0" style="stop-color:#808184"/>
			<stop  offset="0.2444" style="stop-color:#838487"/>
			<stop  offset="0.4556" style="stop-color:#8E8F92"/>
			<stop  offset="0.6545" style="stop-color:#A0A1A3"/>
			<stop  offset="0.8446" style="stop-color:#B9BABC"/>
			<stop  offset="1" style="stop-color:#D3D4D6"/>
		</linearGradient>
		<path fill="url(#SVGID_2_)" d="M49.829,3.133c0-1.458,1.211-2.64,2.707-2.64h31.213c1.494,0,2.707,1.182,2.707,2.64v31.578
			c0,1.458-1.213,2.641-2.707,2.641H52.536c-1.496,0-2.707-1.183-2.707-2.641V3.133L49.829,3.133z"/>
		<path fill="#808184" d="M83.748,37.844H52.536c-1.766,0-3.199-1.405-3.199-3.133V3.133C49.336,1.405,50.77,0,52.536,0h31.213
			c1.764,0,3.199,1.405,3.199,3.133v31.578C86.948,36.438,85.512,37.844,83.748,37.844L83.748,37.844z M52.536,0.985
			c-1.221,0-2.215,0.963-2.215,2.148v31.578c0,1.185,0.994,2.147,2.215,2.147h31.213c1.221,0,2.213-0.963,2.213-2.147V3.133
			c0-1.185-0.992-2.148-2.213-2.148H52.536L52.536,0.985z"/>
	</g>
	<path fill-rule="evenodd" clip-rule="evenodd" fill="#FFFFFF" d="M11.595,31.347V14.703H6.062v16.644H11.595L11.595,31.347z
		 M8.829,12.431c1.929,0,3.13-1.278,3.13-2.875C11.923,7.922,10.758,6.68,8.865,6.68c-1.893,0-3.13,1.242-3.13,2.876
		c0,1.597,1.201,2.875,3.058,2.875H8.829L8.829,12.431z"/>
	<path fill-rule="evenodd" clip-rule="evenodd" fill="#FFFFFF" d="M14.655,31.347h5.533v-9.295c0-0.496,0.035-0.994,0.182-1.35
		c0.4-0.993,1.31-2.023,2.838-2.023c2.004,0,2.803,1.526,2.803,3.765v8.903h5.533v-9.543c0-5.112-2.731-7.491-6.369-7.491
		c-2.984,0-4.295,1.669-5.024,2.805h0.037v-2.414h-5.533C14.728,16.264,14.655,31.347,14.655,31.347L14.655,31.347z"/>
	<g>
		<polygon fill="#FFFFFF" points="79.484,11.354 56.792,11.354 68.049,20.528 		"/>
		<polygon fill="#FFFFFF" points="68.043,21.814 56.001,11.999 56.001,26.673 80.283,26.673 80.283,11.995 		"/>
	</g>
</g>
<g id="Active">
	<g>
		<linearGradient id="SVGID_3_" gradientUnits="userSpaceOnUse" x1="18.8059" y1="37.3515" x2="18.8059" y2="0.4932">
			<stop  offset="0" style="stop-color:#0177FF"/>
			<stop  offset="0.2188" style="stop-color:#0479FF"/>
			<stop  offset="0.4078" style="stop-color:#0F7FFF"/>
			<stop  offset="0.5858" style="stop-color:#2188FF"/>
			<stop  offset="0.7571" style="stop-color:#3A95FF"/>
			<stop  offset="0.9221" style="stop-color:#5AA7FF"/>
			<stop  offset="1" style="stop-color:#6CB0FF"/>
		</linearGradient>
		<path fill="url(#SVGID_3_)" d="M0.492,3.133c0-1.458,1.212-2.64,2.707-2.64h31.213c1.494,0,2.707,1.182,2.707,2.64v31.578
			c0,1.458-1.213,2.641-2.707,2.641H3.199c-1.495,0-2.707-1.183-2.707-2.641V3.133L0.492,3.133z"/>
		<path fill="#0177FF" d="M34.413,37.844H3.199C1.434,37.844,0,36.438,0,34.711V3.133C0,1.405,1.434,0,3.199,0h31.213
			c1.764,0,3.199,1.405,3.199,3.133v31.578C37.612,36.438,36.176,37.844,34.413,37.844L34.413,37.844z M3.199,0.985
			c-1.221,0-2.215,0.963-2.215,2.148v31.578c0,1.185,0.994,2.147,2.215,2.147h31.213c1.221,0,2.213-0.963,2.213-2.147V3.133
			c0-1.185-0.992-2.148-2.213-2.148H3.199L3.199,0.985z"/>
	</g>
	<g>
		<linearGradient id="SVGID_4_" gradientUnits="userSpaceOnUse" x1="68.1421" y1="37.3515" x2="68.1421" y2="0.4932">
			<stop  offset="0" style="stop-color:#53AE47"/>
			<stop  offset="0.2735" style="stop-color:#56AF4B"/>
			<stop  offset="0.5098" style="stop-color:#60B455"/>
			<stop  offset="0.7323" style="stop-color:#71BC67"/>
			<stop  offset="0.9452" style="stop-color:#88C780"/>
			<stop  offset="1" style="stop-color:#8FCA88"/>
		</linearGradient>
		<path fill="url(#SVGID_4_)" d="M49.829,3.133c0-1.458,1.211-2.64,2.707-2.64h31.213c1.494,0,2.707,1.182,2.707,2.64v31.578
			c0,1.458-1.213,2.641-2.707,2.641H52.536c-1.496,0-2.707-1.183-2.707-2.641V3.133L49.829,3.133z"/>
		<path fill="#53AE47" d="M83.748,37.844H52.536c-1.766,0-3.199-1.405-3.199-3.133V3.133C49.336,1.405,50.77,0,52.536,0h31.213
			c1.764,0,3.199,1.405,3.199,3.133v31.578C86.948,36.438,85.512,37.844,83.748,37.844L83.748,37.844z M52.536,0.985
			c-1.221,0-2.215,0.963-2.215,2.148v31.578c0,1.185,0.994,2.147,2.215,2.147h31.213c1.221,0,2.213-0.963,2.213-2.147V3.133
			c0-1.185-0.992-2.148-2.213-2.148H52.536L52.536,0.985z"/>
	</g>
	<path fill-rule="evenodd" clip-rule="evenodd" fill="#FFFFFF" d="M11.595,31.347V14.703H6.062v16.644H11.595L11.595,31.347z
		 M8.829,12.431c1.929,0,3.13-1.278,3.13-2.875C11.923,7.922,10.758,6.68,8.865,6.68c-1.893,0-3.13,1.242-3.13,2.876
		c0,1.597,1.201,2.875,3.058,2.875H8.829L8.829,12.431z"/>
	<path fill-rule="evenodd" clip-rule="evenodd" fill="#FFFFFF" d="M14.655,31.347h5.533v-9.295c0-0.496,0.035-0.994,0.182-1.35
		c0.4-0.993,1.31-2.023,2.838-2.023c2.004,0,2.803,1.526,2.803,3.765v8.903h5.533v-9.543c0-5.112-2.731-7.491-6.369-7.491
		c-2.984,0-4.295,1.669-5.024,2.805h0.037v-2.414h-5.533C14.728,16.264,14.655,31.347,14.655,31.347L14.655,31.347z"/>
	<g>
		<polygon fill="#FFFFFF" points="79.484,11.354 56.792,11.354 68.049,20.528 		"/>
		<polygon fill="#FFFFFF" points="68.043,21.814 56.001,11.999 56.001,26.673 80.283,26.673 80.283,11.995 		"/>
	</g>
	<g>
		<g>
			<g>
				<path fill="#FFFFFF" d="M548.668,704.633c1.13,1.139,1.13,2.268,1.699,3.407c0,0,0.569,1.13,1.139,0.569
					c1.699-0.569,1.13-2.837,1.13-3.976c0-0.563-1.13-2.261-1.698-2.83c-0.569-1.139-1.139-1.707-1.699-2.27
					c-0.569,0-0.569,0-1.138,0C547.529,698.966,548.098,702.933,548.668,704.633"/>
				<path fill="#FFFFFF" d="M1133.388,768.158c0.563,1.698-2.837,2.267-3.975,1.13
					C1129.982,768.158,1131.688,767.02,1133.388,768.158z"/>
				<path fill="#FFFFFF" d="M681.945,721.084c0.57,0.569-1.138,1.139-1.697,1.699c-0.57,0.568-0.57,0.568-0.57,1.138l-1.139,0.57
					c-0.563,0.562-0.563,1.132-0.563,1.698s-1.138,1.132-1.138,1.132c-0.57,0.57-1.699,1.699-2.837,1.699
					c-0.564-1.132,0-2.262,1.138-3.4h0.569c0.563-1.133,1.699-1.133,2.831-1.699c0.569-0.57,1.139-1.138,1.707-1.698h0.562
					C680.807,722.222,681.376,721.084,681.945,721.084z"/>
				<path fill="#FFFFFF" d="M997.842,782.332c0.563,1.706-3.975,2.273-6.806,2.837c-1.706,0-2.837,0.57-4.537,1.138
					c-1.698,0-3.407,0.563-5.106,0.563c0-0.563,1.698-0.563,2.837-1.13c0,0,0-0.57,0.563-0.57c1.706-0.564,3.976-1.132,5.676-1.699
					C992.168,782.901,995.574,781.2,997.842,782.332z"/>
				<path fill="#FFFFFF" d="M1111.269,793.113c0,1.132-1.705,2.268-2.837,3.4c-0.57,0.57-1.132,0.57-1.699,1.139
					c-1.138,0.563-3.406,0.563-5.675,0.563c-2.269,0-4.536,0.569-6.237-0.563c-0.57-1.139,1.138-2.268,2.837-2.268
					c1.13,0,2.83,0.562,3.969,0C1105.595,795.381,1107.303,793.113,1111.269,793.113z"/>
				<path fill="#FFFFFF" d="M969.481,784.606c0,0.564-1.698-1.704-2.261-1.704C967.78,781.769,968.918,784.038,969.481,784.606z"/>
				<path fill="#FFFFFF" d="M1042.078,791.406c-2.268,1.138-4.537-1.132-6.807-2.268c-1.698-1.132-2.837-1.698-4.535-2.831
					c0-0.568,0-0.568,0-0.568c2.837,0.568,6.237,1.698,9.074,3.399C1040.378,789.137,1041.51,788.575,1042.078,791.406z"/>
				<path fill="#FFFFFF" d="M1063.628,801.049c0,0.569-0.569,0.569-1.132,0.569C1063.059,801.049,1063.059,801.049,1063.628,801.049
					z"/>
				<path fill="#FFFFFF" d="M814.654,704.633c0,1.139-1.698,2.268-3.4,2.837c-0.569,0-0.569,0.57-1.138,0.57
					c-1.699,1.13-3.4,1.698-4.538,2.837c0,0,0,0.563-0.569,0.563c-0.562,0.569-1.13,1.707-1.697,2.268
					c-0.564,0.569-1.133,0.569-1.699,1.139c0,0,0,0.568-0.57,0.568c-1.699,1.699-2.83,3.971-3.97,6.237
					c-1.698-0.568-0.569-1.698-0.569-2.837c0.569-1.13,1.139-1.698,1.707-2.267c1.13-1.133,1.698-2.268,2.83-3.399
					c0,0,0-0.571,0.57-0.571h0.569c0.569-0.569,0.569-1.138,0.569-1.138c1.133-1.699,3.401-3.4,5.668-5.099
					c0.57-0.569,1.699-1.138,2.837-1.707c0,0,1.133-0.562,1.699-0.562S814.085,704.073,814.654,704.633z"/>
				<path fill="#FFFFFF" d="M932.05,770.995c-2.268-0.57-4.535-0.57-6.237-1.707c-0.569,0-1.132,0-1.132,0
					c-0.569,0,0-0.562-0.569-0.562c-0.57,0-1.699,0-2.268-0.569c-0.57,0,0,0-0.57-0.571c-0.57,0-0.57-0.568-1.132-0.568
					c-1.138,0-2.837-1.698-5.106-0.563l-0.57,0.563c-0.562,2.267,2.838,2.267,5.107,2.837c1.13,0,2.268,0,3.4,0.569
					c1.706,0,2.837,0.57,3.975,1.133C927.513,772.124,929.783,771.557,932.05,770.995z"/>
				<path fill="#FFFFFF" d="M1056.822,818.061c0,1.14-0.57,1.707-2.268,1.707C1054.553,818.061,1055.122,818.061,1056.822,818.061z"
					/>
				<path fill="#FFFFFF" d="M675.139,778.363c0.569,0,0.569,0,1.132,0c0.57,1.706,2.837,7.943-1.132,7.943
					C670.602,786.868,674.001,780.068,675.139,778.363z"/>
				<path fill="#FFFFFF" d="M797.073,773.262c1.14,0,1.14,0.563,1.699,0.563c1.139,2.268,3.976,11.914-1.699,12.482
					C790.267,786.306,795.372,776.095,797.073,773.262z"/>
				<path fill="#FFFFFF" d="M874.771,790.845c0.57,0,0.57,0,1.139,0.562c0.563,2.27,2.268,10.211-1.139,10.781
					C871.371,802.187,873.64,793.113,874.771,790.845z"/>
				<path fill="#FFFFFF" d="M1058.522,818.061c0,0-0.563,0.57-1.132,0.57C1057.959,818.631,1057.959,818.061,1058.522,818.061z"/>
				<path fill="#FFFFFF" d="M1090.851,847.555c1.132,1.14,0.57,2.268-1.699,2.268
					C1088.583,849.254,1089.152,848.123,1090.851,847.555z"/>
				<g>
					<path fill="#FFFFFF" d="M704.063,708.041c0.569,0,0,0.569-0.569,0.569c0,0-0.57,1.132-1.133,1.132
						c-0.569,0.57-2.837,1.139-4.535,1.699c-2.268,1.138,2.831-2.27,3.4-2.27C702.363,709.17,701.794,708.608,704.063,708.041z"/>
				</g>
				<path fill="#FFFFFF" d="M730.72,700.095c-0.57-1.699-3.407,0-1.698,1.138C730.149,702.371,731.849,702.371,730.72,700.095z"/>
				<path fill="#FFFFFF" d="M590.633,768.726c0,0.562-1.138,1.132-1.138,1.132s-0.563,0,0,0.57c1.138,0.569,1.706,0,2.268,0
					c0.569,0,0.569-0.57,1.138-1.14c0-0.562,0.571-0.562,0.571-1.13c0,0,0,0-0.571-0.57
					C592.335,767.02,590.633,768.158,590.633,768.726"/>
			</g>
			<path fill="#FFFFFF" d="M145.998,726.758c0.569,0,0.569,0,1.131,0c0.569,1.699,2.837,7.937-1.131,8.507
				C141.46,735.265,144.866,728.458,145.998,726.758z"/>
			<path fill="#FFFFFF" d="M283.813,704.073c0.569,0,0.569,0,1.13,0c0.569,1.698,2.268,8.504-1.699,8.504
				C278.137,712.577,283.243,710.309,283.813,704.073z"/>
		</g>
		<path fill="#FFFFFF" d="M457.357,686.49c0,0,0.569,0.562,0.569,2.831c0,2.268-1.138,5.107-2.268,5.674
			c-1.706,0.57-2.837,0-2.837-1.138c0-1.132,1.698-1.699,2.267-3.4C456.22,687.622,456.22,686.49,457.357,686.49z"/>
	</g>
	<g>
		<g>
			<g>
				<path fill="#FFFFFF" d="M98.518,713.875c0.57-1.701,1.139-5.667,0.566-5.099c-0.569,0-0.569,0-1.138,0
					c-0.56,0.563-1.131,1.13-1.699,2.27c-0.568,0.569-1.698,2.267-1.698,2.83c0,1.139-0.569,3.407,1.13,3.976
					c0.57,0.562,1.139-0.569,1.139-0.569C97.388,716.144,97.388,715.014,98.518,713.875"/>
				<path fill="#FFFFFF" d="M-33.621,731.465h0.562c0.568,0.56,1.138,1.128,1.707,1.698c1.132,0.566,2.268,0.566,2.831,1.699h0.569
					c1.138,1.138,1.702,2.268,1.138,3.4c-1.138,0-2.267-1.129-2.837-1.699c0,0-1.138-0.565-1.138-1.132s0-1.137-0.563-1.698
					l-1.139-0.57c0-0.57,0-0.57-0.57-1.138c-0.559-0.56-2.267-1.13-1.697-1.699C-34.19,730.326-33.621,731.464-33.621,731.465z"/>
				<path fill="#FFFFFF" d="M-343.283,792.711c1.699,0.568,3.97,1.135,5.676,1.699c0.563,0,0.563,0.57,0.563,0.57
					c1.139,0.568,2.837,0.568,2.837,1.13c-1.698,0-3.407-0.563-5.106-0.563c-1.699-0.568-2.831-1.138-4.537-1.138
					c-2.831-0.564-7.369-1.132-6.806-2.837C-348.387,790.442-344.981,792.143-343.283,792.711z"/>
				<path fill="#FFFFFF" d="M-320.033,792.144c-0.563,0-2.261,2.268-2.261,1.704C-321.732,793.28-320.594,791.011-320.033,792.144z"
					/>
				<path fill="#FFFFFF" d="M-392.623,798.38c2.837-1.701,6.237-2.831,9.074-3.399c0,0,0,0,0,0.568
					c-1.698,1.133-2.837,1.699-4.535,2.831c-2.271,1.137-4.539,3.406-6.807,2.268C-394.323,797.817-393.192,798.379-392.623,798.38z
					"/>
				<path fill="#FFFFFF" d="M-415.309,810.86c-0.563,0-1.132,0-1.132-0.569C-415.872,810.291-415.872,810.291-415.309,810.86z"/>
				<path fill="#FFFFFF" d="M-165.767,713.315c0.566,0,1.699,0.562,1.699,0.562c1.138,0.569,2.267,1.138,2.837,1.707
					c2.267,1.699,4.535,3.4,5.668,5.099c0,0,0,0.569,0.569,1.138h0.569c0.57,0,0.57,0.571,0.57,0.571
					c1.132,1.13,1.699,2.266,2.83,3.399c0.568,0.569,1.138,1.137,1.707,2.267c0,1.139,1.129,2.27-0.569,2.837
					c-1.14-2.266-2.271-4.538-3.97-6.237c-0.57,0-0.57-0.568-0.57-0.568c-0.566-0.57-1.135-0.57-1.699-1.139
					c-0.566-0.562-1.135-1.699-1.697-2.268c-0.569,0-0.569-0.563-0.569-0.563c-1.138-1.139-2.838-1.707-4.538-2.837
					c-0.569,0-0.569-0.57-1.138-0.57c-1.702-0.569-3.4-1.698-3.4-2.837C-166.899,713.315-166.333,713.315-165.767,713.315z"/>
				<path fill="#FFFFFF" d="M-279.762,780.8c1.138-0.563,2.27-1.133,3.975-1.133c1.132-0.569,2.27-0.569,3.4-0.569
					c2.268-0.57,5.668-0.57,5.107-2.837l-0.57-0.563c-2.268-1.135-3.968,0.563-5.106,0.563c-0.562,0-0.562,0.568-1.132,0.568
					c-0.57,0.571,0,0.571-0.57,0.571c-0.569,0.569-1.698,0.569-2.268,0.569c-0.569,0,0,0.562-0.569,0.562c0,0-0.563,0-1.132,0
					c-1.702,1.137-3.969,1.137-6.237,1.707C-282.597,780.799-280.326,781.366-279.762,780.8z"/>
				<path fill="#FFFFFF" d="M-407.367,829.009c-1.698,0-2.268-0.566-2.268-1.707C-407.936,827.303-407.367,827.303-407.367,829.009z
					"/>
				<path fill="#FFFFFF" d="M-27.952,795.547c-3.969,0-1.702-6.237-1.132-7.943c0.563,0,0.563,0,1.132,0
					C-26.815,789.31-23.416,796.11-27.952,795.547z"/>
				<path fill="#FFFFFF" d="M-149.886,795.549c-5.676-0.568-2.838-10.213-1.699-12.482c0.559,0,0.559-0.563,1.699-0.563
					C-148.186,785.336-143.08,795.548-149.886,795.549z"/>
				<path fill="#FFFFFF" d="M-227.585,811.429c-3.407-0.57-1.702-8.512-1.139-10.781c0.569-0.562,0.569-0.562,1.139-0.562
					C-226.453,802.355-224.185,811.429-227.585,811.429z"/>
				<path fill="#FFFFFF" d="M588.84,705.757c-3.406,0-1.13-6.243-0.569-8.512c0,0,0-0.563,0.569-0.563
					C589.971,699.513,592.247,705.757,588.84,705.757z"/>
				<path fill="#FFFFFF" d="M-410.204,827.873c-0.569,0-1.132-0.57-1.132-0.57C-410.773,827.303-410.773,827.873-410.204,827.873z"
					/>
				<path fill="#FFFFFF" d="M-441.965,859.065c-2.27,0-2.831-1.128-1.699-2.268C-441.965,857.365-441.396,858.496-441.965,859.065z"
					/>
				<g>
					<path fill="#FFFFFF" d="M-54.039,718.413c0.569,0,5.668,3.407,3.4,2.27c-1.698-0.56-3.966-1.129-4.535-1.699
						c-0.563,0-1.133-1.132-1.133-1.132c-0.569,0-1.138-0.569-0.569-0.569C-54.608,717.85-55.177,718.412-54.039,718.413z"/>
				</g>
				<path fill="#FFFFFF" d="M-81.835,710.475c1.709-1.138-1.128-2.837-1.698-1.138C-84.662,711.613-82.963,711.613-81.835,710.475z"
					/>
				<path fill="#FFFFFF" d="M56.554,777.968c0-0.568-1.702-1.706-2.268-1.139c-0.571,0.57-0.571,0.57-0.571,0.57
					c0,0.569,0.571,0.569,0.571,1.13c0.569,0.57,0.569,1.14,1.138,1.14c0.563,0,1.13,0.569,2.268,0c0.563-0.57,0-0.57,0-0.57
					S56.554,778.529,56.554,777.968"/>
			</g>
			<path fill="#FFFFFF" d="M501.188,744.507c-3.968-0.57-1.699-6.807-1.13-8.507c0.562,0,0.562,0,1.13,0
				C502.32,737.7,505.726,744.507,501.188,744.507z"/>
			<path fill="#FFFFFF" d="M363.943,721.819c-3.968,0-2.268-6.806-1.699-8.504c0.562,0,0.562,0,1.13,0
				C363.944,719.551,369.049,721.819,363.943,721.819z"/>
		</g>
		<path fill="#FFFFFF" d="M192.099,699.7c0.569,1.701,2.267,2.268,2.267,3.4c0,1.138-1.132,1.708-2.837,1.138
			c-1.13-0.568-2.268-3.406-2.268-5.674c0-2.27,0.569-2.831,0.569-2.831C190.967,695.732,190.967,696.864,192.099,699.7z"/>
	</g>
</g>
</svg>
