<svg xmlns="http://www.w3.org/2000/svg" xmlns:xlink="http://www.w3.org/1999/xlink" viewBox="0 0 37.61 37.84"><defs><style>.cls-1{fill:url(#linear-gradient);}.cls-2{fill:#808184;}.cls-3{fill:url(#linear-gradient-2);}.cls-4{fill:#808285;}.cls-5,.cls-6{fill:#fff;fill-rule:evenodd;}.cls-6{stroke:#fff;stroke-miterlimit:10;stroke-width:0.75px;}</style><linearGradient id="linear-gradient" x1="18.81" y1="37.35" x2="18.81" y2="0.49" gradientUnits="userSpaceOnUse"><stop offset="0" stop-color="#808184"/><stop offset="0.24" stop-color="#838487"/><stop offset="0.46" stop-color="#8e8f92"/><stop offset="0.65" stop-color="#a0a1a3"/><stop offset="0.84" stop-color="#b9babc"/><stop offset="1" stop-color="#d3d4d6"/></linearGradient><linearGradient id="linear-gradient-2" x1="18.81" y1="37.35" x2="18.81" y2="0.49" gradientUnits="userSpaceOnUse"><stop offset="0" stop-color="#0177ff"/><stop offset="0.22" stop-color="#0479ff"/><stop offset="0.41" stop-color="#0f7eff"/><stop offset="0.59" stop-color="#2188ff"/><stop offset="0.76" stop-color="#3a95ff"/><stop offset="0.92" stop-color="#5aa6ff"/><stop offset="1" stop-color="#6cb0ff"/></linearGradient></defs><title>lnstagram Active</title><g id="Hover"><path class="cls-1" d="M.49,3.13A2.67,2.67,0,0,1,3.2.49H34.41a2.67,2.67,0,0,1,2.71,2.64V34.71a2.68,2.68,0,0,1-2.71,2.64H3.2A2.67,2.67,0,0,1,.49,34.71V3.13Z"/><path class="cls-2" d="M34.41,37.84H3.2A3.17,3.17,0,0,1,0,34.71V3.13A3.17,3.17,0,0,1,3.2,0H34.41a3.17,3.17,0,0,1,3.2,3.13V34.71a3.17,3.17,0,0,1-3.2,3.13ZM3.2,1A2.18,2.18,0,0,0,1,3.13V34.71A2.18,2.18,0,0,0,3.2,36.86H34.41a2.18,2.18,0,0,0,2.21-2.15V3.13A2.18,2.18,0,0,0,34.41,1Z"/></g><g id="Active"><path class="cls-3" d="M.49,3.13A2.67,2.67,0,0,1,3.2.49H34.41a2.67,2.67,0,0,1,2.71,2.64V34.71a2.68,2.68,0,0,1-2.71,2.64H3.2A2.67,2.67,0,0,1,.49,34.71V3.13Z"/><path class="cls-4" d="M34.41,37.84H3.2A3.17,3.17,0,0,1,0,34.71V3.13A3.17,3.17,0,0,1,3.2,0H34.41a3.17,3.17,0,0,1,3.2,3.13V34.71a3.17,3.17,0,0,1-3.2,3.13ZM3.2,1A2.18,2.18,0,0,0,1,3.13V34.71A2.18,2.18,0,0,0,3.2,36.86H34.41a2.18,2.18,0,0,0,2.21-2.15V3.13A2.18,2.18,0,0,0,34.41,1Z"/><path class="cls-5" d="M27.41,9.47a1.44,1.44,0,1,0,1.44,1.44,1.44,1.44,0,0,0-1.44-1.44Z"/><path class="cls-6" d="M27.58,19.63a8.94,8.94,0,1,0-8.94,8.94,8.94,8.94,0,0,0,8.94-8.94ZM11.33,7.4H25.95a4.93,4.93,0,0,1,4.91,4.91V26.94a4.92,4.92,0,0,1-4.91,4.92H11.33a4.93,4.93,0,0,1-4.92-4.92V12.32A4.93,4.93,0,0,1,11.33,7.4ZM25.95,5.77H11.33a6.57,6.57,0,0,0-6.55,6.55V26.94a6.57,6.57,0,0,0,6.55,6.55H25.95a6.57,6.57,0,0,0,6.55-6.55V12.32a6.57,6.57,0,0,0-6.55-6.55ZM11.55,19.63a7.09,7.09,0,1,1,7.09,7.08,7.09,7.09,0,0,1-7.09-7.08Z"/></g></svg>