<!-- Generator: Adobe Illustrator 19.1.0, SVG Export Plug-In  -->
<svg version="1.1"
	 xmlns="http://www.w3.org/2000/svg" xmlns:xlink="http://www.w3.org/1999/xlink" xmlns:a="http://ns.adobe.com/AdobeSVGViewerExtensions/3.0/"
	 x="0px" y="0px" width="188.682px" height="36.812px" viewBox="0 0 188.682 36.812"
	 style="enable-background:new 0 0 188.682 36.812;" xml:space="preserve">
<style type="text/css">
	.st0{fill:#FFFFFF;}
</style>
<defs>
</defs>
<path class="st0" d="M50.712,6.568l-9.613,25.504h3.542l2.774-7.657h10.01l2.668,7.657h3.725L54.561,6.568H50.712z M48.446,21.573
	l4.07-11.232l3.918,11.232H48.446z M73.808,18.825L66.422,6.568h-4.101l9.723,15.226v10.277h3.521V21.795l9.706-15.226h-4.097
	L73.808,18.825z M148.92,18.825l-7.383-12.257h-4.1l9.721,15.226v10.277h3.521V21.795l9.707-15.226h-4.102L148.92,18.825z
	 M122.725,5.89c-4.313,0-7.568,1.567-9.768,4.706c-1.713,2.447-2.57,5.392-2.57,8.829c0,3.806,1,6.958,3.002,9.449
	c2.25,2.584,5.336,3.878,9.268,3.878c4.205,0,7.441-1.477,9.713-4.431c1.936-2.516,2.902-5.672,2.902-9.468
	c0-3.509-0.848-6.39-2.535-8.637C130.565,7.332,127.231,5.89,122.725,5.89z M129.653,26.405c-1.359,2.175-3.559,3.258-6.6,3.258
	c-3.203,0-5.516-0.966-6.947-2.894c-1.426-1.931-2.137-4.301-2.137-7.114c0-3.512,0.828-6.171,2.494-7.976
	c1.664-1.802,3.814-2.703,6.453-2.703c2.715,0,4.855,0.913,6.424,2.732c1.568,1.818,2.352,4.221,2.352,7.206
	C131.692,21.736,131.008,24.234,129.653,26.405z M103.061,18.359c0.891-0.45,1.574-0.952,2.051-1.495
	c0.914-1.032,1.371-2.354,1.371-3.966c0-1.379-0.373-2.598-1.119-3.649c-1.271-1.785-3.412-2.681-6.424-2.681H87.9v25.504h10.862
	c3.385,0,5.848-0.995,7.4-2.983c1.037-1.329,1.559-2.812,1.559-4.456c0-1.951-0.578-3.485-1.723-4.593
	C105.35,19.416,104.372,18.856,103.061,18.359z M91.295,9.468h6.234c1.523,0,2.67,0.166,3.441,0.489
	c1.371,0.579,2.057,1.702,2.057,3.368c0,1.657-0.644,2.804-1.934,3.439c-0.82,0.407-1.967,0.61-3.441,0.61h-6.357V9.468z
	 M103.401,27.224c-0.914,1.214-2.439,1.822-4.578,1.822h-7.527v-8.894h6.932c1.459,0,2.637,0.18,3.525,0.534
	c1.672,0.665,2.51,1.916,2.51,3.749C104.262,25.525,103.973,26.453,103.401,27.224z M11.391,6.568H0v25.504h3.516V21.267h7.902
	c2.53,0,4.42-0.737,5.668-2.21c1.244-1.474,1.867-3.204,1.867-5.192c0-2.31-0.698-4.102-2.091-5.382
	C15.467,7.207,13.642,6.568,11.391,6.568z M14.01,17.382c-0.952,0.655-2.193,0.981-3.72,0.981H3.516v-8.77h6.774
	c1.309,0,2.343,0.179,3.092,0.537c1.371,0.665,2.057,1.928,2.057,3.79C15.438,15.57,14.959,16.728,14.01,17.382z M26.996,6.568
	h-3.521v25.504h16.181v-3.026h-12.66V6.568z M188.563,7.315C188.623,6.942,188.682,0,188.682,0
	c-3.031,2.398-4.855,5.112-4.855,5.112c-3.408,4.672-2.588,11.421-2.588,11.421c-5.367-7.51-7.193-9.088-7.193-9.088
	c-3.98-4.037-9.086-6.186-9.086-6.186l-0.195,0.065c0.51,7.069,4.801,10.538,4.801,10.538c3.031,3.347,8.648,4.798,8.648,4.798
	c-9.344,0.944-9.662,7.387-9.662,7.387c-0.434,3.973,6.125,5.487,6.125,5.487c-1.027,1.989,0.031,3.311,0.031,3.311
	c4.809-2.494,4.201-1.986,4.201-1.986c-0.32,1.766-0.16,1.803-0.16,1.803c0.201,0.131,0.365,0.03,0.365,0.03l5.533-2.15
	c0.061,0,0.816-0.882,0.816-0.882c0.697-1.702,0.826-4.794,0.826-4.794c0.754-4.166-2.402-6.818-2.402-6.818l0.127-0.191
	C187.93,14.199,188.563,7.315,188.563,7.315z M173.918,22.422c-0.691,0-1.25-0.575-1.25-1.283c0-0.705,0.559-1.276,1.25-1.276
	c0.689,0,1.248,0.571,1.248,1.276C175.166,21.847,174.608,22.422,173.918,22.422z M177.516,32.121l-2.623,1.353l-2.68-1.321
	c-0.316-0.063-0.359-0.011-0.359-0.011s0.213,3.404,0.551,3.663c0,0,2.105-1.014,2.439-1.139c0,0,0.463-0.088,2.734,2.065
	c0,0,0.062,0.218,0.252-0.063l-0.189-4.516L177.516,32.121z M184.299,32.074l-5.457,1.622c0,0-0.219,0.162-0.188,0.602
	c0,0-0.066,0.536,0.188,0.602l5.865-1.733c0,0,0.383-0.604,0.162-1.045C184.87,32.121,184.807,31.963,184.299,32.074z"/>
</svg>