<!-- Generator: Adobe Illustrator 19.2.0, SVG Export Plug-In  -->
<svg version="1.1"
	 xmlns="http://www.w3.org/2000/svg" xmlns:xlink="http://www.w3.org/1999/xlink" xmlns:a="http://ns.adobe.com/AdobeSVGViewerExtensions/3.0/"
	 x="0px" y="0px" width="446.303px" height="126.763px" viewBox="0 0 446.303 126.763"
	 style="enable-background:new 0 0 446.303 126.763;" xml:space="preserve">
<style type="text/css">
	.st0{fill:#FFFFFF;}
</style>
<defs>
</defs>
<g>
	<line class="st0" x1="392.227" y1="28.213" x2="392.227" y2="31.084"/>
	<line class="st0" x1="387.731" y1="31.084" x2="392.227" y2="31.084"/>
	<line class="st0" x1="387.731" y1="53.484" x2="387.731" y2="30.859"/>
	<polygon class="st0" points="391.66,50.071 393.008,50.071 393.1,50.071 393.407,50.071 	"/>
	<polygon class="st0" points="38.535,35.409 38.535,40.37 28.238,50.071 16.974,50.071 16.974,4.001 22.628,4.001 22.628,1.12 
		0,1.12 0,4.001 5.646,4.001 5.646,50.071 0,50.071 0,52.944 41.472,52.944 41.472,35.409 	"/>
	<path class="st0" d="M262.206,27.912v2.9h8.301v8.717c0,1.009-0.05,1.949-0.15,2.824c-0.102,0.874-0.254,1.686-0.456,2.428
		c-0.202,0.746-0.458,1.425-0.766,2.044c-0.305,0.612-0.668,1.165-1.081,1.656c-0.065,0.08-0.138,0.157-0.208,0.237
		c-0.074,0.076-0.145,0.152-0.219,0.229c-0.074,0.07-0.148,0.145-0.227,0.215c-0.078,0.072-0.157,0.143-0.239,0.211
		c-0.062,0.051-0.126,0.104-0.192,0.156c-0.065,0.05-0.13,0.102-0.2,0.15c-0.065,0.05-0.136,0.098-0.204,0.145
		c-0.069,0.046-0.14,0.095-0.21,0.139c-0.064,0.037-0.126,0.08-0.191,0.117c-0.066,0.037-0.133,0.076-0.198,0.111
		c-0.066,0.039-0.132,0.074-0.202,0.107c-0.068,0.039-0.137,0.072-0.206,0.104c-0.066,0.034-0.137,0.065-0.202,0.095
		c-0.07,0.03-0.139,0.061-0.211,0.089c-0.07,0.032-0.141,0.06-0.21,0.086c-0.074,0.031-0.146,0.056-0.221,0.083
		c-0.074,0.026-0.151,0.054-0.225,0.078c-0.066,0.021-0.132,0.039-0.197,0.06c-0.005,0.002-0.005,0.002-0.009,0.002l-0.14,0.044
		c-0.042,0.01-0.083,0.022-0.124,0.035c-0.078,0.021-0.157,0.043-0.239,0.066c-0.087,0.018-0.176,0.039-0.264,0.059
		c-0.087,0.019-0.178,0.042-0.269,0.059c-0.091,0.016-0.182,0.03-0.272,0.049c-0.093,0.017-0.186,0.031-0.278,0.046
		c-0.105,0.014-0.21,0.03-0.315,0.045c-0.107,0.015-0.215,0.022-0.324,0.039c-0.109,0.009-0.219,0.019-0.328,0.027
		c-0.111,0.008-0.223,0.018-0.336,0.024c-0.084,0.004-0.171,0.009-0.254,0.015c-0.086,0.004-0.173,0.006-0.258,0.01
		c-0.089,0-0.175,0.003-0.262,0.003c-0.089,0.002-0.178,0.002-0.264,0.002c-0.054,0-0.107,0-0.161,0
		c-0.05,0-0.104-0.002-0.157-0.002c-0.053,0-0.103-0.003-0.156-0.003c-0.05,0-0.102-0.002-0.152-0.004
		c-0.137-0.004-0.265-0.012-0.396-0.019c-0.132-0.004-0.26-0.012-0.388-0.024c-0.126-0.009-0.252-0.021-0.375-0.031
		c-0.124-0.015-0.248-0.026-0.37-0.043c-0.104-0.011-0.212-0.029-0.315-0.041c-0.104-0.015-0.206-0.035-0.312-0.05
		c-0.1-0.019-0.204-0.037-0.303-0.056c-0.102-0.021-0.198-0.041-0.297-0.064c-0.091-0.019-0.184-0.039-0.274-0.064
		c-0.091-0.022-0.182-0.048-0.271-0.07c-0.087-0.024-0.178-0.052-0.264-0.076c-0.087-0.029-0.174-0.054-0.26-0.083
		c-0.087-0.028-0.174-0.06-0.258-0.09c-0.085-0.031-0.172-0.062-0.254-0.096c-0.085-0.03-0.165-0.067-0.252-0.103
		c-0.078-0.035-0.158-0.07-0.239-0.107c-0.097-0.046-0.189-0.093-0.284-0.139c-0.091-0.047-0.184-0.097-0.274-0.146
		c-0.091-0.051-0.18-0.103-0.267-0.156c-0.086-0.052-0.173-0.105-0.26-0.163c-0.367-0.241-0.709-0.514-1.031-0.809
		c-0.319-0.295-0.619-0.621-0.899-0.972c-0.276-0.35-0.534-0.729-0.771-1.136c-0.239-0.407-0.458-0.84-0.66-1.304
		c-0.074-0.174-0.15-0.355-0.221-0.541c-0.072-0.184-0.14-0.375-0.208-0.567c-0.066-0.191-0.128-0.39-0.19-0.59
		c-0.062-0.2-0.122-0.406-0.178-0.614c-0.066-0.235-0.128-0.477-0.186-0.724c-0.058-0.246-0.113-0.498-0.165-0.751
		c-0.054-0.258-0.105-0.518-0.152-0.786c-0.046-0.268-0.091-0.54-0.132-0.819c-0.064-0.396-0.12-0.8-0.17-1.217
		c-0.054-0.421-0.097-0.85-0.14-1.289c-0.042-0.439-0.079-0.891-0.111-1.349c-0.033-0.462-0.062-0.935-0.089-1.415
		c-0.027-0.499-0.048-1.009-0.068-1.53c-0.017-0.521-0.033-1.053-0.043-1.597c-0.011-0.545-0.023-1.1-0.027-1.667
		c-0.004-0.567-0.008-1.146-0.008-1.736c0-0.462,0.004-0.916,0.006-1.361c0.006-0.446,0.015-0.887,0.022-1.318
		c0.009-0.433,0.021-0.856,0.033-1.274c0.015-0.419,0.029-0.832,0.05-1.234c0.024-0.573,0.058-1.134,0.091-1.679
		c0.037-0.542,0.074-1.077,0.124-1.594c0.045-0.516,0.095-1.023,0.148-1.512c0.058-0.491,0.117-0.969,0.184-1.436
		c0.043-0.307,0.088-0.611,0.138-0.906c0.046-0.293,0.097-0.584,0.148-0.868c0.054-0.283,0.107-0.565,0.165-0.835
		c0.058-0.272,0.118-0.544,0.182-0.804c0.045-0.204,0.095-0.404,0.146-0.604c0.052-0.196,0.104-0.392,0.159-0.582
		c0.054-0.196,0.106-0.382,0.165-0.569c0.058-0.182,0.115-0.363,0.175-0.545c0.05-0.144,0.102-0.291,0.15-0.434
		c0.054-0.144,0.105-0.284,0.159-0.423c0.052-0.14,0.109-0.274,0.163-0.41c0.058-0.134,0.111-0.266,0.169-0.396
		c0.054-0.12,0.105-0.231,0.157-0.342c0.054-0.116,0.107-0.227,0.165-0.337c0.053-0.109,0.109-0.219,0.164-0.326
		c0.059-0.105,0.116-0.213,0.176-0.316c0.054-0.093,0.109-0.192,0.165-0.285c0.058-0.097,0.113-0.189,0.173-0.278
		c0.056-0.093,0.118-0.184,0.176-0.272c0.058-0.088,0.119-0.173,0.18-0.262c0.063-0.083,0.121-0.167,0.186-0.252
		c0.064-0.08,0.126-0.164,0.188-0.243c0.066-0.081,0.128-0.159,0.194-0.235c0.067-0.078,0.132-0.15,0.202-0.227
		c0.069-0.08,0.144-0.163,0.218-0.235c0.077-0.08,0.151-0.157,0.227-0.231c0.078-0.074,0.152-0.148,0.23-0.216
		c0.083-0.072,0.157-0.144,0.239-0.213c0.1-0.085,0.2-0.165,0.304-0.245c0.101-0.081,0.208-0.159,0.312-0.233
		c0.107-0.076,0.212-0.15,0.321-0.218c0.109-0.072,0.219-0.141,0.33-0.204c0.44-0.262,0.901-0.486,1.389-0.676
		c0.486-0.19,0.996-0.349,1.532-0.475c0.536-0.126,1.098-0.216,1.684-0.278c0.585-0.06,1.196-0.089,1.835-0.089
		c2.401,0,4.488,0.588,6.304,1.597c1.815,1.006,3.358,2.432,4.674,4.107c1.31,1.673,2.389,3.591,3.28,5.587
		c0.889,1.997,1.588,4.068,2.137,6.043l0.19,0.658h2.728V0.083l-7.262,4.542c-0.768-0.697-1.638-1.332-2.579-1.898
		c-0.937-0.561-1.942-1.054-2.986-1.46c-1.04-0.402-2.12-0.718-3.197-0.935C263.902,0.113,262.817,0,261.771,0
		c-3.661,0-7.098,0.73-10.196,2.062c-3.094,1.335-5.85,3.273-8.148,5.697c-2.302,2.42-4.14,5.324-5.408,8.593
		c-1.265,3.265-1.955,6.892-1.955,10.757c0,3.936,0.64,7.607,1.815,10.892c1.178,3.288,2.894,6.194,5.049,8.608
		c2.158,2.418,4.757,4.338,7.691,5.656c2.938,1.318,6.215,2.034,9.734,2.034c1.823,0,3.481-0.215,4.967-0.636
		c1.484-0.425,2.805-1.061,3.952-1.908c1.146-0.842,2.12-1.896,2.925-3.16c0.681-1.07,1.231-2.298,1.666-3.665l4.753,8.667h2.737
		l0.605-0.103V30.812h4.59v-2.9H262.206z"/>
	<path class="st0" d="M368.21,28.213v2.871h8.185v8.607c0,0.994-0.049,1.921-0.148,2.78c-0.101,0.864-0.251,1.661-0.449,2.396
		c-0.198,0.733-0.45,1.402-0.753,2.011c-0.304,0.607-0.656,1.15-1.062,1.636c-0.07,0.074-0.138,0.154-0.21,0.23
		c-0.07,0.077-0.141,0.153-0.211,0.226c-0.074,0.072-0.148,0.145-0.227,0.214c-0.074,0.072-0.152,0.139-0.231,0.207
		c-0.061,0.051-0.128,0.103-0.191,0.154c-0.066,0.052-0.13,0.099-0.196,0.148c-0.065,0.046-0.134,0.095-0.202,0.143
		c-0.07,0.043-0.138,0.089-0.208,0.134c-0.06,0.039-0.126,0.08-0.189,0.115c-0.064,0.039-0.128,0.076-0.194,0.113
		c-0.066,0.035-0.134,0.07-0.2,0.105c-0.066,0.035-0.132,0.066-0.202,0.104c-0.067,0.031-0.134,0.063-0.202,0.091
		c-0.067,0.03-0.136,0.062-0.206,0.089c-0.066,0.03-0.136,0.058-0.21,0.084c-0.07,0.029-0.141,0.056-0.211,0.081
		c-0.074,0.025-0.148,0.054-0.227,0.076c-0.074,0.026-0.153,0.049-0.228,0.072c-0.078,0.022-0.156,0.045-0.232,0.065
		c-0.081,0.025-0.159,0.046-0.239,0.064c-0.085,0.022-0.171,0.041-0.258,0.062c-0.089,0.022-0.178,0.039-0.267,0.056
		c-0.088,0.019-0.179,0.035-0.27,0.05c-0.091,0.015-0.182,0.033-0.276,0.047c-0.102,0.015-0.207,0.031-0.312,0.042
		c-0.105,0.014-0.213,0.026-0.32,0.039c-0.107,0.012-0.214,0.019-0.325,0.03c-0.109,0.007-0.219,0.013-0.33,0.023
		c-0.083,0.004-0.17,0.008-0.252,0.01c-0.087,0.004-0.169,0.009-0.258,0.013c-0.085,0.002-0.171,0.004-0.258,0.006
		c-0.087,0-0.174,0.002-0.265,0.002c-0.051,0-0.103-0.002-0.156-0.002c-0.05,0-0.099,0-0.154-0.002l-0.151-0.002
		c-0.051-0.002-0.103-0.002-0.152-0.006c-0.132-0.005-0.262-0.011-0.392-0.015c-0.128-0.006-0.252-0.017-0.38-0.024
		c-0.124-0.011-0.249-0.021-0.371-0.033c-0.12-0.015-0.243-0.027-0.363-0.039c-0.103-0.015-0.21-0.029-0.312-0.048
		c-0.103-0.013-0.206-0.028-0.305-0.045c-0.104-0.018-0.202-0.037-0.3-0.054c-0.101-0.023-0.197-0.042-0.292-0.064
		c-0.091-0.021-0.182-0.039-0.272-0.062c-0.091-0.022-0.18-0.048-0.267-0.072c-0.089-0.024-0.175-0.05-0.262-0.076
		c-0.085-0.025-0.171-0.05-0.256-0.079c-0.084-0.028-0.169-0.06-0.256-0.09c-0.082-0.027-0.169-0.062-0.249-0.096
		c-0.081-0.03-0.163-0.066-0.246-0.101c-0.08-0.033-0.161-0.072-0.239-0.105c-0.093-0.047-0.188-0.091-0.276-0.138
		c-0.095-0.046-0.184-0.096-0.274-0.145c-0.088-0.052-0.175-0.104-0.266-0.155c-0.085-0.054-0.169-0.106-0.254-0.16
		c-0.365-0.241-0.703-0.506-1.017-0.799c-0.318-0.295-0.615-0.612-0.89-0.959c-0.272-0.347-0.529-0.722-0.763-1.124
		c-0.235-0.402-0.452-0.829-0.649-1.287c-0.079-0.176-0.148-0.354-0.219-0.536c-0.072-0.184-0.141-0.367-0.207-0.562
		c-0.065-0.189-0.13-0.386-0.189-0.581c-0.062-0.202-0.121-0.404-0.178-0.61c-0.063-0.235-0.123-0.475-0.181-0.716
		c-0.058-0.248-0.116-0.495-0.165-0.749c-0.054-0.252-0.103-0.514-0.148-0.775c-0.05-0.268-0.096-0.534-0.135-0.81
		c-0.063-0.391-0.117-0.795-0.167-1.205c-0.05-0.414-0.095-0.835-0.138-1.271c-0.039-0.436-0.076-0.879-0.111-1.335
		c-0.033-0.453-0.061-0.92-0.085-1.398c-0.028-0.486-0.05-0.989-0.068-1.501c-0.019-0.514-0.032-1.036-0.043-1.57
		c-0.013-0.534-0.02-1.08-0.024-1.64c-0.005-0.555-0.009-1.126-0.009-1.705c0-0.452,0.004-0.897,0.004-1.339
		c0.007-0.441,0.013-0.868,0.022-1.297c0.008-0.423,0.02-0.841,0.032-1.256c0.017-0.409,0.029-0.815,0.048-1.213
		c0.026-0.565,0.06-1.114,0.093-1.65c0.033-0.538,0.074-1.064,0.119-1.574c0.046-0.511,0.096-1.008,0.149-1.495
		c0.056-0.483,0.115-0.953,0.181-1.413c0.042-0.303,0.087-0.603,0.135-0.893c0.047-0.291,0.097-0.576,0.146-0.858
		c0.054-0.28,0.108-0.557,0.165-0.827c0.058-0.27,0.115-0.534,0.177-0.794c0.046-0.2,0.095-0.398,0.145-0.596
		c0.054-0.194,0.104-0.386,0.157-0.575c0.054-0.192,0.106-0.375,0.165-0.559c0.056-0.182,0.113-0.363,0.173-0.538
		c0.05-0.146,0.099-0.289,0.148-0.433c0.052-0.138,0.103-0.278,0.157-0.415c0.051-0.136,0.107-0.272,0.16-0.402
		c0.054-0.136,0.111-0.266,0.17-0.394c0.049-0.118,0.103-0.229,0.156-0.34c0.05-0.114,0.104-0.223,0.161-0.33
		c0.05-0.109,0.107-0.217,0.163-0.322l0.336-0.594c0.056-0.093,0.111-0.186,0.169-0.274c0.058-0.093,0.116-0.179,0.174-0.27
		c0.054-0.081,0.173-0.248,0.239-0.342c0.041-0.054,0.08-0.111,0.119-0.163c0.064-0.082,0.124-0.163,0.189-0.241
		c0.062-0.079,0.126-0.157,0.192-0.233c0.064-0.076,0.13-0.15,0.196-0.225c0.071-0.081,0.144-0.157,0.218-0.235
		c0.07-0.076,0.145-0.152,0.224-0.223c0.074-0.074,0.152-0.147,0.231-0.221c0.074-0.066,0.152-0.136,0.231-0.202
		c0.099-0.086,0.197-0.167,0.301-0.245c0.099-0.079,0.202-0.155,0.31-0.232c0.104-0.072,0.21-0.144,0.315-0.214
		c0.105-0.072,0.217-0.138,0.326-0.202c0.433-0.258,0.889-0.48,1.367-0.668c0.478-0.189,0.984-0.342,1.51-0.466
		c0.53-0.124,1.083-0.215,1.658-0.276c0.58-0.06,1.183-0.089,1.809-0.089c2.374,0,4.441,0.582,6.235,1.576
		c1.794,0.995,3.32,2.403,4.618,4.051c1.297,1.65,2.363,3.548,3.24,5.516c0.879,1.972,1.567,4.016,2.103,5.965l0.18,0.67h2.729V0.73
		l-7.199,4.491c-0.184-0.165-0.371-0.33-0.566-0.487c-0.193-0.159-0.392-0.313-0.598-0.464c-0.011-0.008-0.02-0.014-0.029-0.024
		c-0.004-0.002-0.008-0.004-0.012-0.006c-0.029-0.023-0.061-0.039-0.089-0.06c-0.163-0.12-0.328-0.239-0.497-0.355
		c-0.215-0.143-0.432-0.283-0.652-0.419c-0.177-0.107-0.358-0.212-0.54-0.316c-0.182-0.103-0.367-0.204-0.553-0.301
		c-0.145-0.072-0.289-0.144-0.431-0.214c-0.011-0.006-0.021-0.01-0.031-0.017c-0.035-0.017-0.07-0.035-0.105-0.052
		c-0.189-0.093-0.382-0.179-0.575-0.264c-0.155-0.068-0.31-0.132-0.462-0.2c-0.111-0.044-0.223-0.087-0.334-0.13
		c-0.009-0.002-0.017-0.006-0.025-0.01c-0.008-0.004-0.017-0.006-0.024-0.008c-0.027-0.01-0.056-0.023-0.083-0.033
		c-0.158-0.059-0.314-0.115-0.474-0.171c-0.157-0.06-0.314-0.111-0.475-0.163c-0.143-0.045-0.287-0.091-0.432-0.134
		c-0.022-0.006-0.047-0.012-0.069-0.02c-0.007-0.002-0.013-0.002-0.02-0.004c-0.115-0.033-0.229-0.068-0.342-0.097
		c-0.148-0.043-0.293-0.076-0.438-0.115c-0.145-0.033-0.289-0.072-0.438-0.104c-0.119-0.024-0.237-0.049-0.354-0.074
		c-0.002,0-0.004,0-0.004,0c-0.015-0.002-0.029-0.006-0.041-0.008c-0.133-0.024-0.267-0.049-0.4-0.074
		c-0.134-0.024-0.269-0.043-0.4-0.066c-0.132-0.021-0.266-0.039-0.4-0.054c-0.119-0.017-0.239-0.029-0.36-0.043
		c-0.122-0.011-0.237-0.025-0.359-0.031c-0.121-0.012-0.241-0.021-0.356-0.027c-0.12-0.006-0.239-0.012-0.359-0.016
		c-0.041-0.002-0.078-0.002-0.121-0.002c-0.042-0.002-0.081-0.002-0.122-0.002c-0.041-0.002-0.082-0.002-0.124-0.002
		c-0.037,0-0.08,0-0.119,0c-0.132,0-0.26,0-0.388,0.002c-0.133,0.002-0.258,0.002-0.388,0.006c-0.128,0.004-0.258,0.01-0.384,0.014
		c-0.058,0.004-0.113,0.006-0.169,0.006c-0.013,0.002-0.023,0.002-0.037,0.002c-0.059,0.006-0.118,0.006-0.178,0.013
		c-0.2,0.01-0.398,0.026-0.599,0.041c-0.195,0.017-0.395,0.033-0.592,0.052c-0.198,0.022-0.394,0.043-0.588,0.07
		c-0.193,0.023-0.39,0.052-0.584,0.079c-0.018,0.004-0.037,0.008-0.053,0.008c-0.003,0-0.003,0-0.005,0
		c-0.175,0.027-0.349,0.056-0.523,0.084c-0.192,0.035-0.386,0.072-0.575,0.109c-0.054,0.01-0.107,0.022-0.163,0.033
		c-0.015,0.004-0.027,0.006-0.042,0.01c-0.121,0.025-0.245,0.05-0.364,0.074c-0.19,0.043-0.38,0.087-0.567,0.132
		c-0.076,0.018-0.153,0.041-0.232,0.059c-0.03,0.008-0.064,0.017-0.093,0.025c-0.087,0.023-0.171,0.045-0.256,0.068
		c-0.191,0.049-0.384,0.105-0.573,0.159c-0.119,0.037-0.239,0.074-0.358,0.111c-0.005,0.002-0.009,0.004-0.013,0.004
		c-0.004,0.002-0.009,0.004-0.011,0.004c-0.01,0.002-0.019,0.006-0.028,0.008c-0.052,0.019-0.105,0.033-0.155,0.049
		c-0.189,0.062-0.375,0.126-0.562,0.19c-0.118,0.043-0.233,0.082-0.349,0.125c-0.021,0.008-0.042,0.015-0.06,0.023
		c-0.06,0.022-0.122,0.043-0.184,0.066c-0.194,0.074-0.389,0.15-0.582,0.231c-0.107,0.043-0.215,0.093-0.322,0.134
		c-0.032,0.017-0.064,0.027-0.097,0.041c-0.004,0.002-0.006,0.004-0.01,0.006c-0.05,0.02-0.098,0.039-0.145,0.06
		c-0.087,0.037-0.172,0.079-0.256,0.118c0.008-0.004,0.015-0.008,0.021-0.012l-1.386,0.625c-2.216,1.002-4.249,2.322-6.05,3.919
		c-1.803,1.594-3.377,3.461-4.668,5.551c-1.296,2.089-2.314,4.406-3.008,6.893c-0.691,2.492-1.06,5.157-1.06,7.95
		c0,3.851,0.622,7.438,1.777,10.652c1.151,3.215,2.83,6.056,4.942,8.417c2.108,2.362,4.649,4.241,7.52,5.53
		c2.871,1.289,6.072,1.986,9.513,1.986c0.113,0,0.231,0,0.343,0c0.115,0,0.228-0.004,0.342-0.008
		c0.114-0.005,0.227-0.009,0.337-0.015c0.113-0.002,0.225-0.011,0.332-0.019l1.495-0.095c-0.113,0.008-0.225,0.012-0.336,0.018
		c-0.111,0.006-0.228,0.012-0.343,0.016c-0.111,0.003-0.227,0.003-0.342,0.007c-0.116,0.002-0.233,0.002-0.352,0.002
		c0.545,0,1.069-0.027,1.585-0.062c0.058-0.007,0.119-0.003,0.177-0.011c0.091-0.008,0.174-0.024,0.265-0.033
		c0.084-0.008,0.165-0.023,0.249-0.033c0.2-0.022,0.398-0.047,0.592-0.076c0.178-0.026,0.367-0.039,0.543-0.07
		c0.08-0.014,0.154-0.039,0.233-0.054c0.433-0.08,0.858-0.171,1.262-0.286c0.009-0.004,0.013-0.009,0.02-0.009
		c0.009-0.002,0.015-0.002,0.021-0.006c0.287-0.082,0.554-0.189,0.83-0.289c0.142-0.051,0.292-0.095,0.433-0.15
		c0.05-0.021,0.107-0.037,0.159-0.056c0.117-0.052,0.235-0.101,0.353-0.152c0.078-0.039,0.156-0.074,0.239-0.111
		c0.013-0.009,0.025-0.015,0.037-0.018c0.021-0.013,0.045-0.022,0.066-0.033c0.115-0.058,0.227-0.113,0.338-0.171
		c0.111-0.06,0.219-0.12,0.328-0.184c0.06-0.033,0.117-0.065,0.175-0.102c0.013-0.006,0.025-0.015,0.037-0.024
		c0.017-0.008,0.037-0.021,0.054-0.031c0.087-0.049,0.174-0.104,0.258-0.16c0.085-0.054,0.172-0.112,0.254-0.17
		c0.083-0.058,0.165-0.115,0.247-0.173c0.079-0.056,0.153-0.115,0.228-0.171c0.074-0.056,0.148-0.116,0.223-0.174
		c0.074-0.062,0.148-0.119,0.219-0.182c0.072-0.061,0.145-0.123,0.214-0.184c0.072-0.067,0.145-0.136,0.215-0.2
		c0.07-0.069,0.141-0.134,0.211-0.204c0.067-0.065,0.136-0.14,0.204-0.21c0.067-0.072,0.136-0.141,0.2-0.213
		c0.074-0.084,0.148-0.165,0.219-0.251c0.074-0.087,0.144-0.17,0.214-0.26c0.054-0.062,0.103-0.126,0.152-0.192
		c0.011-0.013,0.021-0.028,0.033-0.039l0.023-0.033c0.068-0.087,0.137-0.182,0.2-0.272c0.091-0.125,0.182-0.253,0.269-0.383
		c0.031-0.048,0.059-0.1,0.091-0.145c0.01-0.019,0.024-0.033,0.033-0.048c0.008-0.015,0.017-0.028,0.024-0.045
		c0.035-0.054,0.07-0.107,0.103-0.163c0.084-0.135,0.165-0.272,0.243-0.413c0.063-0.113,0.126-0.229,0.186-0.344
		c0.006-0.009,0.013-0.019,0.017-0.029c0.008-0.021,0.019-0.039,0.028-0.054c0.133-0.25,0.254-0.508,0.37-0.766
		c0.026-0.058,0.047-0.119,0.074-0.177c0.012-0.031,0.022-0.06,0.034-0.091c0.046-0.105,0.091-0.211,0.133-0.317l4.01,7.324h2.733
		l1.702-0.105v-22.4h4.496v-2.871H368.21z M371.613,51.604c-0.002,0-0.004,0-0.006,0.002c0.002-0.002,0.006-0.002,0.009-0.002
		H371.613z"/>
	<polygon class="st0" points="187.113,1.988 187.113,4.859 192.008,4.859 198.421,10.606 186.31,23.954 171.944,4.859 
		178.737,4.859 178.737,1.988 154.15,1.988 154.15,4.859 158.081,4.859 177.122,30.298 177.122,50.071 171.475,50.071 
		171.475,52.944 194.113,52.944 194.113,50.071 188.451,50.071 188.451,26.179 207.645,4.859 211.078,4.859 211.078,1.988 	"/>
	<path class="st0" d="M442.542,50.071L422.064,1.308h-3.818l-2.018,0.644l-17.903,42.182l-4.74,5.694l-0.217,0.244h-1.708v2.873
		h21.669v-2.873h-4.815l-5.021-5.927l3.869-9.552h14.435l6.054,15.479h-5.121v2.873h23.572v-2.873H442.542z M414.702,16.262
		l5.875,15.056H408.68L414.702,16.262z"/>
	<path class="st0" d="M155.622,28.206c0-0.066-0.001-0.127-0.003-0.194c0-0.064-0.001-0.128-0.005-0.191
		c-0.002-0.207-0.015-0.413-0.023-0.619c-0.006-0.173-0.01-0.351-0.02-0.526c-0.005-0.084-0.008-0.171-0.01-0.26
		c-0.022-0.351-0.053-0.695-0.084-1.04c-0.007-0.083-0.01-0.167-0.02-0.25c-0.001-0.026-0.001-0.053-0.004-0.082
		c-0.048-0.448-0.101-0.894-0.161-1.337c-0.005-0.031-0.013-0.06-0.018-0.093c-0.02-0.14-0.045-0.28-0.069-0.423
		c-0.04-0.262-0.078-0.526-0.126-0.784c-0.015-0.076-0.035-0.151-0.047-0.227c-0.017-0.078-0.026-0.159-0.041-0.235
		c-0.032-0.153-0.071-0.295-0.103-0.446c-0.038-0.171-0.067-0.342-0.106-0.507c-0.024-0.101-0.056-0.196-0.079-0.293
		c-0.053-0.221-0.112-0.435-0.172-0.65c-0.036-0.142-0.07-0.287-0.11-0.429c-0.037-0.122-0.08-0.241-0.118-0.367
		c-0.062-0.202-0.127-0.4-0.192-0.6c-0.039-0.116-0.071-0.239-0.11-0.353c-0.054-0.15-0.114-0.288-0.169-0.439
		c-0.068-0.19-0.141-0.379-0.216-0.569c-0.033-0.089-0.066-0.182-0.102-0.268c-0.056-0.13-0.116-0.255-0.174-0.385
		c-0.069-0.161-0.13-0.326-0.202-0.483c-0.049-0.101-0.103-0.2-0.151-0.307c-0.097-0.202-0.196-0.402-0.3-0.602
		c-0.127-0.248-0.256-0.495-0.392-0.736c-0.056-0.103-0.107-0.21-0.164-0.312c-0.056-0.097-0.118-0.184-0.173-0.278
		c-0.14-0.235-0.284-0.464-0.432-0.693c-0.122-0.186-0.242-0.373-0.37-0.555c-0.157-0.231-0.319-0.454-0.483-0.672
		c-0.086-0.113-0.164-0.235-0.252-0.347c-0.044-0.058-0.093-0.107-0.136-0.163c-0.05-0.064-0.094-0.132-0.145-0.19
		c-0.129-0.159-0.267-0.303-0.398-0.46c-0.135-0.157-0.268-0.318-0.407-0.47c-0.198-0.217-0.404-0.423-0.608-0.631
		c-0.112-0.113-0.218-0.231-0.332-0.344c-0.025-0.025-0.054-0.048-0.079-0.07c-0.233-0.225-0.478-0.439-0.725-0.652
		c-0.121-0.105-0.24-0.219-0.364-0.324c-0.375-0.315-0.76-0.613-1.159-0.903l-0.804-0.586c0.061,0.043,0.116,0.093,0.177,0.138
		c-0.074-0.054-0.147-0.116-0.223-0.169c-0.261-0.19-0.526-0.374-0.798-0.553c-0.106-0.068-0.214-0.132-0.321-0.202
		c-0.054-0.033-0.108-0.066-0.16-0.097c-0.115-0.072-0.23-0.148-0.347-0.221c-0.283-0.167-0.566-0.332-0.858-0.489
		c-0.288-0.157-0.579-0.303-0.875-0.452c-0.006-0.002-0.012-0.002-0.017-0.006c-0.231-0.111-0.463-0.223-0.696-0.328
		c-0.236-0.107-0.479-0.212-0.72-0.309c-0.246-0.101-0.49-0.2-0.737-0.293c-0.053-0.019-0.106-0.037-0.158-0.056
		c-0.011-0.004-0.018-0.008-0.028-0.013c-0.032-0.012-0.068-0.023-0.103-0.037c-0.155-0.056-0.31-0.113-0.465-0.165
		c-0.211-0.074-0.427-0.14-0.641-0.21c-0.013-0.002-0.026-0.008-0.038-0.011c-0.009-0.006-0.016-0.008-0.023-0.01
		c-0.235-0.074-0.472-0.142-0.715-0.212c-0.141-0.039-0.288-0.076-0.433-0.115c-0.053-0.015-0.104-0.029-0.159-0.044
		c-0.044-0.01-0.09-0.025-0.134-0.035c-0.245-0.064-0.493-0.122-0.74-0.179c-0.096-0.021-0.195-0.042-0.29-0.064
		c-0.062-0.013-0.127-0.027-0.191-0.037c-0.085-0.021-0.17-0.04-0.256-0.054c-0.247-0.052-0.498-0.101-0.749-0.145
		c-0.06-0.008-0.123-0.018-0.182-0.031c-0.061-0.006-0.124-0.017-0.186-0.027c-0.128-0.023-0.262-0.047-0.393-0.064
		c-0.256-0.042-0.513-0.076-0.772-0.106c-0.026-0.006-0.054-0.008-0.081-0.012c-0.046-0.006-0.093-0.01-0.14-0.012
		c-0.193-0.025-0.386-0.05-0.582-0.07c-0.225-0.023-0.454-0.043-0.682-0.06c-0.035-0.002-0.067-0.008-0.103-0.011
		c-0.01-0.002-0.022-0.002-0.029-0.002c-0.274-0.023-0.55-0.039-0.827-0.058c-0.155-0.006-0.309-0.01-0.466-0.019
		c-0.068-0.004-0.138-0.006-0.209-0.008c-0.054-0.002-0.109-0.004-0.164-0.006c-0.104-0.004-0.209-0.006-0.314-0.01
		c-0.104-0.004-0.208-0.006-0.314-0.006c-0.104,0-0.21-0.002-0.316-0.004c-0.105,0-0.213,0-0.319,0h-25.02v2.871h5.645v45.212
		h-5.645v2.873l25.998,0.109c0.954,0,1.869-0.039,2.77-0.091c0.239-0.013,0.475-0.029,0.707-0.044
		c0.803-0.063,1.589-0.14,2.348-0.241c0.092-0.01,0.183-0.019,0.273-0.028c0.665-0.095,1.316-0.202,1.948-0.33
		c0.157-0.033,0.303-0.07,0.456-0.104c0.206-0.045,0.407-0.093,0.611-0.14c0.664-0.157,1.311-0.328,1.936-0.524
		c0.087-0.026,0.181-0.041,0.268-0.07c0.029-0.012,0.054-0.021,0.081-0.033c0.714-0.229,1.4-0.49,2.064-0.771
		c0.165-0.072,0.322-0.146,0.484-0.217c0.235-0.109,0.477-0.204,0.707-0.32c0.307-0.146,0.595-0.315,0.889-0.477
		c0.119-0.065,0.246-0.13,0.367-0.197c0.595-0.341,1.163-0.714,1.709-1.105c0.129-0.091,0.25-0.192,0.374-0.287
		c0.442-0.334,0.869-0.687,1.276-1.056c0.077-0.068,0.161-0.126,0.237-0.194c0.036-0.035,0.067-0.076,0.105-0.113
		c0.058-0.056,0.124-0.105,0.181-0.161c0.414-0.404,0.804-0.833,1.178-1.276c0.088-0.104,0.166-0.211,0.251-0.315
		c0.355-0.434,0.689-0.888,1.003-1.357c0.09-0.132,0.181-0.262,0.269-0.396c0.336-0.53,0.656-1.072,0.947-1.644
		c0.026-0.052,0.051-0.105,0.077-0.159c0.019-0.041,0.04-0.087,0.061-0.13c0.1-0.204,0.202-0.406,0.297-0.619
		c0.141-0.309,0.271-0.622,0.399-0.944c0.058-0.148,0.112-0.301,0.167-0.454c0.011-0.028,0.027-0.058,0.039-0.088
		c0.009-0.029,0.017-0.061,0.028-0.089c0.041-0.115,0.085-0.225,0.127-0.343c0.111-0.334,0.22-0.668,0.322-1.015
		c0.085-0.291,0.166-0.59,0.243-0.894c0.004-0.017,0.011-0.034,0.015-0.054c0.008-0.026,0.015-0.053,0.021-0.08
		c0.089-0.349,0.168-0.705,0.244-1.065c0.074-0.358,0.144-0.724,0.206-1.093c0.014-0.074,0.022-0.15,0.033-0.225
		c0.01-0.062,0.018-0.128,0.03-0.192c0.036-0.235,0.075-0.47,0.106-0.709c0.049-0.382,0.093-0.766,0.131-1.159
		c0.02-0.207,0.034-0.421,0.052-0.63c0.003-0.072,0.011-0.14,0.016-0.214c0.009-0.116,0.021-0.229,0.026-0.345
		c0.024-0.398,0.045-0.807,0.056-1.217c0.015-0.415,0.02-0.831,0.02-1.254v-0.192C155.624,28.337,155.622,28.268,155.622,28.206z
		 M120.447,4.859h6.161c3.005,0,5.509,0.355,7.579,1.153c2.067,0.798,3.7,2.04,4.957,3.804c1.257,1.768,2.138,4.061,2.703,6.967
		c0.568,2.906,0.821,6.427,0.821,10.641c0,2.323-0.059,4.425-0.189,6.324c-0.129,1.897-0.334,3.596-0.619,5.109
		c-0.285,1.512-0.657,2.84-1.128,4.004c-0.465,1.159-1.031,2.153-1.705,3.003c-0.089,0.109-0.178,0.219-0.271,0.321
		c-0.091,0.105-0.185,0.209-0.278,0.308c-0.098,0.104-0.195,0.2-0.294,0.295c-0.1,0.097-0.2,0.192-0.305,0.28
		c-0.08,0.07-0.161,0.141-0.243,0.207c-0.084,0.067-0.167,0.134-0.252,0.197c-0.084,0.066-0.172,0.13-0.26,0.194
		c-0.087,0.062-0.175,0.124-0.266,0.182c-0.082,0.054-0.166,0.109-0.25,0.161c-0.086,0.051-0.171,0.103-0.258,0.154
		c-0.088,0.05-0.174,0.099-0.265,0.143c-0.088,0.049-0.179,0.097-0.27,0.142c-0.092,0.048-0.184,0.089-0.279,0.137
		c-0.096,0.045-0.189,0.087-0.287,0.128c-0.097,0.041-0.193,0.082-0.293,0.121c-0.098,0.042-0.199,0.079-0.301,0.118
		c-0.107,0.039-0.219,0.08-0.331,0.115c-0.11,0.039-0.224,0.074-0.339,0.113c-0.115,0.033-0.229,0.068-0.346,0.102
		c-0.119,0.032-0.238,0.065-0.359,0.097c-0.138,0.037-0.28,0.072-0.424,0.103c-0.145,0.035-0.289,0.067-0.435,0.095
		c-0.147,0.028-0.297,0.058-0.448,0.086c-0.15,0.027-0.303,0.054-0.459,0.079c-0.197,0.028-0.396,0.058-0.602,0.082
		c-0.203,0.027-0.41,0.05-0.62,0.074c-0.211,0.021-0.425,0.041-0.643,0.058c-0.217,0.017-0.438,0.035-0.662,0.048
		c-0.19,0.013-0.379,0.02-0.572,0.026c-0.195,0.011-0.391,0.019-0.589,0.023c-0.197,0.004-0.397,0.01-0.602,0.01
		c-0.204,0.007-0.407,0.007-0.617,0.007h-6.161V4.859z M134.711,49.933c0,0,0.003,0,0.004,0h-0.001H134.711z"/>
	<path class="st0" d="M205.616,123.388c-0.023-0.002-0.048-0.004-0.073-0.004c-0.268-0.024-0.523-0.062-0.762-0.111
		c-0.011-0.002-0.022-0.004-0.032-0.004c-0.241-0.05-0.47-0.113-0.68-0.186c-0.003-0.003-0.007-0.003-0.014-0.007
		c-0.213-0.078-0.41-0.163-0.585-0.268c-0.123-0.068-0.231-0.151-0.343-0.229c-0.072-0.052-0.146-0.097-0.213-0.152
		c-0.092-0.074-0.176-0.157-0.26-0.239c-0.057-0.056-0.119-0.109-0.174-0.165c-0.086-0.093-0.162-0.196-0.236-0.297
		c-0.047-0.058-0.096-0.109-0.139-0.174c-0.113-0.165-0.221-0.342-0.318-0.529c-0.078-0.146-0.169-0.326-0.267-0.524
		c-0.014-0.026-0.025-0.052-0.04-0.082c-0.091-0.194-0.193-0.413-0.301-0.652c-0.028-0.063-0.058-0.13-0.087-0.193
		c-0.111-0.25-0.226-0.514-0.35-0.809c-0.142-0.33-0.294-0.697-0.453-1.087c-0.135-0.333-0.274-0.679-0.423-1.051L187.842,85.87
		h-2.77l-0.396,0.233l-11.52,30.125c-0.199,0.523-0.397,1.021-0.591,1.485c-0.192,0.464-0.383,0.898-0.57,1.308
		c-0.185,0.406-0.367,0.781-0.549,1.132c-0.179,0.347-0.355,0.664-0.528,0.953c-0.169,0.271-0.338,0.52-0.509,0.753
		c-0.019,0.026-0.036,0.05-0.054,0.072c-0.074,0.099-0.151,0.184-0.226,0.274c-0.082,0.076-0.161,0.152-0.245,0.217
		c-0.098,0.082-0.194,0.152-0.294,0.221c-0.098,0.067-0.198,0.13-0.299,0.184c-0.19,0.101-0.393,0.188-0.605,0.262
		c-0.21,0.076-0.43,0.138-0.658,0.188c-0.23,0.05-0.469,0.085-0.716,0.111c-0.249,0.025-0.507,0.039-0.771,0.039l-0.59,0.625v2.711
		h13.727v-2.711c-0.302,0-0.598-0.01-0.896-0.028c-0.278-0.021-0.55-0.048-0.831-0.091c-0.263-0.037-0.514-0.087-0.761-0.145
		c-0.245-0.058-0.483-0.128-0.709-0.206c-0.227-0.074-0.428-0.18-0.599-0.312c-0.168-0.13-0.31-0.287-0.427-0.48
		c-0.112-0.184-0.196-0.396-0.255-0.636c-0.055-0.239-0.084-0.505-0.084-0.8c0-0.161,0.018-0.347,0.05-0.547
		c0.002-0.017,0.003-0.022,0.006-0.035c0.031-0.198,0.08-0.425,0.144-0.666c0.004-0.021,0.01-0.042,0.014-0.058
		c0.065-0.25,0.145-0.521,0.243-0.813c0.004-0.016,0.008-0.032,0.017-0.049c0.1-0.306,0.215-0.634,0.352-0.986l0.975-2.593h12.943
		l1.861,4.713c0.059,0.153,0.111,0.306,0.157,0.452c0.045,0.152,0.084,0.301,0.116,0.451c0.03,0.149,0.057,0.3,0.073,0.45
		c0.015,0.146,0.024,0.297,0.024,0.447c0,0.192-0.024,0.363-0.064,0.524c-0.002,0.008-0.003,0.017-0.005,0.024
		c-0.047,0.054-0.096,0.107-0.152,0.15c-0.074,0.058-0.155,0.109-0.244,0.157c-0.088,0.043-0.184,0.084-0.285,0.117
		c-0.178,0.054-0.378,0.1-0.601,0.139c-0.021,0.006-0.042,0.008-0.062,0.012c-0.204,0.035-0.429,0.064-0.67,0.089
		c-0.047,0.004-0.092,0.009-0.141,0.015c-0.252,0.022-0.523,0.039-0.812,0.054c-0.056,0.004-0.117,0.004-0.175,0.006
		c-0.312,0.009-0.635,0.018-0.994,0.018l-0.367,0.625v2.711h18.799v-2.711l0.175-0.625
		C206.184,123.427,205.893,123.41,205.616,123.388z M178.06,112.726l5.248-13.91l5.493,13.91H178.06z M202.273,122.644l-0.003-0.002
		c-0.004-0.005-0.006-0.009-0.009-0.013h0.001C202.266,122.633,202.269,122.639,202.273,122.644z"/>
	<path class="st0" d="M263.984,94.177c0-0.033,0-0.068,0-0.107c0.004-0.033,0.004-0.068,0.004-0.104
		c0.005-0.035,0.005-0.067,0.005-0.104c0.004-0.072,0.008-0.139,0.01-0.211c0.004-0.065,0.011-0.134,0.015-0.198
		c0.006-0.069,0.013-0.132,0.021-0.199c0.004-0.066,0.015-0.128,0.021-0.192c0.009-0.052,0.015-0.103,0.021-0.154
		c0.009-0.05,0.017-0.1,0.027-0.148c0.008-0.05,0.017-0.098,0.026-0.143c0.009-0.05,0.021-0.097,0.029-0.144
		c0.01-0.037,0.021-0.078,0.028-0.115c0.009-0.044,0.02-0.081,0.029-0.118c0.008-0.039,0.021-0.076,0.033-0.115
		c0.012-0.037,0.021-0.074,0.032-0.109c0.013-0.035,0.023-0.066,0.033-0.099c0.013-0.031,0.022-0.066,0.033-0.097
		c0.013-0.031,0.024-0.062,0.037-0.091c0.013-0.033,0.024-0.064,0.037-0.093c0.013-0.029,0.025-0.057,0.037-0.085
		c0.013-0.029,0.025-0.054,0.037-0.08c0.013-0.029,0.024-0.056,0.041-0.081c0.011-0.024,0.025-0.052,0.037-0.08
		c0.015-0.025,0.029-0.048,0.042-0.074c0.016-0.023,0.028-0.048,0.045-0.072c0.013-0.025,0.029-0.048,0.043-0.07
		c0.015-0.024,0.031-0.045,0.046-0.066c0.018-0.024,0.033-0.049,0.05-0.074c0.016-0.021,0.03-0.043,0.049-0.066
		c0.017-0.021,0.035-0.041,0.052-0.064c0.017-0.021,0.037-0.043,0.054-0.062c0.006-0.011,0.017-0.019,0.024-0.031
		c0.009-0.008,0.017-0.017,0.025-0.026c0.008-0.009,0.017-0.019,0.024-0.022c0.008-0.013,0.017-0.023,0.029-0.031
		c0.004-0.009,0.016-0.017,0.024-0.027c0.008-0.006,0.017-0.014,0.024-0.021c0.009-0.01,0.019-0.021,0.027-0.028
		c0.01-0.007,0.018-0.015,0.026-0.021c0.033-0.029,0.066-0.054,0.102-0.081c0.035-0.024,0.072-0.052,0.109-0.076
		c0.037-0.026,0.074-0.05,0.115-0.074c0.041-0.024,0.082-0.047,0.124-0.07c0.214-0.115,0.462-0.214,0.744-0.297
		c0.283-0.087,0.6-0.156,0.951-0.212c0.351-0.054,0.734-0.1,1.155-0.126c0.421-0.025,0.874-0.044,1.363-0.044v-2.699l-0.48-0.242
		l-13.8,0.242l-13.261,28.157l-0.195-0.534l-13.127-27.865h-14.437l-0.09,0.242v2.699c0.472,0,0.908,0.015,1.314,0.04
		c0.399,0.021,0.771,0.058,1.105,0.104c0.335,0.046,0.636,0.109,0.902,0.182c0.266,0.072,0.498,0.159,0.696,0.254
		c0.204,0.095,0.384,0.2,0.545,0.319c0.161,0.118,0.303,0.248,0.422,0.386c0.123,0.145,0.223,0.291,0.301,0.458
		c0.082,0.163,0.141,0.338,0.18,0.528c0.046,0.184,0.085,0.396,0.118,0.644c0.034,0.245,0.062,0.521,0.085,0.823
		c0.023,0.303,0.039,0.637,0.052,0.998c0.011,0.36,0.016,0.753,0.016,1.174v22.61c0,0.312-0.002,0.606-0.007,0.883
		c-0.005,0.274-0.012,0.53-0.021,0.77c-0.005,0.072-0.01,0.141-0.014,0.206c-0.008,0.074-0.015,0.143-0.021,0.215
		c-0.008,0.068-0.014,0.132-0.022,0.196c-0.018,0.16-0.044,0.319-0.08,0.472c-0.036,0.148-0.079,0.297-0.134,0.434
		c-0.054,0.138-0.116,0.272-0.186,0.402c-0.072,0.125-0.154,0.247-0.244,0.36c-0.089,0.12-0.19,0.229-0.302,0.332
		c-0.029,0.025-0.065,0.046-0.095,0.07c-0.091,0.074-0.181,0.145-0.285,0.211c-0.04,0.024-0.088,0.047-0.128,0.069
		c-0.104,0.056-0.205,0.116-0.317,0.165c-0.076,0.035-0.165,0.062-0.248,0.091l-0.296,0.113c-0.19,0.056-0.399,0.105-0.631,0.149
		c-0.229,0.043-0.479,0.08-0.751,0.108c-0.27,0.029-0.561,0.05-0.872,0.068c-0.311,0.011-0.641,0.021-0.991,0.021l-0.09,0.625v2.711
		h14.77v-2.711l-0.062-0.625c-0.324,0-0.623-0.01-0.914-0.018c-0.05-0.002-0.095-0.006-0.145-0.008
		c-0.266-0.015-0.525-0.031-0.761-0.054c-0.017-0.004-0.033-0.004-0.05-0.009c-0.23-0.022-0.448-0.053-0.652-0.088
		c-0.03-0.007-0.062-0.009-0.09-0.017c-0.221-0.039-0.423-0.085-0.608-0.139c-0.197-0.058-0.38-0.119-0.545-0.189
		c-0.007-0.002-0.014-0.006-0.019-0.009c-0.162-0.067-0.311-0.144-0.445-0.225c-0.007-0.002-0.009-0.006-0.012-0.006
		c-0.137-0.083-0.26-0.173-0.37-0.271c-0.002-0.002-0.007-0.004-0.009-0.006c-0.112-0.102-0.214-0.208-0.299-0.322
		c-0.094-0.119-0.176-0.239-0.249-0.367c-0.003-0.006-0.009-0.012-0.01-0.019c-0.072-0.125-0.135-0.255-0.189-0.394
		c-0.056-0.134-0.102-0.278-0.14-0.425l-0.009-0.031c-0.038-0.146-0.069-0.297-0.093-0.454c-0.017-0.146-0.032-0.313-0.047-0.484
		c-0.005-0.05-0.008-0.105-0.012-0.158c-0.01-0.128-0.02-0.261-0.028-0.398c-0.003-0.08-0.006-0.163-0.011-0.248
		c-0.007-0.132-0.012-0.266-0.016-0.41c-0.005-0.08-0.007-0.163-0.009-0.247c-0.003-0.174-0.006-0.359-0.009-0.545V94.333
		l15.284,32.43h1.79l15.065-32.43v25.022c0,0.284-0.01,0.553-0.024,0.809c-0.017,0.254-0.037,0.493-0.068,0.716
		c-0.028,0.225-0.067,0.433-0.113,0.623c-0.045,0.195-0.095,0.371-0.152,0.536c-0.062,0.158-0.143,0.303-0.233,0.447
		c-0.01,0.013-0.017,0.027-0.026,0.037c-0.095,0.143-0.202,0.271-0.33,0.39c-0.13,0.124-0.278,0.242-0.443,0.345
		c-0.165,0.109-0.345,0.202-0.543,0.289c-0.202,0.084-0.433,0.156-0.69,0.219c0,0-0.005,0-0.007,0
		c-0.26,0.063-0.544,0.115-0.857,0.158c-0.003,0.002-0.005,0.002-0.005,0.002c-0.309,0.04-0.648,0.072-1.011,0.091
		c-0.018,0.002-0.037,0.002-0.054,0.007c-0.364,0.019-0.75,0.028-1.171,0.028v2.711h20.01v-2.711l-0.48-0.625
		c-0.409,0-0.788-0.012-1.147-0.03c-0.022-0.007-0.045-0.007-0.065-0.007c-0.359-0.019-0.689-0.052-0.999-0.093
		c-0.004,0-0.01,0-0.016-0.002c-0.31-0.041-0.593-0.097-0.854-0.159c-0.008-0.002-0.017-0.008-0.026-0.008
		c-0.263-0.066-0.497-0.141-0.708-0.229c-0.148-0.066-0.288-0.137-0.421-0.215c-0.128-0.07-0.247-0.15-0.356-0.233
		c-0.015-0.008-0.022-0.019-0.035-0.03c-0.091-0.066-0.169-0.139-0.245-0.213c-0.002-0.004-0.011-0.008-0.015-0.013
		c-0.037-0.074-0.085-0.148-0.111-0.229c-0.06-0.167-0.111-0.349-0.157-0.54c-0.041-0.182-0.076-0.372-0.107-0.574
		c-0.004-0.028-0.008-0.056-0.012-0.086c-0.025-0.205-0.05-0.417-0.064-0.642v-0.005c-0.014-0.243-0.023-0.499-0.023-0.765V94.29
		C263.984,94.251,263.984,94.216,263.984,94.177z M220.11,120.374c0,0.013,0,0.021-0.002,0.031c0,0.008,0,0.017-0.002,0.026
		C220.108,120.413,220.108,120.395,220.11,120.374z M223.482,120.32c0,0.003,0,0.007,0.001,0.011
		c-0.002-0.024-0.004-0.05-0.008-0.074C223.48,120.275,223.48,120.298,223.482,120.32z M223.443,119.646
		c0,0.022,0.001,0.043,0.003,0.065c0,0.007,0,0.015,0,0.027c0-0.027-0.003-0.054-0.003-0.081
		C223.443,119.654,223.443,119.65,223.443,119.646z M265.403,123.217c-0.002-0.002-0.004-0.004-0.008-0.007
		c-0.007-0.004-0.009-0.008-0.017-0.012C265.387,123.204,265.395,123.21,265.403,123.217z"/>
	<path class="st0" d="M313.546,113.118h-2.591c-0.115,0.753-0.252,1.454-0.412,2.109c-0.161,0.654-0.343,1.255-0.549,1.808
		c-0.202,0.555-0.432,1.056-0.681,1.508c-0.252,0.451-0.524,0.855-0.817,1.208c-0.284,0.345-0.573,0.658-0.866,0.937
		c-0.082,0.085-0.169,0.146-0.256,0.226c-0.202,0.184-0.404,0.367-0.61,0.52c-0.115,0.087-0.233,0.148-0.351,0.225
		c-0.173,0.115-0.349,0.235-0.528,0.328c-0.128,0.063-0.26,0.109-0.388,0.161c-0.189,0.082-0.379,0.171-0.569,0.223
		c-0.901,0.256-1.842,0.425-2.778,0.477c-0.026,0.002-0.051,0.002-0.08,0.006c-0.317,0.021-0.636,0.029-0.959,0.029
		c-0.052,0-2.96,0-3.189,0c-1.076-0.003-2.341,0.012-3.417-0.357c-0.1-0.037-0.198-0.084-0.296-0.13
		c-0.173-0.074-0.332-0.175-0.488-0.274c-0.083-0.115-0.157-0.235-0.223-0.36c-0.004-0.009-0.009-0.019-0.013-0.029
		c-0.065-0.128-0.124-0.264-0.182-0.417c-0.052-0.15-0.095-0.307-0.132-0.474c-0.037-0.165-0.062-0.337-0.082-0.519
		c-0.017-0.181-0.033-0.388-0.05-0.62c-0.013-0.211-0.024-0.448-0.037-0.697c-0.004-0.104-0.004-0.221-0.009-0.33
		c-0.004-0.15-0.01-0.31-0.016-0.473c-0.003-0.134-0.005-0.271-0.009-0.412c-0.002-0.289-0.004-0.584-0.004-0.91v-9.383h4.136
		c0.351,0,0.674,0.006,0.979,0.021c0.301,0.015,0.582,0.037,0.838,0.066c0.255,0.03,0.49,0.065,0.703,0.109
		c0.214,0.045,0.406,0.097,0.577,0.154c0.167,0.06,0.324,0.132,0.469,0.219c0.146,0.089,0.284,0.191,0.41,0.308
		c0.126,0.115,0.241,0.247,0.343,0.392c0.103,0.146,0.191,0.309,0.27,0.484c0.074,0.172,0.145,0.369,0.206,0.593
		c0.062,0.223,0.12,0.47,0.17,0.742c0.051,0.271,0.093,0.565,0.132,0.883c0.037,0.324,0.065,0.666,0.089,1.031h2.691V99.22h-2.819
		c-0.027,0.369-0.06,0.712-0.093,1.033c-0.037,0.32-0.079,0.613-0.126,0.881c-0.046,0.272-0.097,0.518-0.155,0.74
		c-0.056,0.219-0.119,0.417-0.185,0.588c-0.065,0.163-0.145,0.312-0.23,0.448c-0.013,0.017-0.022,0.03-0.033,0.047
		c-0.093,0.135-0.194,0.258-0.31,0.367c-0.119,0.113-0.254,0.217-0.397,0.306c-0.145,0.089-0.3,0.163-0.465,0.223
		c-0.171,0.063-0.362,0.117-0.577,0.163h-0.006c-0.217,0.045-0.452,0.082-0.706,0.113c-0.006,0-0.008,0-0.01,0.002
		c-0.252,0.031-0.528,0.054-0.821,0.068c-0.017,0.002-0.033,0.002-0.052,0.004c-0.295,0.013-0.608,0.019-0.946,0.019h-4.08V90.134
		h7.487c0.495,0,0.957,0.008,1.391,0.022c0.433,0.013,0.835,0.035,1.204,0.062c0.371,0.03,0.712,0.064,1.022,0.108
		c0.278,0.04,0.523,0.085,0.753,0.137c0.076,0.033,0.156,0.058,0.23,0.097c0.198,0.107,0.39,0.231,0.582,0.371
		c0.188,0.143,0.371,0.302,0.551,0.481c0.179,0.173,0.353,0.369,0.522,0.579c0.194,0.245,0.386,0.534,0.573,0.86
		c0.182,0.326,0.363,0.69,0.536,1.1c0.178,0.406,0.347,0.854,0.508,1.34c0.156,0.487,0.314,1.016,0.458,1.582l0.896,0.349h2.706
		l-0.512-10.352l-0.916-0.242l-32.193,0.242v2.699c0.435,0,0.841,0.015,1.221,0.037c0.38,0.021,0.73,0.056,1.052,0.102
		c0.322,0.045,0.615,0.101,0.881,0.173c0.262,0.07,0.499,0.15,0.705,0.241c0.211,0.089,0.398,0.184,0.572,0.291
		c0.169,0.107,0.321,0.223,0.453,0.347c0.132,0.124,0.248,0.256,0.343,0.4c0.095,0.14,0.173,0.293,0.23,0.453
		c0.058,0.159,0.109,0.335,0.153,0.525c0.043,0.194,0.078,0.4,0.107,0.623c0.029,0.223,0.05,0.46,0.064,0.716
		c0.013,0.254,0.019,0.523,0.019,0.812v25.065c0,1.239-0.169,2.708-1.089,3.63c-0.318,0.315-0.716,0.522-1.139,0.658
		c-0.586,0.186-1.209,0.285-1.815,0.334c-0.039,0.002-0.074,0.009-0.111,0.009c-0.223,0.021-0.458,0.037-0.701,0.045
		c-0.05,0.002-0.104,0.004-0.152,0.004c-0.252,0.013-0.516,0.017-0.792,0.017v2.711h35.548l0.323-13.127L313.546,113.118z"/>
	<path class="st0" d="M164.787,86.606l-32.159,0.022l-0.944,0.242v2.699c0.42,0,0.815,0.015,1.181,0.037
		c0.37,0.021,0.712,0.056,1.026,0.102c0.318,0.045,0.605,0.101,0.868,0.173c0.267,0.07,0.502,0.15,0.712,0.241
		c0.202,0.089,0.387,0.184,0.558,0.291c0.167,0.107,0.319,0.223,0.451,0.347c0.133,0.124,0.249,0.256,0.347,0.4
		c0.099,0.14,0.181,0.293,0.242,0.453c0.059,0.159,0.11,0.335,0.153,0.525c0.045,0.194,0.079,0.4,0.107,0.623
		c0.028,0.223,0.05,0.46,0.064,0.716c0.013,0.254,0.019,0.523,0.019,0.812v25.065c0,1.139-0.082,2.238-0.729,3.207
		c-0.072,0.107-0.15,0.209-0.231,0.31c-0.071,0.031-0.121,0.072-0.199,0.1c-0.28,0.1-0.6,0.188-0.962,0.253
		c-0.361,0.068-0.762,0.118-1.206,0.151c-0.443,0.032-0.928,0.051-1.455,0.051l-0.944,0.625v2.711h20.488v-2.711h-0.82
		c-0.294,0-0.575-0.004-0.842-0.017c-0.012,0-0.022,0-0.036-0.002c-0.269-0.01-0.522-0.028-0.764-0.052
		c-0.241-0.022-0.469-0.053-0.705-0.088c-0.212-0.039-0.41-0.076-0.606-0.124c-0.185-0.048-0.357-0.099-0.531-0.163
		c-0.159-0.06-0.306-0.124-0.438-0.196c-0.13-0.067-0.242-0.142-0.345-0.221c-0.013-0.01-0.025-0.017-0.034-0.024
		c-0.102-0.08-0.194-0.169-0.27-0.26c-0.152-0.184-0.285-0.396-0.401-0.633c-0.002-0.011-0.009-0.02-0.012-0.029
		c-0.116-0.239-0.211-0.501-0.291-0.803c-0.077-0.293-0.138-0.61-0.177-0.963c-0.04-0.349-0.059-0.724-0.059-1.122v-11.86h3.622
		c0.317,0,0.613,0.008,0.891,0.022c0.279,0.017,0.535,0.039,0.775,0.07c0.236,0.031,0.455,0.074,0.654,0.122
		c0.197,0.047,0.377,0.101,0.534,0.165c0.164,0.063,0.312,0.138,0.449,0.23c0.138,0.087,0.264,0.192,0.375,0.308
		c0.113,0.115,0.215,0.243,0.304,0.384c0.09,0.142,0.168,0.295,0.235,0.46c0.065,0.165,0.128,0.36,0.184,0.581
		c0.057,0.224,0.107,0.471,0.152,0.747c0.044,0.271,0.083,0.573,0.116,0.901c0.035,0.33,0.062,0.683,0.081,1.066h2.767V99.286
		h-2.692c-0.014,0.251-0.034,0.494-0.056,0.724c-0.006,0.052-0.012,0.097-0.018,0.146c-0.018,0.175-0.038,0.343-0.061,0.501
		c-0.009,0.081-0.022,0.155-0.036,0.229c-0.02,0.123-0.039,0.247-0.062,0.362c-0.015,0.074-0.03,0.141-0.046,0.211
		c-0.026,0.111-0.049,0.217-0.077,0.319c-0.019,0.068-0.039,0.134-0.06,0.2c-0.028,0.087-0.054,0.176-0.083,0.26
		c-0.023,0.06-0.046,0.12-0.071,0.176c-0.031,0.08-0.064,0.154-0.099,0.227c-0.025,0.052-0.053,0.102-0.078,0.15
		c-0.035,0.062-0.073,0.12-0.109,0.18c-0.031,0.043-0.062,0.089-0.094,0.132c-0.06,0.076-0.119,0.148-0.181,0.211
		c-0.157,0.152-0.347,0.286-0.573,0.399c-0.227,0.111-0.487,0.209-0.79,0.285c-0.298,0.074-0.629,0.13-1.02,0.173
		c-0.172,0.015-0.353,0.027-0.541,0.037c-0.021,0-0.041,0.002-0.064,0.002c-0.193,0.009-0.395,0.011-0.607,0.011h-3.722V90.134
		h7.102c0.455,0,0.881,0.008,1.285,0.022c0.404,0.013,0.784,0.035,1.138,0.066c0.352,0.028,0.681,0.063,0.982,0.107
		c0.303,0.045,0.579,0.097,0.829,0.154c0.253,0.06,0.501,0.145,0.74,0.254c0.242,0.109,0.477,0.239,0.704,0.396
		c0.228,0.157,0.45,0.337,0.665,0.543c0.215,0.208,0.425,0.438,0.627,0.695c0.202,0.256,0.393,0.551,0.578,0.881
		c0.181,0.325,0.355,0.692,0.52,1.097c0.166,0.404,0.319,0.846,0.464,1.328c0.147,0.475,0.283,0.992,0.41,1.545h2.765l0.141-0.103
		L164.787,86.606z"/>
	<path class="st0" d="M96.031,50.071L75.562,1.308h-3.821L53.646,43.929l-5.094,6.143h-3.404v2.873h21.688v-2.873h-3.285
		l-4.854-5.727l3.959-9.752h14.83l6.069,15.479H76.24v2.873h23.576v-2.873H96.031z M70.201,15.75l6.073,15.567H64.056L70.201,15.75z
		"/>
	<path class="st0" d="M337.757,50.071L317.309,1.308h-3.822l-0.931,0.644l-17.918,42.182l-4.924,5.938h-2.83v2.873h21.679v-2.873
		h-4.806l-5.021-5.927l3.852-9.552h15.524l6.081,15.479h-6.226v2.873h23.576v-2.873H337.757z M310.478,14.861l6.441,16.456h-13.007
		L310.478,14.861z"/>
</g>
</svg>