<!-- Generator: Adobe Illustrator 19.1.0, SVG Export Plug-In  -->
<svg version="1.1"
	 xmlns="http://www.w3.org/2000/svg" xmlns:xlink="http://www.w3.org/1999/xlink" xmlns:a="http://ns.adobe.com/AdobeSVGViewerExtensions/3.0/"
	 x="0px" y="0px" width="201.781px" height="104.529px" viewBox="0 0 201.781 104.529"
	 style="enable-background:new 0 0 201.781 104.529;" xml:space="preserve">
<style type="text/css">
	.st0{fill-rule:evenodd;clip-rule:evenodd;fill:#FFFFFF;}
	.st1{fill:#FFFFFF;}
</style>
<defs>
</defs>
<g>
	<path class="st0" d="M17.958,96.587c-1.093,2.338-1.427,4.262-0.351,4.754c1.579,0.719,7.621-1.969,9.872-4.76l4.021,0.006
		c-1.361,1.943-2.094,3.555-1.569,4.141c0.529,0.594,2.985-0.623,6.606-4.141h2.918c-2.586,2.707-6.171,5.893-9.344,6.672
		c-4.551,1.115-3.611-3.834-3.611-3.834c-3.443,3.389-9.476,5.164-11.531,3.111c-1.598-1.602-1.655-3.801-1.08-5.947L17.958,96.587
		L17.958,96.587z M46.983,96.587c-1.359,1.943-2.098,3.555-1.571,4.141c0.53,0.594,2.986-0.623,6.606-4.141h2.191
		c-2.595,2.684-6.225,5.881-9.438,6.672c-4.547,1.115-3.607-3.834-3.607-3.834c0.163-1.006,0.54-1.971,1.02-2.844L46.983,96.587
		L46.983,96.587z M61.79,96.587c-1.868,2.389-3.273,4.576-2.595,4.783c1.608,0.496,4.767-1.973,7.707-4.781l2.532-0.002
		c-3.704,3.791-8.877,7.844-13.379,6.867c-1.812-0.396-0.044-3.928,1.794-6.867H61.79L61.79,96.587z"/>
	<path class="st0" d="M13.889,96.587c0.999-3.742,3.912-7.328,3.912-7.328S0.627,90.206,0.013,78.585
		c-0.501-9.439,13.451-17.334,24.985-17.602c9.551-0.223,13.965,3.947,13.965,3.947s0.362,0.412,0.362,0.703
		c0,0.484-0.391,0.877-0.874,0.877c-0.257,0-0.646-0.287-0.646-0.287s-4.531-4.018-12.865-3.576
		C14.596,63.202,2.732,68.587,1.788,77.7c-1.122,10.826,17.238,9.781,17.238,9.781c3.721-5.441,27.051-25.414,33.162-20.859
		c5.113,3.811-12.778,18.916-28.054,21.416c-2.405,2.252-4.851,5.707-6.176,8.549H13.889L13.889,96.587z M27.48,96.587
		c0.086-0.111,0.167-0.223,0.242-0.328c5.221-7.498,15.009-12.648,17.163-11.332c2.001,1.223,0.293,3.574-0.442,5.668
		c0.512,0.447,2.769,0.119,4.054-0.863c5.053-3.861,9.62-5.68,11.053-4.805c2.001,1.223,0.332,3.721-0.57,5.859
		c0.392,0.344,2.903-0.064,2.903-0.064c6.325-7.928,34.785-32.973,36.015-29.582c2.375,6.557-30.117,29.045-30.117,29.045
		c-0.555,0.062-3.64,3.387-5.99,6.402h-3.94c1.358-2.178,2.757-4.031,2.757-4.031l-2.917,0.066c0,0-1.411,1.816-3.479,3.965h-2.191
		c1.234-1.203,2.607-2.678,4.088-4.438c-0.999-0.639-0.698-4.619,3.029-5.129c-0.777-2.822-8.6,4.494-12.152,9.568l-4.799-0.002
		c1.338-2.463,3.423-4.215,3.423-4.215l-2.583,0.08c0,0-1.448,1.906-3.568,4.129l-2.918,0.006c1.238-1.203,2.609-2.678,4.086-4.438
		c-1-0.639-0.698-4.619,3.033-5.129c-0.779-2.822-8.602,4.494-12.156,9.568L27.48,96.587L27.48,96.587z M66.902,96.587
		c3.433-3.281,6.561-7.023,6.561-7.023s0.346-0.273,0.578-0.273c0.414,0,0.749,0.34,0.749,0.752c0,0.186-0.362,0.627-0.362,0.627
		s-2.027,2.873-4.994,5.912L66.902,96.587L66.902,96.587z M71.229,85.833c5.47-2.664,26.416-21.604,24.998-23.021
		C94.339,60.925,72.422,84.028,71.229,85.833L71.229,85.833z M26.079,85.87c1.223-2.332,21.639-21.01,24.998-17.773
		C54.16,71.067,34.411,85.204,26.079,85.87L26.079,85.87z"/>
	<path class="st0" d="M135.019,87.868c2.839-4.252,8.183-12.361,14.18-17.75c-2.945,0.111-17.271,19.574-24.803,25.656
		c-11.187,9.045-21.113,8.537-21.113,8.537c-0.382,0-0.692-0.311-0.692-0.695c0-0.383,0.365-0.693,0.751-0.693
		c14.052-1.945,24.251-26.572,32.583-32.57c-14.498-5.166-45.698-1.082-46.721,13.459c-0.473,6.723,9.611,3.131,11.556,1.559
		c0.277-0.119,0.413-0.363,0.682-0.363c0.437,0,0.791,0.354,0.791,0.791c0,0.26-0.126,0.492-0.319,0.635
		c0,0-11.68,7.678-16.237,0.158c-4.775-7.889,21.254-28.904,55.469-16.352c-7.665,6.111-13.996,20.664-24.439,28.885
		c16.109-9,29.439-34.725,38.88-32.729c-7.608,3.223-15.066,25.002-27.119,33.223c8.608-3.664,17.135-14.494,26.357-24.822
		c7.322-7.051,15.682-13.992,24.557-13.752c2.305,0.061,4.286,0.719,4.33,1.637c0,0.43-0.495,0.666-1.06,0.553
		c-0.678-0.285-2.147-0.848-4.406-0.678c-4.758,0.355-12.313,1.238-28.534,20.793c-14.102,16.998-24.63,20.932-32.518,20.711
		c-0.384,0-0.72-0.312-0.72-0.695c0-0.383,0.311-0.693,0.692-0.693C117.165,102.671,125.217,102.55,135.019,87.868L135.019,87.868z"
		/>
	<path class="st0" d="M169.595,26.257c0.398,0.682,8.737-6.186,13.164-10.611c6.956-6.578,11.093-13.182,10.61-13.801
		c-0.683-0.832-5.943,5.064-11.445,10.92C176.969,18.224,169.354,25.817,169.595,26.257L169.595,26.257z M115.998,77.249
		c8.297-8.254,49.747-50.617,49.747-50.617c6.799-6.934,22.738-22.869,22.738-22.869c2.336-2.35,5.502-4.293,6.096-3.147
		c1.983,3.828-14.902,22.295-29.76,30.527l-41.843,45.07c0,0-0.992-0.086-3.192,0.109C118.175,76.456,115.998,77.249,115.998,77.249
		L115.998,77.249z"/>
	<path class="st0" d="M131.052,55.743l-18.926,20.494c0,0-1.546,0-3.33,0.109c-1.758,0.109-3.872,0.967-3.872,0.967l21.105-21.57
		H131.052L131.052,55.743z"/>
	<path class="st0" d="M126.03,55.743l26.351-26.934c-0.525,0.264-4.6,1.1-4.6,1.1c-2.376,3.678-8.296,9.658-13.008,11.266
		c-1.65,0.525-2.706,0.77-3.721,0.088c-1.21-0.814-0.329-3.719-0.329-3.719s-3.191,2.684-5.329,3.719
		c-1.188,0.572-1.979,0.857-2.749,0.352c-0.661-0.439-0.771-2.025-0.771-2.025c-2.401,1.32-4.865,3.016-6.761,1.586
		c-0.9-0.684-0.701-3.146-0.701-3.146c-1.102,0.703-5.726,4.73-8.188,2.84c-0.66-0.508-0.838-1.807-0.463-2.928
		c0.927-2.748,6.229-7.768,12.151-14.414h4.645l-13.274,14.326c-0.193,0.211-0.175,0.551-0.109,0.725
		c0.109,0.24,0.657,0.33,0.925,0.24c1.695-0.637,4.096-1.23,6.425-5.033c1.21-2.004,2.335-3.279,4.272-5.086
		c4.888-4.533,12.899-7.219,13.229-3.873l20.536-23.09h4.887l-33.699,36.293c-0.208,0.225-0.361,0.465-0.243,0.746
		c0.106,0.254,0.367,0.363,0.64,0.309c0.528-0.285,3.037-1.143,7.087-5.717c7.483-8.453,14.419-11.383,16.485-9.949
		c1.565,1.078-0.284,4.424-0.284,4.424c1.584-0.309,4.071-0.77,5.194-1.453c12.57-12.15,26.438-28.766,29.035-26.104
		c2.553,2.598-13.67,21.414-25.973,26.633l-26.638,28.826H126.03L126.03,55.743z M145.295,27.489
		c-0.662,1.629,0.835,2.773,0.835,2.773c-0.948,1.365-1.913,2.531-2.947,3.543c-2.423,2.399-7.552,6.707-8.653,5.674
		c-1.033-0.988,3.085-6.225,5.414-8.777c3.083-3.346,7.42-6.822,8.301-5.635c0.044,0.088,0.152,0.264,0.088,0.527
		C148.332,25.595,146.086,25.595,145.295,27.489L145.295,27.489z M123.7,30.55c2.842-2.797,7.883-7.242,8.895-5.855
		c0.877,1.209-3.61,5.877-6.229,8.539c-2.399,2.422-7.088,7.215-8.189,6.137C117.254,38.466,121.214,33.015,123.7,30.55L123.7,30.55
		z M83.635,30.614c2.753-2.928,7.596-6.891,8.808-5.898c1.098,0.902-3.544,5.348-6.296,8.494c-2.468,2.84-7.244,7.172-8.345,6.07
		C76.901,38.378,80.883,33.542,83.635,30.614L83.635,30.614z M128.565,15.934c0.133,2.002-2.181,4.754-4.731,4.686
		c-1.365-0.043-1.586-1.783-1.586-1.783c-2.354,0.598-6.516,4.316-9.704,7.572c-4.648,4.205-8.982,10.213-15.852,14.236
		c-0.706,0.396-2.157,1.277-3.191,0.307c-1.082-0.988,0.086-3.035,0.086-3.035l2.026-3.957c0,0-5.151,4.133-8.541,5.938
		c-1.763,0.947-5.922,3.037-5.264-0.199c-1.166,0.42-5.306,3.322-6.911,1.188c-2.111-2.793,3.238-10.184,5.745-12.34
		c8.144-7.066,13.121-6.338,13.406-4.117l0.884-0.902h4.402L85.814,37.962c-0.183,0.195-0.241,0.482-0.109,0.682
		c0.109,0.154,0.529,0.219,0.926,0c7.528-4.178,10.524-8.799,16.753-15.137h4.666c0,0-7.196,8.359-10.74,13.949
		c-0.311,0.484-0.132,0.836,0,0.881c0.241,0.086,0.463,0.107,0.747-0.068c5.24-3.58,11.994-11.287,16.62-16.02
		c8.318-8.076,11.951-7.965,11.951-7.965S128.433,13.866,128.565,15.934L128.565,15.934z M161.233,23.35
		c0.283,0.506,6.27-3.41,10.696-7.836c6.956-6.58,11.094-13.359,10.392-13.779c-0.862-0.525-5.925,4.758-11.294,10.654
		C166.075,17.849,161.056,23.02,161.233,23.35L161.233,23.35z"/>
	<path class="st0" d="M150.358,96.79c-2.603,3.027-5.241,5.871-6.814,4.297c-0.513-0.512,0.559-2.305,2.085-4.297h-4.131
		c-1.209,2.307-1.842,4.604-0.858,5.906c1.604,2.135,4.819,0.334,7.123-1.109c-0.387,3.832,3.287,1.783,5.049,0.836
		c0.599-0.316,3.307-2.238,3.979-2.67c-0.56,1.334-1.02,2.783-0.446,3.443c1.055,1.223,4.445-0.889,4.445-0.889
		c1.322-1.027,4.166-3.109,4.166-3.109s-1.225,3.998,2.109,4.555c2.545,0.426,6.996-1.621,13.379-6.963h-2.06
		c-4.312,3.371-7.947,5.25-8.929,4.738c-1.079-0.545-0.172-2.826,1.063-4.738h-5.054c-1.104,1.125-2.18,2.129-3.287,2.908
		c-1.031,0.723-2.732,2.484-3.626,2.635c-0.346,0.057-0.65-0.025-0.64-0.309c0.015-0.307,0.033-0.523,0.245-0.744l4.207-4.49h-4.136
		c-1.883,1.564-3.796,2.879-5.652,3.729c-0.329,0.15-0.812,0.156-0.926,0c-0.131-0.199-0.07-0.486,0.113-0.684l2.793-3.045H150.358
		L150.358,96.79z M187.581,96.79c-2.113,1.906-3.429,3.562-2.855,4.871c0.584,1.316,5.059-1.314,9.285-4.867l2.492-0.004
		c-2.869,2.703-6.251,5.035-11.31,7.402c-2.145,1.01-5.796-0.242-4.63-3.918c0.303-0.961,0.795-2.066,2.021-3.49L187.581,96.79
		L187.581,96.79z"/>
	<path class="st0" d="M141.498,96.79c1.392-2.641,3.544-5.291,4.884-6.443c8.146-7.068,13.121-6.342,13.406-4.119l0.881-0.9h4.4
		L154.557,96.79h-4.199c0.516-0.598,1.025-1.199,1.527-1.777c2.749-3.149,7.396-7.594,6.294-8.496
		c-1.21-0.992-6.05,2.971-8.803,5.898c-1.183,1.258-2.595,2.873-3.748,4.375H141.498L141.498,96.79z M158.229,96.79
		c5.071-4.225,9.929-10.262,12.947-13.867l-5.888,0.029l1.638-1.723l5.471,0.193l14.569-16.447h4.887l-15.04,16.393l11.469-0.805
		l-2.25,2.555l-10.663-0.195L162.365,96.79H158.229L158.229,96.79z M165.465,96.79c3.606-3.658,7.59-8.625,14.486-11.535
		c3.554-1.498,5.361,0.785,4.332,3.166c-2.562,5.941-10.251,8.68-12.773,7c-0.334,0.41-0.674,0.875-0.991,1.369H165.465
		L165.465,96.79z M178.384,96.79c3.099-2.418,6.554-5.611,9.622-9.238c0.667-3.83,1.571-4.318,2.555-5.277
		c4.387-4.273,5.91-2.432,4.941-0.996c-1.391,2.053-5.038,5.307-4.611,5.83c0.502,0.613,3.17,0,6.612-2.164
		c0.716-0.453,2.862-0.166,1.331,1.721c-3.038,3.76-8.057,7.232-11.254,10.119l-4.996,0.006c1.685-1.955,4.758-4.504,10.64-8.068
		c-1.887,0.389-3.997-0.166-3.997-0.166c-3.251,3.328-6.18,6.053-8.783,8.234H178.384L178.384,96.79z M194.01,96.79
		c2.468-2.07,4.852-4.459,6.324-6.568c0.143-0.211,0.38-0.363,0.652-0.363c0.439,0,0.794,0.354,0.794,0.793
		c0,0.223-0.102,0.451-0.251,0.596c-1.665,2.055-3.252,3.873-5.027,5.547L194.01,96.79L194.01,96.79z M172.34,94.55
		c1.048,0.688,4.57-0.109,7.831-3.439c2.555-2.611,3.062-3.846,2.613-4.336C181.197,85.059,172.701,93.614,172.34,94.55
		L172.34,94.55z"/>
	<path class="st1" d="M34.732,29.028c0.438-5.502,5.744-5.438,6.603-3.41c1.451,3.344-3.259,5.436-6.011,5.195
		c-3.19-0.267-3.322-2.248-3.345-2.84C31.802,23.636,39,16.263,48.95,15.934c8.477-0.289,7.946,5.764,7.946,5.875
		c0,8.363-11.447,16.525-24.255,16.656c-12.284,0.133-12.657-8.248-12.636-9.414C20.422,17.472,36.867,5.434,55.2,5.28
		c14.309-0.133,25.139,7.24,24.854,17.475c-0.289,11.021-12.855,21.088-33.107,20.641c-3.632-0.066-9.552-0.791-9.552-0.791
		c-0.489-0.041-1.081-0.047-1.104-0.596c-0.019-0.506,0.597-0.592,1.079-0.613c0,0,3.414,0,5.283-0.266
		c12.9-1.807,20.824-19.719,36.541-32.352c12.588-10.125,20.912-5.016,20.912-5.016s-9.688-1.213-18.382,7.217
		C66.977,25.265,61.737,37.323,46.221,41.942c12.928,0.375,29.134-6.996,29.253-19.211C75.561,12.52,63.279,7.392,53,7.767
		C23.836,8.89,12.389,35.188,32.882,35.102c12.412-0.045,22.847-9.949,22.078-14.459c-0.353-2.158-2.466-3.279-5.901-3.348
		c-5.523-0.262-15.449,5.019-15.384,10.742C33.719,29.513,34.709,29.493,34.732,29.028L34.732,29.028z"/>
	<polygon class="st1" points="172.017,47.292 22.008,47.315 23.659,45.727 173.336,45.727 172.017,47.292 	"/>
	<polygon class="st1" points="147.432,38.157 180.668,38.157 182.87,35.852 156.125,36.62 147.432,36.599 147.432,38.157 	"/>
</g>
</svg>