<!-- Generator: Adobe Illustrator 19.1.0, SVG Export Plug-In  -->
<svg version="1.1"
	 xmlns="http://www.w3.org/2000/svg" xmlns:xlink="http://www.w3.org/1999/xlink" xmlns:a="http://ns.adobe.com/AdobeSVGViewerExtensions/3.0/"
	 x="0px" y="0px" width="171.444px" height="56.499px" viewBox="0 0 171.444 56.499"
	 style="enable-background:new 0 0 171.444 56.499;" xml:space="preserve">
<style type="text/css">
	.st0{fill:#FFFFFF;}
</style>
<defs>
</defs>
<g>
	<path class="st0" d="M46.035,4.484h-3.36l-0.377,0.375v16.436l0.377,0.374h3.36c5.234,0,7.099-2.615,7.099-8.595
		C53.135,7.095,51.269,4.484,46.035,4.484 M45.663,26.145h-8.219l-0.372-0.376V0.372L37.444,0h8.219
		c9.341,0,12.701,4.859,12.701,13.073C58.364,21.295,55.004,26.145,45.663,26.145"/>
</g>
<path class="st0" d="M71.245,6.722h-0.369l-3.362,8.966l0.373,0.374h6.349l0.372-0.374L71.245,6.722z M82.08,26.145h-3.362
	l-0.372-0.374l-1.872-4.853l-0.745-0.373h-9.34l-0.747,0.373l-1.866,4.853l-0.374,0.374h-3.36l-0.377-0.374v-3.73l8.593-21.67
	L68.636,0h4.854l0.37,0.372l8.598,21.67v3.73L82.08,26.145z"/>
<polygon class="st0" points="94.03,25.772 93.658,26.146 88.803,26.146 88.432,25.772 80.207,4.107 80.207,0.371 80.582,0 83.947,0 
	84.319,0.371 91.044,18.678 91.416,18.678 98.141,0.371 98.513,0 101.877,0 102.251,0.371 102.251,4.107 "/>
<polygon class="st0" points="110.652,26.145 106.168,26.145 105.792,25.771 105.792,0.372 106.168,0 110.652,0 111.029,0.372 
	111.029,25.771 "/>
<g>
	<path class="st0" d="M120.178,9.286V4.859l0.37-0.375h3.362c1.367,0,2.497,0.181,3.431,0.554c1.982-0.716,4.095-1.159,6.282-1.288
		C131.632,1.333,128.405,0,123.533,0h-8.217l-0.372,0.371v15.671C116.242,13.46,118.026,11.169,120.178,9.286"/>
	<path class="st0" d="M11.577,44.914H5.601l-0.374,0.373v5.979l0.374,0.371h5.976c2.618,0,3.737-1.123,3.737-3.36
		C15.314,46.04,14.195,44.914,11.577,44.914 M11.577,34.456H5.601l-0.374,0.368v5.231l0.374,0.375h5.976
		c2.246,0,2.991-1.493,2.991-2.993C14.567,35.573,13.822,34.456,11.577,34.456 M13.076,56.122H0.373L0,55.746V30.341l0.373-0.366
		h11.953c3.737,0,7.472,1.866,7.472,6.719c0,2.616-1.119,4.861-3.735,5.608v0.369c2.985,0.746,4.482,2.991,4.482,6.351
		C20.545,54.254,16.81,56.122,13.076,56.122"/>
</g>
<polygon class="st0" points="41.463,56.122 23.903,56.122 23.531,55.746 23.531,30.341 23.903,29.973 41.463,29.973 41.835,30.341 
	41.835,34.076 41.463,34.456 29.132,34.456 28.762,34.825 28.762,40.056 29.132,40.431 40.716,40.431 41.089,40.807 41.089,44.539 
	40.716,44.914 29.132,44.914 28.762,45.287 28.762,51.266 29.132,51.637 41.463,51.637 41.835,52.012 41.835,55.746 "/>
<g>
	<path class="st0" d="M62.194,48.276l0.373-0.372h4.481l0.374,0.372c-0.747,5.227-4.856,8.223-10.834,8.223
		c-8.219,0-12.703-5.609-12.703-13.446c0-7.846,4.484-13.453,12.703-13.453c5.979,0,10.088,2.991,10.834,7.839l-0.374,0.377h-4.481
		l-0.373-0.377c-0.749-2.232-2.615-3.362-5.606-3.362c-5.231,0-7.472,3.74-7.472,8.976c0,5.223,2.241,8.96,7.472,8.96
		C59.579,52.013,61.445,50.889,62.194,48.276"/>
</g>
<polygon class="st0" points="90.392,56.122 87.777,56.122 87.026,55.746 78.809,45.662 78.436,45.662 75.823,48.277 75.823,55.746 
	75.451,56.122 70.966,56.122 70.592,55.746 70.592,30.341 70.966,29.973 75.451,29.973 75.823,30.341 75.823,41.178 76.2,41.178 
	87.026,30.341 87.777,29.973 89.643,29.973 90.023,30.341 90.023,34.076 82.551,41.556 82.551,41.923 90.765,52.012 90.765,55.746 
	"/>
<path class="st0" d="M109.998,29.973l-0.37,0.367v9.716l-0.372,0.375H99.164l-0.371-0.375V30.34l-0.371-0.367h-4.486l-0.374,0.367
	v25.405l0.374,0.376h4.486l0.371-0.376V45.286l0.371-0.372h10.092l0.372,0.372v10.459l0.37,0.376h4.487l0.369-0.376V35.966
	c-0.919-1.863-1.577-3.88-1.951-5.993H109.998z"/>
<path class="st0" d="M120.994,43.586l-3.341,8.427v3.733l0.372,0.375h3.362l0.375-0.375l1.864-4.857l0.749-0.375h9.339l0.75,0.375
	l1.869,4.857l0.377,0.375h3.36l0.372-0.375v-3.733l-1.546-3.893c-1.29,0.226-2.608,0.348-3.96,0.348
	C129.665,48.468,124.817,46.64,120.994,43.586"/>
<path class="st0" d="M143.428,55.746l0.368,0.376h4.485l0.373-0.376V43.765c-1.586,1.238-3.341,2.26-5.227,3.032V55.746z"/>
<path class="st0" d="M171.07,29.973h-5.602l-0.378,0.367l-7.465,18.31h-0.378l-3.977-9.735c-1.019,1.456-2.209,2.792-3.547,3.964
	l5.282,12.866l0.375,0.376h4.107l0.373-0.376l5.979-14.567h0.376v14.567l0.372,0.376h4.483l0.374-0.376V30.34L171.07,29.973z"/>
</svg>