<!-- Generator: Adobe Illustrator 19.1.0, SVG Export Plug-In  -->
<svg version="1.1"
	 xmlns="http://www.w3.org/2000/svg" xmlns:xlink="http://www.w3.org/1999/xlink" xmlns:a="http://ns.adobe.com/AdobeSVGViewerExtensions/3.0/"
	 x="0px" y="0px" width="198.15px" height="138.193px" viewBox="0 0 198.15 138.193"
	 style="enable-background:new 0 0 198.15 138.193;" xml:space="preserve">
<style type="text/css">
	.st0{fill:#FFFFFF;stroke:#5E6870;stroke-width:2.4651;stroke-miterlimit:3.864;}
	.st1{fill:#FFFFFF;}
	.st2{fill-rule:evenodd;clip-rule:evenodd;fill:#FFFFFF;}
</style>
<defs>
</defs>
<g>
	<line class="st0" x1="0" y1="136.96" x2="198.15" y2="136.96"/>
	<g>
		<polygon class="st1" points="103.14,11.845 103.324,11.685 102.979,11.517 102.562,11.366 102.428,11.464 102.661,11.685 		"/>
		<polygon class="st1" points="75.504,7.512 75.823,7.687 76.465,7.448 76.465,7.353 76.271,7.353 		"/>
		<path class="st1" d="M72.079,7.662c0.522,0,0.765-0.359,1.23-0.586l0.58-0.365l0.515-0.235l0.68,0.187h0.615v0.144l-1-0.13V6.662
			h0.654l0.908,0.361l0.514-0.08l0.516,0.151l0.26-0.22l-0.401-0.647l-0.213-0.39l-0.388-0.24l-0.58-0.192l-0.908,0.447
			c-0.52,0.322-0.881,0.399-1.479,0.553c-0.486,0.114-0.738,0.256-1.229,0.335c-0.446,0.074-1.017,0.167-1.09,0.624l0.174,0.297
			H72.079z M76.295,5.741h0.128l0.362,0.451l-0.114,0.136l-0.107-0.093l-0.076-0.119l-0.192-0.25V5.741z M75.867,6.043l0.048,0.073
			l-0.048,0.157l-0.103-0.099L75.867,6.043z"/>
		<path class="st1" d="M148.061,76.845c-0.906-1.572-2.338-1.611-2.355-1.846l1.23-0.708l0.961-0.632l-0.742-0.151
			c-2.392,0.106-3.591-1.286-4.083-3.497c-0.486-2.214,1.472-8.376,1.487-10.553c0.021-2.176-0.657-5.566-2.734-7.107
			c-1.905-1.412-3.664-1.195-4.842-1.072c-1.178,0.129-2.433,0.635-2.576,0.578c-0.144-0.048-0.673-2.012-4.047-4.947
			c-2.352-2.057-5.916-3.09-8.204-3.5c-2.291-0.404-3.644-0.117-4.116-0.238c-0.48-0.127-0.56-0.586-0.811-0.773
			c-0.253-0.185-1.065-0.35-1.973-0.416c-0.911-0.064-1.41,0.066-1.514-0.055l-0.043-0.656v-0.406l1.965-0.635
			c0.35,0.059,1.206,1.078,2.358,1.138c1.152,0.058,2.203-0.751,2.822-1.292c0.613-0.531,0.652-1.104,1.25-1.973
			c0.604-0.866,1.283-1.374,2.03-1.732c0.747-0.359,1.503-0.541,1.815-0.49c0.308,0.059,1.209,0.578,1.895,1.564
			c0.692,0.992,0.746,1.967,0.767,2.797c0.023,0.826-0.549,1.469-0.275,1.613c0.276,0.146,1.291-1.498,1.447-3.106
			c0.15-1.61-0.093-1.188-0.407-3.234c-0.313-2.045,0.188-2.872,0.34-3.495c0.153-0.625-0.025-2.482-0.346-3.086
			c-0.203-0.367-0.836-1.219-1.866-2.1c-1.03-0.881-2.172-0.852-3.255-1.551c-1.552-0.994-2.258-2.217-2.452-2.693
			c-0.192-0.48,0.171-0.535,0.351-0.602c0.174-0.062,2.878-1.074,3.504-1.301c0.623-0.229,5.729-2.125,6.973-2.606
			c1.236-0.475,1.322-0.99,0.795-1.898c-0.526-0.9-1.263-0.6-1.674-0.453c-0.415,0.149-3.923,1.449-4.647,1.731
			c-0.73,0.284-5.73,2.132-6.063,2.253l-0.528,0.164c-0.094-0.019-0.096-0.087-0.495-0.836c-0.397-0.752-0.751-1.649-1.606-2.719
			c-0.667-0.84-2.688-2.436-3.506-3.037c-0.816-0.6-1.84-0.98-2.247-1.113l-1.131-0.152l-1.142-0.167l-1.112,0.026l-0.3-0.545
			l-0.228-0.574l1.168-0.279l0.81-0.305l-0.571-1.241c-0.141-0.306-0.403-0.827-0.376-1.308c0.023-0.477,0.313-0.855,0.649-1.585
			c0.335-0.73,0.515-1.151,0.58-2.042c0.044-0.6-0.595-2.248-1.533-2.871c-0.928-0.627-2.114-0.964-3.119-1.002
			c-0.654-0.034-1.585-0.128-2.916,0.546c-1.329,0.673-1.799,1.991-1.883,2.132l-0.703,0.459l-0.374,0.761l-0.345,0.866l0.021,0.4
			l0.021,0.418l0.212,0.244l0.179,0.271l-0.411,0.625L99.71,7.532c-0.007,0.154,0.278,0.777,0.596,1.301
			c0.315,0.516,0.76,0.9,0.835,1.092c0.073,0.199-0.015,0.248,0.268,1.394c0.284,1.137,0.41,1.308,0.574,1.553l0.378,0.405
			l-0.647,0.343l-1.066,0.9c-0.7,0.532-0.759,1.527-1.119,1.77c-0.172,0.113-1.949,0.455-2.824,0.66
			c-0.877,0.201-2.064,0.713-2.348,0.81l-0.542,0.132l-0.194-0.246c-0.212-0.467-0.223-1.162-0.164-1.656
			c0.054-0.494,0.177-0.894-0.177-1.795c-0.357-0.904-1.136-1.656-1.39-2.15c-0.251-0.489-0.087-1.2-0.331-1.509l-0.707-0.827
			l-0.545-0.459c-0.08-0.214,0.052-0.838-0.51-1.624c-0.411-0.583-0.596-0.665-0.949-0.89l-0.738-0.267l-0.393-0.953l-0.99-0.891
			l-1.183-0.919l-0.744-0.043h-0.517l-0.064-0.963l-0.014-1.086l-0.252-0.553L83.74,0.449L83.601,0l-0.267,0.31l-0.279,0.805
			l-0.514,0.754l-0.13,0.357l-0.216,0.119l-0.506-0.413c-0.333-0.18-0.938-0.431-1.653-0.355c-0.726,0.083-0.627,0.239-0.712,0.275
			L78.861,1.95c-0.296,0.155-0.199,0.422-0.7,0.508L77.478,2.71c-0.173,0.096-0.682,0.25-1.247,0.251
			c-0.563,0-0.741,0.155-1.035,0.394c-0.291,0.24-0.178,0.195-0.371,0.835c-0.524,0.198-0.59,0.483-0.722,0.565
			c-1.09,0.18-2.222,0.439-2.779,0.527c-1.513,0.248-2.171,0.465-3.678,0.707c-0.807,0.127-1.469,0.362-2.295,0.362
			c-0.709,0-1.109,0.078-1.691,0.477c-1.38,0.959-0.809,1.559-2.018,2.81L61.494,9.97l-0.146,0.512L61.2,10.806
			c0,0.197-0.107,0.658,0.164,1.125c0.272,0.471,0.688,0.364,0.928,0.523c0.235,0.166-0.274,0.219,0.652,1.014
			c0.544,0.473,2.52-0.138,2.901,0.037c0.146,0.071,0.166,0.457,0.431,0.963c1.232,2.297,4.045,4.154,4.898,4.681
			c0.853,0.523,1.722,0.323,3.139,1.069c0.886,0.469,1.759,1.418,1.815,1.557c0.052,0.146-0.634,1.056-1.254,2.414
			c-0.614,1.361-1.741,5.652-3.595,9.449c-1.393,2.859-2.551,4.77-2.77,5.166l-0.471,1.32l-1.111,0.435L38.793,51.372l-0.752,0.271
			c-0.191,0.035-0.25-0.166-0.811-0.308c-0.563-0.143-8.758,4.272-9.646,4.859c0.722,0.11,10.457-1.603,10.807-2.052l0.469-0.957
			l0.581-0.256c0,0,27.093-10.045,27.563-10.229c0.471-0.18,0.56-0.219,0.709-0.146c0.144,0.071-0.107,0.651,0.198,2.194
			c0.307,1.539,1.144,2.791,0.996,3.069c-0.146,0.271-2.102-0.515-2.953-0.801c-0.859-0.296-1.87-0.948-2.703-0.871
			c-0.128,0.009-0.98,0.128-1.432,0.306c-1.076,0.432-1.833,1.832-1.797,2.322l0.106,1.292c-0.124,0.19-3.549,0.685-4.876,1.774
			c-1.324,1.088-2.065,4.551-2.827,6.799c-0.765,2.25-1.848,4.584-2.031,5.164c-0.185,0.586-0.232,2.176-0.306,2.797
			c-0.11,0.889-0.798,1.707-0.655,2.505c0.104,0.565,0.995,1.069,1.233,1.397c0.232,0.318,0.473,1.354,0.815,2.303
			c0.345,0.938,0.854,1.34,1.015,1.299c0.167-0.029,0.912-1.23,1.903-2.881c0.999-1.648,1.507-3.429,1.454-3.771l-1.107-1.36
			l-0.054-0.784l-0.491-0.591l-0.524-0.24l-0.15-0.416l1.056-1.828c0.07-0.297-0.381-1.615-0.311-2.142
			c0.044-0.324,0.966-2.288,1.468-3.152c0.514-0.871,1.543-1.887,1.692-1.965l2.3-0.033c0.112,0.111,0.112,0.396,0.037,1.509
			c-0.075,1.103-0.689,2.845-0.619,3.731c0.074,0.892,0.665,1.027,0.979,2.192c0.349,1.267,0.11,2.195,0.731,2.954l0.812,0.691
			c0.092,0.142,0.054,1.254,0.707,1.721l0.544,0.115l1.236,1.416l0.994,0.179l1.089-5.857l-1.089-0.941l-0.486-0.147l-0.488-1.058
			l-1.583-0.54l0.236-0.763l0.235-1.016l-0.67-1.107l0.075-0.833l-0.108-0.668l0.288-0.947l0.471,0.131
			c0.255,0.086,3.753,1.953,4.821,2.391c1.069,0.434,3.611,0.783,5.171,1.595c1.562,0.818,2.12,1.689,3.951,1.886
			c0.855,0.098,1.813-0.685,2.017-0.669c0.199,0.018,0.326,0.222,1.015,0.65c4.992,3.161,8.682,4.681,10.609,5.354
			c1.922,0.665,3.932,0.811,4.093,0.996c0.166,0.182-1.752,2.267-1.153,3.17c0.41,0.619,2.175,0.049,2.532-0.091
			c1.233-0.468,2.997-2.864,3.575-3.046c0.461-0.146,1.94-0.232,2.755-0.414c0.815-0.186,1.539-0.543,2.139-0.615
			c0.599-0.075,0.892-0.022,1.034,0.178c0.146,0.199-0.087,0.329,0.074,1.121c0.496,2.428,0.961,3.846,3.699,6.568
			c2.74,2.717,4.455,3.168,5.146,3.898c2.09,2.196,3.358,3.029,3.27,4.748c-0.104,1.945-2.997,4.7-3.772,5.426
			c-0.779,0.727-0.416,0.74-2.269,2.283c-1.847,1.542-1.865,1.34-2.196,1.524c-0.323,0.184-0.183,0.101-1.193,1.037
			c-1.327,1.213-3.739,1.339-4.588,2.352c-0.263,0.321-0.165,0.854-0.22,1.361c-0.053,0.507-0.544,1.359-0.906,2.123
			c-0.359,0.766-0.579,1.598-0.38,1.814c0.203,0.215,1.887-0.019,3.738-0.324c1.846-0.311,2.774-0.856,3.006-1.24l0.183-0.936
			l-0.237-0.586c0.055-0.164,0.313-0.144,0.4-0.615c0.09-0.469-0.163-0.652-0.105-0.835l1.155-0.977
			c0.203-0.019,0.258,0.254,0.948,0.415c0.687,0.164,1.158-0.201,1.833-0.634c0.666-0.434,0.701-1.18,0.919-1.595
			c0.217-0.418,0.366-0.364,1.417-1.775c2.012-2.709,6.382-5.752,7.521-6.496c1.146-0.74,2.869-1.557,3-2.736
			c0.082-0.797-0.984-1.789-1.439-2.502c-0.449-0.705-1.102-2.156-0.976-2.303c0.125-0.148,1.759,0.655,4.009,0.502
			c1.117-0.064,2.555-0.104,3.118,0.963c0.561,1.071-1.053,3.812-2.919,6.875c-1.867,3.064-4.772,5.334-5.167,5.605
			c-0.402,0.271-2.126,0.594-2.631,1.107c-0.51,0.502-0.672,1.57-1.014,2.518c-0.348,0.945-0.729,1.979-0.71,2.085
			c0.138,0.829,2.052,0.397,3.625,0.053c1.583-0.343,3.014-1.319,3.014-1.319s0.396-1.001,0.271-1.544l-0.347-1.192l1.068-0.947
			l1.257,0.018l0.65-0.271c0.18-0.072,0.669-0.434,1.069-1.285c0.396-0.855,0.015-1.109,1.344-3.158
			c0.77-1.191,3.099-5.553,5.093-7.4c0.784-0.725,1.488-1.537,1.649-2.007c0.165-0.478,0.165-0.763,0.165-0.763
			s0.708,0.309,1.648,0.797c2.327,1.207,4.407,0.744,5.677,0.546c1.268-0.202,2.029,0.017,2.356,0.522
			c0.328,0.508-0.052,1.232-0.217,1.597l-0.56,1.155c0.067,0.059,0.688-0.156,1.682-1.699
			C148.844,79.423,148.729,78.005,148.061,76.845z M143.455,74.456c0.491,0.139,1.199,0.16,1.23,0.396
			c0.035,0.236-0.612,0.381-1.25,0.203c-0.635-0.183-1.54-0.71-1.994-1.729c-0.453-1.014-0.841-2.629-0.816-3.697
			c0.021-0.801,0.072-0.944,0.253-0.944c0.186,0,0.219,0.272,0.274,1.219C141.205,70.843,141.625,73.911,143.455,74.456z
			 M138.508,52.083c1.875,0.527,2.92,1.736,3.718,3.633c1.111,2.644,0.831,6.238,0.831,6.238c0.096-0.227,0.198-0.426,0.279-1.15
			c0.11-1.006-0.099-3.434-0.523-4.725c-0.426-1.297-1.071-2.367-1.315-2.607c-0.241-0.237-0.321-0.968,0.285-0.282
			c0.605,0.688,1.633,2.062,1.875,3.369c0.244,1.312,0.367,3.756-0.118,5.798c-0.277,1.168-0.867,3.099-1.164,4.603
			c-0.223,1.123-0.208,2.037-0.23,2.037c-0.118-0.01-0.195-0.846-0.156-1.533c0.088-1.516,1.083-4.106,0.783-4.184l-0.749,2
			l-0.847,2.322c-0.163,0.039-0.163-0.586,0-1.332c0.16-0.752,0.807-2.404,1.011-4.196c0.2-1.798,0.078-2.991-0.164-4.164
			c-0.24-1.165-0.686-1.952-0.847-2.077c-0.163-0.117,0.565,1.856,0.645,2.643c0.084,0.789,0.124,3.416-0.361,5.234
			c-0.487,1.809-1.412,4.58-1.293,6.535c0.126,1.961,1.01,3.068,0.806,3.27c-0.201,0.201-0.796-0.916-1.066-1.833
			c-0.73-2.448,0.077-4.804-0.166-4.892c-0.235-0.076-0.722,2.104-0.642,3.377c0.077,1.27,0.279,2.137,0.566,2.559
			c0.28,0.425-0.73-0.301-0.968-1.49c-0.241-1.193-0.566-2.627,0.439-5.756c1.011-3.122,1.681-4.097,1.517-6.418
			c-0.162-2.316-1.455-4.375-2.906-5.02c-1.453-0.646-2.725-0.405-2.725-0.405l-0.205-0.565l1.357-0.406
			c-0.016-0.083-0.694-0.045-1.404,0.143l-0.098-0.264C134.67,52.544,136.626,51.562,138.508,52.083z M113.933,47.198l0.998,0.236
			l0.364,0.508l0.273,0.18l0.468,0.47l0.275,0.276l0.161,0.541l0.383,0.98l0.177,0.33l0.2,0.576l0.095,0.406l-0.109,0.267
			l0.25,0.362l0.308,0.812l0.262-0.688l-0.167-0.479l0.146-0.406l-0.218-0.652l0.087-0.258l-0.252-0.67l0.052-0.201l-0.052-0.217
			l0.087-0.502l0.096-0.267l-0.272-0.663l0.09-0.726c0-0.591,0.435-0.932,0.982-1.159l0.177,0.033l0.401-0.033
			c0.126,0.07,1.208,1.579,1.049,4.188c-0.229,3.645,0.311,6.549,1.274,8.646c0.96,2.107,1.847,2.578,2.605,3.85
			c0.329,0.542,0.798,2.1,0.614,2.248c-0.177,0.141-1.083-0.435-2.52-0.895c-1.43-0.447-4.184-0.882-5.383-0.793
			c-1.199,0.094-2.216-0.275-2.61-0.275c-0.397,0-1.576-0.449-1.688-0.957c-0.219-1.019,1.746-2.796,1.581-4.062
			c-0.114-0.869-0.832-1.669-1.709-2.051c-1.573-0.686-2.558-0.086-2.698-0.303l-0.036-0.113l0.524-0.982l0.22-0.58l0.199-0.285
			l0.142-0.132l0.096-0.374l0.197-0.436l0.325-0.291l-0.073-0.328l0.294-0.379l0.611,0.175c1.042,0.407,1.58,1.219,1.636,1.112
			c0.055-0.112-0.325-1.383-0.598-2.398c-0.276-1.017-0.295-2.951-0.295-2.951s0.42,1.704,1.034,3.899
			c0.614,2.197,1.126,5.165,0.997,6.384c-0.123,1.213-1.898,3.008-1.519,3.985c0.38,0.981,4.133,0.838,4.133,0.838l0.219-0.131
			l-0.258-0.271l-0.506-0.125l-0.072-0.296l-0.035-0.51h-0.38l-0.022-0.141l0.094-0.237l-0.109-0.23l-0.093-0.349l-0.286-0.067
			l0.087-0.259l-0.36-0.776l0.123-0.293l-0.307-0.34l-0.144-0.764l0.184-0.507l-0.257-0.38l0.217-1.09l-0.123-0.358l0.034-0.263
			l0.107-0.439l-0.415-0.971l-0.146-0.398l-0.145-0.309l0.074-0.289l0.015-0.476l-0.162-0.555l0.03-0.185l-0.262-0.667V50.99
			l-0.363-0.673c-0.143-0.493,0.363-0.739-0.637-1.246v-0.367l0.118-0.637l-0.149-0.707L113.933,47.198z M119.426,28.286
			l-1.069,0.814c-0.54,0.293-0.877,0.179-1.459,0.362c-1.423,0.49-2.107,1.199-3.606,1.199H112.8c-0.787,0-0.733-0.469-0.695-0.705
			l-0.459-3.386c-0.069-0.662,0.804-0.909,1.432-0.909h0.643l0.974,0.166l0.369-0.097l0.491,0.206l0.609,0.027l0.247,0.154
			l0.183-0.062l0.663,0.184l0.093-0.122c-0.435-0.441-0.981-0.582-1.563-0.748l-0.759-0.389l0.269-0.359l0.501-0.44l0.841-0.339
			l-0.237-0.112l-0.546,0.096c-0.554,0.133-0.677-0.054-1.246,0.054c-0.78,0.154-1.332,0.781-2.053,0.781h-0.246l-0.048-0.023
			l0.721-0.549c0.035-0.208-0.504-0.642-0.828-1.201c-0.228-0.406-0.74-1.416-0.74-1.891c0-0.67,0.237-0.99,0.6-1.555l0.688-1.024
			c0.42-0.498,1.01-0.564,1.668-0.564c0.812,0,0.922,0.214,1.551,0.716c1.204,0.975,1.583,1.898,2.135,3.354
			c0.476,1.262,0.589,2.024,1.012,3.304c0.246,0.735,0.608,1.113,0.608,1.893C119.674,27.576,119.705,27.917,119.426,28.286z
			 M123.679,25.81c0.846,0.695,1.432,0.894,2.135,1.31c1.188,0.707,2.836,3.128,3.081,3.729c0.249,0.602,0.249,1.16,0.06,1.556
			l-0.271,0.673l-0.643-0.729c-0.268-0.403-2.519-2.324-3.479-3.67c-1.616-2.256-1.881-3.868-1.881-3.868L123.679,25.81z
			 M123.404,29.291c0.409,0.821,1.105,2.127,1.918,3.239c0.879,1.189,1.858,2.166,2.045,2.592c0.37,0.823,0.645,1.707,0.645,1.707
			s-0.799-0.612-1.654-1.152c-0.854-0.543-3.05-3.272-4.09-5.135c-1.041-1.863-2.043-5.744-2.228-6.232
			c-0.183-0.493-0.584-1.035-0.551-1.249l1.164-0.493c0.091,0.125,0.728,1.714,0.97,2.32
			C121.873,25.499,122.552,27.568,123.404,29.291z M131.247,16.526l1.105-0.43l0.396,0.672l-1.288,0.668c0,0-9.861,3.67-10.47,3.885
			c-0.615,0.212-1.707,0.787-1.893,0.694l-0.305-0.694l0.475-0.182L131.247,16.526z M115.352,14.759
			c0.458,0.271,0.646,0.342,1.083,0.654l0.729,0.76l-0.076,0.061l-0.284-0.166l-0.695-0.238l-0.306,0.181l0.652,0.224
			c0.401,0.23,1.155,0.732,1.597,1.44c0.452,0.735,0.815,1.097,1.144,1.89l0.252,0.577l-0.452,0.259l-0.509,0.219l-0.272-0.381
			l-0.438-0.799c-0.222-0.484-0.543-0.817-0.866-1.257c-0.612-0.82-1.113-1.52-2.145-1.52h-0.43l-0.803,0.184l-0.724,0.347
			l-0.508,0.166c-0.513,0.253-0.711,0.57-1.233,0.832l-0.035-0.065l0.218-0.396l0.783-0.706c0.425-0.332,0.659-0.579,1.158-0.776
			l0.939-0.439l0.435-0.052l0.873-0.252l-0.162-0.09l-0.512,0.016l-0.342-0.092l-0.596,0.217l-0.295,0.201l-0.797,0.053
			c-0.505,0.066-0.743,0.299-1.161,0.58c-0.633,0.436-0.739,0.086-0.739-0.103l0.34-1.003l0.979-0.775
			c0.418-0.312,0.716-0.529,1.234-0.529c0.575,0,0.957,0.217,1.473,0.475L115.352,14.759z M109.383,13.339
			c0.51-0.201,0.774-0.323,1.267-0.554l0.728-0.123h0.798c0.773,0,1.332,0.293,1.867,0.877l-0.074,0.123h-0.36h-0.438h-0.504
			l-0.436-0.154l-0.513,0.083l-0.72,0.183c-0.655,0.303-0.888,0.67-1.473,1.086l-0.436,0.254l-0.54,0.264l-0.547-0.234l-0.521-0.402
			l0.431-0.545l0.29-0.162C108.614,13.703,108.892,13.552,109.383,13.339z M109.292,5.976c0.233,0.545-0.06,1.367-0.717,1.581
			c-1.044,0.345-1.104-0.406-1.324-0.522c-0.359-0.189-1.36-0.035-1.805,0.019l-1.77,0.062l-0.361-0.715l0.753-0.186l2.104,0.281
			l0.561-0.055l-0.851-0.262l-1.632-0.518l-0.311-0.542l0.665-0.075l0.672,0.246l0.78,0.418l0.599,0.285l0.651-0.041l-0.148-0.092
			l-0.406-0.105l-0.383-0.236l-1.321-0.716l-0.706-0.761l0.306-0.432l0.512,0.311l0.424,0.382l1.332,1.036l0.667,0.219l0.83-0.268
			C108.761,5.292,109.055,5.428,109.292,5.976z M102.464,2.317l0.502-0.76l0.543-0.439c0.56-0.371,0.954-0.596,1.626-0.596
			l0.582,0.061l0.929,0.041l0.862,0.229c0.478,0.158,0.689,0.223,0.967,0.649l0.241,0.42l-0.077,0.321l0.091,0.259l-0.209,0.653
			l-0.008,0.344l-0.291,0.218l-0.107,0.29l-0.273,0.145l-0.094,0.217l-0.43,0.451l0.052-0.077l-0.021-0.08h-0.196
			c-0.656,0-0.901-0.5-1.361-1.064l-0.601-0.826l-0.394-0.399l-0.656,0.246c-0.692,0.233-1.085,0.482-1.811,0.482l-0.185-0.211
			L102.464,2.317z M101.505,3.52l0.913-0.152l0.58-0.096l1.117-0.312l0.083,0.156l-0.184,0.33l-0.252,0.434l-0.645,0.131
			l-1.045,0.01l-0.869-0.025l-0.105-0.226L101.505,3.52z M100.651,5.264l0.336-0.351l0.984,0.208l0.209-0.016l-0.132-0.167
			l-0.862-0.219l-0.348-0.317c0.033-0.034,0.495-0.009,1.011-0.009c0.675,0.004,1.396-0.068,1.484,0.095l-0.368,0.96l-0.236,1.169
			l-1.195-0.653L100.651,5.264z M101.939,11.966l-0.266-1.035l-0.159-0.758c-0.091-0.527-0.194-0.828-0.194-1.358l0.048-0.548
			l0.199-0.498l0.175,0.333l0.24,0.147l0.193,0.008l0.171,0.019l0.091,0.234l0.005,0.152h0.078l0.218-0.289l0.044-0.396l-0.243-0.27
			l-0.318-0.282l-0.312-0.233l-0.255-0.174l0.068-0.148l0.151-0.174l0.417,0.184c0.385,0.238,0.613,0.405,1.064,0.481l0.722,0.083
			l0.645,0.284l-0.243,0.166l-0.309,0.035l-0.283-0.027l-0.255,0.027l-0.244,0.409l-0.072,0.591l0.056,0.112l0.053,0.013
			l0.263-0.207l0.2-0.175l0.271,0.093l0.203-0.043l0.505,0.155l0.364-0.044l0.106-0.132l0.381-0.082l0.412,0.325l-0.393,0.928
			l0.013,0.199l-0.05,0.147v0.219l-0.02,0.359l-0.018,0.289l-0.059,0.219l0.057,0.102l0.531-0.393l0.199-0.097l0.081,0.108
			l-0.233,0.561l-0.589,0.71l-0.459,0.142l-0.887,0.203l-0.411,0.1l-0.459,0.108l-0.565-0.05l-0.376-0.154L101.939,11.966z
			 M105.812,14.129l-0.272,0.533h-0.221l-0.632,0.152c-0.585,0-0.98-0.621-0.98-1.206l0.188-0.269c0.594,0,0.878-0.272,1.439-0.416
			l0.34,0.475l0.055,0.35L105.812,14.129z M102.035,14.304c0.331-0.47,0.685-0.602,0.798-0.291l-0.157,0.209l-0.401,0.537
			l-0.414,0.695l-0.147-0.479L102.035,14.304z M94.439,18.548c0,0,1.994-0.652,3.123-0.941c1.122-0.293,2.938-0.541,2.938-0.541
			s4.274-0.766,8.013-0.077c0.76,2.431,1.994,8.128,1.994,8.128s0.292,1.19,0.435,2.283c0.144,1.088,0.219,2.355,0.219,2.355
			s0.936,4.326-0.04,11.025c-1.228,8.488-2.646,11.607-2.646,11.607s-0.141,0.65-0.545,1.372c-0.399,0.728-0.722,1.311-0.722,1.311
			s-0.729-0.327-1.343-0.694c-0.616-0.359-1.091-0.754-1.091-0.754s-4.421-2.506-8.992-9.252c-2.629-3.885-4.604-8.743-4.604-8.743
			l-0.873-1.989l-0.69-2.182c0,0-1.667-4.458-2.353-8.59C90.052,19.492,94.439,18.548,94.439,18.548z M103.49,56.035l-4.117,0.574
			c-0.524-0.47-1.163-3.423-1.289-3.938c-0.128-0.501-0.469-1.448-0.469-1.448l0.328,0.254l0.174,0.436l0.365,0.289l0.454,0.729
			l0.361,0.051l0.416,0.529l0.274,0.164l0.346,0.053l0.615,0.383l0.31,0.197l0.65,0.635l0.475,0.075l0.383,0.505L103.49,56.035z
			 M87.335,40.056c0.991-0.676,2.208-1.326,2.498-0.98c0.29,0.348-0.325,0.434-1.578,2.063c-1.248,1.635-2.48,5.301-2.522,5.948
			c-0.033,0.654,0.58,1.67,1.346,2.469c0.762,0.801,2.084,2.685,2.157,3.049c-0.126,0.182-0.888-0.016-2.01-0.512
			c-1.124-0.488-2.324-2.024-3.267-2.443c-0.944-0.415-3.662-0.438-3.826-0.578l0.763-0.805c0,0,0.905-0.594,1.52-1.609
			C83.034,45.642,84.358,42.085,87.335,40.056z M85.755,37.632l0.063-0.624l-0.119-0.347v-0.502l0.439-0.602l0.488,0.51l0.209,0.758
			c0,0.555-0.008,0.932-0.328,1.378l-0.384,0.456l-0.267-0.307L85.755,37.632z M86.951,35.25l0.289-0.128l0.055,0.077l-0.014,0.036
			l-0.293,0.084L86.951,35.25z M91.016,15.917l0.306-0.504l0.292-0.439l0.162,0.474l-0.162,0.976l-0.149,0.583l-0.396,0.656
			c-0.361,0.727-0.726,1.084-1.377,1.572l-1.021,0.713l-0.376,0.396l-0.512,0.308l-0.795,0.317
			c-0.446,0.297-0.621,0.693-1.159,0.693h-0.436h-0.469h-0.226v0.005l0.353-0.453c0.623-0.426,0.866-0.691,1.496-1.108
			c0.807-0.533,1.309-0.703,2.131-1.215c0.455-0.279,0.586-0.588,1.014-0.902c0.416-0.315,0.731-0.484,0.896-0.982L91.016,15.917z
			 M83.699,25.169l-0.153-0.017l-0.616,0.468l-0.187-0.198l0.384-0.94l0.249-0.474l0.239-0.346h1.084v0.413l-0.346,0.582
			l-0.031,0.02l0.232-0.18l0.683-0.309l0.314,0.361l-0.408,0.891c-0.34,0.459-0.592,0.767-0.979,1.196
			c-0.613,0.674-0.914,1.025-1.257,2.025h-0.208v-0.36l0.205-0.867c0.086-0.449,0.165-0.731,0.339-1.164l0.456-0.975V25.169z
			 M85.774,25.765l0.109,0.125c0,0.566-0.427,0.785-0.785,1.215l-0.576,0.586l-0.603,0.488l-0.107-0.04l-0.015-0.146l0.254-0.467
			l0.525-0.762l0.688-0.638L85.774,25.765z M84.309,31.036c0.456-0.391,0.67-0.703,1.248-0.873l0.877-0.422
			c-0.317,0.965-0.696,1.451-1.398,2.161c-0.361,0.353-0.513,0.643-0.704,1.101l-0.344,0.988l-0.562,0.252l-0.274-0.508
			C83.151,32.56,83.431,31.799,84.309,31.036z M85.082,32.974c0.545-0.453,1.028-0.559,1.445-1.141l0.064,0.15l-0.42,0.727
			l-0.309,0.6l-0.434,0.159l-1.003,0.354L85.082,32.974z M90.58,13.662h0.141l0.019,0.299l-0.307,0.891
			c-0.208,0.499-0.299,0.844-0.488,1.352c-0.338,0.895-0.693,1.457-1.507,1.961c-0.835,0.523-1.181,1.051-2.086,1.461l-0.36,0.299
			l-1.014,0.64l-0.655,0.524l-0.055-0.184l0.452-0.654l0.38-0.483c0.521-0.565,0.688-0.835,1.234-1.382
			c0.464-0.46,0.836-0.61,1.287-1.083l0.874-0.732l0.338-0.25l0.314-0.418l0.557-0.801l0.437-0.739L90.58,13.662z M90.014,11.405
			l0.121,0.908l-0.354,1.086l-0.238,0.65l-0.381,0.731c-0.542,0.92-1.044,1.316-1.775,2.1c-0.541,0.581-0.942,0.827-1.523,1.379
			l-0.618,0.673c-0.401,0.405-0.697,0.571-1.016,1.05l-0.417,0.67l-0.271,0.416l-0.254-0.309l0.021-0.305
			c0-0.482,0.156-0.914,0.58-1.165l0.723-0.558c0.454-0.459,0.414-0.467,0.905-0.875l0.618-0.555l0.711-0.6
			c0.521-0.529,1.301-1.313,1.179-1.504l-0.6,0.719l-0.677,0.633l-0.576,0.349l-0.124-0.018l-0.021-0.145l0.45-0.615l0.705-0.749
			c0.49-0.482,0.804-0.74,1.201-1.301c0.361-0.519,0.591-0.798,0.873-1.358l0.358-0.799L90.014,11.405z M89.312,11.405
			c0,0.74-0.263,1.176-0.71,1.762l-0.961,1.066c-0.574,0.461-0.792,0.844-1.289,1.381l-0.708,0.85l-0.38,0.434l-0.034-0.143
			c0-0.596,0.133-0.981,0.488-1.453l0.343-0.413l0.361-0.401c0.441-0.592,0.844-0.804,1.309-1.381
			c0.39-0.482,0.595-0.767,0.981-1.271l0.559-0.535L89.312,11.405z M87.295,7.284l0.2,0.549c0,0.488-0.067,0.786-0.255,1.231
			l0.074,0.021l0.344-0.493l0.217-0.142l0.219,0.324l0.053,0.648l-0.068,0.657c-0.105,0.634-0.302,0.977-0.641,1.524l-0.486,0.6
			l0.147,0.056l0.142-0.128l0.346-0.311l0.725-0.949l0.36-0.719l0.312-0.601l0.127,0.186c0,0.565-0.052,0.729-0.309,1.233
			c-0.362,0.703-0.683,1.227-1.179,1.795c-0.506,0.572-0.823,0.888-1.343,1.449l-0.635,0.779l-0.469,0.65l-0.075-0.143
			c0-0.693,0.196-1.1,0.565-1.686l0.58-0.854l-0.074-0.013l-0.343,0.271l-0.328,0.304l0.05-0.073l0.148-0.217v-0.438l-0.315,0.127
			l-0.096-0.074l0.305-0.866l0.409-0.726l0.425-0.359c0.397-0.361,0.653-0.676,0.653-1.203L86.99,9.532
			c-0.416,0.207-0.435,0.861-0.941,0.932l-0.674,0.521l-0.418,0.35l-0.089-0.148l0.232-0.817l0.273-0.654l0.542-0.851l0.779-1.032
			L87.295,7.284z M85.952,7.119l0.055,0.078l-0.071,0.218c-0.102,0.508-0.254,0.795-0.526,1.234l-0.527,0.613l-0.232,0.361
			l-0.164,0.33l-0.203-0.215l0.076-0.133c0.164-0.668,0.296-1.059,0.688-1.611l0.491-0.58L85.952,7.119z M84.929,6.386l0.259-0.311
			l0.125,0.262l0.051,0.291L84.12,8.606l-0.123-0.08l-0.124-0.352c0-0.502,0.346-0.717,0.634-1.125L84.929,6.386z M81.598,4.128
			l0.784-0.836l0.307-0.298l0.143-0.482l0.681-0.85h0.114l0.221,0.973c0,0.65-0.082,0.972-0.241,1.6l-0.417,1.012l-0.4,0.522
			l0.462,0.382l0.439-0.265l0.727-0.293l0.283-0.044v0.127c0,0.662-0.518,1.051-1.022,1.512L83.07,7.625l-0.463,0.477l-0.4,0.241
			l-0.376-0.414l-0.169-0.326L81.995,7.3l0.328-0.629l-0.405-0.478l-0.417-0.852L81.31,4.532L81.598,4.128z M82.239,15.901
			l-0.075-0.018l-0.184-0.026l-0.143-0.195h-0.254l-0.107,0.266l-0.052,0.016l0.274-0.476v-0.219l0.107-0.435
			c0.198-0.399,0.303-0.637,0.342-1.09l-0.629,0.415l-0.251-0.161l0.178-0.831l0.286-0.474l-0.077-0.359l0.146-0.961
			c0.161-0.648,0.228-1.011,0.308-1.668l0.563-0.601l0.758-0.422h0.131l0.143,0.6c0.061,0.479,0.036,0.666,0.108,1.136
			c0.091,0.556,0.473,0.786,0.545,1.347l0.342,1.054v1.471l-0.272,1.326c0,0.666-0.06,1.034,0.009,1.707l0.046,0.395l-0.461,0.47
			l-0.688,0.581c-0.336,0.454-0.598,0.715-0.695,1.285l-0.089,0.707l-0.257,0.958l-0.652-0.116l-0.855-0.13l-0.726-0.198
			l-0.272-0.309l0.357-0.397c0.107-0.514-0.445-0.791,0.555-1.311V18.8l0.008-0.342l-0.087-0.219l0.616-0.854l0.43-0.672
			l0.348-0.176l0.138-0.35l0.106-0.217L82.239,15.901z M81.129,11.686c-0.354,0.854-0.226,1.309-0.451,2.216
			c-0.114,0.465-0.23,0.649-0.381,1.101l-0.199,0.477l-0.292,0.131l-0.253,0.206l-0.258-0.092l-0.251-0.148l0.29-0.761l0.093-0.361
			l0.379-0.948c0.132-0.783,0.36-0.966,0.36-1.761l0.131-1.082h0.832C81.186,10.662,81.113,11.191,81.129,11.686z M79.209,20.522
			l-0.255,0.295l-0.705-0.349l-0.255-0.179l0.327-0.619l0.491-0.487l0.251-0.218h0.125l0.021,0.183l-0.111,0.759L79.209,20.522z
			 M69.962,14.521c0.435,0.075,1.084,0.018,1.561,0.148c0.47,0.122,0.742,0.182,0.94,0.542c0.199,0.362,0.415,0.87,1.143,1.213
			c0.724,0.345,2.447,0.659,3.011,0.728c0.56,0.071,1.03,0,1.213,0.257l-0.107,1.247l-0.525,1.179
			c-0.164,0.073-1.487-1.05-2.016-1.16c-0.523-0.104-1.625-0.343-2.25-0.706c-2.117-1.233-2.588-2.066-3.043-2.52
			c-0.451-0.453-1.212-1.016-1.179-1.127L69.962,14.521z M68.348,13.156l-0.384-0.102l-0.289-0.182l0.226-0.106l0.664,0.123
			l0.416,0.18l-0.219,0.087H68.348z M77.647,15.429l-0.397-0.058l-0.257,0.112l-0.361-0.218l-0.47,0.106l-1.051-0.397l-1.014-0.184
			l-0.547-0.195l-0.105,0.054l-0.021,0.074c0.533,0.086,0.811,0.404,1.05,0.891l0.002,0.126l-0.182,0.015l-0.38-0.235
			c-0.72-0.321-1.061-0.728-1.418-1.434l-0.219-0.72l-0.448-0.671l-0.292,0.055l-0.56-0.182l-0.293-0.237l-0.76,0.091l-0.544-0.055
			l-0.271,0.192l-0.618,0.103h-0.289l-0.22-0.289l0.452-0.328l0.875-0.237c0.503-0.107,0.78-0.324,1.304-0.324l0.214,0.091
			l0.293,0.035l0.655,0.072l0.501-0.019h0.436l0.261-0.055l0.055-0.215l0.36-0.115l0.342-0.179l0.585-0.05l0.267-0.182l0.802-0.138
			l0.849,0.058c0.543-0.178,0.834-0.125,1.399-0.125h0.362l1.104-1h0.602v1.378c0,0.742-0.081,1.175-0.283,1.885l-0.213,0.729
			l-0.252,0.814l-0.541,0.889L77.647,15.429z M81.149,8.052l-0.074,0.981l-0.743,0.139l-0.471-0.557
			c-0.363,0.016,0,0.502-0.49,0.635c-0.491,0.119-4.496,0.957-5.042,1.05c-0.545,0.093-4.025,0.601-4.641,0.686
			c-0.616,0.092-1.744,0.35-1.921,0.184l-0.187-0.634l0.874-0.269c0.438-0.081,4.805-0.802,5.51-0.93
			c0.712-0.127,4.574-0.818,4.935-0.887l1.267-0.381l-0.194-1.564l-0.545-1.537l0.508-0.295l0.67-0.141
			c0.089,0.066,0.308,0.873,0.36,1.34c0.055,0.475,0.148,1.267,0.097,1.396l-0.313,0.346L81.149,8.052z M79.469,2.165l0.799-0.215
			l0.602,0.461l0.156,0.473l-0.251,0.208l-0.535-0.179l-0.208-0.16L79.806,2.68l-0.287,0.093L79.229,2.68l-0.275-0.178L79.469,2.165
			z M78.421,2.71l1.012,0.374l0.627,0.78l-0.333,0.32l-0.604-0.224l-0.188-0.173l-0.172-0.211L78.354,3.31l-0.399-0.193L78.421,2.71
			z M67.4,6.564c0.056-0.093,0.72-0.296,2.036-0.512c0.545-0.089,1.278-0.142,2.01-0.251c3.176-0.488,3.298-0.714,3.516-0.801
			l0.348-0.107l0.021-0.257l0.581-0.434l1.705-0.106l0.883,0.6l-0.108,0.434l0.622-0.044c0.248,0.077,0.448,0.69,0.577,1.24
			c0.127,0.54,0.216,1.173,0.127,1.286c-0.092,0.105-0.487,0.164-1.178,0.35c-0.689,0.172-4.896,0.975-5.877,1.173
			c-0.979,0.2-2.016,0.182-2.686,0.303c-0.666,0.131-1.247,0.223-1.596,0.223h-0.634c-0.072,0-0.034-0.758-0.128-1.58
			C67.53,7.268,67.33,6.69,67.4,6.564z M66.143,7.14l0.492-0.102c0.065,0.06,0.411,0.669,0.451,1.526
			c0.037,0.859,0.057,1.525-0.04,1.622l-0.655-0.052c-0.064-0.102-0.066-0.51-0.085-1.33C66.287,7.991,66.043,7.241,66.143,7.14z
			 M63.448,12.489l-0.396,0.059l-0.221-0.127l0.782-0.256h0.197L63.448,12.489z M64.896,12.673l-0.718,0.143l-0.185-0.086
			l0.236-0.197l0.666-0.096V12.673z M65.681,11.499l0.07-0.441l-0.254,0.079l-0.816,0.525h-0.379h-0.525h-0.797l-0.809,0.125
			l-0.317-0.249l0.656-0.84c0.2-0.126,0.775-0.362,1.32-0.546l0.634-0.24l-0.217-0.137l-1.07,0.197l-0.308-0.168l0.239-0.18
			l0.47-0.16l0.601-0.328c0.482-0.198,1.001-0.255,1.001-0.779L65.045,7.87l-0.531-0.373L63.797,7.76l0.147,0.118l0.218-0.051
			l0.124,0.109l-0.202,0.582L63.36,8.701l-0.237-0.27l0.07-0.295l0.192-0.619l0.584-0.441l0.927-0.002L65.61,7.3l0.106,0.682
			l-0.018,0.773v0.764l0.312,1.144h0.374c0.548,0,0.905,0.256,0.905,0.803l-0.787,0.763L65.681,11.499z M74.098,19.55
			c-0.964-0.366-2.288-0.459-3.43-1.311c-1.143-0.854-2.157-1.67-3.049-2.791c-0.888-1.127-1.268-1.846-1.192-2.013l0.305-0.2
			l0.294-0.107l1.232,1.468l1.738,1.452c0.363,0.34,1.312,1.447,1.996,1.9c0.938,0.641,2.214,0.836,3.047,1.182
			c0.828,0.342,1.865,1.214,2.555,1.576c0.687,0.361,2.301,1.314,4.373,1.622c2.064,0.311,3.351,0.334,3.678,0.334h0.69
			l-0.472,0.578c-0.163,0.066-1.615,0.017-2.322,0.036c-0.71,0.019-3.551-0.104-6.003-1.503
			C75.094,20.375,75.056,19.907,74.098,19.55z M69.706,38.804c0.323-1.016,0.87-2.104,1.415-2.645
			c0.545-0.543,0.892-1.289,0.799-1.366l-0.874,0.778c-0.11-0.088,1.344-2.586,1.58-3.277c0.237-0.685,0.742-3.081,1.452-4.822
			c0.706-1.74,2.466-5.15,2.771-5.191c0.311-0.031,0.656,0.568,2.195,1.002c2.651,0.74,3.265,0.489,3.371,0.688
			c0.11,0.199-0.271,0.547-0.361,1.052c-0.087,0.513-0.034,1.309-0.034,1.976c0,0.671-0.093,1.2,0.018,1.614l0.378,1.342
			l-0.817,2.16l0.219,1.357l0.675,0.637l-0.237,0.58l-11.933,4.569C69.977,39.368,69.381,39.819,69.706,38.804z M34.753,54.017
			l2.385-0.357c0.096,0.518-7.352,2.031-7.381,1.867l7.223-3.603l-1.546,1.253l53.644-20.404l0.51,0.127l-0.255,0.512L34.753,54.017
			z M85.627,35.81c-0.105,0.627-0.048,1.135-0.545,1.51l-0.433,0.288l-0.217-0.507l0.307-0.998l0.741-0.293H85.627z M67.801,48.2
			l0.853,0.107l0.689,0.361l-0.491,0.186l-0.485-0.11l-0.148,0.032l-0.612-0.524L67.801,48.2z M64.084,50.628l0.673-0.271
			l0.941,0.47l1.038,0.56c0.691,0.362,0.963,0.466,1.963,0.687v0.13l-1.454,0.46h-0.383l-0.653-0.295l-0.546-0.298l-0.51-0.315
			l-0.526-0.216l-0.524-0.208l-0.505-0.406L64.084,50.628z M54.443,69.451l0.287-0.396l0.087,0.327l-0.314,0.891l-0.518,0.895
			c-0.312,0.406-0.488,0.639-0.725,1.094l-0.264,0.433l-0.373,0.316l-0.478-0.483l0.079-0.514l-0.145-0.331l0.126-0.374
			l-0.292-0.305l-0.048-0.271l-0.16-0.439l0.481-0.841l0.578-0.622l0.572,0.389l0.045,0.687l0.062,0.601l-0.229,0.623l0.024,0.078
			C53.772,70.567,53.921,70.09,54.443,69.451z M63.812,65.856l0.37-0.498l0.515,0.369c0.312,0.347,0.56,0.594,0.56,1.062
			l-0.189,1.007l-0.391,0.692l-0.369-0.398l-0.786-1.096l-0.068-0.287L63.812,65.856z M63.144,65.959l-0.204,0.499l-0.371,0.353
			L62.32,66.64l-0.485-0.619l-0.136-0.335v-0.242l0.57-0.829l0.633-0.581l0.112,0.208l0.021,0.63L63.144,65.959z M62.582,62.662
			h0.117v-0.084c0,0.542-0.051,0.885-0.374,1.329l-0.453,0.572l-0.469,0.455c-0.503,0-0.721-0.527-0.746-1.027
			c-0.023-0.453-0.06-0.695-0.112-1.146c-0.088-0.729-0.223-1.135-0.489-1.822l-0.243-0.619l0.182-0.227l0.516,0.17l0.127,0.126
			l0.062,1.055v0.888l0.562,0.425L62.582,62.662z M88.185,62.819l-0.304,0.396l-1.017-0.502l-0.216,0.017l-0.33-0.181l-0.581-0.237
			l-0.053-0.451l-0.469-0.164l-0.021-0.219l-0.252-0.164l-0.198,0.107l-0.045-0.033v-0.146l0.045-0.221l-0.263-0.194l-0.47-0.219
			l-0.021-0.11l0.029-0.145l-0.418-0.457l-0.237-0.285l-0.457-0.271l0.182-0.22l-0.273-0.127l-0.27-0.31l0.164-0.303l-0.438-0.566
			l0.054-0.252l-0.196-0.494l0.235-0.272l-0.052-0.176l0.052-0.262l-0.163-0.357l0.288-0.49l0.021-0.126l0.396-0.958
			c-0.197-0.165-0.593,0.258-1.524,0.885c-0.561,0.383-0.868,1.67-1.265,2.851c-0.401,1.178-1.055,1.755-1.055,1.755
			c-0.564,0.688-1.059,1.068-1.947,1.068l-0.901-0.504l-0.634-0.672l0.15-0.11l0.582,0.349l0.556,0.086l0.308,0.198l0.328-0.12
			l0.147,0.032l0.83-0.653l0.437-0.578l0.271-0.31l0.221-0.601l-0.021-0.74l-0.123-0.306l0.2-0.293l-0.021-0.295l0.087-0.25
			l-0.106-0.346l0.31-0.377l-0.037-0.318v-0.344l-0.234-0.482l0.047-0.217l-0.133-0.128l-0.336,0.49l-0.171,0.235l0.05,0.147
			l-0.293,0.361l0.055,0.238l-0.18,0.488c-0.168,0.473-0.73,0.715-1.217,0.87l-0.588-0.353v0.177h0.354l-1.744,0.252
			c-0.6-0.078-0.941-0.196-1.507-0.396l-0.484-0.336l-1.079-0.283l-0.573-0.035l-0.235-0.202h0.269v0.373l0.104,0.24l0.419,0.073
			l0.712,0.274l0.388,0.326l0.605,0.215l0.684,0.165l0.469,0.253l0.852,0.365l0.341,0.447l-0.179,0.042l-0.637-0.151
			c-0.469-0.095-0.74-0.17-1.196-0.32l-0.853-0.383c-0.538-0.203-0.901-0.172-1.415-0.436l-0.599-0.27l-0.76-0.439l-1.016-0.633
			l-0.705-0.271c-0.522-0.166-0.689-0.176-1.234-0.254l-0.472-0.261l-0.476-0.087l-0.995-0.328l-0.979-0.25l-0.852-0.523
			c-0.397-0.26-0.717-0.242-1.178-0.383l-1.016-0.488l-0.652-0.547l-0.396-0.328l-0.567,0.475l-0.851,0.585
			c-0.634,0.289-1.021,0.52-1.702,0.52h-0.438l-0.161,0.074l-0.511,0.089l-0.2,0.538l-0.472,0.365l-0.381,0.22l-0.175-0.104
			l-0.384,0.469l0.016,0.114l0.259-0.092l0.067,0.031l0.019,0.078l-0.108,0.16l0.034,0.18l-0.164,0.401l-0.034,0.437l-0.236,0.541
			c-0.069,0.457-0.252,0.662-0.376,1.107c-0.298,1.008-0.59,1.527-0.968,2.498c-0.267,0.697-0.285,1.147-0.649,1.801l-0.6,0.689
			l-0.4,0.959l-0.107,0.29l0.092,0.31l-0.161,0.361l0.177,0.185l0.055,0.373l0.042,0.402l-0.185,0.545l0.686-0.4l0.256,0.182
			l0.618,0.198c0.143,0.199,0.089,0.8-0.6,1.813c-0.689,1.016-1.362,1.12-1.631,1.12l-0.544-0.319l-0.367-0.615l0.639-3.249
			c0.035-0.362-0.105-0.978,0.111-1.685c0.134-0.439,1.05-2.34,1.34-2.883c0.289-0.548,1.086-2.504,1.229-2.868
			c0.149-0.362-0.102-0.251,0.111-0.868c0.216-0.617,0.705-2.014,0.705-2.014l0.26-0.652l0.287-0.23l-0.178-0.385l0.184-0.434
			v-0.385l0.504-0.197l0.264-0.565c0.146-0.362,0.33-0.634,1.342-1.017c1.021-0.381,3.135-0.615,3.693-0.557
			c0.566,0.055,7.777,2.444,8.34,2.477c0.56,0.045,1.473-0.141,1.473-0.141l0.732-0.053c0.738,0,1.289,0.219,1.979,0.415
			l0.523,0.544l0.981,0.019l1.126-0.106l-0.782-0.164l-0.31-0.149l-0.052-0.319l-0.22-0.111l-0.327-0.436l-0.648-0.328l-0.653-0.436
			l-0.579-0.257l0.288,0.033h0.218l0.361-0.231l0.85,0.281l0.295-0.128l0.56-0.157l-0.432-0.396l-0.456-0.37h-0.396l-0.478-0.033
			l-0.359-0.061l-0.471-0.793L71.928,48.9l-0.228-0.983v-0.09l0.084-1.111c0.254-0.609,0.477-0.962,0.477-1.629l-0.081-0.221
			l0.234-0.215l0.285-1.069v-0.271l-0.189-0.383l0.274-1.035l0.358-0.667l0.285-0.329l-0.172-0.238l-0.315,0.219l-0.401,0.367
			l-0.673,0.797c-0.193,0.503-0.393,0.74-0.584,1.25l-0.199,0.434l0.076,0.381l-0.144,0.307l-0.326,0.434l-0.314,0.218l-0.033,0.242
			l-0.216,0.338l0.141,0.495l-0.232,0.271l-0.306-0.344l-0.111-0.256l0.111-0.504l-0.457-1.005l-0.018-0.427l-0.2-0.479L69.11,42
			l0.578-0.325c0,0,12.528-4.676,13.184-4.928c0.653-0.258,0.619-0.311,0.795-0.162c0.184,0.144-0.197,0.543,0.056,1.015
			c0.259,0.468,0.274,1.102,0.459,1.159l0.903-0.526l0.67,1.849c0.128,0.234-0.341,0.07-1.213,1.562
			c-1.062,1.817-1.527,2.822-1.793,3.355c-0.273,0.521-0.338,0.745-0.735,1.31c-0.924,1.393-3.123,2.704-3.095,3.192l1.676,0.475
			c0.123,0.488-1.12,1.277-0.986,1.646l0.39,0.065l0.652,0.054l0.553,0.032l0.347,0.072l0.506,0.006l1.055,0.253l0.873,0.492
			l0.449,0.198l0.184,0.198l0.449,0.203l0.364,0.25c0.572,0.203,0.801,0.527,1.251,0.926l0.308,0.179l0.398,0.275l0.638,0.323
			c0.508,0.19,0.822,0.247,1.288,0.528l-0.077,0.325c0,0-0.852,3.098-1.015,4.568C88.058,62.044,88.185,62.819,88.185,62.819z
			 M91.874,60.146c-0.258,1.542-0.175,2.863-0.175,2.863v0.367l-0.467,0.286h-0.382l-0.291-0.19l-0.344,0.166l-0.368-0.211
			c-0.667,0-1.135-0.631-1.135-1.297c0,0,0.217-3.247,0.6-4.753c0.379-1.503,0.469-1.47,0.556-1.543l1.8,0.651l0.846,0.418
			C92.58,57.008,92.129,58.608,91.874,60.146z M94.781,63.792l-0.199,0.361l-0.358,0.088l-0.437,0.238l-0.372-0.127l-0.367,0.072
			l-0.514-0.545l0.04-0.76l0.124-0.547l-0.164-0.688l0.079-0.231l0.086-0.241v-0.469l0.012-0.364
			c0.055-0.458-0.012-0.721-0.012-1.175V58.97c0-0.76,0.008-1.271,0.439-1.923l0.072-0.021l0.797,0.547l0.544,1.088
			c0.276,0.416,0.471,0.711,0.7,1.16l0.447,0.885v0.368v0.374v0.49v0.766v0.49l-0.383,0.434L94.781,63.792z M95.836,70.505
			c-1.177,0.371-1.376,0.218-1.47,0.104c-0.087-0.104-0.033-0.814,0.689-2.048c0.719-1.218,1.109-3.153,1.251-3.153
			c0.145,0,1.092,0.78,1.561,1.355c0.473,0.58,0.816,1.014,0.744,1.291C98.538,68.325,97.016,70.122,95.836,70.505z M99.176,64.556
			c-0.021,0.088,1.688,1.078,1.05,1.553c-0.579,0.436-0.894-0.665-1.648-0.753c0.055,0.269,1.268,0.919,0.721,1.449
			c-0.544,0.522-1.198-0.749-1.397-0.948l-1.284-0.962l0.252-1.231c0.11-0.088,1.527-0.181,2.232,0
			c0.71,0.184,2.086,0.729,1.942,1.146C100.839,65.369,99.191,64.46,99.176,64.556z M102.035,64.282
			c-0.291,0-0.937-0.74-1.938-1.013c-2.244-0.616-3.229-0.131-3.353-0.224c-0.128-0.091-0.163-0.777-0.362-1.358
			c-0.203-0.58-1.866-4.778-5.388-8.796c-2.576-2.936-2.104-2.718-2.829-3.754c-0.728-1.031-1.306-1.535-1.252-2.5
			c0.053-0.962,0.454-2.414,2.017-4.05c1.562-1.628,2.173-2.149,2.303-2.045l0.033,0.073l-0.053,0.369
			c0,0.557,0.589,0.69,0.763,1.228l-0.021,0.454L92.57,43.3l0.129,0.221v0.346l-0.327,0.324l0.099,0.328l-0.193,0.74l-0.061,0.397
			l-0.249,0.401l0.052,0.181l-0.295,0.399l-0.945,0.502l-0.727,0.111l-0.438,0.165l0.492,0.31l1.028,0.095l1.057-0.109l0.416-0.049
			h0.326l0.508,0.342l0.204,0.259l0.338,0.357l0.401,0.351l0.145,0.34l0.308,0.151l0.109,0.473l0.095,0.343l0.014,0.244l0.293,0.105
			l0.086,0.452l0.203,0.185l0.178,0.394l0.255,0.748l0.129,0.505l0.198,0.146l0.109,0.454l0.312,0.613l-0.054,0.58l-0.065,0.289
			v0.248l0.391,0.445l0.026,0.22l0.147,0.139l0.182,0.527l0.142,0.507l-0.051,0.24l0.22,0.289l-0.181,0.184l0.124,0.551v0.266
			c1,0.449,0.677,0.656,0.944,1.121l0.362,0.527l0.365,0.218l0.379,0.231c0.06,0.459,0.58,0.441,0.904,0.766l0.343,0.25l0.153-0.099
			l0.437,0.039h0.214l0.364,0.639l0.253,0.605C102.509,63.525,102.331,64.282,102.035,64.282z M105.717,62.506l-0.757,0.559
			l-0.563-1.074c-0.272-0.322-1.485-0.543-2.434-1.172c-1.248-0.834-1.866-2.178-1.866-2.178l0.292,0.004l0.58-0.17l0.526,0.276
			l1.036-0.09h0.467l0.326-0.109l0.327-0.177l0.634-0.311l0.406-0.403h0.312h0.408h0.625L106.425,58l0.512,0.561L107.243,59
			l0.127,0.393l-0.091,0.694l-0.396,0.747l-0.328,0.959l-0.362,0.403L105.717,62.506z M105.539,100.115l-0.093,0.022l-0.703,0.525
			H103.4l-0.531,0.037l0.183-0.189l0.254-0.536l0.218-0.158l0.217-0.623l-0.067-0.21l0.32-0.397l0.271-0.197l0.218,0.141
			l0.515,0.238l0.434,0.311l0.22,0.271l-0.261,0.456L105.539,100.115z M107.37,98.411l-0.161,0.014l-0.382-0.034l-0.292-0.194
			l0.319-0.155l0.532,0.22L107.37,98.411z M116.104,90.497l-0.545,0.752c-0.358,0.463-0.551,0.667-0.981,1.068l-0.875,0.627
			l-0.095-0.043l0.403-0.73l0.71-0.922l0.864-0.66l0.475-0.564l0.247-0.184l0.131,0.024l0.025,0.181L116.104,90.497z
			 M122.652,74.238c-1.122,1.818-0.104,3.188-0.321,3.337c-0.223,0.146-0.911-1.396-0.801-2.127
			c0.107-0.723,0.146-1.537,1.724-3.023c1.58-1.491,5.178-4.74,6.349-6.854l1.105-1.438l0.525-0.977l0.565-0.636l0.066-0.418
			l-0.395,0.47l-0.467,0.621l-0.316,0.326l-0.304,0.418l-0.362,0.303l-0.274,0.588l-0.454,0.178l-0.381,0.362l-0.105,0.368
			l-0.51,0.555l-0.723,0.783l-0.403,0.562l-0.359,0.086l-0.655,0.73l-0.236,0.066l-0.308,0.422l-0.218,0.146
			c-0.498,0.431-0.807,0.633-1.252,1.122l-0.361,0.198l-0.273,0.257l-0.396,0.158l-0.272,0.272l-0.454,0.205l-0.798,0.524
			l-0.363,0.417l-0.304,0.086l-0.185,0.166l-0.253-0.053l-0.399,0.184l-0.288-0.057l-0.637,0.361l-0.28-0.068l-0.302,0.439
			c0,0.471,0.491,0.635,0.491,1.104l-0.034,0.141l0.236,0.455l0.016,0.219l0.251,0.358l0.434,1.017l0.274,0.509l0.654,0.672
			l0.089,0.361l0.347,0.399l0.397,0.329l0.42,0.343l0.467,0.085l0.781,0.489c0.528,0.408,0.823,0.663,1.178,1.22l0.184,0.435
			l0.291,0.436l0.11,0.6c0,0.718-0.271,1.559-0.984,1.559l-0.651-0.199l-0.472,0.614l-0.184-0.231l0.437-0.675l0.6-0.976
			l0.197-0.504l0.036-0.299l-0.415-0.287l-0.71-0.834l-0.613-0.346l-0.294-0.307l-0.143,0.322l0.545,0.967l-0.055,0.287l0.272,0.402
			l-0.162,0.506l-0.311,0.238l0.255,0.139l0.038,0.146l-0.944,0.837l-0.468,0.383l-0.261,0.414l-0.143-0.051l-0.197,0.182
			l-0.293,0.199l-0.976,0.65l-0.836,0.867l-0.329,0.368l-0.217-0.058l-0.252,0.146c-0.466,0.372-0.704,0.604-1.068,1.049
			l-0.549,0.729l0.076,0.015l0.38-0.161l0.07,0.053l-0.545,0.926c-0.423,0.562-0.842,0.691-1.354,1.16l-0.458,0.435l-0.633,0.542
			l-0.817,0.909l-0.398,0.674l0.071,0.686l-0.649,0.6l-0.326,0.182l-0.492-0.234l-0.344-0.436l-0.363,0.199l-0.582,0.738
			l-1.103,0.713l-0.547,0.107l-0.599,0.232l-1.055,0.168l-0.014,0.066l0.31,0.15l0.521,0.055l0.329,0.145l-0.343,0.342l-0.981,0.291
			l-0.4,0.091l-0.162,0.467l-0.437-0.16h-0.375l-1.099-0.067v-0.148l0.33-0.545l0.093-0.469c0.227-0.564,0.678-0.76,1.232-0.982
			l1.01-0.398c0.911-0.304,1.417-0.526,2.297-0.888c0.664-0.271,0.755-0.85,1.276-1.34l0.694-0.311
			c0.47-0.197,0.706-0.387,1.104-0.707l0.692-0.524l0.293-0.437l0.382-0.184l0.755-0.833l0.545-0.618l0.349-0.523l0.487-0.381
			l0.453-0.395l0.564-0.422l0.632-0.615l0.31-0.469l0.436-0.513c0.534-0.53,0.875-0.874,1.088-1.616l0.309-0.615l-0.274-0.354
			l0.036-0.115l0.148-0.271l-0.107-0.435l0.143-0.432l-0.143-0.662L118.375,81l-0.288-0.475c-0.321-0.337-0.481-0.591-0.599-1.05
			l0.109-0.032c0.685,0,0.921,0.542,1.574,0.756l0.042-0.069l-0.206-0.186l-0.434-0.434l-0.67-0.58
			c-0.445-0.303-0.623-0.697-1.159-0.76l-0.236-0.094l-0.308,0.186l-0.599-0.165l-0.729-0.323l-0.958-0.363
			c-0.858-0.393-1.267-0.728-2.086-1.199c0,0-2.63-2.27-3.495-3.99c-0.873-1.717-2.003-3.902-1.234-6.943
			c0.633-2.519,1.178-2.469,1.34-3.134c0.167-0.673,0.562-1.723,0.325-1.78l-0.691,1.595l-1.137,1.485l-1.108,2.83
			c-0.092-0.035-0.289-0.742,0.474-2.354c0.76-1.614,1.866-3.175,1.848-3.973c-0.02-0.798-0.434-1.67-0.292-1.905l0.434-0.25
			l0.438-0.253l0.653,0.123h0.327l0.357,0.295l0.275-0.08l0.255,0.094l0.85,0.781c0.185,0.378,0.545,3.329,1.089,4.025l1.017,0.963
			l0.055,0.363l0.728,1.086l0.341,0.436l0.359,0.035l0.241,0.116l0.379-0.113h0.381h0.331h0.25l0.251-0.219l0.676-0.235l0.36,0.052
			l0.509-0.133l0.38,0.066l0.184-0.041l0.449,0.207l0.51,0.303h0.227l0.298-0.049l1.034,0.254l0.42,0.014l0.36,0.232
			c0.494,0.272,0.796,0.416,1.252,0.74c0.432,0.305,0.593,0.809,1.091,0.809h0.162l0.016-0.331l-0.163-0.751l-0.11-0.316
			l0.346-0.418l0.49-0.207l0.311-0.066l0.053-0.479l-0.292-0.45l-0.163-0.601l-0.288-0.251l-0.057-0.453l-0.545-0.833l-2.025-2.268
			l-0.012-0.319l-0.136-0.555l0.053-0.264l-0.342-0.806l0.07-0.385l-0.163-0.286l0.127-0.514l-0.058-0.322l0.075-0.216l-0.185-0.58
			l0.151-0.345l0.052-0.309l0.182-0.231l-0.127-0.254l0.182-0.532l0.214-0.483l-0.066-0.26l0.181-0.287l0.146-0.435l0.073-0.268
			l-0.069-0.418v-0.185l0.285-0.018l0.218-0.451l0.196-0.401l0.488-0.29l0.218-0.454l0.218-0.287l0.526-0.348l0.437-0.197
			l0.306-0.328l0.183,0.032l0.71-0.356l0.396,0.184l0.237-0.076l0.633-0.127l0.185-0.092l0.396,0.019l0.379-0.009l0.361,0.246
			l0.711-0.179L130,49.033l0.456,0.221l0.342,0.408h0.217l0.205,0.084l0.578,0.259c0,0,0.577,0.246,1.232,1.677
			c0.65,1.432,1.704,4.541,1.158,6.955c-0.545,2.41-1.891,4.911-4.681,8.282C126.571,70.465,124.159,71.806,122.652,74.238z
			 M120.876,97.294l-0.063,0.387l-0.432,0.191c-0.56,0.008-0.871,0-1.433,0l-0.223-0.277l0.223-0.591l0.349-0.625l0.408-0.401
			l0.564,0.241l0.475,0.205l0.044,0.351l0.228,0.341L120.876,97.294z M131.427,83.28c-0.249,0.771-0.42,0.822-0.625,1.158
			c-0.386,0.876-0.66,1.33-1.034,2.207c-0.202,0.467-0.422,0.708-0.522,1.207c-0.148,0.721-0.6,0.98-0.946,1.648l-0.449,0.856
			l-0.562,0.703c-0.462,0-0.712-0.138-1.172-0.138l-0.853,0.737c-0.351,0.493-0.603,0.743-1.065,1.128l-1.147,0.946l-0.615,0.522
			l-0.289,0.266l0.024,0.091l0.086,0.025l0.524-0.116l0.178,0.184l-0.319,0.492l-0.469,0.573l-0.318-0.07l-0.116,0.048l-0.847-0.264
			l-0.68-0.543l0.089-0.313c0,0,0.256-1.2,1.368-1.605c1.108-0.407,1.553-0.62,2.295-1.335c0.748-0.717,1.961-2.096,2.302-1.892
			l0.207,0.317l0.359-0.407l-0.07-0.612c0.45-1.01,1.166-1.406,1.562-2.005c0.399-0.601,1.169-1.694,1.6-2.435
			c0.427-0.734,1.507-2.858,1.664-2.785C131.74,81.938,131.673,82.519,131.427,83.28z M132.989,74.528
			c-0.975-0.488-2.691-1.541-2.767-2.48c-0.085-0.943,0.163-1.756,1.262-3.787c1.099-2.036,3.582-6.355,3.868-9.246
			c0.282-2.887,0.125-3.463,0.125-3.463s1.302,0.814,1.622,1.996c0.328,1.186,0.126,3.094-0.32,4.441
			c-0.451,1.343-2.709,7.177-3.057,8.835c-0.531,2.524,0.205,4.035,0.205,4.035S133.967,75.021,132.989,74.528z M144.148,77.701
			c-0.897,0.048-2.122,0.087-2.973-0.319c-0.854-0.412-1.832-1.061-1.832-1.061c0.001,0-0.246,0.648,0.812,1.176
			c1.06,0.531,1.996,0.698,2.892,0.66c0.898-0.041,1.465,0.241,1.465,0.241s-1.504,0.41-2.281,0.368
			c-0.771-0.046-2.316,0.076-3.541-1.065c-1.139-1.055-1.987-1.706-2.405-4.677c-0.283-2.036,0.039-2.672,0.039-2.672l-0.076-0.021
			c0,0-0.449,0.613-0.449,2.365c0,2.325,0.816,3.785,0.816,3.785s-0.406-0.244-0.855-0.525l-0.735-0.49c0,0-0.813-1.712-0.732-3.053
			c0.085-1.347,0.732-4.279,1.226-5.623c0.484-1.34,2.238-5.086,2.36-6.229c0.118-1.137,0.038-2.768,0.038-2.768l0.491,0.535
			c0.118,0.361,0,2.64-0.529,4.271c-0.528,1.629-1.224,4.434-1.186,5.002c0.043,0.571,0.164,0.822,0.164,0.822
			s0.167-1.102,0.494-2.036c0.324-0.938,1.668-4.763,1.829-4.685c0.166,0.076-0.893,3.016-1.183,4.316
			c-0.282,1.303-1.418,4.881,0,7.614c1.426,2.729,3.142,3.495,5.178,3.38c2.845-0.162,2.887,0.85,2.887,0.85
			S145.045,77.661,144.148,77.701z M146.829,77.247c-0.146,0.125-0.455-0.324-1.146-0.51c-0.689-0.177-1.648-0.091-2.247-0.144
			c-0.596-0.053-1.882-0.237-2.142-0.362l-0.34-0.311c0,0,1.375,0.205,2.354,0.074c0.979-0.131,1.903-0.419,2.539,0.033
			C146.486,76.481,146.97,77.121,146.829,77.247z M147.862,78.771l-0.273-0.82l-0.381-0.994l0.49,0.541l0.287,0.834L147.862,78.771z
			"/>
		<polygon class="st1" points="102.626,10.359 102.88,10.436 103.193,10.535 103.565,10.299 103.782,10.173 103.97,9.997 
			103.961,9.905 103.894,9.903 103.14,10.013 102.748,10.134 102.474,10.021 102.234,9.917 102.221,9.97 102.408,10.224 		"/>
		<polygon class="st1" points="102.899,11.067 103.118,11.058 103.88,11.14 104.222,11.271 104.295,11.039 104.102,10.662 
			103.887,10.662 103.052,10.606 102.782,10.725 102.591,10.584 102.428,10.561 102.3,10.576 102.138,10.624 102.573,10.869 		"/>
		<path class="st1" d="M89.615,31.456l0.69,2.182l0.873,1.989c0,0,1.792-1.464,6.356-3.067c0.827,3.095,2.086,7.26,3.398,11.012
			c1.892,5.433,3.843,10.051,3.843,10.051s0.473,0.395,1.089,0.754c0.614,0.367,1.344,0.694,1.344,0.694s0.322-0.583,0.721-1.311
			c0.404-0.722,0.545-1.372,0.545-1.372s-3.534-14.793-5.099-21.512c5.028-1.168,7.784-1.121,7.784-1.121s-0.075-1.268-0.219-2.355
			c-0.143-1.094-0.435-2.283-0.435-2.283s-3.658,0.145-8.161,1.113c-0.794-3.774-1.846-9.164-1.846-9.164s-1.815,0.248-2.938,0.541
			c-1.129,0.289-3.123,0.941-3.123,0.941s0.753,4.041,1.987,9.46C92.794,29.493,89.615,31.456,89.615,31.456z"/>
	</g>
	<path class="st2" d="M12.191,113.997c-1.439-0.555-3.249-0.874-5.248-0.874c-4.184,0-6.598,1.861-6.598,4.422
		c0,2.231,1.658,3.333,4.983,4.321c2.757,0.822,4.174,1.094,4.174,2.641c0,1.211-1.317,2.109-3.517,2.109
		c-2.708,0-4.689-1.412-5.077-3.746H0.421c0.046,1.279,0.073,2.039,0.073,2.354c0,0.627,0,1.393-0.027,2.288
		c1.711,0.645,3.688,1.005,5.643,1.005c4.491,0,7.108-2.127,7.108-4.59c0-2.152-1.663-3.322-4.934-4.26
		c-2.905-0.852-4.372-1.142-4.372-2.598c0-1.276,1.098-2.085,3.031-2.085c2.486,0,4.416,1.253,4.883,3.177h0.534
		C12.242,116.709,12.191,115.323,12.191,113.997L12.191,113.997z"/>
	<path class="st2" d="M23.49,113.485c-0.078,1.499-0.195,2.953-0.443,4.435h0.54c0.267-1.862,0.977-2.468,2.907-2.468h1.952v9.998
		c0,1.52-0.15,2.125-1.809,2.192v0.583c1.225-0.135,2.392-0.227,3.541-0.227c1.151,0,2.348,0.092,3.566,0.227v-0.583
		c-1.66-0.067-1.809-0.673-1.809-2.192v-9.998h1.954c1.93,0,2.613,0.605,2.905,2.468h0.54c-0.246-1.503-0.368-2.979-0.441-4.435
		H23.49L23.49,113.485z"/>
	<path class="st2" d="M44.46,121.228c0,0.852,0.745,1.547,1.664,1.547c0.924,0,1.676-0.706,1.676-1.547
		c0-0.855-0.752-1.537-1.664-1.537C45.214,119.69,44.46,120.372,44.46,121.228L44.46,121.228z"/>
	<path class="st2" d="M70.116,113.955c-1.344-0.544-3.051-0.832-4.908-0.832c-5.443,0-8.889,3.294-8.889,7.91
		c0,4.321,3.247,7.483,7.718,7.483c1.954,0,3.71-0.716,4.834-1.948l0.587,1.589h1.339v-4.883c0-1.142,0.176-1.389,1.374-1.5v-0.585
		c-0.954,0.136-1.981,0.202-3.106,0.202c-1.169,0-2.241-0.042-3.224-0.202v0.585c1.126,0.064,1.615,0.313,1.615,1.138v0.812
		c0,1.771-0.784,2.641-2.682,2.641c-2.718,0-4.843-2.438-4.843-5.822c0-3.273,2.152-5.42,5.349-5.42c2.325,0,3.883,1.07,4.322,3.021
		h0.609c-0.07-0.982-0.121-1.951-0.121-2.893L70.116,113.955L70.116,113.955z"/>
	<path class="st2" d="M82.281,113.485v0.578c0.907,0.072,1.251,0.408,1.251,1.277v10.957c0,0.875-0.344,1.214-1.251,1.277v0.582
		h12.921c0.077-1.369,0.219-2.803,0.416-4.32H95.03c-0.22,1.812-0.757,2.307-2.543,2.307h-5.466v-4.684h3.225
		c1.17,0,1.586,0.203,1.632,1.166h0.493c-0.051-0.787-0.076-1.504-0.076-2.152c0.002-0.492,0.052-1.209,0.101-2.152h-0.467
		c-0.073,0.943-0.488,1.166-1.683,1.166h-3.225v-4.035h4.934c1.832,0,2.367,0.225,2.518,1.709h0.532
		c-0.117-1.168-0.167-2.398-0.167-3.676H82.281L82.281,113.485z"/>
	<path class="st2" d="M113.781,115.163c2.682,0,4.641,2.621,4.641,6.631c0,2.936-1.593,4.707-4.032,4.707
		c-2.687,0-4.69-2.622-4.69-6.75C109.699,116.843,111.241,115.163,113.781,115.163L113.781,115.163z M106.014,120.542
		c0,2.461,1.026,4.682,2.784,6.179c1.441,1.235,3.175,1.864,5.176,1.864c4.838,0,8.131-3.16,8.131-7.529
		c0-2.439-1.026-4.639-2.784-6.115c-1.466-1.232-3.198-1.838-5.175-1.838C109.358,113.103,106.014,116.192,106.014,120.542
		L106.014,120.542z"/>
	<path class="st2" d="M132.868,113.485v0.578c0.9,0.072,1.242,0.408,1.242,1.277v11.006c0,0.869-0.342,1.229-1.245,1.296
		l0.003,0.583c1.049-0.135,2.05-0.227,2.974-0.227c0.934,0,1.931,0.092,3.008,0.227v-0.583c-0.911-0.067-1.247-0.427-1.247-1.296
		v-10.895h1.637c2.295,0,3.493,0.965,3.493,2.559c0,1.883-1.717,2.998-4.183,2.998h-0.264l-0.37,0.225
		c0,0.518,2.324,2.516,4.91,6.992c1.098-0.111,1.93-0.203,2.513-0.203c0.393,0,1.225,0.068,2.467,0.203l0.003-0.583h-0.118
		c-1.665,0-2.375-2.265-5.426-5.979c2.641-0.586,4.152-2.15,4.152-4.148c0-2.864-2.176-4.029-6.619-4.029H132.868L132.868,113.485z"
		/>
	<path class="st2" d="M171.299,113.955c-1.337-0.544-3.046-0.832-4.902-0.832c-5.446,0-8.889,3.294-8.889,7.91
		c0,4.321,3.247,7.483,7.713,7.483c1.958,0,3.716-0.716,4.831-1.948l0.589,1.589h1.348v-4.883c0-1.142,0.162-1.389,1.359-1.5v-0.585
		c-0.942,0.136-1.97,0.202-3.094,0.202c-1.178,0-2.253-0.042-3.229-0.202v0.585c1.13,0.064,1.614,0.313,1.614,1.138v0.812
		c0,1.771-0.782,2.641-2.688,2.641c-2.71,0-4.827-2.438-4.827-5.822c0-3.273,2.146-5.42,5.342-5.42c2.318,0,3.888,1.07,4.323,3.021
		h0.614c-0.075-0.982-0.123-1.951-0.123-2.893L171.299,113.955L171.299,113.955z"/>
	<path class="st2" d="M183.469,113.485v0.578c0.899,0.072,1.245,0.408,1.245,1.277l0.002,10.957c0,0.875-0.348,1.214-1.25,1.277
		l0.003,0.582h12.915c0.073-1.369,0.224-2.803,0.414-4.32h-0.584c-0.223,1.812-0.753,2.307-2.535,2.307h-5.471v-4.684h3.218
		c1.174,0,1.591,0.203,1.644,1.166h0.485c-0.055-0.787-0.073-1.504-0.073-2.152c0-0.492,0.043-1.209,0.093-2.152h-0.463
		c-0.067,0.943-0.481,1.166-1.686,1.166h-3.218v-4.035h4.932c1.828,0,2.372,0.225,2.514,1.709h0.536
		c-0.117-1.168-0.168-2.398-0.168-3.676H183.469L183.469,113.485z"/>
</g>
</svg>