<!-- Generator: Adobe Illustrator 19.2.0, SVG Export Plug-In  -->
<svg version="1.1"
	 xmlns="http://www.w3.org/2000/svg" xmlns:xlink="http://www.w3.org/1999/xlink" xmlns:a="http://ns.adobe.com/AdobeSVGViewerExtensions/3.0/"
	 x="0px" y="0px" width="340.621px" height="94.404px" viewBox="0 0 340.621 94.404"
	 style="enable-background:new 0 0 340.621 94.404;" xml:space="preserve">
<style type="text/css">
	.st0{fill:#FFFFFF;}
</style>
<defs>
</defs>
<g>
	<path class="st0" d="M36.57,44.033c0-3.6-1.453-8.471-7.346-8.471H14.441v16.821h14.51C35.117,52.384,36.57,47.703,36.57,44.033z"
		/>
	<path class="st0" d="M289.563,77.708h-2.701v9.047h2.788c3.97,0,4.883-3.022,4.883-4.522
		C294.533,79.786,292.975,77.708,289.563,77.708z"/>
	<path class="st0" d="M39.092,27.207l2.318-4.61c1.575-2.575,2.227-5.019,2.227-7.736c0-6.175-5.177-11.179-11.57-11.179
		c-2.048,0-3.958,0.526-5.63,1.431c0.165-0.583,0.252-1.153,0.252-1.633C26.689,1.557,25.128,0,23.207,0
		c-1.922,0-3.485,1.557-3.485,3.479c0,0.514,0.126,1.127,0.344,1.746c-1.715-0.975-3.713-1.544-5.846-1.544
		c-6.39,0-11.572,5.004-11.572,11.179c0,2.214,0.545,4.016,1.688,6.31l2.438,6.037H0v48.852h227.23v18.345h113.385l0.006-67.197
		H39.092z M31.217,7.783c0.004-0.007,0.004-0.007,0.014-0.007c0.011,0,0.023,0,0.031-0.014c0.023-0.01,0.028-0.041,0.028-0.065
		c0.012-0.024,0.016-0.053,0.026-0.072c0.016-0.027,0.051-0.04,0.082-0.048c0.029-0.01,0.047-0.02,0.076-0.006
		c0.015,0.014,0.024,0.019,0.026,0.039c0.009,0.034,0.009,0.092-0.04,0.092c-0.022,0-0.037,0.008-0.043,0.024
		c0,0.017,0.01,0.05,0.025,0.05c0.008,0,0.023,0,0.033,0c0.024,0,0.026,0.027,0.026,0.038c0.009,0.06-0.002,0.104-0.026,0.154
		c-0.01,0.024-0.021,0.046-0.037,0.066c-0.011,0.012-0.039,0.023-0.061,0.023c-0.009,0.002-0.031-0.016-0.047-0.021
		c-0.027-0.012-0.061-0.033-0.074-0.068c-0.009-0.029-0.019-0.064-0.031-0.095c-0.002-0.018-0.013-0.034-0.013-0.053
		C31.211,7.814,31.211,7.804,31.217,7.783z M25.33,7.252v0.071c0.085,0.074,0.085,0.06,0.149,0.161h-0.074
		c-0.062,0.074-0.129,0.101-0.228,0.148V7.484c-0.08-0.089-0.028,0-0.071-0.161C25.177,7.306,25.253,7.278,25.33,7.252z
		 M24.546,3.359c0,0,0.24,0.246,0.214,0.783l-0.262-0.537L24.546,3.359z M22.115,4.386c0.072-0.229,0.199-0.407,0.199-0.407
		c0.176-0.204,0.411-0.358,0.683-0.417L23.16,3.62c0.031-0.009,0.067-0.015,0.101-0.03c0.024-0.008,0.051-0.017,0.08-0.028
		c0.04-0.009,0.066-0.02,0.115-0.015c0.046,0.006,0.084,0.015,0.124,0.018c0.08,0.025,0.157,0.051,0.235,0.085
		c0.145,0.067,0.281,0.161,0.387,0.275c0,0.01-0.351,0.461-0.351,0.461l0.396-0.403l0.269,1.141
		c-0.057,0.227-0.173,0.433-0.331,0.585l-0.242-0.281l0.183,0.331c-0.075,0.065-0.158,0.124-0.238,0.175
		c-0.196,0.129-0.608,0.156-0.608,0.156c-0.167,0-0.327-0.031-0.485-0.089c-0.065-0.037-0.128-0.064-0.188-0.084
		c-0.068-0.025-0.12-0.107-0.169-0.153c-0.045-0.046-0.097-0.089-0.148-0.14c-0.081-0.1-0.157-0.196-0.202-0.321
		c-0.029-0.055-0.051-0.122-0.062-0.189c-0.014-0.075-0.03-0.169-0.026-0.246C22.001,4.866,22.042,4.562,22.115,4.386z
		 M7.307,16.572h0.067c0.021,0,0.041-0.002,0.059,0.007c0.016,0.015,0.004,0.058,0.004,0.073c0-0.005-0.009,0-0.002-0.013v0.013
		c-0.019-0.005-0.057-0.016-0.061-0.016c-0.01,0-0.015,0-0.028-0.005c-0.008,0-0.016,0-0.02-0.016
		C7.32,16.61,7.317,16.605,7.315,16.6c-0.006-0.006-0.016-0.006-0.016-0.011c0,0-0.011-0.01-0.005-0.01
		C7.294,16.572,7.299,16.572,7.307,16.572z M7.421,17.085H7.41c-0.01-0.011-0.01-0.016-0.015-0.021c0-0.01-0.011-0.011-0.012-0.019
		c-0.006-0.003-0.016-0.017-0.022-0.017h0.155v0.025c0,0.016,0,0.031,0,0.037c-0.006,0.01-0.041,0-0.056,0
		C7.453,17.085,7.435,17.085,7.421,17.085z M7.435,17.178v0.222H7.362v-0.222H7.435z M7.282,16.829c0-0.033,0-0.066,0.006-0.093
		c0.006,0,0.009,0,0.017,0.013c0.002,0,0.01,0.006,0.015,0.009c0.005,0.005,0.011,0.005,0.015,0.023
		c0.006,0,0.006,0.006,0.006,0.015c0.006,0.033,0.011,0.059,0.019,0.078H7.331c-0.011,0.005-0.016,0-0.03,0
		c-0.01,0.005-0.013,0.005-0.019-0.007V16.829z M6.987,18.052c0.06-0.093,0.102-0.194,0.145-0.305
		c0.081,0.021,0.097,0.021,0.104,0.021c0.006,0.005,0.006,0.012,0.046,0.055c0.017,0,0.033,0,0.045,0.005
		c0.014,0,0.025,0.011,0.025,0.029c0.008,0.011,0,0.018,0,0.026c0,0.007-0.004,0.025-0.004,0.026
		c-0.005,0.023-0.007,0.04-0.009,0.061c-0.004,0.027-0.008,0.041-0.012,0.06c-0.007,0.039-0.012,0.086-0.022,0.129
		c-0.006,0.034-0.011,0.07-0.023,0.114h0.08c0.034,0.045,0.083,0.091,0.14,0.133c0.049,0.037,0.106,0.077,0.156,0.087v0.088H7.74
		V18.43h0.096c0.023,0,0.045-0.009,0.072,0c0.017,0,0.04,0.005,0.048,0.03c0.006,0.012,0,0.027-0.006,0.045
		c-0.002,0.016-0.007,0.031-0.007,0.043c-0.003,0.017,0.005,0.041,0.019,0.053C7.971,18.623,7.988,18.637,8,18.65
		c0.011,0.013,0.03,0.018,0.045,0.028c0.011,0.005,0.032,0.014,0.044,0.024c0.019,0.036,0.05,0.056,0.076,0.071
		c0.026,0.018,0.053,0.028,0.097,0.028c0.011,0,0.015,0.039,0.026,0.076c0.009,0.048,0.019,0.081,0.019,0.094
		c0.005,0.015,0.005,0.024,0.01,0.042c0,0.021,0.006,0.034,0.01,0.04c0.01,0.036,0.042,0.048,0.068,0.053
		c0.03,0,0.068-0.005,0.097-0.005c-0.005,0-0.007-0.008-0.011-0.012c-0.004-0.005-0.005-0.009-0.005-0.009
		c-0.028-0.067-0.065-0.13-0.091-0.196c-0.031-0.066-0.062-0.132-0.092-0.195c-0.016-0.033-0.031-0.074-0.044-0.102
		C8.229,18.548,8.217,18.51,8.2,18.472c-0.021-0.037-0.037-0.072-0.06-0.102c-0.022-0.038-0.038-0.083-0.053-0.114
		c-0.007-0.026-0.007-0.047-0.012-0.059c-0.013-0.02-0.015-0.038-0.023-0.057c-0.008-0.023-0.014-0.046-0.02-0.071
		c-0.011-0.018-0.022-0.045-0.027-0.058c-0.018-0.057-0.039-0.102-0.056-0.144c-0.016-0.056-0.033-0.103-0.049-0.148
		c-0.006-0.021-0.01-0.032-0.016-0.043c0-0.014-0.005-0.015-0.011-0.029c-0.006-0.021-0.011-0.036-0.016-0.053
		c0-0.016-0.011-0.031-0.018-0.05v-0.036c0-0.006,0-0.015,0-0.028c-0.005-0.006-0.01-0.029-0.016-0.042
		c-0.01-0.008-0.018-0.016-0.024-0.039c-0.003,0-0.005-0.01-0.005-0.01c-0.005-0.006-0.005-0.011-0.005-0.018
		c0-0.005-0.009-0.015-0.027-0.04L7.76,17.311l-0.01-0.022c0-0.021-0.01-0.036-0.027-0.041c-0.021-0.02-0.031-0.035-0.031-0.054
		v-0.012c0-0.005,0-0.012-0.004-0.018c0-0.005,0-0.01-0.005-0.015v-0.023c0,0,0.012-0.012,0.019-0.012
		c0.013-0.005,0.021-0.011,0.021-0.011c0-0.009-0.005-0.012-0.008-0.012c-0.006-0.006-0.007-0.019-0.013-0.023
		c0-0.006,0-0.008,0-0.024V17.03c-0.003-0.013-0.003-0.022-0.007-0.038c-0.003-0.017-0.003-0.027-0.013-0.033
		c0-0.011-0.011-0.013-0.014-0.013H7.647c-0.006,0-0.013,0-0.023-0.005c-0.007-0.002-0.012-0.002-0.021-0.015
		c-0.009-0.004-0.018-0.004-0.033-0.004c-0.011-0.015-0.021-0.015-0.033-0.023c-0.005,0-0.017,0-0.017-0.006
		c-0.005-0.011-0.005-0.015-0.011-0.02c-0.005-0.013-0.005-0.018-0.005-0.019c-0.004-0.017-0.004-0.017-0.004-0.023
		c0-0.002-0.009-0.014-0.009-0.021c0-0.005,0-0.011-0.008-0.011c0,0-0.002-0.004-0.007-0.019c-0.002,0-0.005-0.007-0.005-0.007
		s0.01-0.02,0.02-0.038c0.013-0.016,0.029-0.037,0.029-0.037c-0.005,0-0.005-0.022,0.006-0.047c0.006-0.036,0.016-0.06,0.011-0.063
		c0-0.025-0.005-0.044-0.011-0.061c-0.006-0.026-0.011-0.044-0.011-0.063c-0.006-0.007-0.011-0.016-0.011-0.032
		c0-0.005-0.004-0.018-0.004-0.032c0-0.017-0.009-0.028-0.009-0.045c-0.01-0.01-0.01-0.028-0.01-0.044
		c0.002-0.027,0.002-0.038,0.002-0.061c0.008-0.016,0.008-0.026,0.008-0.054v-0.025c0-0.009,0-0.02,0-0.024v-0.01h-0.01
		c-0.005-0.023-0.005-0.033-0.005-0.038c0.005-0.011,0.007-0.03,0.015-0.034c0.009-0.011,0-0.023-0.01-0.033
		c-0.01-0.011-0.022-0.014-0.025-0.035c-0.013-0.028-0.013-0.055-0.009-0.086c0.002-0.029,0.006-0.055,0.002-0.093V15.78
		c-0.002-0.016-0.008-0.034-0.029-0.041c0-0.004,0.009-0.021,0.016-0.033c0.008-0.016,0.014-0.036,0.021-0.041
		c0.003-0.027,0.003-0.043,0.003-0.075v-0.072c0-0.12,0.012-0.249,0.022-0.374c0.01-0.135,0.034-0.259,0.055-0.384
		c0-0.004,0.005-0.009,0.005-0.015c0,0,0.004-0.007,0.004-0.015l0.016-0.028l0.027-0.037c0.018-0.111,0.052-0.216,0.092-0.316
		c0.033-0.115,0.064-0.207,0.087-0.321l0.056-0.021l0.061-0.016c-0.005-0.387,0.091-0.632,0.195-0.861
		c0.102-0.235,0.216-0.458,0.254-0.792c-0.071-0.022-0.087-0.022-0.095-0.022c-0.011-0.003-0.011-0.015-0.05-0.055
		c0.06-0.054,0.136-0.148,0.202-0.255c0.065-0.092,0.13-0.195,0.173-0.271L8.64,11.58c0.056-0.064,0.094-0.089,0.132-0.123
		c0.039-0.039,0.067-0.084,0.092-0.179l0.155-0.072c0.21-0.272,0.357-0.456,0.459-0.578c0.096-0.117,0.142-0.166,0.142-0.166
		c0.034-0.056,0.07-0.093,0.108-0.11c0.038-0.021,0.069-0.038,0.114-0.043c0,0,0.168-0.195,0.387-0.37
		c0.211-0.182,0.476-0.353,0.669-0.311c0.007,0.006,0.037-0.015,0.062-0.026c0.024-0.016,0.051-0.034,0.062-0.047
		c0.063-0.03,0.127-0.056,0.19-0.089c0.063-0.035,0.126-0.062,0.191-0.087c0.097-0.053,0.204-0.086,0.304-0.136
		c0.097-0.033,0.198-0.072,0.301-0.108c0.052-0.027,0.102-0.045,0.155-0.062c0.053-0.021,0.099-0.041,0.155-0.064
		c0.046-0.023,0.097-0.03,0.152-0.044c0.054-0.01,0.104-0.01,0.157-0.024c0.224-0.069,0.461-0.127,0.695-0.18
		c0.242-0.036,0.481-0.084,0.719-0.106c0.049-0.009,0.099-0.011,0.145-0.013c0.05-0.007,0.103-0.018,0.145-0.019
		c0.04-0.009,0.083,0,0.123,0.001c0.04,0,0.082,0,0.126-0.001c0.026-0.009,0.063-0.012,0.095-0.018
		C14.71,8.6,14.748,8.6,14.783,8.593h0.074h0.077c0.016,0,0.021-0.003,0.037-0.003h0.041c0.01,0,0.019,0.003,0.03,0.003
		c0.005,0,0.016,0,0.029-0.003h0.044h0.043h0.083c0.043,0.003,0.068,0.003,0.096,0.003h0.047h0.044C15.438,8.6,15.45,8.6,15.461,8.6
		c0.008,0.005,0.018,0.005,0.024,0.005h0.021C15.511,8.6,15.515,8.6,15.525,8.6c0.022,0,0.047,0,0.071,0.005
		c0.027,0,0.05,0.007,0.07,0.01h0.05c0.021,0,0.037,0.009,0.049,0.009h0.046c0.013,0,0.026-0.009,0.048,0
		c0.025,0.001,0.068,0.001,0.1,0.019c0.033,0.002,0.069,0.004,0.101,0.013c0.026,0.018,0.053,0.022,0.078,0.022
		c0.029,0.01,0.055,0.017,0.085,0.017c0.025,0.016,0.052,0.016,0.078,0.016c0.03,0,0.05,0.002,0.085,0.004
		c0.025,0.012,0.058,0.012,0.093,0.018c0.036,0,0.067-0.007,0.097-0.007h0.085c0.027,0.007,0.054,0.011,0.08,0.011
		c0.01,0.004,0.022,0.01,0.04,0.012c0.012,0.012,0.017,0.014,0.034,0.014c0.013,0.008,0.02,0.008,0.03,0.008h0.031
		c0.026,0,0.065,0.014,0.093,0.019c0.035,0.007,0.063,0.022,0.097,0.026c0.087,0.028,0.173,0.042,0.257,0.063
		c0.086,0.023,0.174,0.052,0.268,0.078c0.108,0.029,0.222,0.066,0.331,0.106c0.119,0.035,0.226,0.079,0.343,0.119
		c0.07,0.023,0.141,0.064,0.213,0.096c0.063,0.044,0.135,0.083,0.202,0.12c0.06,0.035,0.14,0.07,0.211,0.121
		c0.076,0.033,0.146,0.075,0.2,0.127c0.021,0.024,0.062,0.057,0.096,0.079c0.033,0.021,0.068,0.05,0.098,0.078
		c0.023,0.03,0.044,0.066,0.071,0.102c0.031,0.031,0.052,0.058,0.093,0.077c0.028,0.016,0.057,0.023,0.088,0.029
		c0.031,0.005,0.058,0.007,0.089,0.023c0.039,0.02,0.078,0.056,0.108,0.087c0.034,0.033,0.062,0.071,0.096,0.111
		c0.018,0.024,0.048,0.046,0.082,0.069c0.026,0.021,0.062,0.041,0.089,0.064c0.042,0.032,0.079,0.065,0.108,0.102
		c0.031,0.033,0.061,0.072,0.104,0.103c0.022,0.03,0.058,0.047,0.087,0.072c0.027,0.012,0.057,0.041,0.081,0.062
		c0.062,0.051,0.112,0.117,0.163,0.178c0.046,0.063,0.1,0.119,0.166,0.174c0.05,0.034,0.091,0.065,0.136,0.107
		c0.043,0.033,0.08,0.078,0.108,0.125c0.079,0.143,0.171,0.278,0.255,0.414c0.086,0.139,0.175,0.274,0.25,0.412
		c0.042,0.058,0.07,0.123,0.099,0.185c0.035,0.061,0.059,0.122,0.087,0.187c0.025,0.09,0.069,0.182,0.114,0.267
		c0.037,0.083,0.083,0.169,0.108,0.261c0.01,0.035,0.028,0.075,0.04,0.117c0.015,0.034,0.026,0.073,0.037,0.109
		c0.08,0.005,0.119,0.037,0.176,0.056c0.037,0.01,0.069,0.01,0.09-0.042c0.006-0.014,0.095-0.009,0.101-0.014
		c0.013-0.011,0.026-0.151,0.007-0.151h0.075c0-0.075-0.002-0.16-0.002-0.238c-0.003-0.076-0.008-0.156-0.014-0.229
		c-0.004-0.079-0.004-0.16-0.004-0.245c-0.005-0.098-0.011-0.177-0.025-0.258c-0.022-0.063-0.041-0.121-0.059-0.188
		c-0.014-0.065-0.031-0.13-0.036-0.193c-0.005-0.024,0-0.039,0-0.06c0-0.023,0-0.045-0.005-0.06
		c-0.008-0.023-0.012-0.027-0.022-0.046c-0.011-0.01-0.021-0.014-0.021-0.045c0-0.015,0-0.018,0.004-0.028
		c0.006-0.002,0.011-0.014,0.017-0.018c0-0.021,0.005-0.045,0.005-0.066c0-0.02-0.005-0.035-0.005-0.06c0-0.017,0-0.034,0-0.047
		c-0.006-0.02-0.006-0.035-0.013-0.048c-0.016-0.059-0.035-0.113-0.047-0.169c-0.01-0.058-0.02-0.111-0.043-0.165
		c-0.017-0.047-0.028-0.091-0.039-0.138c-0.022-0.036-0.031-0.083-0.051-0.129c-0.021-0.059-0.037-0.115-0.053-0.172
		c-0.017-0.063-0.027-0.121-0.037-0.177c-0.055-0.162-0.104-0.293-0.147-0.434c-0.037-0.142-0.075-0.308-0.079-0.549
		c0.068-0.013,0.141-0.013,0.183-0.083c0.043-0.059,0-0.147,0.011-0.212c0-0.01-0.034-0.076-0.038-0.095
		c-0.008-0.03-0.006-0.06-0.03-0.088c-0.025-0.021-0.047-0.039-0.073-0.061c-0.023-0.026-0.049-0.028-0.077-0.028
		c-0.034-0.012-0.06,0-0.091,0c-0.067,0-0.107-0.034-0.13-0.082c-0.025-0.053-0.039-0.117-0.056-0.17
		c-0.039,0.008-0.075,0.02-0.11,0.03c-0.04,0.015-0.076,0.032-0.113,0.038V8.537v-0.03c0-0.048-0.005-0.078-0.005-0.112
		c0-0.048-0.006-0.104-0.006-0.146c0-0.043,0.011-0.085,0.011-0.119c0.047,0.006,0.158,0.034,0.265,0.057
		c-0.011,0,0.206-0.017,0.259,0V8.129C21.599,8.1,21.474,8.08,21.345,8.047c-0.127-0.02-0.252-0.043-0.377-0.078v-0.14
		c0.125,0.033,0.25,0.075,0.377,0.11c0.129,0.029,0.254,0.075,0.376,0.107c-0.081-0.089-0.174-0.133-0.274-0.185
		c-0.094-0.048-0.186-0.092-0.25-0.19h0.223c0.01,0-0.023,0.085,0.027,0.08c0.029,0,0.052-0.017,0.08-0.022
		c0.045-0.004,0.093,0.017,0.137,0.017l0.058,0.082c0.01,0.022,0.025,0.045,0.042,0.072c0.011,0.023,0.021,0.049,0.037,0.067
		c0.022,0,0.047,0.016,0.071,0.016c0.028,0,0.016-0.016,0.044-0.016c-0.034-0.029-0.023-0.05-0.044-0.067
		c-0.022-0.018-0.049-0.039-0.071-0.072l0.338,0.033c0.071,0.012,0.152,0.021,0.228,0.031c0.037,0,0.067,0.011,0.103,0.021
		c0.017,0.005,0.039,0.011,0.057,0.02c0.093,0.009,0.2,0.007,0.296,0.024c0.085,0.011,0.176,0.031,0.268,0.046
		c0.222,0.023,0.45,0.057,0.678,0.087c0.181,0.022,0.354,0.044,0.538,0.062c0.194,0.016,0.381,0.052,0.572,0.052h0.528v0.148
		c0,0.034,0,0.07,0,0.096c-0.011,0.033-0.016,0.033-0.048,0.065c-0.027,0.023-0.046,0.061-0.065,0.097
		c0,0.003-0.034,0.113-0.039,0.113h0.039h0.038v0.08h0.225v0.15c-0.062-0.026-0.125-0.049-0.186-0.078
		c-0.062-0.021-0.126-0.049-0.188-0.072v0.15h0.149v0.076h-0.224c-0.053,0.131-0.095,0.273-0.153,0.413
		c-0.049,0.128-0.101,0.273-0.152,0.407h-0.227c-0.023,0.108-0.058,0.162-0.086,0.181c-0.028,0.03-0.048,0.034-0.06,0.051
		c0,0-0.099,0.667-0.069,1.427h0.069c0,0,0.042,0.105,0.037,0.486c0,0.168-0.021,0.322-0.037,0.493h-0.037h-0.033
		c-0.009,0,0.004,0.183,0.004,0.194c0,0.05,0.029,0.089,0.029,0.128c0.003,0.037-0.016,0.09-0.012,0.133
		c0,0.051,0.006,0.099,0.012,0.143c0.008,0.13,0.023,0.25,0.037,0.374h0.077v-0.068c0.042-0.043,0.051-0.043,0.051-0.056
		c0-0.01,0-0.02,0.018-0.099c0.108-0.025,0.16-0.025,0.175-0.052c0.186-0.436,0.402-0.854,0.645-1.252
		c0.051-0.083,0.088-0.184,0.161-0.26c0.08-0.087,0.16-0.181,0.228-0.282c0.069-0.081,0.117-0.193,0.188-0.278
		c0.116-0.126,0.218-0.262,0.333-0.389c0.09-0.12,0.19-0.24,0.299-0.348c0.048-0.039,0.103-0.078,0.147-0.123
		c0.04-0.043,0.071-0.102,0.118-0.142c0.08-0.066,0.176-0.11,0.262-0.163c0.086-0.057,0.164-0.131,0.252-0.197
		c0.079-0.067,0.177-0.135,0.271-0.167c0.054-0.019,0.127-0.036,0.155-0.087c0.024-0.023,0.015-0.052,0.035-0.072
		c0.021-0.031,0.06-0.048,0.086-0.057c0.229-0.145,0.464-0.276,0.702-0.386c0.027-0.011,0.058-0.021,0.085-0.029
		c0.133-0.066,0.278-0.084,0.405-0.113c0.14-0.037,0.253-0.083,0.34-0.196c0.014-0.031,0.007-0.153,0.042-0.177
		c0.031-0.014,0.145,0.014,0.17,0.028c0.062,0.021,0.115,0.078,0.181,0.096c0.072,0.021,0.137,0.007,0.208-0.013
		c0.118-0.021,0.228-0.063,0.31-0.073V8.429c-0.233-0.041-0.405-0.134-0.562-0.228c-0.162-0.102-0.307-0.212-0.494-0.297V7.673
		c0.412,0.131,0.823,0.252,1.241,0.374c0,0,0.805,0.272,1.882,0.348c0.01-0.024,0.019-0.033,0.036-0.048
		c0.006-0.017,0.024-0.027,0.03-0.033c0.018-0.019,0.037-0.019,0.065-0.023c0.013-0.006,0.022-0.015,0.042-0.028
		c0.023-0.009,0.057-0.009,0.083-0.011c0.032-0.003,0.054-0.019,0.083-0.025c0.063-0.005,0.129-0.021,0.191-0.033V8.153h0.038
		c0.037,0.01,0.037-0.009,0.074,0c0.035,0.016,0.078,0.027,0.113,0.039v0.033l0.036,0.007l0.04,0.029h0.075l0.035,0.052h0.038
		l0.036-0.006c0.085,0.006,0.112-0.013,0.169,0.022c0.011,0,0.021,0.032,0.031,0.041c0.012,0.029,0.052-0.017,0.06,0.018
		c0.013,0.027,0.034,0.071,0.023,0.109c-0.01,0.018-0.016,0.021-0.023,0.04c-0.02,0.032-0.029,0.077-0.037,0.108
		c0.595,0.113,0.807,0.22,1.098,0.34c0.391,0.154,0.451,0.194,0.778,0.273V9.096c0.069-0.006,0.131-0.022,0.191-0.028
		c0.066-0.009,0.124-0.026,0.184-0.036c-0.009,0.043-0.021,0.104-0.034,0.148c-0.011,0.048-0.023,0.096-0.039,0.147h-0.149
		c0.01,0.026,0.026,0.053,0.038,0.077c0.011,0.027,0.026,0.056,0.04,0.072c0.236,0.092,0.471,0.179,0.711,0.268
		c0.242,0.093,0.478,0.172,0.711,0.266v0.144h-0.067c-0.075-0.064-0.211-0.12-0.356-0.168c-0.148-0.046-0.297-0.091-0.396-0.133
		v0.082h0.077c0.041,0.058,0.097,0.099,0.158,0.133c0.061,0.039,0.122,0.067,0.215,0.086v0.156c0.043,0.005,0.101,0.027,0.154,0.032
		c0.049,0.015,0.097,0.028,0.149,0.037c0.032,0.018,0.088,0.081,0.119,0.107c0.211,0.201,0.405,0.428,0.591,0.659
		c0.091,0.117,0.212,0.229,0.277,0.365c0.053,0.113,0.096,0.226,0.148,0.329c0.086,0.179,0.205,0.325,0.295,0.493
		c0.035,0.066,0.083,0.088,0.11,0.163c0.051,0.156,0.101,0.348,0.11,0.517c0.123,0.502,0.157,1.034,0.196,1.532
		c0.01,0.393-0.019,0.83,0.026,1.477c0,0-0.045,0.406,0,0.567c0.056,0.151,0,0.557,0,0.557c-0.02,0.015-0.05,0.025-0.076,0.037
		c-0.023,0.018-0.046,0.03-0.07,0.046c-0.04,0.129-0.063,0.274-0.117,0.413c-0.019,0.046-0.036,0.102-0.062,0.139
		c-0.04,0.088-0.088,0.163-0.097,0.25c-0.025,0.1-0.007,0.192-0.036,0.283c-0.026,0.086-0.058,0.17-0.091,0.251
		c-0.07,0.199-0.14,0.396-0.218,0.593c-0.055,0.145-0.117,0.28-0.188,0.417c-0.088,0.146-0.136,0.298-0.183,0.452
		c-0.035,0.113-0.1,0.228-0.152,0.328c-0.055,0.113-0.108,0.217-0.167,0.328c-0.023,0.052,0.033,0.221,0.033,0.221
		c0.048,0.033,0.048,0.101,0.037,0.152c-0.016,0.054-0.059,0.066-0.07,0.122l-0.041,0.032h-0.078l-0.032,0.083
		c-0.019,0.023-0.075,0.108-0.075,0.108c-0.042-0.017-0.082-0.03-0.121-0.043v0.074c-0.04,0.033-0.044,0.033-0.044,0.033
		s0.005,0-0.023,0.039h-0.079c0.002,0.06,0.036,0.084,0.06,0.129c0.021,0.04,0.04,0.085,0.019,0.175
		c-0.031,0.078-0.077,0.162-0.118,0.249c-0.022,0.042-0.04,0.078-0.066,0.122c-0.01,0.032-0.01,0.071-0.023,0.107
		c-0.028,0.064-0.121,0.04-0.17,0.047c-0.104,0.017-0.172,0.135-0.223,0.204c-0.043,0.044-0.065,0.096-0.086,0.159
		c-0.033,0.087-0.049,0.19-0.086,0.283c-0.057,0.119-0.131,0.223-0.181,0.337c-0.071,0.172-0.153,0.337-0.238,0.489
		c-0.064,0.146-0.121,0.303-0.221,0.424c-0.06,0.086-0.146,0.151-0.197,0.242c-0.077,0.146-0.143,0.297-0.22,0.437
		c-0.118,0.228-0.194,0.473-0.337,0.69c-0.11,0.16-0.218,0.33-0.304,0.506c-0.034,0.065-0.073,0.137-0.116,0.202
		c-0.031,0.065-0.062,0.125-0.106,0.182c-0.044,0.067-0.072,0.167-0.105,0.234c-0.05,0.098-0.086,0.199-0.137,0.287
		c-0.18,0.329-0.331,0.674-0.476,1.011c-0.05,0.117-0.101,0.232-0.146,0.359c-0.029,0.062-0.065,0.107-0.11,0.172
		c-0.027,0.041-0.038,0.086-0.056,0.14c-0.015,0.034-0.015,0.084-0.005,0.127c0.007,0.032,0.034,0.042,0.043,0.072
		c0.011,0.032,0,0.097,0,0.136v0.148c0,0.015-0.048,0.04-0.053,0.046c-0.037,0.033-0.073,0.057-0.102,0.094
		c-0.074,0.065-0.096,0.107-0.077,0.218c-0.019,0.025-0.037,0.052-0.056,0.074c-0.015,0.027-0.034,0.012-0.057-0.009
		c-0.035-0.014-0.079-0.018-0.116-0.035c-0.079-0.012-0.165-0.021-0.237-0.03c-0.165-0.014-0.328,0-0.482,0.006
		c-0.395,0.02-0.797,0.068-0.926,0.086v0.157h-0.037c-0.021,0-0.037-0.012-0.044,0.01c-0.005,0.015,0.007,0.047,0.007,0.062
		c0,0.053-0.01,0.097,0,0.146c0,0.028,0.006,0.057,0.006,0.089c0,0.042-0.006,0.067-0.006,0.108v0.109h-0.075
		c0.004-0.115,0.011-0.256,0.004-0.383c0-0.053-0.004-0.102-0.023-0.16c0-0.025-0.011-0.046-0.021-0.068
		c0-0.016,0.005-0.016-0.012-0.016c-0.011,0-0.024,0-0.03,0c-0.005,0.005-0.007,0.022-0.018,0.022
		c-0.027,0.016-0.063,0.003-0.092,0.003c-0.013,0-0.025-0.003-0.039-0.01h-0.017c-0.026,0-0.056,0.007-0.091,0.007
		c-0.011,0-0.191,0.003-0.191,0.003v0.077c0,0.015,0.005,0.074-0.007,0.084c-0.017,0.005-0.084-0.044-0.105-0.06
		c-0.035-0.004-0.066,0-0.09-0.004c-0.034-0.006-0.064-0.016-0.095-0.021c-0.045-0.157-0.102-0.219-0.196-0.231
		c-0.095-0.021-0.227,0-0.408,0.007c-0.014,0.04-0.025,0.076-0.039,0.116c-0.009,0.03-0.018,0.064-0.036,0.107
		c-0.089,0.005-0.131,0.005-0.176,0.015c-0.033,0.006-0.066,0.01-0.102,0.025c-0.022,0.005-0.031,0.017-0.05,0.025
		c-0.043,0.007-0.083-0.02-0.132-0.009c-0.03,0.003-0.057,0.018-0.093,0.032c-0.048,0-0.092,0.018-0.134,0.022
		c-0.037,0.015-0.066,0.031-0.104,0.031c-0.037,0.006-0.073-0.006-0.109,0c-0.03,0.006-0.06,0.021-0.088,0.021
		c-0.171,0.016-0.347,0.04-0.518,0.056c-0.019,0-0.029,0-0.04,0.01c-0.16,0.006-0.309,0.023-0.466,0.033
		c-0.095,0.014-1.273,0.108-1.301,0.113c-0.06,0.009-0.106,0.021-0.156,0.041c-0.06,0.025-0.121,0.005-0.183,0.005
		c-0.09,0.011-0.189,0.035-0.287,0.035c-0.096,0-0.19,0.044-0.287,0.053c-0.058,0.007-0.098,0.029-0.161,0.029
		c-0.058-0.013-0.118,0.002-0.183,0.009c-0.23,0.029-0.462,0.074-0.695,0.093c-0.173,0.006-0.349,0.019-0.531,0.034
		c-0.004-0.028-0.02-0.051-0.036-0.075c-0.01-0.027-0.025-0.048-0.037-0.073c0.06,0,0.114,0,0.173-0.01
		c0.045,0,0.092-0.002,0.128-0.002c0.025,0,0.046,0,0.067,0.002c0.039,0.01,0.11-0.016,0.157-0.025
		c0.063-0.011,0.12-0.011,0.188-0.011c0.26,0,0.515-0.059,0.773-0.091c0.046-0.015,0.094-0.019,0.148-0.029
		c0.024-0.006,0.044-0.006,0.07-0.011c0.04-0.011,0.083-0.011,0.127-0.03c0.02,0,0.027-0.005,0.043-0.012
		c0.041-0.014,0.073-0.014,0.105-0.014h0.115c0.032,0,0.052-0.019,0.077-0.024c0.073-0.023,0.15-0.023,0.227-0.035
		c0.134-0.016,0.261-0.031,0.392-0.056c0.1-0.016,0.199-0.053,0.296-0.067c0.052-0.004,0.09,0,0.14-0.022
		c0.022,0,0.044-0.005,0.061-0.015l0.022-0.002c0.205-0.062,0.352-0.048,0.478-0.03c0.066,0,0.128,0,0.183-0.021
		c0.036-0.011,0.066-0.021,0.097-0.039c0.014-0.01,0.02-0.01,0.01-0.037c-0.002-0.009-0.007-0.024-0.017-0.031
		c-0.022-0.011-0.044-0.011-0.064-0.016c-0.015-0.005-0.026-0.019-0.041-0.029c-0.018,0-0.036,0-0.056,0
		c-0.015-0.01-0.04-0.025-0.068-0.025c-0.034,0.01-0.067,0.01-0.102,0.01c-0.044,0.006-0.108,0.006-0.15,0.026
		c-0.015,0.014-0.025,0.019-0.049,0.023c-0.025,0.011-0.052,0.011-0.081,0.011c-0.026,0.01-0.054,0.023-0.08,0.031
		c-0.03,0.005-0.056,0.005-0.086,0.012c-0.063,0.025-0.126,0.044-0.188,0.054c-0.101,0.032-0.206,0.056-0.317,0.062
		c-0.103,0.012-0.217,0.017-0.32,0.02l-0.169,0.019c-0.046,0-0.088,0.015-0.139,0.015c-0.022-0.005-0.036-0.005-0.067-0.005
		c-0.058,0.005-0.11,0.005-0.166,0.005c-0.109,0.011-0.221,0.017-0.338,0.023c-0.011-0.023-0.02-0.041-0.036-0.075
		c-0.013-0.027-0.026-0.052-0.039-0.072c0.005,0.005,0.065,0,0.075,0c0.087-0.012,0.176,0,0.266,0h0.09c0.034,0,0.068,0,0.095,0
		c0.021,0,0.038,0,0.06-0.012c0.029-0.007,0.06-0.017,0.09-0.032l0.151-0.033c0.05-0.01,0.099-0.03,0.151-0.03
		c0.015,0,0.037,0.005,0.054,0.005h0.087h0.087c0.02,0,0.051,0,0.074-0.005h0.071c0.033,0.005,0.066,0,0.092,0h0.11
		c0.027,0,0.048,0,0.077-0.024c0.021-0.01,0.047-0.016,0.076-0.031c0.027-0.008,0.055-0.034,0.081-0.044
		c0.005-0.012,0.011-0.012,0.017-0.017c-0.022,0.017-0.138,0-0.165,0h-0.162h-0.333H25.84c-0.101,0-0.206-0.028-0.308-0.02
		c-0.074,0.013-0.144,0.02-0.222,0.02h-0.372c-0.061,0-0.229,0.017-0.208-0.096c0.004-0.006,0.004-0.019,0.006-0.024
		c0.003-0.016,0.009-0.021,0.009-0.03c0.008-0.019,0.019-0.036,0.03-0.062c0.012-0.019,0.022-0.036,0.026-0.067
		c0.006-0.019,0.006-0.057,0.006-0.088c0-0.021-0.006-0.06-0.006-0.082h-3.152c-0.245,0-0.529-0.023-0.794-0.009
		c-0.277,0-0.53,0.009-0.713,0.076c0-0.038,0.004-0.067,0.017-0.109c0.004-0.032,0.013-0.068,0.027-0.103
		c0-0.014,0.01-0.028,0.01-0.033c0.004-0.011,0-0.017-0.015-0.021c-0.013-0.012-0.051-0.018-0.092-0.018
		c-0.038-0.012-0.08-0.012-0.086-0.012c-0.023,0.012-0.034,0.017-0.053,0.033c-0.011,0.017-0.027,0.036-0.042,0.05
		c-0.018,0-0.042,0.004-0.062,0.014h-0.069c-0.066,0.007-0.137,0.012-0.208,0.022c-0.065,0.009-0.129,0.018-0.202,0.021
		c-0.135,0.015-0.264,0.026-0.403,0.044c-0.133,0.017-0.269,0.021-0.407,0.045c-0.146,0.013-0.494,0.051-0.802,0.082
		c-0.31,0.031-0.583,0.069-0.583,0.069c-0.079,0.012-0.158,0.03-0.238,0.05c-0.086,0.018-0.162,0.031-0.241,0.054
		c-0.428,0.075-0.854,0.125-1.283,0.152c-0.427,0.027-0.862,0.036-1.29,0.043c-0.011-0.039-0.027-0.068-0.042-0.102
		c-0.018-0.034-0.032-0.065-0.046-0.094c-0.004-0.026-0.015-0.048-0.015-0.073c-0.006-0.021-0.011-0.042-0.016-0.074
		c-0.02-0.057-0.065-0.107-0.105-0.152c-0.044-0.048-0.091-0.097-0.123-0.15c-0.043-0.052-0.08-0.113-0.12-0.169
		c-0.039-0.052-0.082-0.105-0.122-0.161c-0.027-0.05-0.056-0.096-0.09-0.14c-0.027-0.048-0.056-0.094-0.083-0.144
		c-0.025-0.029-0.038-0.066-0.051-0.109c-0.021-0.04-0.033-0.085-0.056-0.122c-0.037-0.062-0.073-0.118-0.111-0.182
		c-0.048-0.061-0.084-0.11-0.123-0.176c-0.042-0.054-0.081-0.124-0.11-0.199c-0.043-0.068-0.068-0.136-0.106-0.205
		c-0.023-0.047-0.043-0.1-0.071-0.143c-0.017-0.044-0.04-0.086-0.061-0.137c-0.004-0.015-0.009-0.034-0.02-0.056
		c-0.006-0.02-0.016-0.045-0.022-0.045c-0.028-0.019-0.052-0.024-0.077-0.035c-0.026-0.016-0.048-0.025-0.078-0.039
		c-0.022-0.081-0.049-0.153-0.072-0.228c-0.024-0.076-0.047-0.155-0.08-0.223c-0.095-0.185-0.221-0.373-0.33-0.571
		c-0.117-0.195-0.216-0.403-0.271-0.638c-0.036-0.011-0.087-0.025-0.127-0.042c-0.036-0.017-0.075-0.038-0.107-0.081
		c-0.01-0.011-0.019-0.028-0.029-0.032c-0.005-0.022-0.015-0.035-0.02-0.057c-0.015-0.021-0.032-0.042-0.048-0.062
		c-0.023-0.027-0.044-0.042-0.055-0.052c-0.005-0.008-0.005-0.008-0.011-0.008c-0.009-0.006-0.014-0.006-0.019-0.008v-0.019v-0.008
		c-0.012-0.01-0.019-0.03-0.027-0.048c-0.014-0.012-0.025-0.026-0.031-0.043c-0.007-0.005-0.017-0.046-0.028-0.077
		c-0.01-0.029-0.023-0.066-0.023-0.066c-0.035,0.019-0.073,0.03-0.112,0.042c-0.034,0.011-0.076,0.024-0.107,0.036
		c-0.016-0.198-0.06-0.382-0.116-0.557c-0.056-0.172-0.129-0.342-0.188-0.493c-0.024-0.043-0.054-0.088-0.086-0.127
		c-0.036-0.041-0.077-0.079-0.095-0.119c-0.019-0.026-0.042-0.045-0.065-0.07c-0.017-0.016-0.037-0.047-0.059-0.063
		c-0.025-0.039-0.05-0.072-0.073-0.106c-0.016-0.034-0.035-0.074-0.065-0.104c-0.028-0.048-0.065-0.095-0.095-0.146
		c-0.034-0.045-0.068-0.098-0.099-0.151c-0.067-0.085-0.122-0.178-0.181-0.265c-0.062-0.094-0.115-0.184-0.164-0.271H9.62v0.142
		c0.104,0.093,0.188,0.248,0.26,0.413c0.067,0.168,0.126,0.349,0.185,0.489h0.077v0.38c-0.099,0-0.165,0.014-0.218,0.018
		c-0.058,0.01-0.097,0.024-0.156,0.059L9.69,23.461c-0.023-0.01-0.046-0.023-0.07-0.035c-0.027-0.012-0.056-0.03-0.078-0.039
		c-0.038-0.163-0.074-0.326-0.116-0.485c-0.033-0.169-0.072-0.331-0.112-0.487c0.019,0,0.051,0.003,0.072,0.003
		c0.029,0.002,0.054,0.002,0.07-0.003c0.018-0.004,0.013-0.018,0.006-0.029c-0.006-0.016-0.017-0.026-0.025-0.035
		c-0.002,0-0.015-0.025-0.027-0.046c-0.012-0.024-0.017-0.048-0.012-0.037c-0.013-0.011-0.026,0-0.051,0.007
		c-0.015,0.006-0.034,0.013-0.046,0.017c-0.023,0.007-0.045,0.017-0.065,0.019c-0.027,0.016-0.046,0.018-0.073,0.024
		c-0.012-0.06-0.029-0.121-0.038-0.186c-0.006-0.056-0.023-0.127-0.035-0.179l-0.072-0.16c-0.032-0.22-0.102-0.306-0.167-0.414
		c-0.066-0.102-0.124-0.221-0.141-0.491l0.23,0.037l0.078,0.27l0.09,0.018l0.09,0.016c0.013,0.039,0.018,0.073,0.022,0.099
		c0.005,0.027,0.007,0.053,0.018,0.091c0.052,0.037,0.089,0.065,0.132,0.086c0.038,0.03,0.078,0.046,0.121,0.09
		c0.011,0,0.011,0.016,0.011,0.032c0.014,0.026,0.014,0.045,0.014,0.05c0.003,0.028,0.018,0.067,0.036,0.103
		C9.577,21.82,9.6,21.848,9.631,21.86h0.036c0.01,0,0.016,0.008,0.023,0.019c0,0.008,0.006,0.03,0,0.039v0.042
		c0.021,0.011,0.045,0.017,0.065,0.021c0.021,0.014,0.05,0.014,0.072,0.023l0.005,0.09l0.01,0.098
		c0.049,0.03,0.098,0.052,0.143,0.082c0.049,0.033,0.094,0.076,0.157,0.141v0.147c0.049,0.041,0.169,0.171,0.306,0.317
		c0.142,0.146,0.308,0.289,0.45,0.356v-0.224c-0.035-0.018-0.076-0.038-0.111-0.066c-0.031-0.031-0.067-0.059-0.084-0.097
		c-0.018-0.04-0.032-0.067-0.056-0.116c-0.028-0.03-0.051-0.061-0.084-0.09c-0.023-0.015-0.045-0.026-0.065-0.04
		c-0.027-0.012-0.05-0.021-0.073-0.037c-0.054-0.044-0.104-0.114-0.153-0.181c-0.043-0.066-0.081-0.142-0.115-0.205
		c-0.014-0.044-0.037-0.07-0.057-0.102c-0.025-0.028-0.051-0.063-0.067-0.097c-0.023-0.021-0.035-0.051-0.055-0.068
		c-0.015-0.034-0.031-0.053-0.057-0.071c-0.03-0.023-0.063-0.045-0.089-0.065c-0.027-0.01-0.059-0.039-0.082-0.058
		c-0.035-0.033-0.054-0.078-0.071-0.112c-0.017-0.042-0.04-0.088-0.064-0.117c-0.026-0.045-0.061-0.085-0.086-0.118
		c-0.035-0.044-0.055-0.078-0.083-0.119c-0.021-0.024-0.038-0.052-0.059-0.071c-0.013-0.021-0.032-0.035-0.051-0.064
		c-0.017-0.021-0.034-0.042-0.057-0.068c-0.016-0.021-0.038-0.054-0.056-0.071c-0.018-0.034-0.025-0.057-0.032-0.083
		c-0.011-0.025-0.021-0.053-0.039-0.071c-0.017-0.035-0.049-0.055-0.084-0.072c-0.03-0.03-0.063-0.049-0.086-0.068
		c-0.034-0.024-0.063-0.049-0.099-0.074c-0.033-0.026-0.058-0.049-0.095-0.081c-0.025-0.018-0.055-0.04-0.091-0.06
		c-0.026-0.022-0.056-0.041-0.073-0.073c-0.018-0.025-0.047-0.04-0.068-0.053c-0.021-0.012-0.042-0.028-0.064-0.057
		c-0.016-0.009-0.023-0.03-0.038-0.05c-0.011-0.017-0.025-0.03-0.043-0.053c-0.018-0.015-0.041-0.038-0.061-0.066
		c-0.027-0.019-0.051-0.042-0.073-0.064c-0.028-0.031-0.07-0.062-0.098-0.091c-0.028-0.04-0.064-0.073-0.089-0.108
		c-0.021-0.027-0.042-0.049-0.063-0.073c-0.019-0.02-0.042-0.051-0.062-0.076c-0.014-0.03-0.024-0.054-0.041-0.087
		c-0.004-0.024-0.02-0.06-0.03-0.085c-0.006-0.015-0.011-0.03-0.017-0.04c-0.006-0.017-0.011-0.026-0.011-0.035
		c0-0.019,0-0.032,0.005-0.037c0-0.014,0-0.021-0.005-0.038c-0.005-0.009-0.005-0.021-0.023-0.026
		c-0.005-0.004-0.01-0.009-0.016-0.025c-0.002-0.013-0.01-0.034-0.012-0.049c-0.006-0.018-0.012-0.032-0.015-0.048
		c-0.007-0.042-0.018-0.071-0.034-0.106c-0.005-0.033-0.015-0.064-0.025-0.1H7.723H7.699c-0.007,0-0.017-0.007-0.017-0.023
		c-0.011,0-0.011-0.008-0.014-0.013c-0.011-0.011-0.011-0.032-0.011-0.053c0-0.013,0-0.039,0-0.05v-0.164H7.59V18.65H7.455H7.4
		H7.352c-0.013,0-0.032-0.014-0.046-0.023c-0.017-0.011-0.034-0.026-0.034-0.035c-0.016-0.025-0.029-0.051-0.035-0.082
		c-0.013-0.026-0.017-0.061-0.023-0.08H6.985v0.221H6.906c-0.035-0.072-0.071-0.109-0.091-0.157
		c-0.022-0.039-0.043-0.098-0.057-0.22C6.858,18.22,6.929,18.141,6.987,18.052z M33.452,29.73v-0.368
		c0.252,0.004,0.331,0.035,0.523,0.075c-0.114,0.325,0.016,0.325,0.148,0.595c0.185-0.035,0.231-0.099,0.381-0.144v0.07h0.073
		c-0.027,0.073-0.046,0.151-0.073,0.228c-0.145,0.05-0.295,0.074-0.529,0.074c-0.026-0.105-0.052-0.208-0.071-0.302h-0.153
		c0.027-0.07,0.05-0.153,0.075-0.228H33.452z M34.88,31.767c-0.026,0.069-0.049,0.146-0.071,0.224h-0.161
		c-0.017-0.095-0.041-0.197-0.071-0.3C34.758,31.703,34.765,31.721,34.88,31.767z M30.82,29.959v0.15
		c-0.086-0.059-0.009,0.011-0.075-0.074c-0.086-0.061-0.012,0.008-0.077-0.075H30.82z M23.6,30.11v-0.073
		c0.148-0.01,0.666-0.072,0.759-0.148h0.371v0.07h-0.073v0.078c-0.052-0.028-0.1-0.054-0.152-0.078v0.078
		c-0.265,0.056-0.389,0.073-0.602,0c0.005,0.103,0.058-0.031,0.078,0.073c0.136,0.065-0.158,0.076-0.158,0.076V30.11H23.6z
		 M25.253,29.806v0.086c0,0.015,0.05,0.028,0.056,0.042c0.004,0.01,0,0.031,0.004,0.039c0,0.016,0.028,0.077-0.01,0.048
		c-0.005-0.006-0.043-0.062-0.05-0.062c-0.236,0.062-0.152,0.04-0.449,0v-0.067c0.149-0.051,0.064,0,0.149-0.086h0.153v0.086
		C25.156,29.855,25.208,29.838,25.253,29.806z M20.446,29.889c-0.016,0.055-0.028,0.11-0.043,0.164
		c-0.006,0.027-0.019,0.064-0.025,0.088c-0.014,0.061-0.031,0.046-0.084,0.046c0.009-0.112,0.034-0.203,0.077-0.298H20.446z
		 M20.028,30.034c-0.044,0-0.048,0.008-0.078,0.04c-0.019,0.027-0.086,0.027-0.109,0.036c-0.017,0.045-0.035,0.096-0.053,0.15
		c-0.022,0.07-0.022,0.075-0.094,0.075c-0.081,0-0.075,0-0.075-0.075c0.02-0.014,0.047-0.033,0.077-0.055
		c0.031-0.022,0.042-0.065,0.055-0.111c0.016-0.064,0.029-0.061,0.103-0.086c0.069-0.012,0.139-0.026,0.216-0.046
		C20.071,30.009,20.093,30.034,20.028,30.034z M16.093,31.657c0.081,0.062,0.165,0.127,0.247,0.186
		c0.046,0.02,0.077,0.05,0.118,0.07c0,0.061,0.028,0.152-0.042,0.152c-0.059,0-0.12-0.128-0.174-0.17
		c-0.08-0.059-0.162-0.108-0.243-0.158c-0.163-0.097-0.337-0.183-0.443-0.349C15.757,31.43,15.935,31.537,16.093,31.657z
		 M15.443,31.389c-0.058,0-0.072-0.042-0.115-0.078c-0.08-0.067-0.171-0.123-0.221-0.226c0.092,0.028,0.176,0.06,0.251,0.112
		c0.054,0.027,0.199,0.091,0.199,0.155C15.557,31.413,15.498,31.389,15.443,31.389z M14.808,31.012h-0.152
		c-0.025-0.041-0.064-0.077-0.097-0.108c-0.072-0.061-0.156-0.11-0.204-0.191C14.562,30.751,14.681,30.852,14.808,31.012z
		 M12.999,29.583v0.075c-0.086,0.086-0.032,0-0.072,0.147h-0.525c0.056-0.308,0.231-0.439,0.299-0.748h0.525v-0.227h0.076v-0.078
		h0.223c0.084,0.347,0.326,0.448,0.374,0.83c-0.171,0.019-0.374,0.109-0.445,0v0.147h-0.228v-0.147
		C13.074,29.634,13.154,29.658,12.999,29.583z M11.271,31.762v-0.068c-0.049,0.016-0.103,0.044-0.148,0.068v-0.068
		c-0.156-0.03-0.301-0.059-0.452-0.078v-0.227h0.075v-0.076h0.221c0.024-0.077,0.055-0.151,0.078-0.228
		c0.083,0.065,0.011-0.012,0.078,0.076c0.171,0.127,0.35,0.252,0.525,0.376c-0.021,0.054-0.05,0.098-0.079,0.156h0.079
		c0.082-0.069-0.031-0.069,0.073-0.078c0.053,0.02,0.103,0.048,0.15,0.078c-0.065,0.084,0.009,0.005-0.074,0.068v0.074
		c-0.053-0.025-0.098-0.043-0.149-0.074c0,0-0.079,0.123-0.227,0.074v-0.074H11.271z M11.122,25
		c-0.128-0.028-0.251-0.054-0.375-0.079v-0.223c0.086,0.06,0.01-0.014,0.076,0.07c0.048-0.021,0.1-0.049,0.152-0.07v0.07
		C11.101,24.856,11.071,24.821,11.122,25z M11.648,30.108c-0.021,0.047-0.05,0.094-0.079,0.152
		c-0.209,0.058-0.165-0.126-0.223-0.152h-0.225v-0.15c0.047,0.029,0.101,0.05,0.151,0.075v-0.142
		c-0.104-0.065-0.09-0.058-0.151-0.161c0.086-0.057,0.007,0.016,0.076-0.07c0.047,0.026,0.097,0.044,0.149,0.07v-0.147
		c0.102-0.021-0.026,0.051,0.075,0.077c0.052-0.026,0.101-0.05,0.148-0.077v0.077c0.21,0.044,0.175,0.095,0.378,0.146v0.228h-0.076
		C11.73,30.184,11.807,30.027,11.648,30.108z M9.69,25.301c-0.086,0.08-0.027,0-0.072,0.146c-0.204,0.037-0.742,0.249-0.978,0.15
		c-0.027-0.047-0.05-0.1-0.073-0.15H8.412c-0.02-0.096-0.047-0.2-0.077-0.298H8.261c-0.015-0.109,0.223-0.284,0.227-0.3v-0.15
		c0.329-0.081,0.354-0.212,0.828-0.227c0.022,0.03,0.075,0.138,0.124,0.115c0.056-0.016,0.11,0.037,0.144,0.076
		C9.726,24.821,9.69,25.094,9.69,25.301z M6.607,21.465c-0.256-0.123-0.195,0.076-0.371-0.222h0.295v0.074
		c0.186,0.107,0.401-0.057,0.602,0.148h0.081v0.226C6.833,21.685,6.83,21.564,6.607,21.465z M38.566,68.949L26.331,53.758H14.441
		v15.191H7.029V34.245h22.286c9.612,0,14.327,3.605,14.327,9.664c0,4.892-3.45,8.885-9.427,9.781l12.235,15.259H38.566z
		 M73.031,68.903h-7.307V34.399h7.307V68.903z M142.897,68.939h-6.893V41.972l-19.294,20.437L97.415,41.972v26.968h-1.732V34.407
		h2.627l21.602,21.68l20.474-21.68h2.512V68.939z M212.38,68.939h-6.891V41.972l-19.3,20.437l-19.297-20.437v26.968h-1.723V34.407
		h2.628l21.599,21.68l20.475-21.68h2.509V68.939z M234.385,34.407h37.837v1.36h-30.52v14.012h19.475v1.587h-19.475v15.882h32.505
		v1.691h-39.822V34.407z M241.731,88.331h-7.265V76.138h1.757v10.617h5.508V88.331z M253.61,88.492c-3.987,0-6.513-2.955-6.513-6.26
		c0-3.377,2.599-6.259,6.548-6.259c4.023,0,6.564,2.861,6.564,6.259C260.208,85.522,257.74,88.492,253.61,88.492z M278.022,88.331
		h-1.499l-8.157-9.387v9.387h-1.646V76.138h1.396l8.265,9.441v-9.441h1.642V88.331z M289.861,88.331h-4.752V76.138h4.734
		c4.517,0,6.493,3.218,6.493,6.095C296.336,85.366,293.892,88.331,289.861,88.331z M308.855,88.492c-3.982,0-6.509-2.955-6.509-6.26
		c0-3.377,2.601-6.259,6.554-6.259c4.021,0,6.563,2.861,6.563,6.259C315.463,85.522,312.993,88.492,308.855,88.492z M333.279,88.331
		h-1.505l-8.159-9.387v9.387h-1.643V76.138h1.397l8.265,9.441v-9.441h1.645V88.331z M333.356,68.939h-38.952V34.407h7.215v32.841
		h31.737V68.939z"/>
	<path class="st0" d="M24.73,16.575c0,0.014,0.006,0.072,0,0.077l0.071-0.077c0.04-0.03,0.054-0.075,0.092-0.11
		c0.028-0.032,0.073-0.037,0.117-0.066c0.021-0.031,0.035-0.053,0.074-0.071c0.039-0.021,0.076-0.028,0.115-0.052
		c0.07-0.051,0.141-0.1,0.215-0.138c0.087-0.049,0.202-0.038,0.294-0.091c0.349-0.187,0.666-0.419,1.199-0.446
		c-0.007,0-0.016,0.454-0.016,0.499c-0.013,0.267-0.019,0.54-0.034,0.809c0,0.132,0.015,0.269-0.017,0.397
		c-0.015,0.052-0.006,0.094-0.006,0.146c0,0.071-0.002,0.14-0.009,0.211c-0.005,0.126,0,0.277,0.005,0.417
		c0.002,0.051,0.004,0.099,0.01,0.141c0.002,0.023-0.006,0.054,0.002,0.084c0.005,0.02,0.025,0.035,0.025,0.066
		c0.005,0.025,0,0.046,0,0.073c0.005,0.03,0.018,0.061,0.033,0.093c0.056,0.08,0.042,0.184,0.047,0.274
		c0.008,0.079,0.014,0.162,0.023,0.238c0.016,0.085,0.032,0.173,0.043,0.257c0.026,0.17,0.032,0.345-0.027,0.499
		c0,0-0.271-0.16-0.294-0.179c-0.095-0.062-0.191-0.113-0.286-0.169c-0.088-0.058-0.199-0.102-0.263-0.176
		c-0.032-0.043-0.087-0.06-0.126-0.09c-0.017-0.005-0.026-0.009-0.042-0.019c-0.022-0.016-0.06-0.05-0.093-0.062
		c-0.043-0.009-0.094-0.009-0.134-0.021c-0.05-0.009-0.082-0.027-0.115-0.051c-0.102-0.08-0.225-0.08-0.343-0.088
		c-0.065-0.013-0.131-0.023-0.201-0.013c-0.025,0.006-0.211,0.021-0.213,0.042c-0.025,0.152-0.08,0.232-0.11,0.388
		c0.031,0.097,0.008,0,0.013,0.106c0,0.111,0.028,0.037,0.059,0.142l0.003,0.07l0.036,0.042l0.044,0.041
		c-0.028,0.049,0.017,0.034-0.007,0.083l0.038,0.029v0.09l0.074,0.065c0.058,0.145,0.041,0.349-0.007,0.501
		c-0.021,0.064-0.054,0.108-0.034,0.176c0.034,0.087,0.067,0.03,0.13,0.03c0.027,0,0.213,0.044,0.213,0.042v0.15
		c0,0.036,0.124,0.139,0.153,0.16c0.048,0.056,0.098,0.119,0.152,0.174c0.07,0.083,0.12,0.186,0.195,0.248
		c0.056,0.052,0.111,0.088,0.153,0.132c0.059,0.063,0.12,0.122,0.181,0.177c0.009,0.007,0.015,0.015,0.018,0.023
		c0.08,0.067,0.177,0.12,0.277,0.164c0.062,0.035,0.104,0.085,0.164,0.121c0.069,0.033,0.147,0.065,0.211,0.098
		c0.033,0.01,0.065,0.01,0.095,0.033c0.013,0.007,0.013,0.023,0.026,0.037c0.021,0.015,0.058,0.022,0.089,0.029
		c0.12,0.041,0.241,0.052,0.371,0.077c0.076,0.004,0.143,0.029,0.22,0.063c0.049,0.011,0.549,0.088,0.549,0.043v0.074
		c0.133,0.025,0.126-0.069,0.153-0.074c0.406-0.098,0.586,0.154,0.977,0v-0.077c0.099-0.022,0.201-0.055,0.303-0.07V22.29h0.148
		c0.022-0.047,0.055-0.099,0.076-0.154h0.149c0.052-0.071,0.102-0.141,0.147-0.218h0.455l0.076-0.076
		c-0.069-0.137-0.102-0.123-0.15-0.298h0.227c0.05-0.1,0.21-0.207,0.223-0.227v-0.305l0.045-0.028l0.031-0.047l-0.009-0.067
		l0.037-0.038c0.074-0.051,0.044-0.076,0.127-0.121l0.027-0.2l0.048-0.103V20.33l0.073-0.069l0.032-0.163l0.042-0.136
		c0.078-0.246,0.01-0.58,0.076-0.752c-0.26-0.146-0.223-0.237-0.38-0.456c-0.135-0.19-0.292-0.127-0.371-0.45
		c-0.006-0.017-0.168-0.048-0.194-0.061c-0.061-0.021-0.119-0.05-0.171-0.081c-0.102-0.067-0.173-0.121-0.29-0.145
		c-0.325-0.074-0.641-0.006-0.949,0.099c-0.197,0.061-0.41,0.143-0.58,0.263c-0.047,0.075-0.101,0.157-0.149,0.227l-0.011,0.065
		l-0.064,0.082h-0.153c-0.019-0.162-0.075-0.233-0.075-0.3c0-0.08-0.002-0.189,0.015-0.261c0.014-0.076,0.027-0.152,0.036-0.223
		c0-0.05,0.024-0.087,0.024-0.138c-0.006-0.037,0.006-0.067,0.015-0.107c0.018-0.076,0.045-0.154,0.071-0.228
		c0.028-0.076,0.067-0.16,0.097-0.23c0.041-0.068,0.076-0.118,0.108-0.176c0.057-0.101,0.086-0.193,0.177-0.255
		c0.075-0.057,0.132-0.117,0.195-0.178c0.047-0.028,0.085-0.064,0.129-0.09c0.042-0.025,0.093-0.025,0.118-0.062
		c0.037-0.028,0.048-0.059,0.095-0.092c0.048-0.032,0.112-0.053,0.173-0.07c0.008-0.005,0.173-0.07,0.173-0.07
		c0-0.014,0-0.04,0-0.055c0.012-0.023,0-0.006,0.017-0.01c0.032-0.022,0.078-0.021,0.107-0.021c0.049-0.002,0.091-0.002,0.144-0.008
		c0.098-0.011,0.195-0.018,0.289-0.02c0.1-0.009,0.194-0.011,0.286-0.016c0.052-0.007,0.102-0.007,0.147-0.01
		c0.01,0,0.136-0.023,0.141-0.015c0.021,0.049,0.05,0.102,0.077,0.152c0.223,0.075,0.454,0.152,0.676,0.225v-0.072
		c0.164-0.111,0.258-0.386,0.301-0.604l-0.073-0.153c0,0-0.068-0.277-0.034-0.448c0.159-0.678,0.346-0.579,0.782-0.897
		c0.184-0.207,0.349-0.405,0.529-0.606l0.099-0.151h0.099c0.027,0.07,0.148,0.151,0.179,0.227c0.146,0.125,0.3,0.252,0.444,0.372
		c0.055,0.088,0.104,0.158,0.155,0.235c0.271,0.187,0.58,0.236,0.747,0.519h0.087c0.022,0,0.149,0.143,0.154,0.164
		c0.032,0.06,0.056,0.124,0.083,0.185c0.015,0.038,0.019,0.062,0.032,0.1c0.004,0.029,0.026,0.062,0.038,0.092
		c0.065,0.22-0.046,0.456-0.029,0.688c0.047,0.067,0.251,0.128,0.251,0.128h0.216c0.023-0.078,0.05-0.152,0.071-0.229
		c0.056-0.025,0.104-0.05,0.154-0.078c0.044-0.039,0.078-0.312,0.149-0.368h0.155c0.15-0.067,0.175-0.116,0.221-0.301h0.078v-0.298
		h0.154l0.018-0.448c0.009-0.228,0.018-0.461,0.034-0.701c0-0.098,0.028-0.219,0.007-0.318c-0.007-0.037-0.017-0.062-0.023-0.105
		v-0.005c-0.004-0.049-0.026-0.072-0.057-0.107c-0.045-0.05-0.11-0.131-0.11-0.203c0-0.136-0.075-0.256-0.114-0.381
		c-0.028-0.119-0.058-0.229-0.138-0.32c-0.11-0.115-0.186-0.257-0.27-0.386c-0.144-0.211-0.306-0.435-0.487-0.609
		c-0.089-0.102-0.183-0.197-0.28-0.288c-0.051-0.041-0.089-0.075-0.147-0.103c-0.061-0.033-0.1-0.082-0.15-0.13
		c-0.035-0.026-0.067-0.063-0.106-0.088c-0.031-0.028-0.045-0.039-0.082-0.055c-0.068-0.038-0.153-0.072-0.211-0.113
		c-0.062-0.042-0.108-0.088-0.169-0.124c-0.07-0.041-0.136-0.076-0.201-0.11c-0.121-0.053-0.239-0.106-0.358-0.151
		c-0.108-0.052-0.235-0.076-0.339-0.142c-0.054-0.047-0.108-0.098-0.178-0.122c-0.122-0.041-0.251-0.041-0.376-0.076
		c-0.123-0.021-0.256-0.056-0.385-0.079c-0.045-0.01-0.097-0.005-0.143-0.017c-0.043-0.005-0.076-0.027-0.12-0.027
		c-0.044,0-0.083-0.017-0.131,0c-0.015,0-0.029,0.009-0.047,0.013c-0.026,0.01-0.073-0.009-0.104-0.013
		c-0.071-0.017-0.144-0.02-0.212-0.03c-0.113-0.009-0.22-0.028-0.338-0.024c-0.043,0.006-0.096,0-0.141,0h-0.15h-0.206
		c-0.103,0.024,0.027,0.077-0.077,0.077V9.737h-0.076v0.077c0,0.005-0.542,0.031-0.592,0.037c-0.097,0.008-0.195,0.03-0.291,0.026
		c-0.072,0-0.107,0-0.092,0.082c-0.193,0.031-0.38,0.072-0.56,0.146c-0.08,0.028-0.148,0.062-0.22,0.089
		c-0.086,0.039-0.157,0.094-0.243,0.119c-0.079,0.027-0.164,0.056-0.244,0.083c-0.126,0.053-0.241,0.094-0.366,0.13
		c-0.08,0.021-0.162,0.035-0.227,0.089c-0.077,0.066-0.141,0.135-0.245,0.171c-0.003,0.008-0.008,0.008-0.013,0.008
		c-0.038,0.017-0.07,0.05-0.099,0.076c-0.067,0.038-0.145,0.087-0.204,0.13c-0.134,0.089-0.241,0.216-0.36,0.318
		c-0.05,0.055-0.085,0.055-0.142,0.073c-0.046,0.032-0.046,0.1-0.081,0.141c-0.074,0.102-0.205,0.143-0.27,0.254
		c-0.085,0.128-0.184,0.219-0.235,0.36c-0.059,0.142-0.179,0.267-0.255,0.395c-0.108,0.169-0.176,0.343-0.26,0.506
		c-0.037,0.063-0.069,0.133-0.099,0.185c-0.025,0.036-0.039,0.044-0.062,0.096c-0.025,0.065-0.03,0.125-0.051,0.177
		c-0.044,0.109-0.121,0.198-0.157,0.295c-0.106,0.291-0.195,0.571-0.271,0.862c-0.03,0.134-0.058,0.264-0.083,0.401
		c-0.016,0.059-0.027,0.117-0.036,0.181c-0.013,0.072-0.065,0.125-0.077,0.19c-0.016,0.06,0.006,0.13-0.006,0.194
		c-0.01,0.028-0.015,0.062-0.019,0.091c-0.027,0.104-0.027,0.215-0.006,0.317c0.015,0.104,0.006,0.207,0.006,0.31
		C24.724,16.416,24.724,16.494,24.73,16.575z M35.107,13.794h0.077v-0.073h-0.077c-0.031-0.129,0.069-0.133,0.077-0.154
		c0.015-0.107-0.105-0.035,0-0.293h-0.077v-0.075h0.153c0.01,0.368,0.106,0.56-0.076,0.747v-0.074h-0.077V13.794z"/>
	<path class="st0" d="M10.747,15.746c0.05,0.024,0.095,0.055,0.152,0.077c0.024,0.078,0.044,0.146,0.076,0.224h0.21
		c0,0,0.211-0.065,0.251-0.121c0.02-0.235-0.092-0.474-0.026-0.684c0.012-0.033,0.032-0.066,0.042-0.098
		c0.005-0.037,0.015-0.06,0.024-0.104c0.026-0.056,0.058-0.124,0.086-0.189c0.005-0.011,0.137-0.153,0.152-0.153h0.082
		c0.171-0.29,0.485-0.337,0.755-0.526c0.048-0.076,0.098-0.148,0.151-0.228c0.149-0.12,0.297-0.248,0.45-0.377
		c0.023-0.074,0.15-0.148,0.176-0.229h0.099l0.098,0.155c0.176,0.203,0.353,0.407,0.529,0.603c0.436,0.325,0.627,0.217,0.781,0.907
		c0.051,0.007,0.039,0.021,0.093,0.032c0.037,0.013,0.088,0.013,0.118,0.05c0.029,0.022,0.007,0.06,0.011,0.096
		c0,0.12,0.035,0.236,0.05,0.343H15.03l-0.076,0.196c-0.021,0.073-0.049,0.183-0.074,0.25h0.074
		c0.023,0.028,0.048,0.067,0.086,0.073c0.005,0,0.066,0,0.066,0.005v0.304c0.143,0,0.516,0.077,0.521,0.077
		c0.035-0.049,0.062-0.087,0.097-0.144c0.012-0.011,0.012-0.033,0.022-0.049c0.035-0.06,0.141-0.038,0.205-0.038h0.806
		c0.036,0,0.083,0.027,0.112,0.038c0.071,0.038,0.141,0.04,0.208,0.068c0.035,0.008,0.066,0.013,0.101,0.023
		c0.027,0.019,0.049,0.019,0.075,0.023c0.004,0,0.004,0.013,0.017,0.013c0.013,0.004,0.028-0.008,0.042,0
		c0,0,0.031,0.065,0.027,0.053c0.017,0.033,0.042,0.068,0.056,0.096c0.054,0.08,0.159,0.088,0.228,0.136
		c0.057,0.029,0.11,0.073,0.155,0.115c0.031,0.024,0.053,0.048,0.085,0.075c0.01,0,0.018,0,0.026,0
		c0.012,0.018,0.02,0.029,0.022,0.041c0.137,0.135,0.259,0.267,0.344,0.436c0.003,0,0.009,0.007,0.011,0.017
		c0.37,0.702,0.307,0.891,0.147,1.723c-0.086-0.062-0.011,0.01-0.077-0.073c-0.15-0.13-0.06-0.171-0.146-0.298h-0.076
		c-0.017,0-0.054-0.071-0.061-0.083c-0.052-0.064-0.069-0.161-0.119-0.23c-0.044-0.066-0.098-0.066-0.166-0.091
		c-0.215-0.07-0.411-0.139-0.639-0.102c0,0-0.389,0-0.727,0.096c-0.071,0.023-0.148,0.051-0.221,0.091
		c-0.126,0.057-0.249,0.177-0.249,0.177l-0.062,0.116l-0.164,0.146h-0.047l-0.035,0.002l-0.032,0.065L15.462,18.9l-0.104,0.029
		c0,0-0.034,0.075-0.039,0.075c-0.001,0.035-0.021,0.098-0.045,0.111c-0.022,0.017-0.005,0.214-0.034,0.214
		c-0.047,0-0.098,0.263-0.142,0.263c0,0,0,0.397,0.058,0.585c0.009,0.032-0.058,0.069-0.043,0.103
		c0.037,0.105,0.08,0.199,0.143,0.279h0.071c0.004,0,0.043,0.119,0.051,0.135c0.015,0.026,0.027,0.05,0.044,0.074
		c0.016,0.032,0.029,0.067,0.038,0.101c0.008,0.017,0.008,0.025,0.013,0.04c0.006,0.012,0.008,0.012,0.02,0.021
		c0.018,0.011,0.027,0.033,0.037,0.048c0.062,0.062,0.12,0.119,0.177,0.19c0.04,0.043,0.075,0.126,0.131,0.149
		c0.027,0.005,0.051,0.005,0.076,0.011c0.046,0.01,0.087,0.015,0.126,0.026l0.093,0.016c0.033,0.002,0.035,0.01,0.057,0.032
		c0.021,0.022,0.038,0.027,0.043,0.056c0.005,0.023-0.006,0.077,0,0.087c0.309,0.304,0.829,0.374,0.829,0.374h0.072
		c0.025,0,0.063-0.05,0.082-0.058c0.024-0.026,0.043-0.042,0.065-0.067c0.037-0.04,0.07,0.077,0.106,0.034
		c0.06-0.09,0.131,0.007,0.223-0.051c0.019-0.004,0.042,0.094,0.067,0.092c0.024-0.008,0.035,0.05,0.058,0.05
		c0.023-0.005,0.15-0.039,0.155-0.021c0.144,0.254,0.239,0.152,0.447,0.304c0.031,0.026,0.057-0.065,0.077-0.033
		c0.022,0.033,0.054,0.06,0.08,0.088c0.042,0.053,0.091-0.028,0.128,0.03c0.016,0.021,0.016,0.023,0.036,0.023
		c0.025-0.002,0.04,0,0.058,0h0.075c0.051,0.076,0.104-0.019,0.15,0.06c0,0,0.399-0.036,0.737-0.126
		c0.345-0.075,0.391-0.122,0.542-0.179v-0.146c0.097-0.031,0.2-0.058,0.299-0.076c0.01-0.008,0.031-0.089,0.04-0.104
		c0.011-0.032,0.027-0.064,0.034-0.104c0.032-0.069,0.053-0.144,0.086-0.215c0.02-0.065,0.046-0.137,0.072-0.219
		c0.014-0.026,0.035-0.06,0.042-0.091c0.009-0.02,0.014-0.043,0.022-0.059c0-0.011,0-0.017,0.002-0.028
		c0.011-0.016,0.041,0.005,0.051,0.011c0.028,0.007,0.053,0.017,0.087,0.033c0.054,0.023,0.11,0.048,0.172,0.065
		c0.004,0.009,0.073,0.035,0.073,0.035c0.025-0.05,0.052-0.101,0.078-0.145c0.023-0.045,0.023-0.091,0.045-0.132
		c0.025-0.06,0.052-0.114,0.082-0.181c0.028-0.064,0.073-0.128,0.104-0.195c0.026-0.047,0.046-0.107,0.065-0.155
		c0.034-0.074,0.065-0.149,0.096-0.225c0.094-0.229,0.154-0.473,0.194-0.714c0-0.001,0.009-0.065,0.009-0.065h0.076
		c0-0.009-0.005-0.025-0.011-0.034c-0.011-0.028-0.022-0.052-0.026-0.077c-0.012-0.034-0.019-0.068-0.03-0.095
		c0-0.033-0.015-0.059-0.025-0.085c-0.011-0.01-0.02-0.016-0.034-0.024c-0.027-0.035-0.048-0.067-0.078-0.101
		c-0.006-0.013-0.064,0.013-0.084,0.021c-0.022,0.021-0.054,0-0.075-0.008c-0.008-0.007-0.032-0.013-0.058-0.025l-0.028,0.033v0.021
		c-0.029,0.011-0.057,0.023-0.079,0.033c-0.07,0.027-0.142,0.056-0.212,0.088h-0.011c-0.011,0.005-0.018,0.005-0.034,0.009
		c-0.023,0.005-0.04,0.012-0.065,0.022c-0.049,0.016-0.096,0.039-0.142,0.039h-0.051c-0.032,0-0.051,0.01-0.073,0.014
		c-0.104,0.023-0.207,0.047-0.3,0.072c-0.081,0.023-0.153,0.043-0.23,0.071c-0.041,0.017-0.093,0.017-0.14,0.022h-0.096
		c-0.016,0-0.012-0.03-0.006-0.038c0-0.012,0-0.018,0.006-0.021c0-0.012,0-0.005-0.006-0.015c-0.01,0-0.021-0.016-0.027-0.02
		c-0.014-0.005-0.014-0.01-0.02-0.015c-0.005-0.006-0.011-0.006-0.025-0.011c-0.005-0.012-0.02-0.02-0.033-0.023
		c-0.017-0.012-0.022-0.018-0.039-0.023c-0.017-0.004-0.026-0.014-0.038-0.024c-0.008-0.005-0.016-0.009-0.024-0.013
		c-0.008-0.012-0.01-0.016-0.01,0v0.02v0.118c0.01,0,0.026-0.007,0.043-0.01c0.011,0,0.024,0.003,0.034,0.003
		c0.016,0,0.02,0.007,0.043,0.007h0.022c-0.081,0.081,0,0.029-0.143,0.067c-0.048,0.014-0.124,0-0.124,0H19.69v-0.067
		c0.012-0.102,0.021-0.193,0.033-0.283c0.014-0.078,0.016-0.142,0.044-0.207c0.021-0.075,0.013-0.161,0.016-0.233
		c0-0.071,0.005-0.13,0.016-0.194c0-0.052,0.039-0.097,0.039-0.147c0-0.025-0.017-0.045-0.017-0.078
		c-0.005-0.043-0.022-0.088-0.022-0.127c0-0.036,0.017-0.059,0.022-0.084c0.017-0.05,0.012-0.106,0.012-0.153
		c0.005-0.054,0.005-0.108,0.005-0.164c0.009-0.071,0.009-0.142,0.009-0.217v-0.222c-0.031-0.051-0.077-0.108-0.077-0.164
		c0.007-0.039,0.029-0.072,0.039-0.114c0.007-0.025,0.038-0.068,0.038-0.1c0-0.473-0.077-0.831-0.077-0.831h-0.08
		c-0.023,0,0-0.067,0-0.067c0-0.016,0.046-0.041,0.048-0.045c0.013-0.011,0.021-0.021,0.021-0.038c0-0.018-0.008-0.038-0.011-0.048
		c-0.01-0.031-0.018-0.048-0.026-0.068c-0.043-0.165-0.079-0.316-0.105-0.481c0.165,0.022,0.198,0.006,0.3,0.078
		c0.022,0.017,0.022,0.049,0.058,0.057c0.032,0.012,0.064,0.012,0.091,0.018l0.151,0.078c0.005,0,0.039,0.06,0.044,0.065
		c0.021,0.02,0.036,0.055,0.051,0.072c0.026,0.038,0.045,0.066,0.08,0.08c0.011,0.01,0.011,0.01,0.021,0.021
		c0.014,0,0.032,0.012,0.046,0.016c0.03,0.013,0.057,0.019,0.087,0.033c0.031,0.025,0.062,0.031,0.095,0.049l0.176,0.113
		l0.149,0.085l0.152,0.061c0.213,0.107,0.226-0.015,0.301,0v0.076h0.228c0.102-0.197,0.151-0.314,0.151-0.671
		c-0.106-0.128,0.012-0.281-0.079-0.602c0,0-0.083-0.427-0.149-0.68l-0.073-0.228c0,0-0.068-0.226-0.302-0.745
		c-0.005-0.012-0.047-0.023-0.057-0.035c-0.013-0.007-0.037-0.017-0.058-0.028c-0.033-0.006-0.041-0.035-0.05-0.064
		c-0.009-0.023-0.014-0.049-0.018-0.075c-0.009-0.026-0.014-0.061-0.024-0.094c-0.005-0.008-0.005-0.033-0.01-0.043
		c0-0.01,0-0.016-0.006-0.025V12.82c-0.007-0.009-0.018-0.009-0.023-0.022c0-0.005-0.009-0.008-0.009-0.008
		c-0.005-0.019-0.012-0.027-0.018-0.04c-0.019-0.041-0.033-0.067-0.051-0.105c-0.03-0.092-0.084-0.181-0.146-0.254
		c-0.044-0.034-0.086-0.074-0.142-0.1c-0.012-0.016-0.054-0.027-0.141-0.082c-0.013-0.023-0.012-0.041,0-0.106
		c0-0.019,0-0.021-0.013-0.04c-0.008-0.006-0.008-0.006-0.015-0.011c-0.015-0.015-0.038-0.031-0.06-0.049
		c-0.019-0.017-0.047-0.03-0.075-0.046c-0.015-0.007-0.06-0.03-0.065-0.045c-0.005-0.018,0-0.052,0-0.067
		c0.005-0.042,0.005-0.053-0.013-0.102c-0.033-0.048-0.059-0.059-0.08-0.097c-0.032-0.05-0.065-0.088-0.109-0.123
		c-0.046-0.042-0.081-0.078-0.136-0.119c-0.042-0.032-0.082-0.069-0.127-0.105c-0.023-0.019-0.047-0.039-0.067-0.061
		c-0.01-0.011-0.052-0.065-0.068-0.071c0,0-0.352-0.298-0.943-0.606c-0.039-0.023-0.086-0.035-0.125-0.062
		c-0.007-0.002-0.016-0.009-0.027-0.023c-0.024-0.01-0.044-0.026-0.071-0.039c-0.04-0.019-0.08-0.03-0.121-0.04
		c-0.048-0.023-0.083-0.045-0.132-0.056c-0.051-0.005-0.102-0.032-0.147-0.053c-0.101-0.033-0.206-0.068-0.318-0.098l-0.3-0.077
		v-0.081c-0.077-0.007-0.163-0.019-0.242-0.041c-0.025-0.007-0.047-0.012-0.073-0.007c-0.021,0-0.046-0.005-0.071-0.012
		C16.986,9.96,16.926,9.95,16.87,9.934c-0.042-0.019-0.088-0.031-0.13-0.031c-0.044,0-0.09-0.009-0.132-0.015
		c-0.152-0.028-0.293-0.052-0.449-0.073v0.073h0.065c0.01,0.018,0.025,0.051,0.025,0.072c-0.031,0-0.044,0.056-0.055,0.087
		c-0.004,0.005-0.039,0.066-0.035,0.066c-0.045,0.021-0.454,0-0.454,0c-0.059,0-0.02-0.073-0.072-0.081h-0.118
		c-0.047-0.007-0.092-0.019-0.142-0.023c-0.045-0.014-0.087-0.017-0.133-0.029c-0.022,0-0.041-0.007-0.063-0.007
		c-0.011-0.013-0.02-0.013-0.039-0.013c-0.049-0.01,0.028-0.12,0.039-0.146h-0.444c-0.053,0.005-0.098,0.012-0.148,0.021
		c-0.139,0.023-0.284,0.046-0.421,0.075c-0.266,0.049-0.529,0.121-0.787,0.202c-0.082,0.021-0.152,0.054-0.231,0.066
		c-0.073,0.016-0.139,0.079-0.199,0.13c-0.026,0.027-0.062,0.043-0.092,0.047c-0.02,0.018-0.054,0.031-0.083,0.041
		c-0.042,0.01-0.062,0.025-0.099,0.053c-0.064,0.026-0.123,0.067-0.186,0.098c-0.048,0.031-0.1,0.052-0.145,0.081
		c-0.048,0.024-0.08,0.062-0.122,0.098c-0.044,0.025-0.086,0.055-0.135,0.093c-0.095,0.067-0.189,0.141-0.281,0.213
		c-0.19,0.154-0.358,0.342-0.547,0.501c-0.034,0.027-0.073,0.023-0.099,0.037c-0.033,0.028-0.042,0.101-0.073,0.131
		c-0.052,0.076-0.125,0.143-0.188,0.214c-0.057,0.082-0.095,0.169-0.137,0.256c-0.068,0.155-0.119,0.319-0.191,0.477
		c-0.009,0.025-0.03,0.046-0.042,0.07c-0.019,0.047-0.023,0.082-0.03,0.126c-0.016,0.092-0.038,0.19-0.064,0.286
		c-0.026,0.088-0.052,0.194-0.079,0.29c-0.009,0.027-0.005,0.056-0.005,0.078c0,0.03-0.004,0.059-0.009,0.085
		c-0.006,0.052-0.014,0.11-0.025,0.167c-0.014,0.113-0.023,0.228-0.023,0.346c-0.011,0.086,0,0.229,0,0.229
		S10.365,15.062,10.747,15.746z"/>
	<path class="st0" d="M253.645,77.581c-2.719,0-4.737,1.968-4.737,4.651c0,2.661,2.019,4.652,4.737,4.652
		c2.735,0,4.76-1.991,4.76-4.652C258.405,79.549,256.38,77.581,253.645,77.581z"/>
	<path class="st0" d="M308.9,77.581c-2.725,0-4.741,1.968-4.741,4.651c0,2.661,2.017,4.652,4.741,4.652
		c2.731,0,4.754-1.991,4.754-4.652C313.654,79.549,311.631,77.581,308.9,77.581z"/>
</g>
</svg>