<!-- Generator: Adobe Illustrator 18.1.1, SVG Export Plug-In  -->
<svg version="1.1"
	 xmlns="http://www.w3.org/2000/svg" xmlns:xlink="http://www.w3.org/1999/xlink" xmlns:a="http://ns.adobe.com/AdobeSVGViewerExtensions/3.0/"
	 x="0px" y="0px" width="94.556px" height="22.402px" viewBox="0 0 94.556 22.402" enable-background="new 0 0 94.556 22.402"
	 xml:space="preserve">
<defs>
</defs>
<g>
	<path fill="#616161" d="M18.306,1.136c0-0.424,0.337-0.762,0.774-0.762c0.424,0,0.761,0.337,0.761,0.762V4.83l4.145-4.169
		c0.175-0.187,0.361-0.287,0.637-0.287c0.424,0,0.711,0.337,0.711,0.711c0,0.237-0.1,0.412-0.274,0.574l-2.721,2.621l2.945,3.657
		c0.125,0.163,0.212,0.312,0.212,0.549c0,0.424-0.337,0.749-0.773,0.749c-0.3,0-0.487-0.15-0.649-0.362l-2.809-3.583l-1.423,1.373
		v1.81c0,0.424-0.337,0.761-0.761,0.761c-0.438,0-0.774-0.337-0.774-0.761V1.136z"/>
	<path fill="#616161" d="M28.928,9.324c-1.909,0-3.382-1.386-3.382-3.42V5.878c0-1.884,1.335-3.432,3.22-3.432
		c2.098,0,3.133,1.722,3.133,3.245c0,0.424-0.324,0.724-0.711,0.724h-4.132c0.162,1.073,0.924,1.672,1.897,1.672
		c0.637,0,1.136-0.225,1.561-0.574c0.112-0.087,0.212-0.137,0.387-0.137c0.337,0,0.599,0.262,0.599,0.612
		c0,0.187-0.087,0.349-0.199,0.461C30.7,8.987,29.952,9.324,28.928,9.324z M30.426,5.417c-0.1-0.974-0.674-1.735-1.673-1.735
		c-0.923,0-1.572,0.711-1.71,1.735H30.426z"/>
	<path fill="#616161" d="M35.22,9.299h-0.074c-0.412,0-0.687-0.262-0.861-0.662l-2.197-5.03C32.05,3.495,32,3.37,32,3.232
		c0-0.375,0.337-0.724,0.749-0.724c0.411,0,0.624,0.237,0.748,0.549l1.698,4.369l1.722-4.394c0.113-0.262,0.312-0.524,0.712-0.524
		c0.412,0,0.736,0.312,0.736,0.724c0,0.137-0.05,0.287-0.087,0.362l-2.197,5.042C35.906,9.024,35.632,9.299,35.22,9.299z"/>
	<path fill="#616161" d="M39.015,0.811c0-0.449,0.374-0.736,0.861-0.736c0.486,0,0.861,0.287,0.861,0.736v0.075
		c0,0.449-0.375,0.749-0.861,0.749c-0.487,0-0.861-0.299-0.861-0.749V0.811z M39.127,3.27c0-0.424,0.324-0.761,0.749-0.761
		c0.424,0,0.761,0.337,0.761,0.761v5.217c0,0.424-0.337,0.749-0.761,0.749c-0.412,0-0.749-0.325-0.749-0.749V3.27z"/>
	<path fill="#616161" d="M41.86,3.27c0-0.424,0.325-0.761,0.749-0.761c0.425,0,0.762,0.337,0.762,0.761v0.325
		c0.424-0.612,1.036-1.148,2.06-1.148c1.485,0,2.347,0.999,2.347,2.521v3.52c0,0.424-0.325,0.749-0.749,0.749
		c-0.425,0-0.762-0.325-0.762-0.749V5.429c0-1.023-0.512-1.61-1.41-1.61c-0.874,0-1.485,0.611-1.485,1.635v3.033
		c0,0.424-0.337,0.749-0.762,0.749c-0.412,0-0.749-0.325-0.749-0.749V3.27z"/>
</g>
<g>
	<path fill="#616161" d="M52.021,1.21c0-0.437,0.337-0.774,0.774-0.774h2.483c2.746,0,4.644,1.885,4.644,4.344v0.025
		c0,2.459-1.897,4.369-4.644,4.369h-2.483c-0.438,0-0.774-0.337-0.774-0.774V1.21z M55.279,7.776c1.835,0,3.033-1.236,3.033-2.946
		V4.805c0-1.71-1.198-2.971-3.033-2.971h-1.723v5.941H55.279z"/>
	<path fill="#616161" d="M60.423,7.277V7.251c0-1.423,1.111-2.122,2.721-2.122c0.736,0,1.261,0.112,1.772,0.274V5.242
		c0-0.936-0.574-1.436-1.635-1.436c-0.574,0-1.049,0.1-1.46,0.262c-0.088,0.025-0.163,0.038-0.237,0.038
		c-0.35,0-0.637-0.275-0.637-0.625c0-0.274,0.188-0.512,0.412-0.599c0.624-0.237,1.261-0.387,2.121-0.387
		c0.986,0,1.723,0.262,2.185,0.736c0.487,0.475,0.712,1.173,0.712,2.035v3.245c0,0.412-0.325,0.724-0.736,0.724
		c-0.438,0-0.737-0.3-0.737-0.637V8.35c-0.449,0.537-1.136,0.961-2.146,0.961C61.521,9.311,60.423,8.6,60.423,7.277z M64.941,6.802
		V6.353c-0.387-0.15-0.898-0.262-1.498-0.262c-0.974,0-1.548,0.412-1.548,1.099v0.025c0,0.636,0.562,0.999,1.286,0.999
		C64.18,8.213,64.941,7.639,64.941,6.802z"/>
	<path fill="#616161" d="M67.525,0.749C67.525,0.337,67.85,0,68.274,0c0.424,0,0.761,0.337,0.761,0.749v7.739
		c0,0.424-0.337,0.749-0.761,0.749c-0.412,0-0.749-0.325-0.749-0.749V0.749z"/>
	<path fill="#616161" d="M73.279,9.324c-1.909,0-3.382-1.386-3.382-3.42V5.878c0-1.884,1.335-3.432,3.22-3.432
		c2.098,0,3.133,1.722,3.133,3.245c0,0.424-0.324,0.724-0.711,0.724h-4.132c0.162,1.073,0.924,1.672,1.897,1.672
		c0.637,0,1.136-0.225,1.561-0.574c0.112-0.087,0.212-0.137,0.387-0.137c0.337,0,0.599,0.262,0.599,0.612
		c0,0.187-0.087,0.349-0.199,0.461C75.052,8.987,74.304,9.324,73.279,9.324z M74.777,5.417c-0.1-0.974-0.674-1.735-1.673-1.735
		c-0.923,0-1.572,0.711-1.71,1.735H74.777z"/>
</g>
<g>
	<path fill="#323232" d="M0,15.999v-0.025c0-2.396,1.76-4.519,4.381-4.519c1.323,0,2.185,0.35,2.983,0.937
		c0.112,0.087,0.2,0.225,0.2,0.399c0,0.274-0.226,0.499-0.487,0.499c-0.112,0-0.212-0.05-0.312-0.125
		c-0.624-0.475-1.323-0.799-2.422-0.799c-1.935,0-3.32,1.635-3.32,3.582v0.025c0,2.084,1.336,3.632,3.458,3.632
		c0.998,0,1.922-0.387,2.521-0.874v-2.171H4.656c-0.237,0-0.438-0.2-0.438-0.437c0-0.25,0.2-0.449,0.438-0.449h2.808
		c0.263,0,0.487,0.225,0.487,0.499v2.659c0,0.237-0.112,0.449-0.337,0.599c-0.799,0.586-1.873,1.061-3.171,1.061
		C1.697,20.493,0,18.496,0,15.999z"/>
	<path fill="#323232" d="M9.262,14.314c0-0.262,0.212-0.487,0.475-0.487c0.274,0,0.486,0.212,0.486,0.487v1.211
		c0.475-1.073,1.411-1.723,2.222-1.723c0.287,0,0.475,0.212,0.475,0.487c0,0.262-0.175,0.449-0.424,0.487
		c-1.249,0.15-2.272,1.086-2.272,2.946v2.197c0,0.262-0.199,0.487-0.474,0.487c-0.275,0-0.487-0.212-0.487-0.487V14.314z"/>
	<path fill="#323232" d="M12.771,18.471v-0.025c0-1.361,1.123-2.084,2.758-2.084c0.824,0,1.411,0.112,1.985,0.274v-0.225
		c0-1.161-0.712-1.76-1.923-1.76c-0.648,0-1.198,0.15-1.672,0.362c-0.062,0.025-0.125,0.037-0.175,0.037
		c-0.225,0-0.425-0.187-0.425-0.412c0-0.2,0.138-0.35,0.262-0.399c0.637-0.274,1.286-0.437,2.11-0.437
		c0.911,0,1.609,0.237,2.084,0.711c0.437,0.437,0.661,1.061,0.661,1.885v3.532c0,0.275-0.199,0.475-0.461,0.475
		c-0.275,0-0.462-0.2-0.462-0.449v-0.587c-0.45,0.587-1.198,1.111-2.335,1.111C13.981,20.48,12.771,19.793,12.771,18.471z
		 M17.525,17.971v-0.624c-0.474-0.137-1.11-0.274-1.896-0.274c-1.211,0-1.885,0.524-1.885,1.335v0.025
		c0,0.812,0.749,1.286,1.622,1.286C16.552,19.719,17.525,18.995,17.525,17.971z"/>
	<path fill="#323232" d="M19.735,14.314c0-0.274,0.212-0.487,0.475-0.487c0.274,0,0.486,0.212,0.486,0.487v0.874
		c0.524-0.774,1.286-1.436,2.472-1.436c1.548,0,3.083,1.223,3.083,3.345v0.025c0,2.109-1.522,3.357-3.083,3.357
		c-1.198,0-1.972-0.649-2.472-1.373v2.809c0,0.274-0.199,0.487-0.474,0.487c-0.275,0-0.487-0.212-0.487-0.487V14.314z
		 M25.265,17.135V17.11c0-1.522-1.048-2.496-2.271-2.496c-1.198,0-2.334,1.011-2.334,2.484v0.025c0,1.498,1.136,2.496,2.334,2.496
		C24.241,19.619,25.265,18.695,25.265,17.135z"/>
	<path fill="#323232" d="M27.274,11.656c0-0.262,0.212-0.487,0.475-0.487c0.274,0,0.486,0.225,0.486,0.487v3.357
		c0.425-0.699,1.099-1.261,2.21-1.261c1.56,0,2.471,1.048,2.471,2.583v3.583c0,0.274-0.212,0.487-0.474,0.487
		c-0.275,0-0.487-0.212-0.487-0.487v-3.345c0-1.198-0.648-1.947-1.785-1.947c-1.11,0-1.935,0.812-1.935,2.022v3.271
		c0,0.274-0.199,0.487-0.474,0.487c-0.275,0-0.487-0.212-0.487-0.487V11.656z"/>
	<path fill="#323232" d="M34.215,11.868c0-0.312,0.25-0.512,0.562-0.512c0.325,0,0.574,0.2,0.574,0.512v0.162
		c0,0.3-0.249,0.512-0.574,0.512c-0.312,0-0.562-0.212-0.562-0.512V11.868z M34.303,14.314c0-0.262,0.212-0.487,0.474-0.487
		c0.275,0,0.487,0.212,0.487,0.487v5.604c0,0.274-0.2,0.487-0.475,0.487s-0.486-0.212-0.486-0.487V14.314z"/>
	<path fill="#323232" d="M36.35,17.147v-0.025c0-1.822,1.423-3.37,3.308-3.37c1.073,0,1.798,0.412,2.372,0.936
		c0.074,0.062,0.149,0.188,0.149,0.337c0,0.262-0.212,0.462-0.462,0.462c-0.125,0-0.237-0.05-0.312-0.112
		c-0.462-0.424-0.986-0.774-1.761-0.774c-1.311,0-2.309,1.111-2.309,2.497v0.025c0,1.398,1.023,2.509,2.371,2.509
		c0.736,0,1.323-0.337,1.798-0.786c0.062-0.062,0.149-0.125,0.274-0.125c0.237,0,0.437,0.212,0.437,0.437
		c0,0.112-0.05,0.225-0.124,0.299c-0.612,0.612-1.349,1.036-2.435,1.036C37.772,20.493,36.35,18.958,36.35,17.147z"/>
	<path fill="#323232" d="M46.285,12.105c0-0.275,0.225-0.5,0.487-0.5h2.546c2.746,0,4.644,1.885,4.644,4.344v0.025
		c0,2.459-1.897,4.369-4.644,4.369h-2.546c-0.263,0-0.487-0.225-0.487-0.5V12.105z M49.318,19.432c2.209,0,3.62-1.498,3.62-3.433
		v-0.025c0-1.935-1.411-3.458-3.62-3.458h-2.047v6.915H49.318z"/>
	<path fill="#323232" d="M57.957,20.493c-1.772,0-3.221-1.361-3.221-3.358V17.11c0-1.859,1.311-3.357,3.096-3.357
		c1.909,0,2.995,1.56,2.995,3.27c0,0.262-0.212,0.45-0.449,0.45H55.71c0.138,1.398,1.123,2.184,2.271,2.184
		c0.799,0,1.386-0.312,1.86-0.749c0.074-0.062,0.162-0.112,0.274-0.112c0.237,0,0.424,0.188,0.424,0.412
		c0,0.112-0.05,0.225-0.149,0.312C59.779,20.105,59.056,20.493,57.957,20.493z M59.866,16.761c-0.1-1.173-0.773-2.197-2.06-2.197
		c-1.123,0-1.972,0.936-2.097,2.197H59.866z"/>
	<path fill="#323232" d="M61.427,19.656c-0.087-0.062-0.175-0.187-0.175-0.35c0-0.225,0.188-0.412,0.425-0.412
		c0.087,0,0.175,0.025,0.237,0.075c0.661,0.449,1.348,0.687,2.047,0.687c0.773,0,1.335-0.399,1.335-1.023v-0.025
		c0-0.649-0.761-0.899-1.609-1.136c-1.012-0.287-2.135-0.637-2.135-1.822v-0.025c0-1.111,0.924-1.847,2.197-1.847
		c0.687,0,1.435,0.212,2.06,0.549c0.124,0.075,0.236,0.212,0.236,0.399c0,0.225-0.187,0.412-0.424,0.412
		c-0.088,0-0.162-0.025-0.212-0.05c-0.55-0.312-1.137-0.499-1.686-0.499c-0.762,0-1.248,0.399-1.248,0.936v0.025
		c0,0.612,0.799,0.849,1.66,1.111c0.998,0.3,2.072,0.687,2.072,1.847v0.025c0,1.224-1.012,1.935-2.297,1.935
		C63.062,20.468,62.126,20.156,61.427,19.656z"/>
	<path fill="#323232" d="M67.244,11.868c0-0.312,0.25-0.512,0.562-0.512c0.325,0,0.574,0.2,0.574,0.512v0.162
		c0,0.3-0.249,0.512-0.574,0.512c-0.312,0-0.562-0.212-0.562-0.512V11.868z M67.332,14.314c0-0.262,0.212-0.487,0.474-0.487
		c0.275,0,0.487,0.212,0.487,0.487v5.604c0,0.274-0.2,0.487-0.475,0.487s-0.486-0.212-0.486-0.487V14.314z"/>
	<path fill="#323232" d="M69.939,21.604c-0.149-0.075-0.249-0.225-0.249-0.399c0-0.212,0.212-0.424,0.437-0.424
		c0.088,0,0.149,0.025,0.212,0.062c0.675,0.449,1.448,0.699,2.284,0.699c1.423,0,2.347-0.786,2.347-2.296v-0.762
		c-0.562,0.749-1.348,1.36-2.533,1.36c-1.548,0-3.033-1.161-3.033-3.021v-0.025c0-1.885,1.498-3.045,3.033-3.045
		c1.21,0,1.997,0.599,2.521,1.298v-0.736c0-0.262,0.2-0.487,0.475-0.487s0.487,0.225,0.487,0.487v4.905
		c0,0.999-0.3,1.76-0.824,2.284c-0.574,0.574-1.436,0.861-2.459,0.861C71.649,22.365,70.751,22.103,69.939,21.604z M74.995,16.811
		v-0.025c0-1.323-1.148-2.185-2.372-2.185c-1.223,0-2.234,0.849-2.234,2.172v0.025c0,1.298,1.036,2.197,2.234,2.197
		C73.847,18.995,74.995,18.108,74.995,16.811z"/>
	<path fill="#323232" d="M77.317,14.314c0-0.262,0.212-0.487,0.475-0.487c0.274,0,0.486,0.212,0.486,0.487v0.699
		c0.425-0.699,1.099-1.261,2.21-1.261c1.56,0,2.471,1.048,2.471,2.583v3.583c0,0.274-0.212,0.487-0.474,0.487
		c-0.275,0-0.487-0.212-0.487-0.487v-3.345c0-1.198-0.648-1.947-1.785-1.947c-1.11,0-1.935,0.812-1.935,2.022v3.271
		c0,0.274-0.199,0.487-0.474,0.487c-0.275,0-0.487-0.212-0.487-0.487V14.314z"/>
	<path fill="#323232" d="M87.079,20.493c-1.772,0-3.221-1.361-3.221-3.358V17.11c0-1.859,1.311-3.357,3.096-3.357
		c1.909,0,2.995,1.56,2.995,3.27c0,0.262-0.212,0.45-0.449,0.45h-4.668c0.138,1.398,1.123,2.184,2.271,2.184
		c0.799,0,1.386-0.312,1.86-0.749c0.074-0.062,0.162-0.112,0.274-0.112c0.237,0,0.424,0.188,0.424,0.412
		c0,0.112-0.05,0.225-0.149,0.312C88.901,20.105,88.177,20.493,87.079,20.493z M88.988,16.761c-0.1-1.173-0.773-2.197-2.06-2.197
		c-1.123,0-1.972,0.936-2.097,2.197H88.988z"/>
	<path fill="#323232" d="M90.898,14.314c0-0.262,0.212-0.487,0.475-0.487c0.274,0,0.486,0.212,0.486,0.487v1.211
		c0.475-1.073,1.411-1.723,2.222-1.723c0.287,0,0.475,0.212,0.475,0.487c0,0.262-0.175,0.449-0.424,0.487
		c-1.249,0.15-2.272,1.086-2.272,2.946v2.197c0,0.262-0.199,0.487-0.474,0.487c-0.275,0-0.487-0.212-0.487-0.487V14.314z"/>
</g>
</svg>