<!-- Generator: Adobe Illustrator 19.1.0, SVG Export Plug-In  -->
<svg version="1.1"
	 xmlns="http://www.w3.org/2000/svg" xmlns:xlink="http://www.w3.org/1999/xlink" xmlns:a="http://ns.adobe.com/AdobeSVGViewerExtensions/3.0/"
	 x="0px" y="0px" width="180.861px" height="181.946px" viewBox="0 0 180.861 181.946"
	 style="enable-background:new 0 0 180.861 181.946;" xml:space="preserve">
<style type="text/css">
	.st0{fill:#FFFFFF;}
</style>
<defs>
</defs>
<path class="st0" d="M180.712,120.005c-0.342,0.785-0.301,1.746-0.531,2.576c-1.965,10.119-10.672,19.798-20.891,22.365
	c-4.465,1.203-9.5,1.59-14.371,0.666l-0.209,0.228c2.496,12.552-2.715,24.51-13.373,31.532c-8.488,5.822-21.916,5.917-30.695,0.66
	c-3.902-2.129-7.527-5.531-10.322-9.294c-0.67,0.574-1.063,1.477-1.732,2.177c-7.971,9.625-20.569,13.469-32.689,9.459
	c-8.67-2.619-16.939-10.969-19.282-19.756c-1.332-4.401-1.594-9.561-0.779-14.366l-0.192-0.201
	c-12.022,2.261-23.836-2.38-30.635-12.476c-6.515-9.096-6.675-23.793-0.484-33.044c2.249-3.397,5.354-6.886,8.927-9.201
	c0.124-0.071,0.052-0.194,0.088-0.275C3.463,84.083-1.41,72.81,0.548,60.619c1.551-10.81,10.679-21.164,21.426-23.906
	c4.066-1.298,8.925-1.169,13.296-0.822l0.163-0.153c-2.274-12.938,3.43-25.28,14.835-31.877c8.586-5.217,21.724-5.166,30.137,0.277
	c3.822,2.168,7.476,5.687,9.921,9.484l0.233,0.01c7.295-10.656,19.768-15.614,32.53-12.657c9.85,2.131,19.027,11.031,21.416,20.819
	c1.172,4.232,1.404,9.234,0.641,13.722c0.145,0.324,0.59,0.178,0.881,0.147c12.324-1.971,23.92,3.341,30.455,13.869
	c5.234,8.046,5.801,20.167,1.479,28.884c-2.176,4.759-6.113,9.18-10.607,12.334c0.584,0.744,1.529,1.172,2.273,1.799
	C178.099,99.465,181.658,109.253,180.712,120.005z M172.439,123.16c3.938-11.781,0.504-24.434-9.014-32.434l0.008-0.195
	c0.938-0.863,1.986-1.799,2.844-2.781c7.652-8.108,9.832-22.09,4.898-32.112c-5.102-11.039-16.342-17.692-28.643-16.949
	l-0.227-0.201c0.426-8.707-2.242-16.353-8.213-22.748c-7.592-8.087-20.074-10.776-30.473-7.045
	c-4.848,1.705-9.338,4.781-12.978,8.977l-0.356-0.013c-2.291-2.725-5.074-5.003-8.026-6.736C74.856,6.346,63.583,5.92,55.73,9.659
	c-10.755,4.889-17.6,15.634-17.383,27.359c-0.064,0.584,0.191,1.253-0.143,1.787c-3.874-0.254-7.734,0.278-11.259,1.364
	c-8.356,2.555-16.361,10.497-18.689,18.824C4.502,70.78,8.107,83.168,17.468,91.046l-0.007,0.234
	c-4.241,3.512-7.096,7.891-8.832,12.658c-3.753,9.721-1.77,21.201,4.894,29.02c5.904,7.098,14.129,10.568,23.344,10.385
	c0.625,0.055,1.416-0.264,1.874,0.176c-0.394,4.465,0.437,8.814,1.821,12.838c2.309,6.732,8.587,13.219,15.108,16.055
	c8.129,4.09,19.165,3.42,26.775-1.145c2.874-1.693,5.542-3.936,7.827-6.586l0.157,0.008c3.45,3.584,7.215,6.438,11.553,8.027
	c7.494,3.219,17.551,2.629,24.504-1.221c10.631-5.863,16.379-16.648,15.428-28.594l0.164-0.192
	c5.162,0.373,9.816-0.476,14.146-2.234C163.583,137.529,170.14,130.513,172.439,123.16z"/>
<g>
	<path class="st0" d="M160.091,55.491l-7.766,0.084c-0.396,0.104-0.453,0.493-0.537,0.799c-0.258,0.497-0.506,1.076-0.953,1.409
		c-0.723-1.622-2.348-2.378-3.945-2.627c-7.758,0.006-11.852,8.314-17.188,12.958l-0.156-0.004c0.065-0.739,0.359-1.429,0.545-2.165
		c0.889-3.042,1.754-7.493-1.184-9.772c-2.649-1.648-5.715-0.234-8.113,0.967c-0.211-0.474,0.506-0.954,0.17-1.357l-7.373,0.02
		l-0.318,0.223l-7.828,17.409l-0.809,2.036c-0.504,0.917-1.512,1.543-2.463,1.823c-0.787,0.284-1.574,0.255-2.264-0.237
		c-0.639-0.68-0.533-1.537-0.348-2.381c2.697-6.259,5.578-12.466,8.232-18.76l-0.078-0.081c-2.705-0.094-5.443-0.069-7.998-0.003
		l-0.355,0.263c-2.867,6.715-6.152,13.219-8.743,20.059l-0.61,0.605c-0.794,0.323-1.945,0.593-2.661-0.091
		c-0.385-0.402-0.44-1.028-0.298-1.57c2.611-6.331,5.343-12.584,8.224-18.794l0.014-0.429c-2.627,0.065-5.364-0.183-7.876,0.041
		l-0.284,0.184c-2.845,6.209-5.571,12.424-8.302,18.678c-0.511,1.191-1.831,1.962-3.017,2.273c-0.71,0.091-1.451-0.015-1.902-0.572
		c-0.67-0.918-0.233-2.149,0.072-3.153c1.76-4.337,3.831-8.587,5.556-12.969c0.37-1.66,0.082-3.541-1.37-4.526
		c-2.384-1.328-5.24-0.296-7.359,0.8c-0.638,0.37-1.32,0.772-1.994,0.944c1.756-4.144,3.549-8.249,5.415-12.353
		c0.131-0.382,0.539-0.875,0.277-1.196c-2.591,0.028-5.209-0.102-7.8-0.033l-0.397,0.257l-2.768,6.174
		c-0.213,0.577-0.621,1.03-0.681,1.649c-2.846,6.211-5.579,12.463-8.347,18.676c-3.91,4.266-9.133,7.979-15.051,5.711
		c-2.96-1.62-3.904-4.843-3.758-7.954c0.806-7.176,3.737-13.578,9.236-18.489c1.934-1.491,4.492-2.963,6.877-1.595
		c0.724,0.534,1.086,1.361,0.859,2.252c-0.185,2.015-2.123,3.625-3.881,4.458c-0.355,0.145-0.824,0.129-1.15,0.507
		c-0.17,0.308-0.103,0.697,0.085,0.977c1.377,1.953,3.981,2.551,6.238,1.965c2.81-0.76,4.826-3.532,5.429-6.197
		c0.447-2.555-0.334-4.956-2.235-6.658c-3.03-2.907-8.282-2.893-12.128-1.742c-4.28,1.452-8.292,4.075-11.519,7.78
		c-3.942,5.046-6.611,10.675-6.727,17.367c-0.071,5.412,2.676,10.879,7.768,13.115c5.411,2.137,11.507,0.475,15.786-3.115
		l0.196,0.007c-0.104,0.66-0.359,1.274-0.61,1.845c0.059,0.512-0.579,0.759-0.44,1.236c1.912,0.221,4.076,0.059,6.074,0.088
		c0.742,0.031,1.565,0.057,2.275-0.117c2.764-6.094,5.337-12.313,8.14-18.407c0.575-0.794,1.562-1.037,2.501-1.122
		c0.434,0.055,0.777,0.263,1.079,0.624c0.302,0.319,0.202,0.94,0.067,1.364c-1.625,3.915-3.598,7.663-4.996,11.706
		c-0.468,2.159,0.118,4.402,1.998,5.632c2.722,1.729,6.398,0.729,8.921-0.744c0.798-0.32,1.408-1.078,2.242-1.362
		c0.376,0.521,0.507,1.188,0.919,1.706c3.333,3.187,8.159,0.863,11.431-0.695c1.078,1.554,2.618,2.384,4.414,2.562
		c2.738,0.213,5.051-1.107,7.338-2.399c-0.766,2.704-2.258,5.183-3.258,7.835c-0.894,1.994-3.08,3.984-5.465,3.824
		c-0.354,0.022-0.525,0.447-0.381,0.768c0.836,0.844,1.957,1.312,3.121,1.543c4.088,0.725,7.805-1.322,10.076-4.637
		c1.988-3.045,2.98-6.594,4.812-9.687c1.121,1.599,2.817,2.398,4.777,2.384c6.436-0.285,10.58-6.761,15.158-10.847l0.193,0.008
		c-0.393,2.244-1.336,4.506-0.756,6.9c0.186,1.61,1.621,3.06,3.047,3.729c3.484,1.33,6.904-0.154,9.602-2.161l0.227,0.201
		c0.432,1.182,1.533,2.196,2.738,2.469c3.072,0.533,5.893-0.496,7.936-2.763c0.078-0.195,0.205-0.501-0.016-0.663
		c-0.709-0.026-1.426,0.34-2.037-0.034c-0.623-0.254-0.949-0.848-1.049-1.475c0.354-2.208,1.361-4.079,2.248-6.035l7.119-16.107
		C159.992,56.034,160.472,55.737,160.091,55.491z M121.187,67.277c-1.328,3.106-2.648,6.256-4.672,9.025
		c-0.731,0.834-1.773,1.418-2.85,1.033c-0.428-0.206-0.648-0.681-0.832-1.077l0.057-0.587l5.789-12.959
		c0.775-0.715,1.775-1.302,2.855-0.915c0.389,0.053,0.736,0.379,0.836,0.771C122.663,64.445,121.667,65.774,121.187,67.277z
		 M148.445,63.267l-3.918,8.939c-0.631,1.185-1.07,2.494-1.547,3.724c-0.547,1.113-1.738,1.653-2.916,1.65
		c-0.428-0.131-0.895-0.263-1.107-0.739c-0.533-1.575,0.148-3.147,0.666-4.531c1.539-3.609,2.691-7.387,5.543-10.364
		c0.525-0.447,1.121-0.703,1.859-0.558c0.547,0.057,1.08,0.427,1.344,0.904C148.55,62.57,148.617,62.962,148.445,63.267z"/>
	<path class="st0" d="M139.169,103.011c-2.547,2.291-4.648,5.021-7.303,7.146l-0.084-0.035c0.58-4.148,2.432-9.926-1.869-12.566
		c-3.043-1.465-6.23,0.018-8.719,1.764l-0.08-0.119l0.518-1.387l-0.07-0.08c-2.775-0.285-5.416,0.088-8.154,0.033l-0.242,0.188
		c-3.492,7.859-7.018,15.723-10.475,23.586c-0.574,0.838-1.525,1.037-2.391,1.32c-0.719,0.205-1.738,0.209-2.223-0.469
		c-0.488-0.639-0.219-1.604,0-2.256l6.475-14.65l3.27-7.285l0.021-0.393c-2.896-0.137-5.805,0.037-8.664,0.014l-0.399,0.221
		c-3.207,7.602-6.762,14.953-9.849,22.557c-0.413,0.646-1.1,1.17-1.811,1.262c-0.823,0.166-1.597-0.135-2.008-0.81
		c-0.292-0.592-0.149-1.287-0.049-1.867l5.84-13.469l3.288-7.4l0.006-0.426c-2.852-0.1-5.841,0.025-8.666,0.049l-0.276,0.188
		c-3.279,7.363-6.595,14.766-9.792,22.168c-0.067,0.736-0.787,1.176-1.355,1.627c-1.036,0.508-2.363,1.553-3.506,0.545
		c-0.837-0.652-0.482-1.811-0.262-2.619l4.687-10.586c0.856-2.154,1.991-4.178,2.58-6.455c0.373-1.701,0.159-3.457-1.214-4.557
		c-3.285-2.412-7.196-0.285-10.084,1.52c-0.081,0.078-0.277,0.111-0.394,0.029c1.419-3.533,3.027-6.945,4.524-10.396
		c0.421-0.963,1.008-1.992,1.163-2.998c-2.973-0.139-5.989-0.201-8.86,0.045c-3.666,8.324-7.449,16.607-11.109,24.93
		c-0.853,1.953-1.668,3.912-2.672,5.785c-3.169,3.123-6.752,5.768-10.969,6.436c-1.451,0.066-3.136,0.053-4.406-0.541
		c-2.747-0.986-4.329-3.998-4.664-6.699c-0.244-4.174,0.599-8.08,2.168-11.529c2.449-4.975,6.508-11.107,12.398-12.576
		c1.267-0.234,2.668-0.066,3.41,1.086c0.522,0.803,0.639,1.932,0.329,2.897c-0.815,2.037-3.054,3.32-5.028,3.758
		c-0.208,0.227-0.255,0.535-0.188,0.811c1.193,1.797,3.283,2.527,5.482,2.33c2.825-0.059,5.671-1.867,6.938-4.471
		c1.149-2.527,0.957-6.002-0.692-8.197c-2.271-3.271-6.479-4.002-10.454-3.633c-10.662,1.23-20.403,10.746-23.149,20.854
		c-1.675,7.455-1.122,16.121,5.539,20.707c6.856,3.428,14.594,0.582,20.013-4.021l0.114,0.08c-0.291,1.51-1.119,2.723-1.637,4.109
		l0.114,0.121c2.896,0.102,5.84-0.029,8.743-0.047c3.474-7.355,6.6-14.883,9.96-22.324c0.373-0.609,1.126-0.814,1.757-0.988
		c0.666-0.055,1.618-0.252,2.061,0.422c0.376,0.521,0.195,1.139,0.096,1.717c-0.859,2.074-1.793,4.104-2.647,6.178
		c-1.547,3.844-4.216,7.404-3.712,11.982c0.291,1.605,1.759,3.373,3.477,3.662c4.045,0.803,7.491-1.297,10.486-4.037h0.155
		c0.509,1.148,0.896,2.486,2.123,3.228c2.069,1.281,5.091,1.149,7.205,0.09c1.313-0.531,2.519-1.43,3.761-2.244
		c0.596,1,0.986,2.219,2.093,2.84c3.131,1.391,6.663,0.07,9.348-1.508c0.232-0.072,0.525-0.414,0.75-0.211
		c-0.547,2.049-1.779,3.754-2.396,5.758c-0.166,0.309-0.498,0.645-0.924,0.514c-4.393-0.773-9.035-1.555-13.562-1.051
		c-5.062,0.289-9.877,1.178-13.936,4.037c-3.499,2.568-5.358,6.316-4.68,10.59c0.542,3.361,3.765,6.508,6.983,7.479
		c9.093,3.35,19.164,1.166,25.805-6.08c0.773-0.713,1.236-1.635,1.967-2.309c2.227,0.191,4.279,0.768,6.465,1.08
		c8.965,1.477,19.027,1.623,26.055-4.166c2.305-1.91,4.654-4.125,5.641-6.777c-0.021-0.354-0.371-0.484-0.645-0.412
		c-1.848,1.143-3.939,1.658-6,2.172c-8.346,1.07-17.289,0.26-24.965-2.227l-0.219-0.234c1.332-3.389,2.816-6.68,4.428-9.938
		l0.148,0.008c0.475,0.949,1.35,1.873,2.307,2.447c4.002,2.086,8.195-0.141,11.346-2.795c6.92-6.346,12.435-13.551,18.863-20.227
		c0.4-0.217,0.762-0.635,1.271-0.576c0.271,0.125,0.496,0.441,0.328,0.752c-1.328,3.108-2.621,6.371-3.055,9.859
		c-0.715,2.469-0.545,5.357-1.758,7.613c-0.66,1.066-1.746,1.846-3.074,1.684c-0.779-0.104-1.434-0.52-1.758-1.229
		c-0.398-1.027,0.027-2.061,0.496-2.902c0.291-0.535,1.008-0.783,1.141-1.402c-0.723-0.688-2.135-0.621-3.008-0.301
		c-1.824,0.76-3.258,2.537-3.334,4.602c-0.145,1.75,0.744,3.221,2.121,4.355c3.215,2.057,8.119,2.068,11.432,0.16
		c4.797-2.559,7.084-7.348,7.035-12.607c0.098-5.096-2.99-12.02,1.965-15.775c0.49-0.494,1.504-0.459,1.463-1.357
		c-1.187-0.938-2.783-1.342-4.424-1.242C145.443,97.429,142.171,100.117,139.169,103.011z M88.087,147.939
		c-3.521,2.996-7.998,4.438-12.653,3.188c-1.597-0.439-3.215-1.242-4.059-2.746c-0.515-0.988-0.351-2.305,0.188-3.186
		c1.799-2.16,4.587-2.18,7.178-2.363c4.114-0.012,8.167,0.709,11.936,1.695C90.349,145.918,89.1,146.927,88.087,147.939z
		 M122.534,107.97c-0.887,2.855-2.043,5.658-3.314,8.336c-1.17,2.062-1.924,4.645-4.242,5.85c-0.746,0.131-1.613,0.182-2.137-0.463
		c-0.379-0.402-0.641-0.877-0.42-1.453l5.451-12.389c0.553-1.113,0.873-2.502,2.221-3.002c0.646-0.365,1.496-0.182,2.072,0.191
		C123.003,105.808,122.648,106.964,122.534,107.97z"/>
</g>
<g>
	<path class="st0" d="M103.421,149.935c-2.752,0-4.98,2.225-4.98,4.961c0.006,2.732,2.242,4.947,4.996,4.943
		c2.754-0.01,4.98-2.23,4.975-4.965C108.411,152.138,106.177,149.929,103.421,149.935z M103.429,159.082
		c-2.326,0-4.221-1.871-4.229-4.186c0-2.318,1.887-4.201,4.221-4.209c2.336,0,4.223,1.875,4.231,4.188
		C107.652,157.197,105.765,159.074,103.429,159.082z"/>
	<path class="st0" d="M105.195,154.793c0.598,0.838,0.598,1.93,0.641,2.904H104.9c-0.158-0.076-0.307-0.279-0.299-0.475
		c-0.135-0.625,0.057-1.475-0.639-1.809c-0.475-0.057-1.207-0.24-1.426,0.299l-0.021,1.865c-0.248,0.307-0.795,0.133-1.143,0.078
		l-0.143-0.35l0.064-5.256l0.084-0.156c1.439,0.127,3.584-0.533,4.395,0.973C105.984,153.576,105.765,154.341,105.195,154.793z
		 M104.538,153.404c-0.293-0.631-1.117-0.545-1.746-0.523c-0.4,0.299-0.102,0.773-0.201,1.234c0.18,0.475,0.938,0.227,1.33,0.285
		C104.353,154.218,104.523,153.834,104.538,153.404z"/>
</g>
</svg>