<!-- Generator: Adobe Illustrator 19.2.0, SVG Export Plug-In  -->
<svg version="1.1"
	 xmlns="http://www.w3.org/2000/svg" xmlns:xlink="http://www.w3.org/1999/xlink" xmlns:a="http://ns.adobe.com/AdobeSVGViewerExtensions/3.0/"
	 x="0px" y="0px" width="373.949px" height="113.048px" viewBox="0 0 373.949 113.048"
	 style="enable-background:new 0 0 373.949 113.048;" xml:space="preserve">
<style type="text/css">
	.st0{fill-rule:evenodd;clip-rule:evenodd;fill:#FFFFFF;stroke:#FFFFFF;stroke-miterlimit:10;}
	.st1{fill:#FFFFFF;stroke:#FFFFFF;stroke-miterlimit:10;}
</style>
<defs>
</defs>
<g>
	<g>
		<path class="st0" d="M80.714,12.005c0.651-0.26,0.974-0.486,0.974-0.683c0-0.256-0.129-0.385-0.387-0.385
			c-0.46,0-1.756,0.557-3.894,1.678c-2.144,1.119-3.803,2.115-4.967,2.992c-2.896,2.133-5.885,5.037-8.967,8.668
			c-1.767,1.248-3.467,1.906-5.092,1.906c-2.66,0-3.989-1.228-3.989-3.693c0-0.907,0.357-2.092,1.073-3.552
			c2.137-4.245,3.208-7.408,3.208-9.484c0-5.971-3.385-8.953-10.168-8.953c-7.748,0-14.884,2.964-21.407,8.877
			c-6.515,5.921-9.777,12.381-9.777,19.384c0,3.634,1.115,6.587,3.34,8.854c2.22,2.271,5.097,3.404,8.626,3.404
			c4.998,0,9.635-1.931,13.917-5.8c2.073-1.855,3.113-3.105,3.113-3.758c0-0.291-0.131-0.439-0.391-0.439
			c-0.059,0-0.16,0.083-0.291,0.244c-1.811,2.638-4.236,4.79-7.27,6.462c-3.035,1.678-6.026,2.511-8.977,2.511
			c-3.309,0-5.998-1.077-8.071-3.232c-2.082-2.157-3.118-4.937-3.118-8.34c0-6.617,3.192-12.836,9.559-18.658
			c6.375-5.819,13.164-8.731,20.359-8.731c2.528,0,4.586,0.5,6.178,1.506c1.588,1.006,2.383,2.335,2.383,3.992
			c0,1.297-0.829,3.582-2.48,6.858c-1.395,2.757-2.097,4.976-2.097,6.662c0,1.914,0.619,3.527,1.855,4.842
			c1.233,1.314,2.772,1.971,4.62,1.971c1.041,0,2.107-0.259,3.2-0.755c-2.811,3.524-5.695,7.621-8.66,12.365
			c-5.318,8.501-8.948,14.042-10.879,16.622c-1.932,2.581-4.389,5.182-7.371,7.812c-5.911,5.19-12.398,7.788-19.475,7.788
			c-4.087,0-7.393-0.847-9.922-2.533c-2.539-1.683-3.803-3.877-3.803-6.565c0-1.786,0.262-2.679,0.789-2.679
			c0.258,0,0.384,0.325,0.384,0.976c0,1.751,0.804,2.624,2.405,2.624c0.978,0,1.809-0.372,2.498-1.118
			c0.684-0.744,1.024-1.634,1.024-2.672c0-2.144-1.047-3.211-3.155-3.211c-1.463,0-2.683,0.575-3.655,1.724
			C0.987,58.639,0.5,60.058,0.5,61.745c0,3.017,1.414,5.466,4.232,7.349c2.826,1.877,6.503,2.82,11.043,2.82
			c6.547,0,13.557-2.256,21.018-6.765c4.475-2.727,8.063-5.562,10.78-8.516c2.7-2.954,5.479-7.125,8.333-12.507
			c6.098-11.516,10.71-19.31,13.84-23.382C72.877,16.669,76.534,13.757,80.714,12.005z"/>
		<path class="st0" d="M103.165,37.35c0.958-0.988,1.438-2.051,1.438-3.186c0-1.397-0.697-2.093-2.098-2.093
			c-1.099,0-2.153,0.499-3.16,1.484c-1.001,0.988-1.507,2.02-1.507,3.089c0,1.458,0.733,2.188,2.187,2.188
			C101.167,38.832,102.209,38.338,103.165,37.35z"/>
		<path class="st0" d="M186.639,57.84c1.949-2.113,2.92-3.303,2.92-3.561c0-0.197-0.1-0.291-0.293-0.291
			c-0.163,0-0.57,0.354-1.213,1.07c-2.989,4.199-5.756,6.293-8.288,6.293c-2.046,0-3.074-1.358-3.074-4.083
			c0-0.973,0.232-2.204,0.68-3.698l0.587-0.482c1.422-0.88,2.496-1.542,3.212-2c4.507-2.885,6.758-5.105,6.758-6.66
			c0-0.881-0.503-1.316-1.506-1.316c-1.457,0-3.106,0.976-4.936,2.918c-1.837,1.946-3.366,4.364-4.593,7.249
			c-1.529,1.234-3.131,2.822-4.82,4.766c2.657-4.119,3.988-7.423,3.988-9.922c0-3.343-1.301-5.011-3.901-5.011
			c-1.784,0-5.178,3.334-10.178,9.997l-0.88,1.215c-0.04,0.04-0.052,0.11-0.081,0.161c-0.092,0.104-0.168,0.183-0.282,0.324
			c-7.859,9.924-13.788,15.013-18.919,15.013c-3.025,0-4.526-1.396-4.526-4.185c0-2.24,1.103-5.025,3.31-8.369
			c7.129-1.427,12.22-2.96,15.268-4.597c3.049-1.636,4.58-3.625,4.58-5.961c0-1-0.414-1.853-1.247-2.549
			c-0.833-0.702-1.822-1.049-2.989-1.049c-2.694,0-6.176,1.167-10.456,3.503c-5.78,3.153-9.468,6.668-11.144,10.523
			c-6.24,8.508-10.604,12.779-13.085,12.779c-1.235,0-1.848-0.73-1.848-2.187c0-1.304,1.126-3.947,3.38-7.935
			c2.253-3.988,10.187-17.314,23.809-39.984c-1.034,0.389-2.17,0.583-3.404,0.583c-0.745,0-1.602-0.129-2.578-0.39
			c-4.023,7.17-8.969,15.633-14.834,25.397c-2.124,3.528-3.833,6.401-5.18,8.697c-0.107,0.08-0.21,0.2-0.297,0.374
			c-7.275,10.294-12.272,15.444-15.004,15.444c-1.228,0-1.852-0.73-1.852-2.187c0-1.304,1.129-3.947,3.38-7.935
			c2.258-3.988,10.194-17.314,23.813-39.984c-0.947,0.353-1.981,0.525-3.086,0.555c0.637-1.492,0.998-3.067,0.998-4.749
			c0-2.787-1.061-5.096-3.187-6.927c-2.127-1.827-4.811-2.741-8.049-2.741c-4.74,0-9.442,1.296-14.111,3.886
			c-4.673,2.591-9.972,6.868-15.906,12.832c-5.092,5.151-8.953,8.637-11.578,10.449c-2.718,1.88-5.738,3.109-9.045,3.696
			c-1.591-0.587-3.048-0.876-4.378-0.876c-1.336,0-1.997,0.229-1.997,0.68c0,0.618,1.196,0.924,3.597,0.924
			c0.783,0,1.774-0.082,2.973-0.241c1.263,1.2,1.9,2.71,1.9,4.526c0,1.494-0.46,3.586-1.366,6.277
			c-1.879,5.354-2.824,9.237-2.824,11.638c0,3.696,1.152,6.902,3.454,9.613c2.303,2.709,5.042,4.062,8.222,4.062
			c1.327,0,2.79-0.349,4.379-1.043c1.587-0.699,2.383-1.359,2.383-1.972c0-0.193-0.098-0.293-0.294-0.293
			c-0.126,0-0.392,0.18-0.775,0.537c-1.593,1.232-3.392,1.848-5.398,1.848c-2.303,0-4.179-0.739-5.621-2.212
			c-1.446-1.479-2.16-3.384-2.16-5.724c0-1.265,0.37-3.294,1.117-6.083c1.581-6.134,2.379-10.192,2.379-12.17
			c0-4.284-1.491-7.285-4.473-9.005c7.946-0.749,16.342-5.912,25.196-15.505c5.089-5.511,9.42-9.357,12.992-11.545
			c3.559-2.188,7.263-3.282,11.091-3.282c2.977,0,5.388,0.811,7.222,2.431c1.831,1.618,2.745,3.723,2.745,6.316
			c0,1.564-0.348,3.086-1.036,4.577c-0.422-0.067-0.869-0.16-1.347-0.289c-1.128,2.014-2.339,4.139-3.614,6.357
			c-2.201,1.763-4.775,3.059-7.717,3.885c-0.291,0.065-0.441,0.226-0.441,0.482c0,0.199,0.15,0.294,0.441,0.294
			c0.612,0,1.975-0.481,4.086-1.454c0.913-0.44,1.769-0.895,2.571-1.369c-3.008,5.201-6.394,10.929-10.164,17.202
			c-2.092,3.48-3.784,6.325-5.124,8.605c-0.144,0.023-0.291,0.167-0.446,0.467c-7.274,10.294-12.35,15.444-15.239,15.444
			c-1.53,0-2.291-0.73-2.291-2.187c0-1.434,0.792-3.459,2.382-6.086l11.044-18.142c-1.59,0.228-2.822,0.338-3.702,0.338
			c-0.582,0-1.377-0.11-2.384-0.338L86.75,56.396c-2.232,3.823-3.359,6.68-3.359,8.559c0,1.623,0.511,2.976,1.535,4.063
			c1.022,1.088,2.299,1.631,3.822,1.631c3.201,0,7.836-4.206,13.896-12.605c-0.451,0.802-0.781,1.414-0.986,1.826
			c-0.826,1.676-1.236,3.398-1.236,5.186c0,1.621,0.444,2.957,1.337,4.011c0.888,1.053,2.036,1.583,3.432,1.583
			c2.848,0,7.232-4.054,13.127-12.096c-0.3,0.54-0.548,1.004-0.704,1.316c-0.825,1.676-1.24,3.398-1.24,5.186
			c0,1.621,0.446,2.957,1.337,4.011c0.892,1.053,2.041,1.583,3.439,1.583c2.797,0,7.093-3.939,12.852-11.73
			c-0.272,1.019-0.456,2.052-0.456,3.118c0,2.467,0.773,4.522,2.314,6.151c1.541,1.642,3.448,2.461,5.714,2.461
			c4.811,0,10.571-4.148,17.289-12.439l2.094-2.619c0.45-0.581,0.726-0.956,0.829-1.146c0.033-0.046,0.063-0.065,0.1-0.119
			c4.774-6.988,8.071-10.482,9.892-10.482c0.745,0,1.121,0.456,1.121,1.362c0,1.557-1.996,5.577-5.982,12.063l-7.974,12.943
			c1.841-0.131,2.831-0.197,2.963-0.197c0.292,0,1.297,0.065,3.017,0.197c3.145-5.381,5.353-8.953,6.637-10.704
			c1.282-1.752,2.946-3.517,4.989-5.303c-0.392,1.394-0.583,2.548-0.583,3.455c0,2.854,1.232,4.284,3.701,4.284
			C181.847,61.943,184.169,60.573,186.639,57.84z M149.232,47.319c2.809-2.383,5.068-3.57,6.784-3.57
			c1.14,0,1.703,0.517,1.703,1.553c0,1.948-1.617,4.016-4.857,6.203c-3.242,2.188-7.205,3.885-11.874,5.084
			C143.678,52.795,146.423,49.704,149.232,47.319z"/>
		<path class="st0" d="M253.37,71.496c-0.158,0.068-0.291,0.131-0.389,0.197c-2.398,2.188-5.089,3.286-8.071,3.286
			c-2.011,0-4.426-0.361-7.244-1.071c-3.014-0.748-9.823-2.712-20.425-5.884c9.147-2.725,16.784-6.523,22.921-11.387
			c5.285-4.182,9.444-9.009,12.483-14.472c3.024-5.463,4.548-10.871,4.548-16.221c0-6.163-1.772-11.158-5.334-14.984
			c-3.549-3.83-8.174-5.742-13.887-5.742c-9.533,0-19.001,3.392-28.409,10.168c-11.216,8.108-16.827,17.61-16.827,28.504
			c0,5.222,1.508,9.367,4.525,12.43c3.01,3.066,7.112,4.599,12.302,4.599c8.248,0,15.717-3.052,22.428-9.149
			c6.714-6.093,10.075-12.874,10.075-20.334c0-3.695-0.901-6.73-2.703-9.095c-1.803-2.366-4.094-3.554-6.885-3.554
			c-1.948,0-3.607,0.61-4.983,1.827c-1.385,1.215-2.07,2.7-2.07,4.451c0,2.207,1.021,3.306,3.063,3.306
			c1.007,0,1.879-0.387,2.605-1.167c0.73-0.778,1.093-1.684,1.093-2.723c0-1.752-0.793-2.627-2.381-2.627
			c-0.553,0-0.992,0.113-1.316,0.341c-0.486,0.257-0.745,0.389-0.774,0.389c-0.167,0-0.263-0.065-0.296-0.196
			c0-0.546,0.605-1.142,1.804-1.774c1.195-0.631,2.316-0.948,3.355-0.948c2.111,0,3.837,0.851,5.182,2.553
			c1.343,1.705,2.017,3.851,2.017,6.449c0,6.258-2.726,12.727-8.172,19.404c-6.518,7.981-13.927,11.968-22.23,11.968
			c-4.019,0-7.186-1.144-9.484-3.427c-2.307-2.292-3.454-5.428-3.454-9.411c0-9.474,4.52-18.666,13.569-27.585
			c9.046-8.918,18.341-13.379,27.873-13.379c4.636,0,8.252,1.394,10.85,4.185c2.594,2.792,3.886,6.682,3.886,11.675
			c0,9.566-3.489,18.712-10.482,27.436c-6.992,8.726-15.691,14.739-26.109,18.048c-9.598-2.984-17.487-4.478-23.679-4.478
			c-7.151,0-10.734,1.261-10.734,3.795c0,2.982,4.635,4.474,13.898,4.474c5.025,0,9.675-0.487,13.956-1.456l1.211,0.483
			c6.811,2.823,12.326,4.67,16.536,5.543c3.111,0.615,7.119,0.929,12.013,0.929c5.215,0,9.235-0.89,12.061-2.664
			c1.585-1.034,2.383-1.795,2.383-2.273C253.667,71.742,253.569,71.595,253.37,71.496z M195.603,70.5
			c-8.743,0-13.121-1.199-13.121-3.6c0-1.527,1.894-2.285,5.691-2.285c3.466,0,10.085,1.588,19.875,4.759
			C204.841,70.125,200.694,70.5,195.603,70.5z"/>
		<path class="st0" d="M373.155,53.453c-0.169,0-0.326,0.16-0.486,0.488c-7.082,10.293-12.064,15.442-14.96,15.442
			c-1.327,0-1.991-0.663-1.991-1.998c0-1.261,1.52-4.18,4.57-8.755c2.988-4.473,4.476-7.795,4.476-9.971
			c0-1.719-0.484-3.16-1.46-4.328c-0.971-1.168-2.171-1.75-3.602-1.75c-1.752,0-3.654,0.972-5.715,2.918
			c-2.058,1.944-5.004,5.561-8.826,10.847c2.431-3.698,3.645-6.584,3.645-8.659c0-1.396-0.389-2.593-1.169-3.598
			c-0.782-1.006-1.727-1.508-2.823-1.508c-1.722,0-5.073,3.332-10.039,9.992l-0.932,1.218c-0.006,0.007-0.009,0.024-0.016,0.034
			c-0.103,0.123-0.204,0.253-0.361,0.45c-7.795,9.792-13.869,15.011-18.997,15.011c-3.013,0-4.532-1.394-4.532-4.184
			c0-2.239,1.105-5.027,3.307-8.368c7.136-1.425,12.229-2.96,15.279-4.598c3.045-1.634,4.571-3.622,4.571-5.959
			c0-1.002-0.411-1.851-1.244-2.553c-0.831-0.697-1.819-1.043-2.986-1.043c-2.7,0-6.176,1.166-10.456,3.506
			c-5.372,2.926-8.932,6.163-10.758,9.698c-6.933,8.995-12.84,13.501-17.702,13.501c-3.015,0-4.524-1.394-4.524-4.184
			c0-2.239,1.097-5.027,3.308-8.368c7.134-1.425,12.223-2.96,15.276-4.598c3.046-1.634,4.571-3.622,4.571-5.959
			c0-1.002-0.413-1.851-1.239-2.553c-0.83-0.697-1.825-1.043-2.996-1.043c-2.693,0-6.177,1.166-10.455,3.506
			c-5.573,3.037-9.188,6.41-10.944,10.102l-0.664,0.918c-5.85,8.18-10.065,12.277-12.667,12.277c-1.328,0-1.998-0.7-1.998-2.092
			c0-1.719,1.857-5.595,5.546-11.628l7.785-12.697c-1.492,0.232-2.644,0.342-3.453,0.342c-0.68,0-1.524-0.109-2.53-0.342l-4.77,8.08
			c-7.231,12.221-12.483,18.337-15.76,18.337c-1.232,0-1.849-0.729-1.849-2.189c0-1.491,0.585-3.209,1.75-5.158l11.576-19.07
			c-1.583,0.232-2.689,0.342-3.301,0.342c-0.619,0-1.478-0.109-2.585-0.342l-8.853,14.89c-1.456,2.432-2.187,4.586-2.187,6.466
			c0,1.627,0.488,2.998,1.463,4.11c0.97,1.118,2.165,1.68,3.596,1.68c1.364,0,2.807-0.728,4.333-2.19
			c1.394-1.296,3.581-3.857,6.561-7.684l0.972-1.316c-1.262,2.274-1.892,4.042-1.892,5.309c0,1.62,0.499,3.005,1.485,4.159
			c0.994,1.148,2.2,1.724,3.63,1.724c2.271,0,5.356-2.303,9.252-6.919c1.44-1.697,2.63-3.142,3.63-4.389
			c-0.202,0.883-0.338,1.777-0.338,2.696c0,2.467,0.769,4.519,2.31,6.154c1.538,1.639,3.449,2.457,5.724,2.457
			c4.748,0,10.437-4.068,17.058-12.175c-0.355,1.159-0.575,2.344-0.575,3.563c0,2.467,0.77,4.519,2.307,6.154
			c1.546,1.639,3.458,2.457,5.728,2.457c4.805,0,10.561-4.145,17.281-12.435l2.094-2.618c0.233-0.297,0.407-0.529,0.548-0.722
			c0.136-0.109,0.286-0.271,0.478-0.545c4.874-6.987,8.142-10.483,9.8-10.483c0.812,0,1.215,0.484,1.215,1.46
			c0,1.718-2.155,6.017-6.466,12.894l-7.596,12.014c1.011-0.133,2.079-0.194,3.212-0.194c0.328,0,1.285,0.061,2.869,0.194
			c9.858-17.58,17.16-26.369,21.893-26.369c1.397,0,2.096,0.666,2.096,1.995c0,1.074-1.317,3.552-3.942,7.442
			c-2.527,3.698-4.096,6.168-4.696,7.42c-0.596,1.249-0.898,2.6-0.898,4.064c0,1.648,0.5,3.044,1.482,4.18
			c0.995,1.134,2.221,1.702,3.688,1.702c2.197,0,5.236-2.303,9.102-6.919c4.702-5.616,7.064-8.767,7.064-9.451
			C373.449,53.548,373.345,53.453,373.155,53.453z M321.877,46.786c2.809-2.381,5.072-3.572,6.793-3.572
			c1.136,0,1.702,0.519,1.702,1.554c0,1.95-1.628,4.014-4.863,6.203c-3.25,2.188-7.204,3.884-11.875,5.086
			C316.33,52.262,319.077,49.172,321.877,46.786z M297.358,46.786c2.809-2.381,5.067-3.572,6.789-3.572
			c1.141,0,1.705,0.519,1.705,1.554c0,1.95-1.619,4.014-4.864,6.203c-3.246,2.188-7.201,3.884-11.87,5.086
			C291.809,52.262,294.558,49.172,297.358,46.786z"/>
	</g>
	<g>
		<path class="st1" d="M96.259,112.548h-7.413c-1.126-1.715-2.128-3.15-3.027-4.3c-0.903-1.158-2.04-2.601-3.444-4.342H81.69v5.881
			c0,0.319,0.058,0.588,0.169,0.804c0.118,0.222,0.346,0.408,0.691,0.56c0.157,0.068,0.392,0.137,0.703,0.208
			c0.312,0.072,0.625,0.126,0.937,0.16v1.029h-9.955v-1.029c0.236-0.02,0.574-0.045,1.012-0.077c0.433-0.036,0.744-0.091,0.91-0.161
			c0.32-0.121,0.544-0.296,0.669-0.514c0.12-0.221,0.183-0.5,0.183-0.83V96.662c0-0.307-0.055-0.566-0.167-0.78
			c-0.098-0.21-0.327-0.396-0.685-0.568c-0.271-0.124-0.598-0.222-0.981-0.299c-0.387-0.081-0.705-0.134-0.941-0.161v-1.029h10.278
			v1.029c-0.27,0.027-0.601,0.065-0.979,0.111c-0.386,0.05-0.716,0.118-0.984,0.205c-0.346,0.11-0.574,0.299-0.691,0.547
			c-0.11,0.24-0.169,0.515-0.169,0.812v6.307h0.55c0.694-0.624,1.49-1.375,2.41-2.252c0.911-0.879,1.623-1.604,2.118-2.165
			c0.705-0.783,1.221-1.406,1.554-1.867c0.332-0.455,0.497-0.845,0.497-1.183c0-0.149-0.156-0.265-0.477-0.343
			c-0.32-0.077-0.795-0.137-1.451-0.173v-1.029h8.143v1.029c-0.991,0.106-1.82,0.283-2.485,0.537
			c-0.665,0.249-1.328,0.671-1.986,1.26c-0.94,0.842-1.716,1.572-2.327,2.19c-0.607,0.622-1.392,1.411-2.35,2.383
			c0.848,1.024,1.86,2.288,3.05,3.779c1.182,1.493,2.362,2.947,3.544,4.366c0.3,0.357,0.64,0.705,1.026,1.034
			c0.389,0.329,0.812,0.597,1.28,0.796c0.219,0.1,0.466,0.172,0.748,0.232c0.284,0.047,0.523,0.08,0.726,0.088V112.548z"/>
		<path class="st1" d="M120.167,112.548h-10.195v-1.029c0.474-0.034,1.028-0.122,1.667-0.255c0.64-0.137,0.959-0.305,0.959-0.512
			c0-0.07-0.005-0.147-0.016-0.238c-0.016-0.086-0.051-0.203-0.106-0.354l-1.602-3.879h-6.463c-0.149,0.359-0.314,0.78-0.495,1.264
			c-0.18,0.485-0.331,0.917-0.468,1.292c-0.159,0.494-0.266,0.851-0.291,1.073c-0.034,0.217-0.045,0.369-0.045,0.455
			c0,0.288,0.214,0.526,0.644,0.723c0.421,0.196,1.13,0.342,2.12,0.43v1.029h-7.677v-1.029c0.292-0.02,0.616-0.062,0.983-0.141
			c0.364-0.073,0.654-0.179,0.86-0.309c0.368-0.209,0.668-0.469,0.921-0.781c0.257-0.308,0.458-0.673,0.631-1.091
			c1.021-2.476,2.042-4.95,3.056-7.429c1.031-2.477,2.162-5.219,3.41-8.203h2.634c1.72,4.239,3.075,7.585,4.053,10.048
			c0.968,2.464,1.8,4.503,2.495,6.125c0.109,0.265,0.258,0.506,0.427,0.719c0.176,0.212,0.43,0.416,0.753,0.611
			c0.248,0.14,0.531,0.251,0.853,0.318c0.33,0.069,0.626,0.112,0.891,0.132V112.548z M110.33,104.973l-2.71-6.767l-2.671,6.767
			H110.33z"/>
		<path class="st1" d="M141.258,99.184h-1.035c-0.264-0.804-0.705-1.659-1.304-2.574c-0.603-0.915-1.158-1.411-1.671-1.478
			c-0.279-0.037-0.624-0.067-1.037-0.095c-0.415-0.023-0.768-0.038-1.062-0.038h-0.621v14.685c0,0.318,0.055,0.595,0.165,0.838
			c0.114,0.242,0.344,0.435,0.677,0.574c0.205,0.078,0.518,0.155,0.945,0.247c0.427,0.08,0.789,0.14,1.09,0.174v1.029h-10.441
			v-1.029c0.257-0.031,0.614-0.062,1.081-0.113c0.464-0.046,0.772-0.106,0.946-0.178c0.342-0.141,0.565-0.327,0.686-0.568
			c0.113-0.239,0.168-0.517,0.168-0.843V95h-0.624c-0.297,0-0.646,0.014-1.064,0.038c-0.403,0.028-0.753,0.058-1.042,0.095
			c-0.504,0.067-1.06,0.562-1.659,1.478c-0.602,0.915-1.04,1.77-1.313,2.574h-1.027v-5.36h18.144V99.184z"/>
		<path class="st1" d="M165.599,94.854c-0.31,0.036-0.602,0.096-0.872,0.173c-0.254,0.078-0.511,0.188-0.745,0.329
			c-0.378,0.209-0.71,0.481-1.009,0.812c-0.29,0.333-0.579,0.695-0.863,1.102c-0.572,0.834-1.164,1.742-1.792,2.727
			c-0.63,0.98-1.316,2.056-2.053,3.237c-0.485,0.746-0.777,1.318-0.887,1.719c-0.113,0.402-0.169,1.096-0.169,2.077v2.655
			c0,0.318,0.056,0.595,0.184,0.829c0.115,0.238,0.335,0.434,0.679,0.584c0.143,0.062,0.457,0.142,0.95,0.247
			c0.487,0.097,0.837,0.154,1.067,0.174v1.029h-10.436v-1.029c0.245-0.02,0.6-0.054,1.058-0.106
			c0.464-0.054,0.787-0.114,0.969-0.185c0.324-0.141,0.55-0.327,0.663-0.561c0.121-0.234,0.185-0.515,0.185-0.85v-3.298
			c0-0.292-0.005-0.548-0.012-0.766c-0.015-0.221-0.04-0.406-0.088-0.555c-0.066-0.165-0.179-0.379-0.325-0.639
			c-0.144-0.258-0.342-0.597-0.577-1.01c-0.679-1.188-1.337-2.315-1.967-3.376c-0.629-1.063-1.242-2.062-1.808-2.997
			c-0.297-0.482-0.608-0.874-0.902-1.169c-0.304-0.291-0.618-0.534-0.936-0.717c-0.233-0.132-0.522-0.231-0.859-0.306
			c-0.336-0.07-0.647-0.111-0.921-0.131v-1.029h10.728v1.029c-0.983,0.027-1.646,0.096-1.987,0.206
			c-0.34,0.109-0.512,0.262-0.512,0.456c0,0.099,0.066,0.288,0.194,0.581c0.131,0.287,0.348,0.734,0.679,1.344
			c0.296,0.572,0.739,1.358,1.309,2.358c0.576,1.002,1.269,2.176,2.072,3.521c1.677-2.647,2.817-4.494,3.447-5.545
			c0.619-1.051,0.938-1.692,0.938-1.926c0-0.302-0.184-0.534-0.559-0.689c-0.364-0.158-0.96-0.26-1.782-0.305v-1.029h6.939V94.854z"
			/>
		<path class="st1" d="M201.934,98.506c0,1.058-0.223,1.965-0.653,2.727c-0.434,0.763-1.032,1.382-1.8,1.854
			c-0.794,0.495-1.702,0.85-2.714,1.073c-1.011,0.216-2.159,0.327-3.42,0.327h-1.53v5.265c0,0.315,0.058,0.592,0.181,0.821
			c0.117,0.234,0.34,0.421,0.678,0.561c0.172,0.074,0.455,0.147,0.855,0.226c0.394,0.083,0.729,0.129,1.001,0.16v1.029h-10.139
			v-1.029c0.255-0.031,0.597-0.062,1.025-0.113c0.415-0.046,0.709-0.106,0.876-0.178c0.339-0.141,0.571-0.312,0.679-0.511
			c0.114-0.208,0.163-0.487,0.163-0.847V96.662c0-0.307-0.049-0.573-0.156-0.8c-0.1-0.222-0.334-0.41-0.686-0.562
			c-0.242-0.101-0.575-0.197-0.983-0.282c-0.411-0.085-0.717-0.138-0.918-0.165v-1.029h10.319c2.422,0,4.23,0.385,5.425,1.157
			C201.342,95.749,201.934,96.924,201.934,98.506z M196.786,99.184c0-1.41-0.286-2.455-0.848-3.136
			c-0.572-0.682-1.575-1.022-3.028-1.022h-1.094v8.221h0.55c1.449,0,2.539-0.329,3.292-0.999
			C196.414,101.586,196.786,100.562,196.786,99.184z"/>
		<path class="st1" d="M223.443,98.602h-1.003c-0.251-0.712-0.702-1.43-1.322-2.158c-0.628-0.727-1.245-1.154-1.854-1.285
			c-0.268-0.063-0.629-0.099-1.104-0.109c-0.473-0.021-0.866-0.023-1.166-0.023h-2.721v7.215h1.925c0.484,0,0.922-0.056,1.326-0.169
			c0.395-0.114,0.749-0.335,1.076-0.66c0.202-0.203,0.407-0.556,0.613-1.073c0.21-0.506,0.35-0.951,0.407-1.329h0.995v7.81h-0.995
			c-0.058-0.368-0.191-0.837-0.407-1.39c-0.213-0.558-0.416-0.944-0.613-1.153c-0.29-0.317-0.634-0.538-1.031-0.656
			c-0.395-0.118-0.848-0.178-1.371-0.178h-1.925v5.396c0,0.561,0.043,1.011,0.123,1.34c0.089,0.328,0.24,0.582,0.468,0.759
			c0.217,0.169,0.524,0.279,0.904,0.331c0.385,0.051,0.91,0.079,1.572,0.079c0.302,0,0.671-0.002,1.099-0.014
			c0.43-0.009,0.816-0.034,1.142-0.08c0.368-0.044,0.708-0.112,1.028-0.198c0.325-0.085,0.565-0.216,0.723-0.38
			c0.424-0.431,0.898-1.088,1.431-1.977c0.523-0.881,0.872-1.541,1.034-1.982h0.969l-0.355,5.832h-17.568v-1.029
			c0.252-0.02,0.585-0.054,1.005-0.106c0.42-0.054,0.723-0.114,0.895-0.185c0.339-0.141,0.561-0.321,0.679-0.537
			c0.111-0.214,0.175-0.487,0.175-0.82V96.662c0-0.318-0.053-0.578-0.148-0.782c-0.101-0.208-0.338-0.394-0.705-0.566
			c-0.223-0.104-0.547-0.2-0.96-0.288c-0.412-0.087-0.721-0.146-0.939-0.173v-1.029h16.602V98.602z"/>
		<path class="st1" d="M251.336,112.548h-7.182c-1.238-1.901-2.268-3.411-3.096-4.542c-0.812-1.123-1.844-2.424-3.064-3.901h-0.719
			v5.682c0,0.319,0.053,0.588,0.179,0.804c0.121,0.222,0.344,0.408,0.678,0.56c0.17,0.068,0.425,0.143,0.783,0.216
			c0.35,0.074,0.661,0.121,0.921,0.151v1.029h-9.99v-1.029c0.256-0.031,0.591-0.062,1.009-0.113
			c0.418-0.046,0.717-0.106,0.887-0.178c0.338-0.141,0.569-0.321,0.674-0.537c0.115-0.214,0.175-0.487,0.175-0.82V96.662
			c0-0.318-0.054-0.58-0.14-0.792c-0.104-0.21-0.339-0.397-0.709-0.557c-0.283-0.114-0.605-0.21-0.99-0.288
			c-0.383-0.077-0.685-0.137-0.905-0.173v-1.029h10.499c2.352,0,4.13,0.369,5.355,1.104c1.215,0.732,1.822,1.843,1.822,3.329
			c0,1.313-0.372,2.364-1.127,3.162c-0.752,0.795-1.898,1.416-3.429,1.867c0.588,0.775,1.288,1.671,2.088,2.693
			c0.795,1.018,1.624,2.06,2.489,3.125c0.27,0.34,0.641,0.766,1.114,1.26c0.468,0.497,0.885,0.8,1.244,0.916
			c0.201,0.064,0.457,0.117,0.77,0.161c0.31,0.043,0.538,0.069,0.664,0.077V112.548z M242.357,98.629
			c0-1.246-0.35-2.163-1.054-2.741c-0.696-0.574-1.695-0.862-2.984-0.862h-1.043v7.838h0.998c1.293,0,2.306-0.337,3.013-1.018
			C242.002,101.171,242.357,100.099,242.357,98.629z"/>
		<path class="st1" d="M276.397,112.548h-7.18c-1.241-1.901-2.271-3.411-3.099-4.542c-0.821-1.123-1.842-2.424-3.062-3.901h-0.721
			v5.682c0,0.319,0.055,0.588,0.18,0.804c0.121,0.222,0.341,0.408,0.675,0.56c0.163,0.068,0.433,0.143,0.78,0.216
			c0.36,0.074,0.667,0.121,0.921,0.151v1.029h-9.988v-1.029c0.252-0.031,0.592-0.062,1.007-0.113
			c0.421-0.046,0.726-0.106,0.896-0.178c0.331-0.141,0.556-0.321,0.673-0.537c0.112-0.214,0.173-0.487,0.173-0.82V96.662
			c0-0.318-0.049-0.58-0.146-0.792c-0.102-0.21-0.328-0.397-0.699-0.557c-0.285-0.114-0.61-0.21-0.993-0.288
			c-0.39-0.077-0.69-0.137-0.91-0.173v-1.029h10.5c2.354,0,4.135,0.369,5.357,1.104c1.215,0.732,1.823,1.843,1.823,3.329
			c0,1.313-0.377,2.364-1.132,3.162c-0.746,0.795-1.889,1.416-3.439,1.867c0.601,0.775,1.303,1.671,2.099,2.693
			c0.794,1.018,1.624,2.06,2.482,3.125c0.275,0.34,0.646,0.766,1.115,1.26c0.472,0.497,0.892,0.8,1.249,0.916
			c0.206,0.064,0.464,0.117,0.773,0.161c0.311,0.043,0.532,0.069,0.665,0.077V112.548z M267.41,98.629
			c0-1.246-0.348-2.163-1.045-2.741c-0.692-0.574-1.696-0.862-2.991-0.862h-1.038v7.838h0.999c1.296,0,2.298-0.337,3.011-1.018
			C267.055,101.171,267.41,100.099,267.41,98.629z"/>
		<path class="st1" d="M299.715,94.854c-0.312,0.036-0.603,0.096-0.872,0.173c-0.261,0.078-0.51,0.188-0.742,0.329
			c-0.385,0.209-0.714,0.481-1.015,0.812c-0.292,0.333-0.577,0.695-0.859,1.102c-0.573,0.834-1.178,1.742-1.801,2.727
			c-0.628,0.98-1.315,2.056-2.048,3.237c-0.48,0.746-0.775,1.318-0.889,1.719c-0.11,0.402-0.166,1.096-0.166,2.077v2.655
			c0,0.318,0.062,0.595,0.181,0.829c0.113,0.238,0.341,0.434,0.674,0.584c0.157,0.062,0.467,0.142,0.96,0.247
			c0.473,0.097,0.833,0.154,1.065,0.174v1.029h-10.441v-1.029c0.248-0.02,0.602-0.054,1.065-0.106
			c0.463-0.054,0.784-0.114,0.97-0.185c0.322-0.141,0.55-0.327,0.662-0.561c0.118-0.234,0.183-0.515,0.183-0.85v-3.298
			c0-0.292-0.01-0.548-0.01-0.766c-0.016-0.221-0.042-0.406-0.1-0.555c-0.061-0.165-0.164-0.379-0.311-0.639
			c-0.156-0.258-0.348-0.597-0.588-1.01c-0.674-1.188-1.328-2.315-1.958-3.376c-0.64-1.063-1.24-2.062-1.814-2.997
			c-0.294-0.482-0.592-0.874-0.897-1.169c-0.309-0.291-0.616-0.534-0.934-0.717c-0.243-0.132-0.522-0.231-0.859-0.306
			c-0.35-0.07-0.65-0.111-0.919-0.131v-1.029h10.728v1.029c-0.984,0.027-1.647,0.096-1.993,0.206
			c-0.337,0.109-0.509,0.262-0.509,0.456c0,0.099,0.063,0.288,0.193,0.581c0.124,0.287,0.349,0.734,0.672,1.344
			c0.303,0.572,0.739,1.358,1.316,2.358c0.574,1.002,1.269,2.176,2.075,3.521c1.675-2.647,2.819-4.494,3.436-5.545
			c0.624-1.051,0.939-1.692,0.939-1.926c0-0.302-0.182-0.534-0.545-0.689c-0.368-0.158-0.966-0.26-1.788-0.305v-1.029h6.938V94.854z
			"/>
	</g>
</g>
</svg>