<!-- Generator: Adobe Illustrator 19.2.0, SVG Export Plug-In  -->
<svg version="1.1"
	 xmlns="http://www.w3.org/2000/svg" xmlns:xlink="http://www.w3.org/1999/xlink" xmlns:a="http://ns.adobe.com/AdobeSVGViewerExtensions/3.0/"
	 x="0px" y="0px" width="546.59px" height="121.467px" viewBox="0 0 546.59 121.467"
	 style="enable-background:new 0 0 546.59 121.467;" xml:space="preserve">
<style type="text/css">
	.st0{fill:#FFFFFF;}
</style>
<defs>
</defs>
<g>
	<path class="st0" d="M245.846,48.522c-5.47,2.12-12.239,5.946-19.389,10.631c4.351-8.811,8.577-17.823,12.038-26.25
		c0.259-0.643-1.077-0.847-4.47-0.853c-2.851-0.012-4.348,0.045-4.668,0.843c-0.29,0.704-1.107,2.507-1.107,2.507
		c-6.83,14.489-19.143,27.9-30.954,36.005c-1.232,0.845-4.2,2.448-6.351,0.878c-0.832-0.66-0.992-2.747-0.828-3.554
		c0.296-2.291,1.264-4.84,2.377-7.373c4.001-9.041,11.415-20.414,16.696-28.566c0.508-0.774-0.819-0.854-4.774-0.863
		c-2.896-0.003-4.745,0.083-5.146,0.652c-2.717,3.905-12.026,17.952-15.207,29.331c-9.316,10.488-14.426,12.827-17.105,12.417
		c-1.381-0.205-1.879-1.626-1.677-2.951c0.57-3.728,3.036-10.162,6.976-17.178c8.982-15.991,22.55-36.864,33.571-51.405
		c0.41-0.549-0.888-0.948-4.81-0.959c-3.095-0.008-4.563,0.21-5.012,0.808c-13.374,17.853-29.137,43.836-35.261,58.785
		c-0.021,0.062-0.044,0.118-0.063,0.18c-9.528,10.81-14.468,13.069-17.179,12.651c-1.378-0.211-1.88-1.624-1.671-2.953
		c0.571-3.723,3.118-10.155,6.972-17.175c8.834-16.071,22.556-36.866,33.568-51.406c0.415-0.55-0.878-0.945-4.803-0.958
		c-3.105-0.011-4.569,0.21-5.015,0.809C159.17,20.424,143.413,46.412,137.3,61.358c-0.53,1.288-1.028,2.64-1.424,4.008l-0.37,0.502
		c-5.991,7.299-9.803,7.987-11.018,7.732c-4.364-0.898-1.859-7.282-0.157-11.267c2.321-5.436,5.927-12.047,15.711-28.474
		c0.161-0.262,0.795-1.202,0.688-1.674c-0.093-0.429-1.505-0.436-4.368-0.44c-1.878-0.004-3.721-0.064-4.302,0.497
		c-0.411,0.389-1.159,1.756-1.408,2.185c-0.372,0.618-0.862,1.53-1.179,2.043c-0.101-0.88-0.894-3.512-3.139-4.589
		c-3.36-1.618-8.228-0.598-12.288,1.515c-4.686,2.443-12.548,8.488-18.349,16.406c-3.467,4.73-7.757,12.032-7.592,18.243
		c0.203,7.645,7.088,11.185,12.798,10.188c5.639-0.982,11.305-6.279,14.724-11.723c-0.35,2.649-0.48,5.337,0.638,7.799
		c2.773,6.089,9.951,6.2,18.344-2.33l0.54-0.57c0.202,1.928,0.936,3.706,2.509,5.142c1.522,1.399,2.862,1.93,4.912,1.958
		c5.82,0.055,11.173-4.623,16.032-9.188c-0.221,2.771,0.364,5.394,2.512,7.367c1.518,1.397,2.854,1.86,4.909,1.884
		c6.103,0.066,11.876-5.168,16.963-9.962c-0.023,4.53,1.878,7.901,6.998,8.782c7.479,1.29,15.596-6.746,23.264-14.837
		c2.357-2.487,4.714-5.291,7.012-8.235c0,0-4.046,8.937-6.319,13.599c-14.45,10.73-28.32,22.97-34.402,30.156
		c-3.851,4.543-8.645,11.52-6.701,17.948c1.712,5.662,7.151,6.172,11.674,4.812c11.203-3.35,22.606-24.155,29.295-36.958
		c2.855-5.476,5.967-11.443,9.093-17.619c7.136-4.664,14.467-8.606,21.773-11.43C245.286,54.6,247.557,47.85,245.846,48.522z
		 M116.223,59.284c-1.425,1.917-4.069,6.214-8.731,10.738c-5.369,5.209-14.591,4.807-9.886-7.992
		c1.688-4.593,9.285-17.441,17.918-23.889c3.033-2.261,6.284-3.384,8.822-2.628c2.792,0.825,2.544,4.433,0.997,7.891
		C123.803,46.864,118.378,56.385,116.223,59.284z M184.275,114.357c-2.63,2.289-5.659,2.334-6.401,0.305
		c-1.754-4.762,4.937-12.964,7.772-16.102c7.238-7.999,15.576-15.967,24.483-23.06C202.193,90.696,191.321,108.234,184.275,114.357z
		 M524.179,36.988c-3.439-2.669-7.515-1.203-12.408,2.187c-6.603,4.582-13.733,11.656-19.876,18.917
		c4.073-8.04,8.847-16.349,14.158-24.16c0.326-0.483,0.849-1.086-3.746-1.102c-2.406-0.005-4.169-0.012-4.674,0.706
		c-4.543,6.474-13.064,22.583-13.064,22.583c-7.022,8.01-16.171,17.713-26.714,18.838c-4.671,0.5-6.668-2.35-6.125-7.281
		c0.479-4.253,1.468-6.877,3.412-10.487c5.753,2.053,13.395,1.685,18.96-1.692c6.749-4.105,11.147-12.93,7.944-19.727
		c-1.456-3.088-4.637-4.322-9.35-3.602c-6.704,1.03-16.093,9.899-20.163,14.956c-14.347,17.823-10.604,30.362,0.326,32.116
		c10.486,1.68,19.443-5.432,26.645-12.901l0.488-0.513c-1.84,4.087-3.62,8.279-5.071,11.856c-0.279,0.689,1.116,1.191,4.026,1.203
		c2.388,0.003,3.767-0.124,3.981-0.662c0.686-1.804,1.438-3.676,2.233-5.591c6.557-11.432,20.693-23.261,27.029-28.531
		c2.62-2.188,6.289-4.459,7.672-3.524c1.596,1.083-1.718,7.398-2.967,9.265c-1.532,2.296-5.473,8.864-7.69,12.944
		c-1.901,3.491-3.653,8.337-2.359,12.129c1.236,3.576,4.853,4.677,8.258,4.713c4.299,0.043,10.308-2.957,11.553-4.089
		c1.235-1.129,0.31-2.916-1.125-2.461c-3.102,1.013-8.859,3.739-10.009,0.169c-1.061-3.711,1.954-7.899,5.396-14.143
		C524.355,52.87,531.472,42.634,524.179,36.988z M474.584,36.234c4.11-0.183,1.6,5.764-0.35,8.923
		c-2.604,4.202-7.203,9.89-17.146,8.393C458.516,51.088,467.873,36.533,474.584,36.234z M544.661,34.435
		c-1.284-1.302-2.844-1.952-4.655-1.959c-1.815-0.006-3.379,0.639-4.677,1.932c-1.293,1.297-1.95,2.844-1.953,4.659
		c-0.008,1.816,0.639,3.38,1.927,4.674c1.292,1.296,2.846,1.945,4.662,1.954c1.812,0.004,3.37-0.639,4.668-1.932
		c1.303-1.284,1.957-2.842,1.958-4.657C546.593,37.292,545.953,35.739,544.661,34.435z M543.974,43.1
		c-1.118,1.112-2.459,1.66-4.007,1.657c-1.568-0.006-2.908-0.562-4.009-1.676c-1.104-1.108-1.652-2.452-1.648-4.012
		c0.004-1.56,0.565-2.889,1.679-3.999c1.117-1.11,2.451-1.662,4.011-1.658c1.561,0.007,2.893,0.562,4.002,1.674
		c1.108,1.113,1.656,2.447,1.65,4.016C545.651,40.659,545.089,41.988,543.974,43.1z M302.674,32.993
		c-12.367,1.614-20.604,4.442-31.758,8.341c7.6-13.607,16.376-26.885,25.678-38.484c0.637-0.794-1.291-0.833-4.666-0.844
		c-3.427-0.008-5.104,0.236-5.536,0.775c-16.505,20.788-32.558,49.43-41.349,74.482c-0.283,0.806,2.3,0.936,4.507,0.918
		c2.968-0.007,4.204-0.248,4.326-0.57c3.63-9.66,8.247-19.803,13.561-29.87c10.068-3.424,20.896-5.986,31.713-7.315
		C300.471,40.208,304.236,33.369,302.674,32.993z M86.559,37.888c-3.35-5.955-10.865-7.81-17.97-7.914
		c-6.497-0.091-11.872,0.704-19.723,1.559c-6.506,0.707-11.58,1.326-14.521,1.315c-2.655-0.007-7.687,0.083-9.889-2.749
		c-0.96-1.226-1.157-3.299-0.77-5.054c0.865-3.992,6.047-9.308,16.033-13.319c8.302-3.34,17.965-5.841,33.72-6.286
		c0.191-0.003,0.946-0.002,1.671-0.002c3.534,0.021,11.784,1.037,12.902,7.997c0.059,0.404,0.515,0.624,0.972,0.551
		c1.236-0.191,3.889-1.158,4.828-2.393c0.481-0.635,0.494-1.234,0.375-1.927c0-0.01-0.197-1.101-1.022-2.377
		c-3.177-4.917-8.854-6.504-13.062-6.973c-1.84-0.203-3.817-0.31-5.867-0.315C58.446-0.045,41.664,4.224,29.718,10.406
		c-6.282,3.24-15.777,10.097-15,19.545c0.778,9.467,10.02,11.4,15.57,11.416c0.821,0.004,1.667-0.026,2.511-0.088
		c6.564-0.458,11.238-0.976,16.194-1.526c3.894-0.436,7.93-0.887,13.159-1.33c1.039-0.091,2.853-0.141,3.847-0.14
		c5.983,0.017,10.096,1.233,12.68,4.283c1.577,1.863,2.311,4.204,2.11,6.773c-0.81,10.659-14.246,23.742-46.906,26.127
		c-1.886,0.136-3.688,0.198-5.345,0.191c-8.524-0.024-14.51-1.371-17.811-5.208c-2.437-2.827-3.424-6.509-3.209-11.497
		c0.028-0.519-0.229-0.875-1.34-0.758c-1.901,0.201-5.588,1.707-5.999,3.284c-0.564,1.313,0.332,5.262,0.981,6.957
		c3.122,8.092,12.412,13.024,27.008,13.068c4.186,0.014,7.886-0.348,12.6-1.07c10.61-1.611,16.728-2.988,24.905-6.746
		c7.733-3.553,12.729-7.451,16.987-12.271C90.342,52.726,89.133,42.467,86.559,37.888z M333.567,2.151
		c-3.562-0.012-4.811,0.196-5.316,0.753c-6.93,8.723-13.801,18.839-20.106,29.487l-4.354,7.606
		c-6.897,12.45-12.886,25.338-17.161,37.391c-0.322,0.904,2.13,0.932,4.401,0.939c2.591,0.007,4.381-0.148,4.514-0.498
		c9.381-24.447,24.604-52.721,42.524-74.771C338.458,2.583,338.039,2.164,333.567,2.151z M439.378,32.254
		c-5.99-1.077-17.451,1.225-24.476,5.662c-4.01,2.526-7.616,6.229-8.206,10.129c-1.111,7.383,5.41,10.116,12.037,10.235
		c3.635,0.063,5.784,0.07,10.416-0.044c5.439-0.134,5.205,5.383,3.166,8.213c-2.462,3.413-6.841,6.521-12.543,7.542
		c-8.143,1.46-14.055-0.047-18.786-5.652c-1.109-1.042-3.324,4.599-3.142,5.706c0.268,1.672,6.105,4.501,11.193,5.021
		c9.364,0.941,14.756-0.609,19.364-3.099c9.661-5.209,12.348-11.525,12.68-15.773c0.546-7.062-4.29-9.935-12.465-9.894
		c-4.756,0.019-5.566,0.113-9.219,0.191c-2.417,0.054-5.693-0.576-5.737-3.275c-0.05-2.675,3.677-5.628,7.487-7.339
		c4.061-1.834,6.816-2.553,10.573-3.073c9.023-1.232,8.05,2.9,7.749,5.755c-0.083,1.228,4.373-0.153,4.662-1.269
		C445.486,36.081,444.062,33.101,439.378,32.254z M542.632,38.603c0.238-0.372,0.363-0.762,0.361-1.172
		c0.004-0.548-0.217-1.048-0.648-1.499c-0.437-0.45-1.091-0.682-1.966-0.686l-3.249-0.009l-0.02,7.692l1.131,0.004l0.01-3.281
		l2.116,0.007l1.468,3.282l1.254,0.003l-1.58-3.539C542.017,39.242,542.389,38.975,542.632,38.603z M540.249,38.759l-1.999-0.007
		l0.009-2.552l2.116,0.005c0.41,0.003,0.752,0.106,1.018,0.307c0.267,0.201,0.401,0.506,0.396,0.903c0,0.384-0.13,0.699-0.38,0.961
		C541.155,38.632,540.766,38.76,540.249,38.759z M395.508,75.232c-3.106,1.01-6.206,0.366-6.393-2.696
		c-0.185-3.064,2.929-7.784,6.587-13.799c3.527-5.808,10.613-16.053,3.266-22.11c-3.368-2.777-7.522-1.207-12.416,2.184
		c-6.359,4.418-13.218,11.015-19.204,18.001c0,0,7.489-14.715,13.624-23.359c0.333-0.47,0.366-0.977-3.955-0.985
		c-2.127-0.006-4.363,0.032-4.762,0.586c-9.484,13.093-17.779,31.403-22.402,44.522c-0.25,0.7,0.832,0.935,3.745,0.945
		c2.387,0.004,4.165-0.125,4.383-0.66c0.695-1.777,1.689-4.203,2.52-6.12c2.99-6.957,19.612-22.429,26.545-27.937
		c2.671-2.127,6.119-4.525,7.502-3.588c1.602,1.078-1.752,7.321-2.868,9.266c-2.134,3.7-5.976,9.289-8.413,14.493
		c-1.172,2.518-3.094,6.989-1.786,10.777c1.227,3.58,4.865,4.72,8.233,4.393c3.367-0.326,5.746-1.347,6.988-2.468
		C397.931,75.542,396.933,74.777,395.508,75.232z M347.401,75.166c-3.109,1.009-5.519,0.365-5.809-2.699
		c-0.112-1.172-0.037-1.858,0.792-4.151c2.905-8.002,7.121-17.64,16.817-33.916c0.161-0.261,0.794-1.138,0.689-1.615
		c-0.091-0.423-1.367-0.431-4.234-0.442c-1.878-0.002-3.582-0.059-4.166,0.502c-0.403,0.386-1.146,1.822-1.404,2.256
		c-0.37,0.613-0.865,1.53-1.184,2.043c-0.1-0.879-0.895-3.575-3.14-4.661c-3.36-1.615-8.423-0.598-12.49,1.526
		c-4.681,2.442-12.607,8.891-18.343,16.523c-4.021,5.362-7.645,12.04-7.388,18.245c0.316,7.49,6.877,11.057,12.591,10.065
		c5.005-0.884,10.31-5.142,14.248-11.286c-0.734,2.261-1.239,4.763-0.428,7.132c1.232,3.577,4.876,4.721,8.239,4.386
		c3.368-0.324,5.157-1.339,6.395-2.469C349.824,75.48,348.824,74.707,347.401,75.166z M336.732,59.065
		c-1.922,3.03-5.877,7.723-9.938,11.694c-5.349,5.225-14.453,4.798-9.746-8c1.687-4.585,8.98-17.475,17.914-23.95
		c2.962-2.148,5.89-3.459,8.686-2.626c2.787,0.827,2.608,4.495,1.069,7.956C343.128,47.701,339.72,54.356,336.732,59.065z"/>
</g>
</svg>