<!-- Generator: Adobe Illustrator 19.2.0, SVG Export Plug-In  -->
<svg version="1.1"
	 xmlns="http://www.w3.org/2000/svg" xmlns:xlink="http://www.w3.org/1999/xlink" xmlns:a="http://ns.adobe.com/AdobeSVGViewerExtensions/3.0/"
	 x="0px" y="0px" width="239.78px" height="65.401px" viewBox="0 0 239.78 65.401"
	 style="enable-background:new 0 0 239.78 65.401;" xml:space="preserve">
<defs>
</defs>
<g>
	<g>
		<defs>
			<path id="SVGID_8_" d="M72.486,18.431c-0.163,0.077-0.34,0.152-0.534,0.235c-0.155,0.039-0.315,0.092-0.475,0.175H49.139
				c-0.123,0-0.199,0.054-0.237,0.175c0,0.078,0.038,0.155,0.114,0.236c0.315,0.194,0.614,0.356,0.888,0.47
				c0.315,0.074,0.586,0.157,0.824,0.24c0.43,0.148,0.823,0.348,1.174,0.586c0.395,0.235,0.589,0.743,0.589,1.53v24.495
				c0,0.507-0.039,1.013-0.118,1.524c-0.039,0.475-0.158,0.906-0.354,1.301c-0.197,0.392-0.488,0.723-0.88,1
				c-0.36,0.232-0.823,0.351-1.416,0.351v0.467c1.055-0.035,2.121-0.057,3.182-0.057c1.096-0.04,2.177-0.057,3.238-0.057
				c0.779,0,1.55,0.017,2.294,0.057h2.297c0.9,0,7.368,0.021,8.272,0.057h2.765c0.193,0,0.451-0.057,0.828-0.23
				c0.16,0,0.232-0.057,0.232-0.177l0.354-2.59c0.116-0.866,0.276-1.753,0.47-2.653l-0.47-0.114
				c-0.313,1.331-0.963,2.378-1.943,3.12c-0.939,0.706-2.095,1.055-3.477,1.055c-1.018,0-7.64-0.211-8.735-0.646
				c-1.062-0.471-1.884-1.143-2.475-2.003V34.852h1.768h1.355c0.586,0,6.74,0.044,7.323,0.115c0.635,0.045,1.202,0.121,1.709,0.235
				c0.552,0.081,0.924,0.223,1.123,0.416c0.19,0.19,0.332,0.415,0.412,0.648l0.238,0.708c0.072,0.229,0.129,0.452,0.173,0.645
				c0.078,0.196,0.214,0.398,0.411,0.591c0.079,0.079,0.155,0.097,0.234,0.058c0.121-0.043,0.175-0.115,0.175-0.231
				c0.081-0.477,0.142-0.969,0.181-1.475c0.041-0.509,0.101-1.004,0.177-1.474c0.077-0.466,0.131-0.98,0.176-1.531
				c0.075-0.546,0.134-1.057,0.173-1.532c0-0.235-0.098-0.313-0.291-0.235c-0.431,0.118-0.865,0.295-1.299,0.535l-0.938,0.348
				c-0.32,0.121-0.571,0.178-0.766,0.178H56.493V20.784h10.219c1.254,0,2.315,0.215,3.182,0.644c0.856,0.434,1.331,1.333,1.41,2.713
				c0,0.116,0.059,0.196,0.175,0.226c0.16,0,0.256-0.053,0.295-0.172c0.193-0.903,0.373-1.783,0.531-2.647
				c0.197-0.904,0.355-1.869,0.47-2.882c0-0.175-0.056-0.265-0.16-0.265C72.577,18.401,72.536,18.41,72.486,18.431"/>
		</defs>
		<use xlink:href="#SVGID_8_"  style="overflow:visible;fill:#FFFFFF;"/>
		<clipPath id="SVGID_9_">
			<use xlink:href="#SVGID_8_"  style="overflow:visible;"/>
		</clipPath>
		<use xlink:href="#SVGID_8_"  style="overflow:visible;fill:none;stroke:#FFFFFF;"/>
	</g>
	<g>
		<defs>
			<path id="SVGID_7_" d="M18.268,15.332c4.175-3.239,17.919-5.362,17.919,5.012c0,3.5-5.054,6.898-8.789,8.295
				c-3.689,1.381-9.31,1.423-9.31,1.423L18.268,15.332z M20.85,11.168c-2.417,0.76-3.405,1.189-5.673,1.485
				c-2.333,0.3-6.018-0.009-6.018-0.009c-0.121,0-0.196,0.062-0.238,0.189c0,0.074,0.043,0.151,0.118,0.241
				c0.313,0.196,0.609,0.356,0.877,0.476c0.319,0.078,0.597,0.163,0.832,0.238c0.428,0.163,0.82,0.368,1.174,0.605
				c0.398,0.238,0.591,0.766,0.591,1.564l0.057,2.438l-0.038,24.93c0,0-0.419,2.672-1.557,4.292
				c4.908-2.533,7.087-3.756,7.087-3.756l-0.043-5.553l0.129-6.828c3.576-0.757,6.464-0.422,9.387-0.255
				c12.742,0.746,17.122,14.771,8.416,19.209c-3.683,1.876-11.77,1.277-16.788-5.373c-0.481,0.282-8.63,4.27-9.486,4.629
				c-3.69,1.564-6.982,4.021-8.212,6.925c-1.778,4.194-1.471,7.616,4.109,8.261c2.783,0.332,4.827-2.525,3.642-3.975
				c-1.323-1.645-2.466-1.643-3.922-1.605c-1.541,0.039-3.678,1.41-3.678,1.41l0.076-0.708c1.504-7.124,9.837-9.958,14.255-8.235
				c0.921,0.367,3.009,1.211,3.009,1.211c18.584,8.439,32.48-6.642,23.182-19.231c-1.105-1.489-2.87-2.543-4.62-3.676
				c-1.751-1.131-5.035-1.899-5.035-1.899s7.594-2.906,7.594-8.829c0-5.17-2.475-7.127-6.052-8.756
				C32.375,9.829,30.63,9.56,28.952,9.56C25.492,9.56,22.314,10.708,20.85,11.168"/>
		</defs>
		<use xlink:href="#SVGID_7_"  style="overflow:visible;fill:#FFFFFF;"/>
		<clipPath id="SVGID_10_">
			<use xlink:href="#SVGID_7_"  style="overflow:visible;"/>
		</clipPath>
		<use xlink:href="#SVGID_7_"  style="overflow:visible;fill:none;stroke:#FFFFFF;"/>
	</g>
	<g>
		<defs>
			<path id="SVGID_6_" d="M120.195,48.629c-1.657-0.979-3.063-2.234-4.244-3.765c-1.135-1.574-1.999-3.319-2.593-5.24
				c-0.585-1.926-0.877-3.865-0.877-5.831c0-1.887,0.272-3.648,0.818-5.303c0.592-1.681,1.417-3.158,2.477-4.412
				c1.061-1.295,2.353-2.299,3.884-3.002c1.569-0.751,3.356-1.114,5.358-1.114c2.119,0,3.98,0.464,5.594,1.405
				c1.647,0.944,3.02,2.18,4.123,3.714c1.137,1.531,1.98,3.256,2.532,5.176c0.587,1.929,0.878,3.85,0.878,5.775
				c0,1.889-0.27,3.667-0.818,5.358c-0.514,1.685-1.297,3.178-2.361,4.477c-1.02,1.251-2.289,2.27-3.82,3.054
				c-1.537,0.748-3.303,1.128-5.301,1.128C123.726,50.049,121.841,49.57,120.195,48.629 M116.421,20.37
				c-1.919,0.9-3.468,2.081-4.641,3.532c-1.183,1.412-2.045,3.162-2.597,5.244c-0.505,2.036-0.769,4.489-0.769,7.356
				c0,1.887,0.53,3.75,1.587,5.589c1.105,1.848,2.48,3.494,4.126,4.947c1.649,1.453,3.456,2.632,5.413,3.536
				c2.004,0.9,3.928,1.353,5.773,1.353c2.236,0,4.359-0.394,6.359-1.177c2.039-0.785,3.824-1.885,5.358-3.299
				c1.525-1.408,2.745-3.081,3.642-5.001c0.953-1.961,1.42-4.082,1.42-6.358c0-2.514-0.467-4.91-1.42-7.183
				c-0.896-2.278-2.15-4.24-3.756-5.889c-1.617-1.689-3.496-2.985-5.656-3.886c-1.595-0.695-3.412-0.976-5.258-0.976
				C122.456,18.157,118.803,19.201,116.421,20.37"/>
		</defs>
		<use xlink:href="#SVGID_6_"  style="overflow:visible;fill:#FFFFFF;"/>
		<clipPath id="SVGID_11_">
			<use xlink:href="#SVGID_6_"  style="overflow:visible;"/>
		</clipPath>
		<use xlink:href="#SVGID_6_"  style="overflow:visible;fill:none;stroke:#FFFFFF;"/>
	</g>
	<g>
		<defs>
			<path id="SVGID_5_" d="M229.919,3.718c0.889,1.915,1.993,2.191,3.424,2.503c1.492,0.337,3.902-0.488,3.902-0.488l-0.242,0.677
				c-4.139,8.497-17.09,6.486-18.427,2.595l-0.936,2.262c1.308,1.853,4.569,2.799,6.352,3.095
				c4.811,0.776,10.073-1.502,12.416-4.613c2.742-3.643,3.262-7.033-1.993-9.01c-0.441-0.165-0.88-0.238-1.306-0.238
				C231,0.5,229.264,2.308,229.919,3.718"/>
		</defs>
		<use xlink:href="#SVGID_5_"  style="overflow:visible;fill:#FFFFFF;"/>
		<clipPath id="SVGID_12_">
			<use xlink:href="#SVGID_5_"  style="overflow:visible;"/>
		</clipPath>
		<use xlink:href="#SVGID_5_"  style="overflow:visible;fill:none;stroke:#FFFFFF;"/>
	</g>
	<g>
		<defs>
			<path id="SVGID_4_" d="M99.492,19.313c-0.045,0.111,0,0.212,0.122,0.295c0.313,0.152,0.567,0.354,0.764,0.586
				c0.237,0.232,0.353,0.529,0.353,0.882c0,0.233-0.18,0.704-0.532,1.408c-0.315,0.71-0.725,1.533-1.234,2.482
				c-0.508,0.897-1.066,1.844-1.655,2.819c-0.584,0.981-1.111,1.881-1.584,2.713c-0.549,0.939-1.077,1.825-1.59,2.644
				c-0.506,0.827-0.882,1.453-1.114,1.884l-2.178-3.589L88.19,27.02c-0.864-1.483-1.611-2.801-2.237-3.941
				c-0.63-1.179-0.947-1.905-0.947-2.18c0-0.235,0.106-0.452,0.299-0.649l0.764-0.588c0.078-0.079,0.098-0.155,0.057-0.238
				c-0.036-0.111-0.119-0.172-0.232-0.172c-1.182,0.116-2.314,0.172-3.416,0.172c-0.903,0-1.78-0.017-2.645-0.056l-2.655-0.235
				c-0.119,0-0.199,0.079-0.235,0.235c0,0.114,0.057,0.193,0.179,0.24c0.508,0.152,1.195,0.665,2.059,1.528
				c0.867,0.822,1.783,1.86,2.765,3.12c0.984,1.212,1.964,2.554,2.947,4.003c1.021,1.45,1.94,2.866,2.771,4.239
				c0.818,1.374,1.486,2.611,1.994,3.71c0.508,1.1,0.772,1.923,0.772,2.469v8.954c0,0.745-0.279,1.386-0.829,1.939
				c-0.506,0.552-1.096,0.968-1.764,1.239c-0.122,0.081-0.173,0.177-0.173,0.294c0.035,0.113,0.115,0.178,0.228,0.178
				c0.983-0.078,1.946-0.121,2.887-0.121h3.009h2.35c0.826,0,1.631,0.021,2.591-0.107c0.042-0.162,0-0.262-0.116-0.303
				c-0.393-0.082-0.824-0.201-1.302-0.351c-0.463-0.157-0.897-0.35-1.29-0.588c-0.394-0.28-0.727-0.569-0.997-0.889
				c-0.277-0.35-0.418-0.766-0.418-1.236v-9.649c0-0.67,0.237-1.554,0.71-2.66c0.511-1.09,1.135-2.292,1.883-3.588
				c0.782-1.29,1.67-2.609,2.647-3.941c0.979-1.339,1.967-2.572,2.951-3.707c1.012-1.185,1.957-2.159,2.819-2.947
				c0.907-0.824,1.665-1.356,2.296-1.585l-0.058-0.475c-0.075,0-0.176,0.022-0.295,0.056h-0.295
				c-0.663,0.086-1.351,0.138-2.059,0.18c-0.707,0.039-1.43,0.056-2.177,0.056c-0.551,0-1.117-0.017-1.706-0.056
				c-0.55-0.042-1.081-0.116-1.596-0.235c-0.021-0.009-0.041-0.012-0.063-0.012C99.584,19.122,99.53,19.185,99.492,19.313"/>
		</defs>
		<use xlink:href="#SVGID_4_"  style="overflow:visible;fill:#FFFFFF;"/>
		<clipPath id="SVGID_13_">
			<use xlink:href="#SVGID_4_"  style="overflow:visible;"/>
		</clipPath>
		<use xlink:href="#SVGID_4_"  style="overflow:visible;fill:none;stroke:#FFFFFF;"/>
	</g>
	<g>
		<defs>
			<path id="SVGID_3_" d="M238.011,18.431c-0.161,0.077-0.334,0.152-0.538,0.235c-0.152,0.039-0.306,0.092-0.466,0.175h-22.341
				c-0.124,0-0.196,0.054-0.23,0.175c0,0.078,0.034,0.155,0.106,0.236c0.317,0.194,0.613,0.356,0.883,0.47
				c0.32,0.074,0.598,0.157,0.83,0.24c0.43,0.148,0.822,0.348,1.176,0.586c0.398,0.235,0.591,0.743,0.591,1.53v24.495
				c0,0.507-0.044,1.013-0.116,1.524c-0.042,0.475-0.16,0.906-0.353,1.301c-0.191,0.392-0.49,0.723-0.887,1
				c-0.348,0.232-0.829,0.351-1.409,0.351v0.467c1.062-0.035,2.118-0.057,3.177-0.057c1.102-0.04,2.182-0.057,3.236-0.057
				c0.791,0,1.555,0.017,2.297,0.057h2.297c0.907,0,7.371,0.021,8.275,0.057h2.77c0.193,0,0.451-0.057,0.819-0.23
				c0.161,0,0.238-0.057,0.238-0.177l0.347-2.59c0.119-0.868,0.277-1.753,0.475-2.653l-0.475-0.114
				c-0.309,1.33-0.953,2.378-1.938,3.12c-0.941,0.706-2.102,1.055-3.473,1.055c-1.026,0-7.646-0.211-8.74-0.646
				c-1.063-0.472-1.889-1.143-2.475-2.003V34.852h1.761h1.358c0.592,0,6.74,0.044,7.324,0.115c0.636,0.043,1.203,0.121,1.706,0.235
				c0.554,0.081,0.927,0.222,1.132,0.416c0.188,0.19,0.322,0.415,0.408,0.648l0.229,0.708c0.078,0.229,0.141,0.452,0.179,0.645
				c0.075,0.196,0.218,0.398,0.411,0.591c0.079,0.079,0.156,0.097,0.237,0.058c0.116-0.043,0.175-0.115,0.175-0.231
				c0.083-0.477,0.137-0.969,0.175-1.475c0.046-0.509,0.103-1.004,0.18-1.474c0.079-0.466,0.14-0.98,0.175-1.531
				c0.076-0.547,0.141-1.057,0.18-1.532c0-0.235-0.104-0.313-0.296-0.235c-0.431,0.118-0.866,0.295-1.294,0.535l-0.944,0.348
				c-0.313,0.121-0.568,0.178-0.767,0.178h-12.393V20.784h10.219c1.254,0,2.316,0.215,3.177,0.644
				c0.864,0.434,1.333,1.333,1.414,2.713c0,0.116,0.06,0.196,0.175,0.226c0.16,0,0.254-0.053,0.301-0.172
				c0.193-0.903,0.369-1.783,0.529-2.647c0.193-0.904,0.348-1.869,0.465-2.882c0-0.176-0.057-0.265-0.163-0.265
				C238.105,18.401,238.06,18.41,238.011,18.431"/>
		</defs>
		<use xlink:href="#SVGID_3_"  style="overflow:visible;fill:#FFFFFF;"/>
		<clipPath id="SVGID_14_">
			<use xlink:href="#SVGID_3_"  style="overflow:visible;"/>
		</clipPath>
		<use xlink:href="#SVGID_3_"  style="overflow:visible;fill:none;stroke:#FFFFFF;"/>
	</g>
	<g>
		<defs>
			<path id="SVGID_2_" d="M192.253,19.369c-2.161,0.742-4.02,1.866-5.59,3.358c-1.538,1.453-2.729,3.253-3.59,5.42
				c-0.828,2.149-1.24,4.629-1.24,7.41c0,2.364,0.412,4.513,1.24,6.478c0.82,1.963,1.957,3.654,3.416,5.061
				c1.447,1.412,3.166,2.508,5.178,3.302c1.998,0.782,4.176,1.175,6.531,1.175c1.885,0,3.76-0.1,5.59-0.293
				c1.848-0.199,3.717-0.455,5.771-0.882c0.436-0.829,0.772-1.712,1.002-2.656c0.238-0.94,0.354-1.875,0.354-2.825
				c0-0.274-0.02-0.528-0.059-0.76c0-0.241-0.014-0.473-0.057-0.714c-0.039-0.119-0.122-0.187-0.238-0.235
				c-0.076-0.033-0.153,0-0.23,0.116c-0.511,1.144-1.045,2.127-1.589,2.956c-0.514,0.816-1.126,1.508-1.828,2.053
				c-0.708,0.509-1.532,0.908-2.474,1.177c-0.901,0.279-1.98,0.41-3.238,0.41c-2.236,0-4.294-0.442-6.182-1.349
				c-1.881-0.941-3.51-2.177-4.885-3.708c-1.373-1.539-2.457-3.28-3.241-5.24c-0.746-2.005-1.116-4.091-1.116-6.242
				c0-2.042,0.317-3.89,0.943-5.535c0.661-1.69,1.587-3.121,2.764-4.301c1.217-1.176,2.652-2.077,4.297-2.707
				c1.692-0.667,3.557-1.002,5.595-1.002c1.222,0,2.372,0.181,3.474,0.532c1.139,0.31,2.141,0.805,3.004,1.471
				c0.907,0.624,1.65,1.435,2.24,2.416c0.625,0.981,1.033,2.118,1.232,3.416c0.033,0.113,0.121,0.175,0.232,0.175
				c0.12,0,0.199-0.062,0.239-0.175c0.196-1.298,0.371-2.612,0.532-3.946c0.154-1.378,0.275-2.751,0.347-4.118
				c0-0.162-0.071-0.24-0.231-0.24l-2.238-0.235l-2.298-0.352c-1.015-0.16-2.061-0.298-3.122-0.416
				c-1.014-0.118-2.07-0.175-3.178-0.175C196.909,18.19,194.452,18.583,192.253,19.369"/>
		</defs>
		<use xlink:href="#SVGID_2_"  style="overflow:visible;fill:#FFFFFF;"/>
		<clipPath id="SVGID_15_">
			<use xlink:href="#SVGID_2_"  style="overflow:visible;"/>
		</clipPath>
		<use xlink:href="#SVGID_2_"  style="overflow:visible;fill:none;stroke:#FFFFFF;"/>
	</g>
	<g>
		<defs>
			<path id="SVGID_1_" d="M148.688,18.365l-0.472,0.948v27.55c0,0.904-0.194,1.574-0.586,2.002c-0.357,0.395-0.775,0.705-1.24,0.946
				c-0.232,0.11-0.489,0.249-0.764,0.407c-0.233,0.154-0.516,0.377-0.828,0.648c-0.073,0.08-0.096,0.186-0.054,0.293
				c0.075,0.121,0.173,0.16,0.294,0.121c0.746-0.121,1.486-0.217,2.234-0.295c0.749-0.119,1.476-0.177,2.178-0.177
				c0.553,0,1.105,0.017,1.648,0.058c0.596,0.042,1.157,0.101,1.714,0.186l1.115,0.107h1.351c0.043-0.107,0.025-0.213-0.058-0.293
				c-0.431-0.318-0.804-0.51-1.122-0.588c-0.314-0.125-0.622-0.219-0.935-0.296c-0.277-0.039-0.555-0.099-0.83-0.172
				c-0.232-0.124-0.443-0.3-0.64-0.533c-0.158-0.238-0.296-0.552-0.416-0.944c-0.122-0.431-0.18-0.983-0.18-1.646
				c0-1.535-0.019-3.042-0.052-4.537c-0.045-1.492-0.104-2.981-0.179-4.471c-0.086-1.496-0.138-2.985-0.175-4.473
				c-0.039-1.497-0.064-2.986-0.064-4.477c0-0.984,0.064-2.005,0.181-3.062c0.546,0.585,1.042,1.154,1.472,1.709
				c0.426,0.505,0.914,1.058,1.473,1.648c1.606,1.882,3.295,3.824,5.057,5.826c1.77,1.966,3.56,3.925,5.361,5.893
				c1.846,1.922,3.705,3.824,5.59,5.705c1.885,1.848,3.775,3.573,5.655,5.181c0.08,0.078,0.158,0.103,0.237,0.066
				c0.109-0.081,0.182-0.164,0.182-0.244c0.186-2.23,0.327-4.448,0.404-6.646c0.078-2.24,0.114-4.501,0.114-6.77v-2.419
				l-0.053-14.19c0-0.588,0.294-1.001,0.88-1.233c0.633-0.232,1.223-0.435,1.766-0.586c0.078-0.047,0.115-0.047,0.302-0.063
				l-0.122-0.475h-0.651c-0.237-0.033-0.449-0.054-0.642-0.054c-0.548-0.037-1.102-0.037-1.652,0h-1.533h-2.469
				c-0.784,0-1.629-0.061-2.534-0.175c-0.077-0.042-0.16,0-0.231,0.115c-0.043,0.115-0.021,0.216,0.053,0.297
				c0.198,0.194,0.412,0.332,0.648,0.41l0.893,0.122c0.27,0.036,0.545,0.095,0.818,0.178c0.269,0.072,0.529,0.232,0.766,0.464
				c0.232,0.202,0.41,0.506,0.527,0.94c0.16,0.398,0.238,0.927,0.238,1.589c0,1.691,0.018,3.5,0.058,5.422l0.122,5.356
				c0.033,1.842,0.057,3.654,0.057,5.417c0.039,1.771,0.06,3.551,0.06,5.535c-4.123-4.59-8.189-9.027-12.191-13.307
				c-4.01-4.316-8.141-8.694-12.424-13.132c-0.012-0.032-0.031-0.054-0.068-0.054C148.918,18.193,148.839,18.238,148.688,18.365"/>
		</defs>
		<use xlink:href="#SVGID_1_"  style="overflow:visible;fill:#FFFFFF;"/>
		<clipPath id="SVGID_16_">
			<use xlink:href="#SVGID_1_"  style="overflow:visible;"/>
		</clipPath>
		<use xlink:href="#SVGID_1_"  style="overflow:visible;fill:none;stroke:#FFFFFF;"/>
	</g>
</g>
</svg>