<!-- Generator: Adobe Illustrator 19.1.0, SVG Export Plug-In  -->
<svg version="1.1"
	 xmlns="http://www.w3.org/2000/svg" xmlns:xlink="http://www.w3.org/1999/xlink" xmlns:a="http://ns.adobe.com/AdobeSVGViewerExtensions/3.0/"
	 x="0px" y="0px" width="111.473px" height="75.149px" viewBox="0 0 111.473 75.149"
	 style="enable-background:new 0 0 111.473 75.149;" xml:space="preserve">
<style type="text/css">
	.st0{fill:#FFFFFF;}
	.st1{fill-rule:evenodd;clip-rule:evenodd;fill:#FFFFFF;}
</style>
<defs>
</defs>
<g>
	<path class="st0" d="M102.957,75.149c-5.263,0-8.39-2.691-8.578-6.513h4.945c0,1.188,0.75,2.942,3.941,3
		c2.133,0,3.135-1.25,3.135-2.188c-0.125-1.501-2.006-1.627-4.013-1.942c-1.998-0.315-3.689-0.687-4.942-1.314
		c-1.568-0.815-2.634-2.571-2.634-4.571c0-3.384,2.946-6.078,7.835-6.078c4.752,0,7.762,2.504,8.074,6.201h-4.76
		c-0.064-0.999-0.249-2.572-3.069-2.572c-1.88,0-3.126,0.383-3.255,1.694c0,1.945,3.946,1.817,7.013,2.629
		c2.943,0.753,4.823,2.568,4.823,5.139C111.473,73.331,107.652,75.149,102.957,75.149L102.957,75.149z"/>
	<polygon class="st0" points="12.023,43.712 28.494,34.254 37.197,49.284 15.221,49.284 12.023,43.712 	"/>
	<polygon class="st0" points="48.913,74.71 44.213,74.71 44.213,55.734 48.913,55.734 48.913,74.71 	"/>
	<path class="st1" d="M4.509,65.314c0,2.944,2.504,5.385,5.45,5.385c3.005,0,5.51-2.441,5.51-5.385c0-2.944-2.505-5.449-5.51-5.449
		C7.013,59.865,4.509,62.37,4.509,65.314L4.509,65.314z M9.831,75.149C4.449,75.149,0,70.699,0,65.314
		c0-5.449,4.449-9.769,9.831-9.769c2.068,0,4.01,0.564,5.638,1.694v-1.505h4.634V74.71h-4.634v-1.255
		C13.902,74.522,11.963,75.149,9.831,75.149L9.831,75.149z"/>
	<polygon class="st0" points="73.085,49.284 50.163,9.519 66.636,0 95.131,49.284 73.085,49.284 	"/>
	<path class="st1" d="M26.238,65.314c0,2.944,2.504,5.385,5.514,5.385c2.942,0,5.445-2.441,5.445-5.385
		c0-2.944-2.503-5.449-5.445-5.449C28.742,59.865,26.238,62.37,26.238,65.314L26.238,65.314z M31.625,75.149
		c-5.448,0-9.891-4.451-9.891-9.835c0-5.449,4.442-9.769,9.891-9.769c2.067,0,3.949,0.564,5.572,1.694v-7.955h4.694V74.71h-4.694
		v-1.255C35.574,74.522,33.692,75.149,31.625,75.149L31.625,75.149z"/>
	<polygon class="st0" points="31.249,26.8 47.785,17.346 66.255,49.284 48.913,49.284 48.913,53.983 44.213,53.983 44.213,49.284 
		31.249,26.8 	"/>
	<path class="st0" d="M108.371,53.978c-1.295,0-2.35-1.047-2.35-2.348c0-1.294,1.055-2.347,2.35-2.347
		c1.302,0,2.352,1.053,2.352,2.347C110.723,52.931,109.673,53.978,108.371,53.978L108.371,53.978z M108.371,49.627
		c-1.086,0-1.971,0.9-1.971,2.003c0,1.102,0.885,2,1.971,2c1.092,0,1.987-0.899,1.987-2
		C110.358,50.527,109.463,49.627,108.371,49.627L108.371,49.627z"/>
	<path class="st0" d="M108.943,52.917l-0.589-1.053h-0.386v1.053h-0.358v-2.572h0.875c0.445,0,0.812,0.332,0.812,0.773
		c0,0.369-0.233,0.605-0.551,0.702l0.611,1.098H108.943L108.943,52.917z M108.445,50.655h-0.476v0.91h0.476
		c0.287,0,0.486-0.195,0.486-0.448C108.932,50.856,108.732,50.655,108.445,50.655L108.445,50.655z"/>
	<path class="st1" d="M77.029,65.314c0,2.944,2.505,5.385,5.448,5.385c2.944,0,5.382-2.441,5.382-5.385
		c0-2.944-2.438-5.449-5.382-5.449C79.534,59.865,77.029,62.37,77.029,65.314L77.029,65.314z M82.29,75.149
		c-5.384,0-9.834-4.451-9.834-9.835c0-5.449,4.45-9.769,9.834-9.769c2.068,0,4.003,0.564,5.569,1.694v-1.505h4.701V74.71h-4.701
		v-1.255C86.293,74.522,84.421,75.149,82.29,75.149L82.29,75.149z"/>
	<path class="st1" d="M55.361,65.314c0,2.944,2.501,5.385,5.39,5.385c3.002,0,5.504-2.441,5.504-5.385
		c0-2.944-2.502-5.449-5.504-5.449C57.862,59.865,55.361,62.37,55.361,65.314L55.361,65.314z M66.255,49.284h4.636V74.71h-4.636
		v-1.255c-1.563,1.067-3.503,1.694-5.635,1.694c-5.386,0-9.834-4.451-9.834-9.835c0-5.449,4.448-9.769,9.834-9.769
		c2.132,0,4.01,0.564,5.635,1.694V49.284L66.255,49.284z"/>
</g>
</svg>