<?xml version="1.0" encoding="utf-8"?>
<!-- Generator: Adobe Illustrator 19.1.0, SVG Export Plug-In . SVG Version: 6.00 Build 0)  -->
<svg version="1.1" xmlns="http://www.w3.org/2000/svg" xmlns:xlink="http://www.w3.org/1999/xlink" x="0px" y="0px"
	 viewBox="0 0 37.612 37.844" enable-background="new 0 0 37.612 37.844" xml:space="preserve">
<g id="Hover">
	<g>
		<linearGradient id="SVGID_1_" gradientUnits="userSpaceOnUse" x1="18.8058" y1="37.3515" x2="18.8058" y2="0.4932">
			<stop  offset="0" style="stop-color:#808184"/>
			<stop  offset="0.2444" style="stop-color:#838487"/>
			<stop  offset="0.4556" style="stop-color:#8E8F92"/>
			<stop  offset="0.6545" style="stop-color:#A0A1A3"/>
			<stop  offset="0.8446" style="stop-color:#B9BABC"/>
			<stop  offset="1" style="stop-color:#D3D4D6"/>
		</linearGradient>
		<path fill="url(#SVGID_1_)" d="M0.492,3.133c0-1.458,1.212-2.64,2.707-2.64h31.213c1.494,0,2.707,1.182,2.707,2.64v31.578
			c0,1.458-1.213,2.641-2.707,2.641H3.199c-1.495,0-2.707-1.183-2.707-2.641V3.133L0.492,3.133z"/>
		<path fill="#808184" d="M34.413,37.844H3.199C1.434,37.844,0,36.438,0,34.711V3.133C0,1.405,1.434,0,3.199,0h31.213
			c1.764,0,3.199,1.405,3.199,3.133v31.578C37.612,36.438,36.176,37.844,34.413,37.844L34.413,37.844z M3.199,0.985
			c-1.221,0-2.215,0.963-2.215,2.148v31.578c0,1.185,0.994,2.147,2.215,2.147h31.213c1.221,0,2.213-0.963,2.213-2.147V3.133
			c0-1.185-0.992-2.148-2.213-2.148H3.199L3.199,0.985z"/>
	</g>
	<path fill-rule="evenodd" clip-rule="evenodd" fill="#FFFFFF" d="M11.595,31.347V14.703H6.062v16.644H11.595L11.595,31.347z
		 M8.829,12.431c1.929,0,3.13-1.278,3.13-2.875C11.923,7.922,10.758,6.68,8.865,6.68c-1.893,0-3.13,1.242-3.13,2.876
		c0,1.597,1.201,2.875,3.058,2.875H8.829L8.829,12.431z"/>
	<path fill-rule="evenodd" clip-rule="evenodd" fill="#FFFFFF" d="M14.655,31.347h5.533v-9.295c0-0.496,0.035-0.994,0.182-1.35
		c0.4-0.993,1.31-2.023,2.838-2.023c2.004,0,2.803,1.526,2.803,3.765v8.903h5.533v-9.543c0-5.112-2.731-7.491-6.369-7.491
		c-2.984,0-4.295,1.669-5.024,2.805h0.037v-2.414h-5.533C14.728,16.264,14.655,31.347,14.655,31.347L14.655,31.347z"/>
	<g>
		<linearGradient id="SVGID_2_" gradientUnits="userSpaceOnUse" x1="18.7584" y1="37.3515" x2="18.7584" y2="0.4932">
			<stop  offset="0" style="stop-color:#808184"/>
			<stop  offset="0.2444" style="stop-color:#838487"/>
			<stop  offset="0.4556" style="stop-color:#8E8F92"/>
			<stop  offset="0.6545" style="stop-color:#A0A1A3"/>
			<stop  offset="0.8446" style="stop-color:#B9BABC"/>
			<stop  offset="1" style="stop-color:#D3D4D6"/>
		</linearGradient>
		<path fill="url(#SVGID_2_)" d="M0.445,3.133c0-1.458,1.211-2.64,2.707-2.64h31.213c1.494,0,2.707,1.182,2.707,2.64v31.578
			c0,1.458-1.213,2.641-2.707,2.641H3.152c-1.496,0-2.707-1.183-2.707-2.641V3.133L0.445,3.133z"/>
		<path fill="#808184" d="M34.365,37.844H3.152c-1.766,0-3.199-1.405-3.199-3.133V3.133C-0.047,1.405,1.386,0,3.152,0h31.213
			c1.764,0,3.199,1.405,3.199,3.133v31.578C37.564,36.438,36.129,37.844,34.365,37.844L34.365,37.844z M3.152,0.985
			c-1.221,0-2.215,0.963-2.215,2.148v31.578c0,1.185,0.994,2.147,2.215,2.147h31.213c1.221,0,2.213-0.963,2.213-2.147V3.133
			c0-1.185-0.992-2.148-2.213-2.148H3.152L3.152,0.985z"/>
	</g>
	<g>
		<polygon fill="#FFFFFF" points="30.1,11.354 7.409,11.354 18.666,20.528 		"/>
		<polygon fill="#FFFFFF" points="18.66,21.814 6.618,11.999 6.618,26.673 30.899,26.673 30.899,11.995 		"/>
	</g>
</g>
<g id="Active">
	<g>
		<linearGradient id="SVGID_3_" gradientUnits="userSpaceOnUse" x1="18.8058" y1="37.3515" x2="18.8058" y2="0.4932">
			<stop  offset="0" style="stop-color:#0177FF"/>
			<stop  offset="0.2188" style="stop-color:#0479FF"/>
			<stop  offset="0.4078" style="stop-color:#0F7FFF"/>
			<stop  offset="0.5858" style="stop-color:#2188FF"/>
			<stop  offset="0.7571" style="stop-color:#3A95FF"/>
			<stop  offset="0.9221" style="stop-color:#5AA7FF"/>
			<stop  offset="1" style="stop-color:#6CB0FF"/>
		</linearGradient>
		<path fill="url(#SVGID_3_)" d="M0.492,3.133c0-1.458,1.212-2.64,2.707-2.64h31.213c1.494,0,2.707,1.182,2.707,2.64v31.578
			c0,1.458-1.213,2.641-2.707,2.641H3.199c-1.495,0-2.707-1.183-2.707-2.641V3.133L0.492,3.133z"/>
		<path fill="#0177FF" d="M34.413,37.844H3.199C1.434,37.844,0,36.438,0,34.711V3.133C0,1.405,1.434,0,3.199,0h31.213
			c1.764,0,3.199,1.405,3.199,3.133v31.578C37.612,36.438,36.176,37.844,34.413,37.844L34.413,37.844z M3.199,0.985
			c-1.221,0-2.215,0.963-2.215,2.148v31.578c0,1.185,0.994,2.147,2.215,2.147h31.213c1.221,0,2.213-0.963,2.213-2.147V3.133
			c0-1.185-0.992-2.148-2.213-2.148H3.199L3.199,0.985z"/>
	</g>
	<path fill="#FFFFFF" d="M29.867,30.365c0.282-0.212,0.347-0.611,0.14-0.9l-5.261-7.356c-0.206-0.29-0.604-0.357-0.896-0.157
		l-0.002-0.002l-2.025,1.448c-0.91,0.651-1.542,1.544-1.879,2.528c-1.481-1.193-2.991-2.818-4.303-4.653
		c-1.313-1.835-2.364-3.79-3.013-5.577c1.04-0.001,2.089-0.31,2.999-0.961l2.024-1.448l-0.002-0.003
		c0.283-0.212,0.348-0.611,0.141-0.9L12.53,5.027c-0.206-0.289-0.605-0.356-0.897-0.157l-0.002-0.002L11.62,4.876c0,0,0,0,0,0l0,0
		l-2.013,1.44c-1.603,1.147-2.355,3.041-2.122,4.868c-0.446,3.588,1.531,8.526,4.512,12.694c2.981,4.167,7.014,7.633,10.553,8.371
		c1.654,0.812,3.69,0.713,5.294-0.434l2.013-1.44l0,0c0.001-0.001,0.001-0.001,0.002-0.002l0.01-0.007L29.867,30.365z"/>
</g>
</svg>
