<!-- Generator: Adobe Illustrator 18.1.1, SVG Export Plug-In  -->
<svg version="1.1"
	 xmlns="http://www.w3.org/2000/svg" xmlns:xlink="http://www.w3.org/1999/xlink" xmlns:a="http://ns.adobe.com/AdobeSVGViewerExtensions/3.0/"
	 x="0px" y="0px" width="164.6px" height="10.9px" viewBox="0 0 164.6 10.9" enable-background="new 0 0 164.6 10.9"
	 xml:space="preserve">
<defs>
</defs>
<g>
	<path fill-rule="evenodd" clip-rule="evenodd" fill="#7F7F7F" d="M71.6,5.5c0,3-2.5,5.4-5.5,5.4c-3,0-5.4-2.5-5.4-5.5
		c0-3,2.5-5.4,5.5-5.4C69.2,0,71.6,2.4,71.6,5.5z"/>
	<path fill-rule="evenodd" clip-rule="evenodd" fill="#7F7F7F" d="M87.7,5.5c0,3-2.5,5.4-5.5,5.4c-3,0-5.4-2.5-5.4-5.5
		c0-3,2.5-5.4,5.5-5.4C85.4,0,87.8,2.4,87.7,5.5z"/>
	<path fill-rule="evenodd" clip-rule="evenodd" fill="#7F7F7F" d="M103.9,5.5c0,3-2.5,5.4-5.5,5.4c-3,0-5.4-2.5-5.4-5.5
		c0-3,2.5-5.4,5.5-5.4C101.5,0,103.9,2.4,103.9,5.5z"/>
	<g>
		<path fill-rule="evenodd" clip-rule="evenodd" fill="#7F7F7F" d="M50,9.9c-2.4,0-4.4-2-4.4-4.5c0-2.4,2-4.4,4.5-4.4
			c2.4,0,4.4,2,4.4,4.4C54.5,7.9,52.4,9.9,50,9.9z"/>
		<path fill-rule="evenodd" clip-rule="evenodd" fill="#7F7F7F" d="M33.9,2.3c1.8,0,3.2,1.4,3.2,3.2c0,1.8-1.5,3.2-3.3,3.2
			c-1.8,0-3.2-1.5-3.1-3.2C30.7,3.6,32.2,2.2,33.9,2.3z"/>
		<path fill-rule="evenodd" clip-rule="evenodd" fill="#7F7F7F" d="M20.2,5.5c0,1.4-1.1,2.5-2.5,2.5c-1.4,0-2.5-1.1-2.5-2.5
			C15.3,4,16.4,3,17.8,3C19.2,3,20.3,4.1,20.2,5.5z"/>
		<path fill-rule="evenodd" clip-rule="evenodd" fill="#7F7F7F" d="M1.6,3.8c0.9,0,1.7,0.8,1.6,1.7c0,0.9-0.8,1.6-1.6,1.6
			C0.7,7.1,0,6.3,0,5.4C0,4.5,0.8,3.8,1.6,3.8z"/>
	</g>
	<g>
		<path fill-rule="evenodd" clip-rule="evenodd" fill="#7F7F7F" d="M114.6,1c2.4,0,4.4,2,4.4,4.5c0,2.4-2,4.4-4.5,4.4
			c-2.4,0-4.4-2-4.4-4.4C110.1,3,112.1,1,114.6,1z"/>
		<path fill-rule="evenodd" clip-rule="evenodd" fill="#7F7F7F" d="M130.7,8.6c-1.8,0-3.2-1.4-3.2-3.2c0-1.8,1.5-3.2,3.3-3.2
			c1.8,0,3.2,1.5,3.1,3.2C133.9,7.3,132.4,8.7,130.7,8.6z"/>
		<path fill-rule="evenodd" clip-rule="evenodd" fill="#7F7F7F" d="M144.3,5.4c0-1.4,1.1-2.5,2.5-2.5c1.4,0,2.5,1.1,2.5,2.5
			c0,1.4-1.1,2.4-2.5,2.4C145.4,7.9,144.3,6.8,144.3,5.4z"/>
		<path fill-rule="evenodd" clip-rule="evenodd" fill="#7F7F7F" d="M162.9,7.1c-0.9,0-1.7-0.8-1.6-1.7c0-0.9,0.8-1.6,1.6-1.6
			c0.9,0,1.7,0.8,1.6,1.7C164.6,6.4,163.8,7.1,162.9,7.1z"/>
	</g>
</g>
</svg>
